<?xml version="1.0" encoding="UTF-8"?>
<svg width="24px" height="24px" viewBox="0 0 24 24" version="1.1" xmlns="http://www.w3.org/2000/svg" xmlns:xlink="http://www.w3.org/1999/xlink">
    <!-- Generator: Sketch 41 (35326) - http://www.bohemiancoding.com/sketch -->
    <title>cart_icon</title>
    <desc>Created with Sketch.</desc>
    <defs></defs>
    <g id="Symbols" stroke="none" stroke-width="1" fill="none" fill-rule="evenodd">
        <g id="button" transform="translate(-8.000000, -8.000000)">
            <g id="cart_icon">
                <g transform="translate(8.000000, 8.000000)">
                    <rect id="bg" fill="#FFFFFF" opacity="0" x="0" y="0" width="24" height="24"></rect>
                    <g id="icon" transform="translate(3.000000, 4.000000)" fill="#333333">
                        <path d="M5.2165464,4.50405981 L7.08049879,9.87756932 L14.8078863,8.88771457 L15.7199973,4.50405981 L5.2165464,4.50405981 Z M1.36956205,1.1610353 L1.50167371,1.54835598 L1.59124712,1.54835598 C1.49463413,1.43431527 1.4189321,1.30335111 1.36956205,1.1610353 Z M17.8395983,2.79443685 C17.9774227,2.97688721 18.0303307,3.21738082 17.9830713,3.4455744 L16.5872039,10.1541925 C16.5192707,10.476847 16.2699818,10.7166975 15.9639439,10.7559691 L6.2915331,11.9949755 C6.26272554,11.99795 6.2334661,12 6.20465854,12 C5.90483399,12 5.6313693,11.801431 5.52464954,11.4950157 L2.07437015,1.54835598 L0.725272647,1.54835598 C0.324866414,1.54835598 0,1.20158373 0,0.774137792 C0,0.346772249 0.324866414,0 0.725272647,0 L2.57912376,0 C2.88275166,0 3.15384396,0.202146475 3.25909511,0.50554707 L3.94079868,2.50405981 L17.1107859,2.50405981 C17.49387,2.50405981 17.7016233,2.61045904 17.8395983,2.79443685 Z" id="Path"></path>
                        <path d="M14.0127806,13 C12.9016743,13 12,13.9038937 12,15.0150379 C12,16.1089716 12.9016743,17 14.0127806,17 C15.1090189,17 16,16.1089716 16,15.0150379 C16.0000426,13.8845957 15.1271674,13 14.0127806,13 L14.0127806,13 Z" id="Path"></path>
                        <path d="M4.98478942,13 C3.89060736,13 3,13.9038937 3,15.0150379 C3,16.1089716 3.89052214,17 4.98478942,17 C6.11471848,17 7,16.1271194 7,15.0150379 C7.00004261,13.8845957 6.11476108,13 4.98478942,13 L4.98478942,13 Z" id="Path"></path>
                    </g>
                </g>
            </g>
        </g>
    </g>
</svg>