<?xml version="1.0" encoding="UTF-8"?>
<svg width="24px" height="24px" viewBox="0 0 24 24" version="1.1" xmlns="http://www.w3.org/2000/svg" xmlns:xlink="http://www.w3.org/1999/xlink">
    <!-- Generator: Sketch 41.1 (35376) - http://www.bohemiancoding.com/sketch -->
    <title>bg</title>
    <desc>Created with Sketch.</desc>
    <defs></defs>
    <g id="Page-1" stroke="none" stroke-width="1" fill="none" fill-rule="evenodd">
        <g id="1280" transform="translate(-1216.000000, -808.000000)">
            <g id="the_preview" transform="translate(24.000000, 784.000000)">
                <g id="info" transform="translate(821.000000, 7.000000)">
                    <g id="icon_close" transform="translate(371.000000, 17.000000)">
                        <rect id="bg" fill="#FFFFFF" opacity="0" x="0" y="0" width="24" height="24"></rect>
                        <path d="M12.0002693,9.87897951 L7.39763926,5.27634944 C6.82157487,4.70028505 5.86854135,4.69699899 5.28275491,5.28278543 C4.69288448,5.87265586 4.69408698,6.81543785 5.27631892,7.39766978 L9.87894899,12.0002999 L5.27631892,16.6029299 C4.70025453,17.1789943 4.69696848,18.1320278 5.28275491,18.7178143 C5.87262535,19.3076847 6.81540733,19.3064822 7.39763926,18.7242503 L12.0002693,14.1216202 L16.6028994,18.7242503 C17.1789638,19.3003147 18.1319973,19.3036007 18.7177838,18.7178143 C19.3076542,18.1279438 19.3064517,17.1851619 18.7242197,16.6029299 L14.1215897,12.0002999 L18.7242197,7.39766978 C19.3002841,6.82160539 19.3035702,5.86857187 18.7177838,5.28278543 C18.1279133,4.692915 17.1851313,4.6941175 16.6028994,5.27634944 L12.0002693,9.87897951 Z" id="shape" fill="#B2B2C9"></path>
                    </g>
                </g>
            </g>
        </g>
    </g>
</svg>