<?xml version="1.0" encoding="UTF-8" standalone="no"?>
<svg width="96px" height="40px" viewBox="0 0 96 40" version="1.1" xmlns="http://www.w3.org/2000/svg" xmlns:xlink="http://www.w3.org/1999/xlink">
    <!-- Generator: Sketch 40.1 (33804) - http://www.bohemiancoding.com/sketch -->
    <title>h</title>
    <desc>Created with Sketch.</desc>
    <defs></defs>
    <g id="Page-1" stroke="none" stroke-width="1" fill="none" fill-rule="evenodd">
        <g id="export" transform="translate(-282.000000, -628.000000)" fill="#315EFB">
            <g id="h" transform="translate(282.000000, 628.000000)">
                <path d="M8.124,17.0080061 L8.124,15.1320061 L3,15.1320061 L3,25.1000061 L4.918,25.1000061 L4.918,17.0080061 L8.124,17.0080061 Z M14.2362355,14.9640061 C12.8362355,14.9640061 11.6462355,15.4680061 10.6662355,16.4760061 C9.68623547,17.4700061 9.19623547,18.6880061 9.19623547,20.1160061 C9.19623547,21.5440061 9.68623547,22.7620061 10.6662355,23.7560061 C11.6462355,24.7500061 12.8362355,25.2540061 14.2362355,25.2540061 C15.6502355,25.2540061 16.8402355,24.7640061 17.8202355,23.7700061 C18.8002355,22.7760061 19.2902355,21.5580061 19.2902355,20.1160061 C19.2902355,18.6740061 18.8002355,17.4560061 17.8202355,16.4620061 C16.8402355,15.4680061 15.6502355,14.9640061 14.2362355,14.9640061 L14.2362355,14.9640061 Z M14.2362355,16.8540061 C15.1462355,16.8540061 15.8882355,17.1760061 16.4622355,17.8060061 C17.0362355,18.4360061 17.3302355,19.2060061 17.3302355,20.1160061 C17.3302355,21.0260061 17.0362355,21.7960061 16.4622355,22.4260061 C15.8882355,23.0560061 15.1462355,23.3640061 14.2362355,23.3640061 C13.3262355,23.3640061 12.5842355,23.0560061 12.0102355,22.4260061 C11.4362355,21.7960061 11.1422355,21.0260061 11.1422355,20.1160061 C11.1422355,19.2060061 11.4362355,18.4360061 12.0102355,17.8060061 C12.5982355,17.1760061 13.3402355,16.8540061 14.2362355,16.8540061 L14.2362355,16.8540061 Z M24.7724709,16.9940061 C25.8364709,16.9940061 26.5644709,17.5540061 26.5644709,18.4360061 C26.5644709,19.3320061 25.8644709,19.9200061 24.7864709,19.9200061 L23.7924709,19.9200061 L23.7924709,16.9940061 L24.7724709,16.9940061 Z M21.8884709,25.1000061 L23.7924709,25.1000061 L23.7924709,21.7960061 L24.6604709,21.7960061 C25.7804709,21.7960061 26.7044709,21.5160061 27.4184709,20.9560061 C28.1464709,20.3820061 28.5104709,19.5420061 28.5104709,18.4360061 C28.5104709,17.4840061 28.1884709,16.7000061 27.5304709,16.0700061 C26.8724709,15.4400061 25.9624709,15.1320061 24.8004709,15.1320061 L21.8884709,15.1320061 L21.8884709,25.1000061 Z M35.5467064,14.9640061 C34.1467064,14.9640061 32.9567064,15.4680061 31.9767064,16.4760061 C30.9967064,17.4700061 30.5067064,18.6880061 30.5067064,20.1160061 C30.5067064,21.5440061 30.9967064,22.7620061 31.9767064,23.7560061 C32.9567064,24.7500061 34.1467064,25.2540061 35.5467064,25.2540061 C36.9607064,25.2540061 38.1507064,24.7640061 39.1307064,23.7700061 C40.1107064,22.7760061 40.6007064,21.5580061 40.6007064,20.1160061 C40.6007064,18.6740061 40.1107064,17.4560061 39.1307064,16.4620061 C38.1507064,15.4680061 36.9607064,14.9640061 35.5467064,14.9640061 L35.5467064,14.9640061 Z M35.5467064,16.8540061 C36.4567064,16.8540061 37.1987064,17.1760061 37.7727064,17.8060061 C38.3467064,18.4360061 38.6407064,19.2060061 38.6407064,20.1160061 C38.6407064,21.0260061 38.3467064,21.7960061 37.7727064,22.4260061 C37.1987064,23.0560061 36.4567064,23.3640061 35.5467064,23.3640061 C34.6367064,23.3640061 33.8947064,23.0560061 33.3207064,22.4260061 C32.7467064,21.7960061 32.4527064,21.0260061 32.4527064,20.1160061 C32.4527064,19.2060061 32.7467064,18.4360061 33.3207064,17.8060061 C33.9087064,17.1760061 34.6507064,16.8540061 35.5467064,16.8540061 L35.5467064,16.8540061 Z M50.1289419,22.4680061 C49.3309419,23.0700061 48.5609419,23.3780061 47.8469419,23.3780061 C46.9509419,23.3780061 46.2089419,23.0560061 45.6209419,22.4260061 C45.0469419,21.7960061 44.7529419,21.0260061 44.7529419,20.1160061 C44.7529419,19.2060061 45.0469419,18.4360061 45.6209419,17.8060061 C46.2089419,17.1760061 46.9509419,16.8540061 47.8469419,16.8540061 C48.5889419,16.8540061 49.3449419,17.1620061 50.1289419,17.7920061 L50.1289419,15.5520061 C49.3449419,15.1600061 48.5889419,14.9640061 47.8469419,14.9640061 C46.4469419,14.9640061 45.2569419,15.4680061 44.2629419,16.4620061 C43.2829419,17.4560061 42.7929419,18.6740061 42.7929419,20.1160061 C42.7929419,21.5440061 43.2829419,22.7620061 44.2629419,23.7560061 C45.2569419,24.7500061 46.4469419,25.2540061 47.8469419,25.2540061 C48.5889419,25.2540061 49.3449419,25.0580061 50.1289419,24.6660061 L50.1289419,22.4680061 Z M54.6731774,21.8520061 C54.6731774,21.5020061 54.6591774,21.0820061 54.6451774,20.8440061 L54.7151774,20.8440061 C54.9671774,21.2360061 55.1771774,21.5300061 55.3591774,21.7260061 L58.0331774,25.1000061 L60.5251774,25.1000061 L56.3111774,19.8500061 L60.3291774,15.1320061 L57.8791774,15.1320061 L55.3591774,18.1560061 C55.1771774,18.3520061 54.9671774,18.6460061 54.7151774,19.0380061 L54.6451774,19.0380061 C54.6591774,18.8000061 54.6731774,18.4920061 54.6731774,18.1420061 L54.6731774,15.1320061 L52.7691774,15.1320061 L52.7691774,25.1000061 L54.6731774,25.1000061 L54.6731774,21.8520061 Z M66.9034128,14.9640061 C65.5034128,14.9640061 64.3134128,15.4680061 63.3334128,16.4760061 C62.3534128,17.4700061 61.8634128,18.6880061 61.8634128,20.1160061 C61.8634128,21.5440061 62.3534128,22.7620061 63.3334128,23.7560061 C64.3134128,24.7500061 65.5034128,25.2540061 66.9034128,25.2540061 C68.3174128,25.2540061 69.5074128,24.7640061 70.4874128,23.7700061 C71.4674128,22.7760061 71.9574128,21.5580061 71.9574128,20.1160061 C71.9574128,18.6740061 71.4674128,17.4560061 70.4874128,16.4620061 C69.5074128,15.4680061 68.3174128,14.9640061 66.9034128,14.9640061 L66.9034128,14.9640061 Z M66.9034128,16.8540061 C67.8134128,16.8540061 68.5554128,17.1760061 69.1294128,17.8060061 C69.7034128,18.4360061 69.9974128,19.2060061 69.9974128,20.1160061 C69.9974128,21.0260061 69.7034128,21.7960061 69.1294128,22.4260061 C68.5554128,23.0560061 67.8134128,23.3640061 66.9034128,23.3640061 C65.9934128,23.3640061 65.2514128,23.0560061 64.6774128,22.4260061 C64.1034128,21.7960061 63.8094128,21.0260061 63.8094128,20.1160061 C63.8094128,19.2060061 64.1034128,18.4360061 64.6774128,17.8060061 C65.2654128,17.1760061 66.0074128,16.8540061 66.9034128,16.8540061 L66.9034128,16.8540061 Z M74.5556483,25.1000061 L76.4876483,25.1000061 L76.4876483,17.0080061 L80.0436483,17.0080061 L80.0436483,25.1000061 L81.9756483,25.1000061 L81.9756483,15.1320061 L74.5556483,15.1320061 L74.5556483,25.1000061 Z M86.9118838,18.9260061 L86.9118838,15.1320061 L84.9798838,15.1320061 L84.9798838,25.1000061 L88.4938838,25.1000061 C89.4318838,25.1000061 90.2298838,24.8200061 90.8738838,24.2740061 C91.5178838,23.7140061 91.8398838,22.9580061 91.8398838,22.0200061 C91.8398838,21.0820061 91.5178838,20.3260061 90.8738838,19.7660061 C90.2298838,19.2060061 89.4318838,18.9260061 88.4938838,18.9260061 L86.9118838,18.9260061 Z M86.9118838,23.2940061 L86.9118838,20.7460061 L88.4238838,20.7460061 C89.2638838,20.7460061 89.8518838,21.2360061 89.8518838,22.0200061 C89.8518838,22.8040061 89.2638838,23.2940061 88.4238838,23.2940061 L86.9118838,23.2940061 Z M93.2538838,15.1320061 L93.2538838,25.1000061 L95.1718838,25.1000061 L95.1718838,15.1320061 L93.2538838,15.1320061 Z" id="horoscopes"></path>
            </g>
        </g>
    </g>
</svg>