<?xml version="1.0" encoding="UTF-8" standalone="no"?>
<svg width="20px" height="20px" viewBox="0 0 20 20" version="1.1" xmlns="http://www.w3.org/2000/svg" xmlns:xlink="http://www.w3.org/1999/xlink">
    <!-- Generator: Sketch 40 (33762) - http://www.bohemiancoding.com/sketch -->
    <title>icon_ok</title>
    <desc>Created with Sketch.</desc>
    <defs></defs>
    <g id="Page-1" stroke="none" stroke-width="1" fill="none" fill-rule="evenodd">
        <g id="n" transform="translate(-839.000000, -1064.000000)">
            <g id="footer" transform="translate(0.000000, 1029.000000)">
                <g id="social" transform="translate(754.000000, 30.000000)">
                    <g id="ok" transform="translate(80.000000, 0.000000)">
                        <g id="icon_ok" transform="translate(5.000000, 5.000000)">
                            <rect id="bg" x="0" y="0" width="20" height="20"></rect>
                            <g id="shape" transform="translate(6.000000, 3.000000)" fill="#FFFFFF">
                                <path d="M3.99999234,4.5244451 C4.73070142,4.5244451 5.32496165,3.93011267 5.32496165,3.19934894 C5.32496165,2.46930521 4.73070142,1.87485022 3.99999234,1.87485022 C3.2700185,1.87485022 2.67502304,2.46930521 2.67502304,3.19934894 C2.67502304,3.93011267 3.2700185,4.5244451 3.99999234,4.5244451 L3.99999234,4.5244451 Z M3.99999234,0 C5.76511185,0 7.2,1.43502553 7.2,3.19934894 C7.2,4.96445363 5.76511185,6.4 3.99999234,6.4 C2.23525577,6.4 0.8,4.96445363 0.8,3.19934894 C0.8,1.43502553 2.23525577,0 3.99999234,0 L3.99999234,0 Z" id="Shape" transform="translate(4.000000, 3.200000) scale(1, -1) translate(-4.000000, -3.200000) "></path>
                                <path d="M5.44212952,10.0822509 C6.16777653,10.2435401 6.86757521,10.5235163 7.51197487,10.9184351 C7.99969784,11.2182313 8.14673473,11.8471626 7.8393529,12.3229424 C7.53238055,12.7997539 6.88796383,12.9431702 6.39937072,12.6433573 C4.9394094,11.7476466 3.05951087,11.7480293 1.60040263,12.6433573 C1.11174128,12.9431702 0.467409863,12.7997539 0.160761683,12.3229424 C-0.146620145,11.8467798 7.2656629e-06,11.2182313 0.487798478,10.9184351 C1.13214695,10.5239157 1.83192858,10.2435401 2.55759265,10.0822509 L0.564848674,8.13859317 C0.157434671,7.74081199 0.157434671,7.09602138 0.565258153,6.69832341 C0.769400225,6.49960755 1.03638018,6.40007489 1.3033772,6.40007489 C1.57083487,6.40007489 1.83822431,6.49959091 2.04234932,6.69832341 L3.99963928,8.60824889 L5.95865247,6.69832341 C6.36606647,6.30055886 7.02708413,6.30055886 7.43489055,6.69832341 C7.84310645,7.09602138 7.84310645,7.74127795 7.43489055,8.13859317 L5.44214658,10.0822509" id="Shape" transform="translate(4.000000, 9.600000) scale(1, -1) translate(-4.000000, -9.600000) "></path>
                            </g>
                        </g>
                    </g>
                </g>
            </g>
        </g>
    </g>
</svg>