<?xml version="1.0" encoding="UTF-8" standalone="no"?>
<svg width="20px" height="20px" viewBox="0 0 20 20" version="1.1" xmlns="http://www.w3.org/2000/svg" xmlns:xlink="http://www.w3.org/1999/xlink">
    <!-- Generator: Sketch 40 (33762) - http://www.bohemiancoding.com/sketch -->
    <title>icon_fb</title>
    <desc>Created with Sketch.</desc>
    <defs></defs>
    <g id="Page-1" stroke="none" stroke-width="1" fill="none" fill-rule="evenodd">
        <g id="n" transform="translate(-799.000000, -1064.000000)">
            <g id="footer" transform="translate(0.000000, 1029.000000)">
                <g id="social" transform="translate(754.000000, 30.000000)">
                    <g id="fb" transform="translate(40.000000, 0.000000)">
                        <g id="icon_fb" transform="translate(5.000000, 5.000000)">
                            <rect id="bg" opacity="0" x="0" y="0" width="20" height="20"></rect>
                            <path d="M10.5528,11.0610526 L12.608,11.0610526 L12.9167,8.75663158 L10.5528,8.75663158 L10.5528,7.27942105 C10.5528,6.61026316 10.739,6.15389474 11.7323,6.15389474 L13,6.15457895 L13,4.08552632 C12.7809,4.05747368 12.0284,4 11.1527,4 C9.3257,4 8.0755,5.07215789 8.0755,7.05089474 L8.0755,8.75663158 L6,8.75663158 L6,11.0610526 L8.0748,11.0610526 L8.0748,17 L10.5528,17 L10.5528,11.0610526 Z" id="fb" fill="#FFFFFF"></path>
                        </g>
                    </g>
                </g>
            </g>
        </g>
    </g>
</svg>