<?xml version="1.0" encoding="UTF-8" standalone="no"?>
<svg width="20px" height="20px" viewBox="0 0 20 20" version="1.1" xmlns="http://www.w3.org/2000/svg" xmlns:xlink="http://www.w3.org/1999/xlink">
    <!-- Generator: Sketch 40 (33762) - http://www.bohemiancoding.com/sketch -->
    <title>icon_tw</title>
    <desc>Created with Sketch.</desc>
    <defs></defs>
    <g id="Page-1" stroke="none" stroke-width="1" fill="none" fill-rule="evenodd">
        <g id="n" transform="translate(-879.000000, -1064.000000)">
            <g id="footer" transform="translate(0.000000, 1029.000000)">
                <g id="social" transform="translate(754.000000, 30.000000)">
                    <g id="tw" transform="translate(120.000000, 0.000000)">
                        <g id="icon_tw" transform="translate(5.000000, 5.000000)">
                            <rect id="bg" opacity="0" x="0" y="0" width="20" height="20"></rect>
                            <path d="M15.4681408,6.78159764 C16.0188302,6.42956818 16.4417023,5.87216286 16.6408464,5.20801279 C16.125535,5.53392655 15.5547313,5.77064126 14.9472183,5.89822785 C14.4606752,5.34543714 13.7675226,5 13.000428,5 C11.527437,5 10.3332382,6.27348252 10.3332382,7.8442276 C10.3332382,8.06714916 10.3568711,8.28423906 10.40233,8.49240399 C8.18568711,8.37379308 6.22044698,7.24143675 4.90499287,5.52064051 C4.67541607,5.9407229 4.54388968,6.42931463 4.54388968,6.95056366 C4.54388968,7.93733133 5.0147884,8.80792218 5.73043272,9.31796427 C5.29320019,9.30320764 4.88197813,9.17526608 4.52234903,8.96223298 C4.52215882,8.97409915 4.52215882,8.98601602 4.52215882,8.9979836 C4.52215882,10.376081 5.44151213,11.5256788 6.66162625,11.7869372 C6.43780314,11.8519475 6.20218735,11.886684 5.95891583,11.886684 C5.7870661,11.886684 5.61997147,11.8688847 5.45715644,11.8356696 C5.79652877,12.9656933 6.78150262,13.7880081 7.94859724,13.8109798 C7.03580599,14.5738117 5.88578222,15.0285291 4.63623395,15.0285291 C4.42097004,15.0285291 4.2086543,15.0150909 4,14.9888231 C5.18031384,15.7958235 6.58226343,16.2666667 8.08844508,16.2666667 C12.9941988,16.2666667 15.6768426,11.9326273 15.6768426,8.17404604 C15.6768426,8.05071909 15.6742748,7.92805138 15.6691393,7.80609361 C16.1902045,7.40507821 16.6424156,6.90411322 17,6.33372611 C16.5216833,6.55994383 16.0076557,6.71283475 15.4681408,6.78159764 Z" id="tw" fill="#FFFFFF"></path>
                        </g>
                    </g>
                </g>
            </g>
        </g>
    </g>
</svg>