<?xml version="1.0" encoding="UTF-8" standalone="no"?>
<svg width="20px" height="20px" viewBox="0 0 20 20" version="1.1" xmlns="http://www.w3.org/2000/svg" xmlns:xlink="http://www.w3.org/1999/xlink">
    <!-- Generator: Sketch 40 (33762) - http://www.bohemiancoding.com/sketch -->
    <title>icon_vk</title>
    <desc>Created with Sketch.</desc>
    <defs></defs>
    <g id="Page-1" stroke="none" stroke-width="1" fill="none" fill-rule="evenodd">
        <g id="n" transform="translate(-759.000000, -1064.000000)">
            <g id="footer" transform="translate(0.000000, 1029.000000)">
                <g id="social" transform="translate(754.000000, 30.000000)">
                    <g id="vk">
                        <g id="icon_vk" transform="translate(5.000000, 5.000000)">
                            <rect id="bg" opacity="0" x="0" y="0" width="20" height="20"></rect>
                            <path d="M9.84956392,14.4592368 L10.6868407,14.4592368 C10.6868407,14.4592368 10.9394903,14.429601 11.0681483,14.2821278 C11.1874736,14.1459443 11.1834738,13.8912178 11.1834738,13.8912178 C11.1834738,13.8912178 11.1668083,12.6860297 11.6881064,12.5103319 C12.2020717,12.3374566 12.8613605,13.662599 13.5606466,14.1727577 C14.0892776,14.5580227 14.4912504,14.4592368 14.4912504,14.4592368 L16.3611241,14.460648 C16.3611241,14.460648 17.3390581,14.3816193 16.8750894,13.5652243 C16.837092,13.4988966 16.6051076,12.961219 15.4845167,11.8569337 C14.3125958,10.7018441 14.4699185,10.8888318 15.8818232,8.88982831 C16.7417651,7.67264477 17.0857418,6.9296336 16.9784158,6.61140185 C16.875756,6.30798798 16.2477984,6.36020339 16.2477984,6.36020339 L14.1379409,6.35949778 C14.1379409,6.35949778 13.9819515,6.34397428 13.8666259,6.41665248 C13.7533003,6.48862508 13.6806385,6.67561269 13.6806385,6.67561269 C13.6806385,6.67561269 13.3473277,7.63454163 12.9033577,8.43611873 C11.965421,10.1260634 11.5907796,10.2156763 11.4374567,10.1105399 C11.0814807,9.86569197 11.1701414,9.1276201 11.1701414,8.60334917 C11.1701414,6.9656199 11.4041256,6.28258589 10.7148388,6.10547687 C10.4861876,6.04691094 10.3175323,6.00810218 9.73223851,6.00175166 C8.98095592,5.99398991 8.34499887,6.00457412 7.98568981,6.19156173 C7.74570602,6.31645535 7.56105182,6.59376151 7.67371088,6.60928501 C7.8130348,6.62904219 8.12768022,6.69960356 8.29500225,6.94162904 C8.51098766,7.25280465 8.5029882,7.95277339 8.5029882,7.95277339 C8.5029882,7.95277339 8.62697983,9.88121547 8.21367441,10.1204185 C7.92969359,10.2848265 7.54105317,9.94966 6.70510963,8.41565594 C6.27713854,7.63030795 5.95382704,6.74546844 5.95382704,6.74546844 C5.95382704,6.74546844 5.89116461,6.5831773 5.77983879,6.49638683 C5.64518122,6.39125039 5.4565273,6.35808655 5.4565273,6.35808655 L3.45666237,6.35879217 C3.45666237,6.35879217 3.15601601,6.36796514 3.04602344,6.50626542 C2.94736343,6.6297478 3.03802398,6.88517994 3.03802398,6.88517994 C3.03802398,6.88517994 4.60391822,10.8055693 6.37713178,12.7657641 C8.00368859,14.5636676 9.84956392,14.4592368 9.84956392,14.4592368 L9.84956392,14.4592368 Z" id="vk" fill="#FFFFFF"></path>
                        </g>
                    </g>
                </g>
            </g>
        </g>
    </g>
</svg>