<?xml version="1.0" encoding="UTF-8" standalone="no"?>
<svg width="20px" height="20px" viewBox="0 0 20 20" version="1.1" xmlns="http://www.w3.org/2000/svg" xmlns:xlink="http://www.w3.org/1999/xlink">
    <!-- Generator: Sketch 40 (33762) - http://www.bohemiancoding.com/sketch -->
    <title>icon_lj</title>
    <desc>Created with Sketch.</desc>
    <defs></defs>
    <g id="Page-1" stroke="none" stroke-width="1" fill="none" fill-rule="evenodd">
        <g id="n" transform="translate(-919.000000, -1064.000000)">
            <g id="footer" transform="translate(0.000000, 1029.000000)">
                <g id="social" transform="translate(754.000000, 30.000000)">
                    <g id="lj" transform="translate(160.000000, 0.000000)">
                        <g id="icon_lj" transform="translate(5.000000, 5.000000)">
                            <rect id="bg" opacity="0" x="0" y="0" width="20" height="20"></rect>
                            <path d="M4.43277823,7.82576867 L3,6.39438873 C3.65323333,4.87857035 4.86411623,3.66162604 6.37806955,3 L7.8090282,4.42909361 C8.60214019,4.0863909 9.47591553,3.89475714 10.3953846,3.89475714 C13.9930636,3.89475714 16.9099998,6.81215965 16.9099998,10.4098387 C16.9099998,14.0084503 13.9925973,16.9253865 10.3953846,16.9253865 C6.79677299,16.9253865 3.88030301,14.0093828 3.88030301,10.4098387 C3.88030301,9.48794812 4.08622287,8.62289516 4.43286571,7.8272535 C4.43249768,7.82642032 4.43263794,7.82609449 4.43277823,7.82576867 Z M4.43277823,7.82576867 L4.43328997,7.82627991 C4.43314852,7.82660442 4.4330071,7.82692895 4.43286571,7.8272535 L9.7314272,13.1160244 C10.3841943,11.6002061 11.5960097,10.3832617 13.1062329,9.72116944 L13.1071654,9.72116944 L7.80996073,4.43189118 L7.80762942,4.43142492 C6.29633215,5.09337498 5.08564479,6.30947262 4.43277823,7.82576867 Z M13.4857703,11.5279354 C12.6082649,11.9121355 11.9051415,12.6203877 11.5251378,13.4997582 L13.999125,14.0112478 L13.4857703,11.5279354 Z" id="lj" fill="#FFFFFF"></path>
                        </g>
                    </g>
                </g>
            </g>
        </g>
    </g>
</svg>