<?xml version="1.0" encoding="UTF-8" standalone="no"?>
<svg width="20px" height="20px" viewBox="0 0 20 20" version="1.1" xmlns="http://www.w3.org/2000/svg" xmlns:xlink="http://www.w3.org/1999/xlink">
    <!-- Generator: Sketch 40 (33762) - http://www.bohemiancoding.com/sketch -->
    <title>icon_yt</title>
    <desc>Created with Sketch.</desc>
    <defs>
        <polygon id="path-1" points="0.000821917808 10.317469 13.9924658 10.317469 13.9924658 0.00828049576 0.000821917808 0.00828049576"></polygon>
    </defs>
    <g id="Page-1" stroke="none" stroke-width="1" fill="none" fill-rule="evenodd">
        <g id="n" transform="translate(-959.000000, -1064.000000)">
            <g id="footer" transform="translate(0.000000, 1029.000000)">
                <g id="social" transform="translate(754.000000, 30.000000)">
                    <g id="youtube" transform="translate(200.000000, 0.000000)">
                        <g id="icon_yt" transform="translate(5.000000, 5.000000)">
                            <rect id="bg" opacity="0" x="0" y="0" width="20" height="20"></rect>
                            <g id="shape" transform="translate(3.000000, 5.000000)">
                                <mask id="mask-2" fill="white">
                                    <use xlink:href="#path-1"></use>
                                </mask>
                                <g id="Clip-2"></g>
                                <path d="M5.55167123,7.06469798 L5.5510274,2.94597652 L9.33184932,5.01251272 L5.55167123,7.06469798 L5.55167123,7.06469798 Z M13.8527397,2.23246184 C13.8527397,2.23246184 13.7160274,1.22231311 13.2964658,0.777476843 C12.7643836,0.193637312 12.1679726,0.190738421 11.8944658,0.156568819 C9.93642466,0.00828049576 6.99926027,0.00828049576 6.99926027,0.00828049576 L6.99317808,0.00828049576 C6.99317808,0.00828049576 4.05608219,0.00828049576 2.0979726,0.156568819 C1.82445205,0.190738421 1.22826027,0.193637312 0.695986301,0.777476843 C0.276452055,1.22231311 0.139931507,2.23246184 0.139931507,2.23246184 C0.139931507,2.23246184 0,3.41871102 0,4.60494586 L0,5.71704371 C0,6.90326419 0.139931507,8.08949902 0.139931507,8.08949902 C0.139931507,8.08949902 0.276452055,9.0996621 0.695986301,9.54449837 C1.22826027,10.1283523 1.92743836,10.1098826 2.23884932,10.171075 C3.35826027,10.283529 6.99623288,10.3183301 6.99623288,10.3183301 C6.99623288,10.3183301 9.93642466,10.3136947 11.8944658,10.1654207 C12.1679726,10.1312368 12.7643836,10.1283523 13.2964658,9.54449837 C13.7160274,9.0996621 13.8527397,8.08949902 13.8527397,8.08949902 C13.8527397,8.08949902 13.9924658,6.90326419 13.9924658,5.71704371 L13.9924658,4.60494586 C13.9924658,3.41871102 13.8527397,2.23246184 13.8527397,2.23246184 L13.8527397,2.23246184 Z" id="Fill-3" fill="#FFFFFF" mask="url(#mask-2)"></path>
                            </g>
                        </g>
                    </g>
                </g>
            </g>
        </g>
    </g>
</svg>