<?xml version="1.0" encoding="UTF-8" standalone="no"?>
<svg width="207px" height="40px" viewBox="0 0 207 40" version="1.1" xmlns="http://www.w3.org/2000/svg" xmlns:xlink="http://www.w3.org/1999/xlink">
    <!-- Generator: Sketch 40 (33762) - http://www.bohemiancoding.com/sketch -->
    <title>logo_horoscopes</title>
    <desc>Created with Sketch.</desc>
    <defs></defs>
    <g id="UI-" stroke="none" stroke-width="1" fill="none" fill-rule="evenodd">
        <g id="IV-Screen-1280-x-760-" transform="translate(-118.000000, -60.000000)" fill="#315EFB">
            <g id="horoscopes" transform="translate(118.000000, 60.000000)">
                <g id="logo" transform="translate(0.000000, 8.000000)">
                    <path d="M119.931988,9.0080061 L119.931988,7.1320061 L114.807988,7.1320061 L114.807988,17.1000061 L116.725988,17.1000061 L116.725988,9.0080061 L119.931988,9.0080061 Z M126.044223,6.9640061 C124.644223,6.9640061 123.454223,7.4680061 122.474223,8.4760061 C121.494223,9.4700061 121.004223,10.6880061 121.004223,12.1160061 C121.004223,13.5440061 121.494223,14.7620061 122.474223,15.7560061 C123.454223,16.7500061 124.644223,17.2540061 126.044223,17.2540061 C127.458223,17.2540061 128.648223,16.7640061 129.628223,15.7700061 C130.608223,14.7760061 131.098223,13.5580061 131.098223,12.1160061 C131.098223,10.6740061 130.608223,9.4560061 129.628223,8.4620061 C128.648223,7.4680061 127.458223,6.9640061 126.044223,6.9640061 L126.044223,6.9640061 Z M126.044223,8.8540061 C126.954223,8.8540061 127.696223,9.1760061 128.270223,9.8060061 C128.844223,10.4360061 129.138223,11.2060061 129.138223,12.1160061 C129.138223,13.0260061 128.844223,13.7960061 128.270223,14.4260061 C127.696223,15.0560061 126.954223,15.3640061 126.044223,15.3640061 C125.134223,15.3640061 124.392223,15.0560061 123.818223,14.4260061 C123.244223,13.7960061 122.950223,13.0260061 122.950223,12.1160061 C122.950223,11.2060061 123.244223,10.4360061 123.818223,9.8060061 C124.406223,9.1760061 125.148223,8.8540061 126.044223,8.8540061 L126.044223,8.8540061 Z M136.580459,8.9940061 C137.644459,8.9940061 138.372459,9.5540061 138.372459,10.4360061 C138.372459,11.3320061 137.672459,11.9200061 136.594459,11.9200061 L135.600459,11.9200061 L135.600459,8.9940061 L136.580459,8.9940061 Z M133.696459,17.1000061 L135.600459,17.1000061 L135.600459,13.7960061 L136.468459,13.7960061 C137.588459,13.7960061 138.512459,13.5160061 139.226459,12.9560061 C139.954459,12.3820061 140.318459,11.5420061 140.318459,10.4360061 C140.318459,9.4840061 139.996459,8.7000061 139.338459,8.0700061 C138.680459,7.4400061 137.770459,7.1320061 136.608459,7.1320061 L133.696459,7.1320061 L133.696459,17.1000061 Z M147.354694,6.9640061 C145.954694,6.9640061 144.764694,7.4680061 143.784694,8.4760061 C142.804694,9.4700061 142.314694,10.6880061 142.314694,12.1160061 C142.314694,13.5440061 142.804694,14.7620061 143.784694,15.7560061 C144.764694,16.7500061 145.954694,17.2540061 147.354694,17.2540061 C148.768694,17.2540061 149.958694,16.7640061 150.938694,15.7700061 C151.918694,14.7760061 152.408694,13.5580061 152.408694,12.1160061 C152.408694,10.6740061 151.918694,9.4560061 150.938694,8.4620061 C149.958694,7.4680061 148.768694,6.9640061 147.354694,6.9640061 L147.354694,6.9640061 Z M147.354694,8.8540061 C148.264694,8.8540061 149.006694,9.1760061 149.580694,9.8060061 C150.154694,10.4360061 150.448694,11.2060061 150.448694,12.1160061 C150.448694,13.0260061 150.154694,13.7960061 149.580694,14.4260061 C149.006694,15.0560061 148.264694,15.3640061 147.354694,15.3640061 C146.444694,15.3640061 145.702694,15.0560061 145.128694,14.4260061 C144.554694,13.7960061 144.260694,13.0260061 144.260694,12.1160061 C144.260694,11.2060061 144.554694,10.4360061 145.128694,9.8060061 C145.716694,9.1760061 146.458694,8.8540061 147.354694,8.8540061 L147.354694,8.8540061 Z M161.93693,14.4680061 C161.13893,15.0700061 160.36893,15.3780061 159.65493,15.3780061 C158.75893,15.3780061 158.01693,15.0560061 157.42893,14.4260061 C156.85493,13.7960061 156.56093,13.0260061 156.56093,12.1160061 C156.56093,11.2060061 156.85493,10.4360061 157.42893,9.8060061 C158.01693,9.1760061 158.75893,8.8540061 159.65493,8.8540061 C160.39693,8.8540061 161.15293,9.1620061 161.93693,9.7920061 L161.93693,7.5520061 C161.15293,7.1600061 160.39693,6.9640061 159.65493,6.9640061 C158.25493,6.9640061 157.06493,7.4680061 156.07093,8.4620061 C155.09093,9.4560061 154.60093,10.6740061 154.60093,12.1160061 C154.60093,13.5440061 155.09093,14.7620061 156.07093,15.7560061 C157.06493,16.7500061 158.25493,17.2540061 159.65493,17.2540061 C160.39693,17.2540061 161.15293,17.0580061 161.93693,16.6660061 L161.93693,14.4680061 Z M166.481165,13.8520061 C166.481165,13.5020061 166.467165,13.0820061 166.453165,12.8440061 L166.523165,12.8440061 C166.775165,13.2360061 166.985165,13.5300061 167.167165,13.7260061 L169.841165,17.1000061 L172.333165,17.1000061 L168.119165,11.8500061 L172.137165,7.1320061 L169.687165,7.1320061 L167.167165,10.1560061 C166.985165,10.3520061 166.775165,10.6460061 166.523165,11.0380061 L166.453165,11.0380061 C166.467165,10.8000061 166.481165,10.4920061 166.481165,10.1420061 L166.481165,7.1320061 L164.577165,7.1320061 L164.577165,17.1000061 L166.481165,17.1000061 L166.481165,13.8520061 Z M178.711401,6.9640061 C177.311401,6.9640061 176.121401,7.4680061 175.141401,8.4760061 C174.161401,9.4700061 173.671401,10.6880061 173.671401,12.1160061 C173.671401,13.5440061 174.161401,14.7620061 175.141401,15.7560061 C176.121401,16.7500061 177.311401,17.2540061 178.711401,17.2540061 C180.125401,17.2540061 181.315401,16.7640061 182.295401,15.7700061 C183.275401,14.7760061 183.765401,13.5580061 183.765401,12.1160061 C183.765401,10.6740061 183.275401,9.4560061 182.295401,8.4620061 C181.315401,7.4680061 180.125401,6.9640061 178.711401,6.9640061 L178.711401,6.9640061 Z M178.711401,8.8540061 C179.621401,8.8540061 180.363401,9.1760061 180.937401,9.8060061 C181.511401,10.4360061 181.805401,11.2060061 181.805401,12.1160061 C181.805401,13.0260061 181.511401,13.7960061 180.937401,14.4260061 C180.363401,15.0560061 179.621401,15.3640061 178.711401,15.3640061 C177.801401,15.3640061 177.059401,15.0560061 176.485401,14.4260061 C175.911401,13.7960061 175.617401,13.0260061 175.617401,12.1160061 C175.617401,11.2060061 175.911401,10.4360061 176.485401,9.8060061 C177.073401,9.1760061 177.815401,8.8540061 178.711401,8.8540061 L178.711401,8.8540061 Z M186.363636,17.1000061 L188.295636,17.1000061 L188.295636,9.0080061 L191.851636,9.0080061 L191.851636,17.1000061 L193.783636,17.1000061 L193.783636,7.1320061 L186.363636,7.1320061 L186.363636,17.1000061 Z M198.719872,10.9260061 L198.719872,7.1320061 L196.787872,7.1320061 L196.787872,17.1000061 L200.301872,17.1000061 C201.239872,17.1000061 202.037872,16.8200061 202.681872,16.2740061 C203.325872,15.7140061 203.647872,14.9580061 203.647872,14.0200061 C203.647872,13.0820061 203.325872,12.3260061 202.681872,11.7660061 C202.037872,11.2060061 201.239872,10.9260061 200.301872,10.9260061 L198.719872,10.9260061 Z M198.719872,15.2940061 L198.719872,12.7460061 L200.231872,12.7460061 C201.071872,12.7460061 201.659872,13.2360061 201.659872,14.0200061 C201.659872,14.8040061 201.071872,15.2940061 200.231872,15.2940061 L198.719872,15.2940061 Z M205.061872,7.1320061 L205.061872,17.1000061 L206.979872,17.1000061 L206.979872,7.1320061 L205.061872,7.1320061 Z" id="horoscopes"></path>
                    <path d="M107.710643,0.238297872 L98.9730545,24.0680851 L102.547523,24.0680851 L111.285111,0.238297872 L107.710643,0.238297872 M94.2854196,11.9148936 C94.2854196,13.9801418 93.0940575,15.7276596 90.7907574,15.7276596 C88.4874573,15.7276596 87.2166711,13.8212766 87.2166711,11.9148936 C87.2166711,10.0085106 88.4874573,8.10212766 90.7907574,8.10212766 C93.0146334,8.10212766 94.2854196,9.77021277 94.2854196,11.9148936 M91.1878781,5.40141844 C88.9640022,5.40141844 87.6932159,6.5929078 87.2960952,7.06950355 L87.2960952,5.71914894 L83.9602813,5.71914894 L83.9602813,24.0680851 L87.3755193,24.0680851 L87.3755193,16.9191489 C87.77264,17.3163121 89.1228504,18.4283688 91.1878781,18.4283688 C94.3648438,18.4283688 97.303537,16.0453901 97.303537,11.9148936 C97.3829611,7.54609929 94.1265713,5.40141844 91.1878781,5.40141844 M72.919149,10.564539 C72.9985816,9.69078014 73.8723405,8.02269504 75.9375887,8.02269504 C78.2411349,8.02269504 78.638298,9.84964539 78.7177306,10.564539 L72.919149,10.564539 M76.0170214,5.40141844 C72.1248227,5.40141844 69.5035461,8.26099291 69.5035461,11.9148936 C69.5035461,15.5687943 72.1248227,18.4283688 76.096454,18.4283688 C80.0680852,18.4283688 81.7361704,15.648227 81.7361704,15.648227 L79.1943264,13.9801418 C79.1943264,13.9801418 78.3205675,15.7276596 76.096454,15.7276596 C73.7929079,15.7276596 72.8397164,13.741844 72.8397164,13.0269504 L81.9744682,13.0269504 C81.9744682,13.0269504 82.0539009,12.470922 82.0539009,12.3120567 L82.0539009,11.9148936 C82.0539009,8.18156028 79.8297874,5.40141844 76.0170214,5.40141844 M65.6113451,18.1106383 L69.2652458,18.1106383 L64.7375862,5.71914894 L61.1631181,5.71914894 L56.5560259,18.1106383 L60.2893593,18.1106383 L62.9106359,10.2468085 L62.9900685,10.2468085 L65.6113451,18.1106383 M52.9815603,12.2326241 C52.9815603,13.6624113 52.187234,15.7276596 49.8836879,15.7276596 C47.5801418,15.7276596 46.6269504,13.9007092 46.6269504,12.1531915 C46.6269504,10.4056738 47.5801418,8.81702128 49.8836879,8.81702128 C52.187234,8.81702128 52.9815603,10.8028369 52.9815603,12.2326241 M50.2014184,5.71914894 C48.5333333,5.71914894 47.341844,6.51347518 47.0241135,6.75177305 C47.1035461,6.35460993 47.5007092,3.01843972 51.9489362,3.01843972 L54.729078,3.01843972 L55.7617021,0.238297872 L52.0283688,0.238297872 C47.1035461,0.238297872 43.2907801,2.54184397 43.2907801,10.564539 C43.2907801,14.9333333 45.1971631,18.5078014 49.8042553,18.5078014 C54.1730496,18.5078014 56.3971631,15.3304965 56.3971631,12.1531915 C56.3971631,7.54609929 52.9815603,5.71914894 50.2014184,5.71914894 M33.9177305,10.9617021 L29.6283688,5.79858156 L29.5489362,5.71914894 L26.6099291,5.71914894 L26.6099291,18.1106383 L30.0255319,18.1106383 L30.0255319,10.8822695 L33.3617021,15.0921986 L33.4411348,15.2510638 L34.3148936,15.2510638 L37.7304965,10.8822695 L37.7304965,18.1106383 L41.1460993,18.1106383 L41.1460993,5.71914894 L38.2070922,5.71914894 L33.9177305,10.9617021 M20.5730472,12.9475177 C20.5730472,14.6156028 19.6198557,15.8070922 17.7929054,15.8070922 C16.0453876,15.8070922 15.8865224,14.7744681 15.8865224,14.377305 C15.8865224,13.4241135 16.6808486,12.8680851 18.6666642,12.6297872 C19.2226926,12.5503546 19.778721,12.5503546 20.3347493,12.5503546 L20.5730472,12.5503546 L20.5730472,12.9475177 M23.7503522,15.3304965 L23.7503522,11.5971631 L23.7503522,10.8822695 C23.5914869,6.99007092 21.9234018,5.40141844 18.4283664,5.40141844 C16.0453876,5.40141844 14.4567352,6.35460993 13.9007068,6.75177305 L14.8538983,9.29361702 C14.8538983,9.29361702 16.2836855,8.02269504 18.1106359,8.02269504 C20.7319125,8.02269504 20.414182,10.1673759 20.414182,10.1673759 C19.5404231,10.1673759 12.4709196,9.77021277 12.4709196,14.377305 C12.4709196,16.9191489 14.6156004,18.3489362 16.9191465,18.3489362 C18.9843947,18.3489362 20.1758841,17.3163121 20.4936146,16.9191489 C20.4936146,16.9985816 20.5730472,18.1106383 20.5730472,18.1106383 L23.7503522,18.1106383 C23.9092174,18.1106383 23.7503522,17.0780142 23.7503522,15.3304965 M8.5787234,6.03687943 C8.5787234,8.10212766 6.5929078,8.81702128 5.24255319,8.81702128 L3.49503546,8.81702128 L3.49503546,3.17730496 L5.24255319,3.17730496 C6.5929078,3.25673759 8.5787234,3.97163121 8.5787234,6.03687943 M5.56028369,0.238297872 L0,0.238297872 L0,18.1900709 L3.57446809,18.1900709 L3.57446809,11.835461 L5.48085106,11.835461 C9.13475177,11.835461 12.1531915,9.92907801 12.1531915,6.03687943 C12.1531915,2.22411348 9.13475177,0.238297872 5.56028369,0.238297872" id="rambler"></path>
                </g>
            </g>
        </g>
    </g>
</svg>