<svg width="96" height="40" viewBox="0 0 96 40" xmlns="http://www.w3.org/2000/svg"><title>h</title><path d="M8.124 17.008v-1.876H3V25.1h1.918v-8.092h3.206zm6.112-2.044c-1.4 0-2.59.504-3.57 1.512-.98.994-1.47 2.212-1.47 3.64s.49 2.646 1.47 3.64c.98.994 2.17 1.498 3.57 1.498 1.414 0 2.604-.49 3.584-1.484s1.47-2.212 1.47-3.654c0-1.442-.49-2.66-1.47-3.654-.98-.994-2.17-1.498-3.584-1.498zm0 1.89c.91 0 1.652.322 2.226.952.574.63.868 1.4.868 2.31 0 .91-.294 1.68-.868 2.31-.574.63-1.316.938-2.226.938-.91 0-1.652-.308-2.226-.938-.574-.63-.868-1.4-.868-2.31 0-.91.294-1.68.868-2.31.588-.63 1.33-.952 2.226-.952zm10.536.14c1.064 0 1.792.56 1.792 1.442 0 .896-.7 1.484-1.778 1.484h-.994v-2.926h.98zM21.888 25.1h1.904v-3.304h.868c1.12 0 2.044-.28 2.758-.84.728-.574 1.092-1.414 1.092-2.52 0-.952-.322-1.736-.98-2.366-.658-.63-1.568-.938-2.73-.938h-2.912V25.1zm13.659-10.136c-1.4 0-2.59.504-3.57 1.512-.98.994-1.47 2.212-1.47 3.64s.49 2.646 1.47 3.64c.98.994 2.17 1.498 3.57 1.498 1.414 0 2.604-.49 3.584-1.484s1.47-2.212 1.47-3.654c0-1.442-.49-2.66-1.47-3.654-.98-.994-2.17-1.498-3.584-1.498zm0 1.89c.91 0 1.652.322 2.226.952.574.63.868 1.4.868 2.31 0 .91-.294 1.68-.868 2.31-.574.63-1.316.938-2.226.938-.91 0-1.652-.308-2.226-.938-.574-.63-.868-1.4-.868-2.31 0-.91.294-1.68.868-2.31.588-.63 1.33-.952 2.226-.952zm14.582 5.614c-.798.602-1.568.91-2.282.91-.896 0-1.638-.322-2.226-.952-.574-.63-.868-1.4-.868-2.31 0-.91.294-1.68.868-2.31.588-.63 1.33-.952 2.226-.952.742 0 1.498.308 2.282.938v-2.24c-.784-.392-1.54-.588-2.282-.588-1.4 0-2.59.504-3.584 1.498-.98.994-1.47 2.212-1.47 3.654 0 1.428.49 2.646 1.47 3.64.994.994 2.184 1.498 3.584 1.498.742 0 1.498-.196 2.282-.588v-2.198zm4.544-.616c0-.35-.014-.77-.028-1.008h.07c.252.392.462.686.644.882l2.674 3.374h2.492l-4.214-5.25 4.018-4.718h-2.45l-2.52 3.024c-.182.196-.392.49-.644.882h-.07c.014-.238.028-.546.028-.896v-3.01H52.77V25.1h1.904v-3.248zm12.23-6.888c-1.4 0-2.59.504-3.57 1.512-.98.994-1.47 2.212-1.47 3.64s.49 2.646 1.47 3.64c.98.994 2.17 1.498 3.57 1.498 1.414 0 2.604-.49 3.584-1.484s1.47-2.212 1.47-3.654c0-1.442-.49-2.66-1.47-3.654-.98-.994-2.17-1.498-3.584-1.498zm0 1.89c.91 0 1.652.322 2.226.952.574.63.868 1.4.868 2.31 0 .91-.294 1.68-.868 2.31-.574.63-1.316.938-2.226.938-.91 0-1.652-.308-2.226-.938-.574-.63-.868-1.4-.868-2.31 0-.91.294-1.68.868-2.31.588-.63 1.33-.952 2.226-.952zm7.653 8.246h1.932v-8.092h3.556V25.1h1.932v-9.968h-7.42V25.1zm12.356-6.174v-3.794H84.98V25.1h3.514c.938 0 1.736-.28 2.38-.826.644-.56.966-1.316.966-2.254s-.322-1.694-.966-2.254c-.644-.56-1.442-.84-2.38-.84h-1.582zm0 4.368v-2.548h1.512c.84 0 1.428.49 1.428 1.274s-.588 1.274-1.428 1.274h-1.512zm6.342-8.162V25.1h1.918v-9.968h-1.918z" fill="#315EFB" fill-rule="evenodd"/></svg>