<svg width="20" height="20" viewBox="0 0 20 20" xmlns="http://www.w3.org/2000/svg"><title>icon_vk</title><path d="M9.85 14.46h.837s.252-.03.381-.178c.12-.136.115-.39.115-.39s-.016-1.206.505-1.382c.514-.173 1.173 1.153 1.873 1.663.528.385.93.286.93.286l1.87.002s.978-.08.514-.896c-.038-.066-.27-.604-1.39-1.708-1.172-1.155-1.015-.968.397-2.967.86-1.217 1.204-1.96 1.096-2.279-.102-.303-.73-.25-.73-.25l-2.11-.002s-.156-.015-.271.058c-.114.072-.186.259-.186.259s-.334.959-.778 1.76c-.938 1.69-1.312 1.78-1.466 1.675-.356-.245-.267-.983-.267-1.508 0-1.637.234-2.32-.455-2.498-.229-.058-.397-.097-.983-.103-.751-.008-1.387.003-1.746.19-.24.124-.425.402-.312.417.139.02.454.09.621.333.216.31.208 1.01.208 1.01s.124 1.93-.29 2.168c-.283.165-.672-.17-1.508-1.704-.428-.786-.751-1.67-.751-1.67s-.063-.163-.174-.25c-.135-.105-.323-.138-.323-.138h-2s-.301.01-.411.148c-.099.124-.008.38-.008.38s1.566 3.92 3.34 5.88c1.626 1.798 3.472 1.693 3.472 1.693z" fill="#FFF" fill-rule="evenodd"/></svg>