<svg width="20" height="20" viewBox="0 0 20 20" xmlns="http://www.w3.org/2000/svg" xmlns:xlink="http://www.w3.org/1999/xlink"><title>icon_yt</title><defs><path id="a" d="M0 10.317h13.992V.008H.001z"/></defs><g transform="translate(3 5)" fill="none" fill-rule="evenodd"><mask id="b" fill="#fff"><use xlink:href="#a"/></mask><path d="M5.552 7.065L5.55 2.946l3.78 2.067-3.78 2.052zm8.3-4.833s-.136-1.01-.556-1.455c-.532-.583-1.128-.586-1.402-.62C9.936.008 7 .008 7 .008h-.006s-2.937 0-4.895.149c-.274.034-.87.037-1.402.62C.276 1.222.14 2.232.14 2.232S0 3.42 0 4.605v1.112c0 1.186.14 2.372.14 2.372S.276 9.1.696 9.544c.532.584 1.231.566 1.543.627 1.12.113 4.757.147 4.757.147s2.94-.004 4.898-.153c.274-.034.87-.037 1.402-.62.42-.445.557-1.456.557-1.456s.14-1.186.14-2.372V4.605c0-1.186-.14-2.373-.14-2.373z" fill="#FFF" mask="url(#b)"/></g></svg>