<svg width="20" height="20" viewBox="0 0 20 20" xmlns="http://www.w3.org/2000/svg"><title>icon_ok</title><g fill="none" fill-rule="evenodd"><path d="M0 0h20v20H0z"/><g fill="#FFF"><path d="M10 4.876c.73 0 1.325.594 1.325 1.325a1.326 1.326 0 0 1-2.65 0c0-.731.595-1.325 1.325-1.325zM10 9.4c1.765 0 3.2-1.435 3.2-3.2C13.2 4.437 11.765 3 10 3a3.204 3.204 0 0 0-3.2 3.2c0 1.765 1.435 3.2 3.2 3.2z"/><path d="M11.442 12.118a6.77 6.77 0 0 0 2.07-.836c.488-.3.635-.93.327-1.405a1.06 1.06 0 0 0-1.44-.32 4.622 4.622 0 0 1-4.799 0 1.059 1.059 0 0 0-1.44.32 1.004 1.004 0 0 0 .328 1.405 6.78 6.78 0 0 0 2.07.836L6.565 14.06a1.001 1.001 0 0 0 0 1.44 1.062 1.062 0 0 0 1.478.001L10 13.592l1.959 1.91a1.062 1.062 0 0 0 1.476 0 1 1 0 0 0 0-1.44l-1.993-1.944"/></g></g></svg>