<svg width="207" height="40" viewBox="0 0 207 40" xmlns="http://www.w3.org/2000/svg"><title>logo_horoscopes</title><path d="M119.932 17.008v-1.876h-5.124V25.1h1.918v-8.092h3.206zm6.112-2.044c-1.4 0-2.59.504-3.57 1.512-.98.994-1.47 2.212-1.47 3.64s.49 2.646 1.47 3.64c.98.994 2.17 1.498 3.57 1.498 1.414 0 2.604-.49 3.584-1.484s1.47-2.212 1.47-3.654c0-1.442-.49-2.66-1.47-3.654-.98-.994-2.17-1.498-3.584-1.498zm0 1.89c.91 0 1.652.322 2.226.952.574.63.868 1.4.868 2.31 0 .91-.294 1.68-.868 2.31-.574.63-1.316.938-2.226.938-.91 0-1.652-.308-2.226-.938-.574-.63-.868-1.4-.868-2.31 0-.91.294-1.68.868-2.31.588-.63 1.33-.952 2.226-.952zm10.536.14c1.064 0 1.792.56 1.792 1.442 0 .896-.7 1.484-1.778 1.484h-.994v-2.926h.98zm-2.884 8.106h1.904v-3.304h.868c1.12 0 2.044-.28 2.758-.84.728-.574 1.092-1.414 1.092-2.52 0-.952-.322-1.736-.98-2.366-.658-.63-1.568-.938-2.73-.938h-2.912V25.1zm13.659-10.136c-1.4 0-2.59.504-3.57 1.512-.98.994-1.47 2.212-1.47 3.64s.49 2.646 1.47 3.64c.98.994 2.17 1.498 3.57 1.498 1.414 0 2.604-.49 3.584-1.484s1.47-2.212 1.47-3.654c0-1.442-.49-2.66-1.47-3.654-.98-.994-2.17-1.498-3.584-1.498zm0 1.89c.91 0 1.652.322 2.226.952.574.63.868 1.4.868 2.31 0 .91-.294 1.68-.868 2.31-.574.63-1.316.938-2.226.938-.91 0-1.652-.308-2.226-.938-.574-.63-.868-1.4-.868-2.31 0-.91.294-1.68.868-2.31.588-.63 1.33-.952 2.226-.952zm14.582 5.614c-.798.602-1.568.91-2.282.91-.896 0-1.638-.322-2.226-.952-.574-.63-.868-1.4-.868-2.31 0-.91.294-1.68.868-2.31.588-.63 1.33-.952 2.226-.952.742 0 1.498.308 2.282.938v-2.24c-.784-.392-1.54-.588-2.282-.588-1.4 0-2.59.504-3.584 1.498-.98.994-1.47 2.212-1.47 3.654 0 1.428.49 2.646 1.47 3.64.994.994 2.184 1.498 3.584 1.498.742 0 1.498-.196 2.282-.588v-2.198zm4.544-.616c0-.35-.014-.77-.028-1.008h.07c.252.392.462.686.644.882l2.674 3.374h2.492l-4.214-5.25 4.018-4.718h-2.45l-2.52 3.024c-.182.196-.392.49-.644.882h-.07c.014-.238.028-.546.028-.896v-3.01h-1.904V25.1h1.904v-3.248zm12.23-6.888c-1.4 0-2.59.504-3.57 1.512-.98.994-1.47 2.212-1.47 3.64s.49 2.646 1.47 3.64c.98.994 2.17 1.498 3.57 1.498 1.414 0 2.604-.49 3.584-1.484s1.47-2.212 1.47-3.654c0-1.442-.49-2.66-1.47-3.654-.98-.994-2.17-1.498-3.584-1.498zm0 1.89c.91 0 1.652.322 2.226.952.574.63.868 1.4.868 2.31 0 .91-.294 1.68-.868 2.31-.574.63-1.316.938-2.226.938-.91 0-1.652-.308-2.226-.938-.574-.63-.868-1.4-.868-2.31 0-.91.294-1.68.868-2.31.588-.63 1.33-.952 2.226-.952zm7.653 8.246h1.932v-8.092h3.556V25.1h1.932v-9.968h-7.42V25.1zm12.356-6.174v-3.794h-1.932V25.1h3.514c.938 0 1.736-.28 2.38-.826.644-.56.966-1.316.966-2.254s-.322-1.694-.966-2.254c-.644-.56-1.442-.84-2.38-.84h-1.582zm0 4.368v-2.548h1.512c.84 0 1.428.49 1.428 1.274s-.588 1.274-1.428 1.274h-1.512zm6.342-8.162V25.1h1.918v-9.968h-1.918zM107.71 8.238l-8.737 23.83h3.575l8.737-23.83h-3.574M94.285 19.915c0 2.065-1.19 3.813-3.494 3.813-2.304 0-3.574-1.907-3.574-3.813 0-1.906 1.27-3.813 3.574-3.813 2.224 0 3.494 1.668 3.494 3.813M91.188 13.4c-2.224 0-3.495 1.192-3.892 1.669v-1.35H83.96v18.348h3.416V24.92c.397.397 1.747 1.51 3.812 1.51 3.177 0 6.116-2.384 6.116-6.514.079-4.369-3.177-6.514-6.116-6.514m-18.269 5.164c.08-.874.953-2.542 3.019-2.542 2.303 0 2.7 1.827 2.78 2.542h-5.799m3.098-5.164c-3.892 0-6.513 2.86-6.513 6.514 0 3.654 2.62 6.513 6.592 6.513 3.972 0 5.64-2.78 5.64-2.78l-2.542-1.668s-.873 1.748-3.098 1.748c-2.303 0-3.256-1.986-3.256-2.701h9.134s.08-.556.08-.715v-.397c0-3.733-2.224-6.514-6.037-6.514m-10.406 12.71h3.654L64.738 13.72h-3.575l-4.607 12.392h3.733l2.622-7.864h.08l2.62 7.864m-12.63-5.878c0 1.43-.794 3.495-3.097 3.495-2.304 0-3.257-1.827-3.257-3.575 0-1.747.953-3.336 3.257-3.336 2.303 0 3.098 1.986 3.098 3.416m-2.78-6.514a5.49 5.49 0 0 0-3.178 1.033c.08-.397.477-3.734 4.925-3.734h2.78l1.033-2.78h-3.734c-4.924 0-8.737 2.304-8.737 10.327 0 4.368 1.906 7.943 6.513 7.943 4.369 0 6.593-3.178 6.593-6.355 0-4.607-3.415-6.434-6.196-6.434m-16.283 5.243l-4.29-5.163-.08-.08H26.61v12.392h3.416v-7.229l3.336 4.21.08.16h.873l3.415-4.37v7.229h3.416V13.719h-2.939l-4.29 5.243m-13.344 1.986c0 1.668-.953 2.86-2.78 2.86-1.748 0-1.906-1.034-1.906-1.43 0-.954.794-1.51 2.78-1.748.556-.08 1.112-.08 1.668-.08h.238v.398m3.177 2.382v-4.448c-.159-3.892-1.827-5.48-5.322-5.48-2.383 0-3.971.953-4.527 1.35l.953 2.542s1.43-1.271 3.257-1.271c2.62 0 2.303 2.144 2.303 2.144-.874 0-7.943-.397-7.943 4.21 0 2.542 2.145 3.972 4.448 3.972 2.065 0 3.257-1.033 3.575-1.43 0 .08.079 1.192.079 1.192h3.177c.16 0 0-1.033 0-2.78M8.58 14.036c0 2.065-1.986 2.78-3.336 2.78H3.495v-5.64h1.748c1.35.08 3.336.795 3.336 2.86M5.56 8.238H0V26.19h3.574v-6.355h1.907c3.654 0 6.672-1.906 6.672-5.798 0-3.813-3.018-5.799-6.593-5.799" fill="#315EFB" fill-rule="evenodd"/></svg>