<svg width="112" height="40" viewBox="0 0 112 40" xmlns="http://www.w3.org/2000/svg"><title>r</title><path d="M107.71 8.238l-8.737 23.83h3.575l8.737-23.83h-3.574M94.285 19.915c0 2.065-1.19 3.813-3.494 3.813-2.304 0-3.574-1.907-3.574-3.813 0-1.906 1.27-3.813 3.574-3.813 2.224 0 3.494 1.668 3.494 3.813M91.188 13.4c-2.224 0-3.495 1.192-3.892 1.669v-1.35H83.96v18.348h3.416V24.92c.397.397 1.747 1.51 3.812 1.51 3.177 0 6.116-2.384 6.116-6.514.079-4.369-3.177-6.514-6.116-6.514m-18.269 5.164c.08-.874.953-2.542 3.019-2.542 2.303 0 2.7 1.827 2.78 2.542h-5.799m3.098-5.164c-3.892 0-6.513 2.86-6.513 6.514 0 3.654 2.62 6.513 6.592 6.513 3.972 0 5.64-2.78 5.64-2.78l-2.542-1.668s-.873 1.748-3.098 1.748c-2.303 0-3.256-1.986-3.256-2.701h9.134s.08-.556.08-.715v-.397c0-3.733-2.224-6.514-6.037-6.514m-10.406 12.71h3.654L64.738 13.72h-3.575l-4.607 12.392h3.733l2.622-7.864h.08l2.62 7.864m-12.63-5.878c0 1.43-.794 3.495-3.097 3.495-2.304 0-3.257-1.827-3.257-3.575 0-1.747.953-3.336 3.257-3.336 2.303 0 3.098 1.986 3.098 3.416m-2.78-6.514a5.49 5.49 0 0 0-3.178 1.033c.08-.397.477-3.734 4.925-3.734h2.78l1.033-2.78h-3.734c-4.924 0-8.737 2.304-8.737 10.327 0 4.368 1.906 7.943 6.513 7.943 4.369 0 6.593-3.178 6.593-6.355 0-4.607-3.415-6.434-6.196-6.434m-16.283 5.243l-4.29-5.163-.08-.08H26.61v12.392h3.416v-7.229l3.336 4.21.08.16h.873l3.415-4.37v7.229h3.416V13.719h-2.939l-4.29 5.243m-13.344 1.986c0 1.668-.953 2.86-2.78 2.86-1.748 0-1.906-1.034-1.906-1.43 0-.954.794-1.51 2.78-1.748.556-.08 1.112-.08 1.668-.08h.238v.398m3.177 2.382v-4.448c-.159-3.892-1.827-5.48-5.322-5.48-2.383 0-3.971.953-4.527 1.35l.953 2.542s1.43-1.271 3.257-1.271c2.62 0 2.303 2.144 2.303 2.144-.874 0-7.943-.397-7.943 4.21 0 2.542 2.145 3.972 4.448 3.972 2.065 0 3.257-1.033 3.575-1.43 0 .08.079 1.192.079 1.192h3.177c.16 0 0-1.033 0-2.78M8.58 14.036c0 2.065-1.986 2.78-3.336 2.78H3.495v-5.64h1.748c1.35.08 3.336.795 3.336 2.86M5.56 8.238H0V26.19h3.574v-6.355h1.907c3.654 0 6.672-1.906 6.672-5.798 0-3.813-3.018-5.799-6.593-5.799" fill="#315EFB" fill-rule="evenodd"/></svg>