<?xml version="1.0" encoding="UTF-8" standalone="no"?>
<svg width="19px" height="19px" viewBox="0 0 19 19" version="1.1" xmlns="http://www.w3.org/2000/svg" xmlns:xlink="http://www.w3.org/1999/xlink" xmlns:sketch="http://www.bohemiancoding.com/sketch/ns">
    <!-- Generator: Sketch 3.4.4 (17249) - http://www.bohemiancoding.com/sketch -->
    <title>search copy</title>
    <desc>Created with Sketch.</desc>
    <defs></defs>
    <g id="Page-1" stroke="none" stroke-width="1" fill="none" fill-rule="evenodd" sketch:type="MSPage">
        <g id="Desktop-HD-Copy-5" sketch:type="MSArtboardGroup" transform="translate(-721.000000, -31.000000)" fill="#A8A7AA">
            <g id="header" sketch:type="MSLayerGroup">
                <g id="search" transform="translate(532.000000, 19.000000)" sketch:type="MSShapeGroup">
                    <g id="search-copy" transform="translate(198.500000, 21.500000) scale(-1, 1) translate(-198.500000, -21.500000) translate(189.000000, 12.000000)">
                        <path d="M6.37254902,12.745098 C9.89201066,12.745098 12.745098,9.89201066 12.745098,6.37254902 C12.745098,2.85308738 9.89201066,0 6.37254902,0 C2.85308738,0 0,2.85308738 0,6.37254902 C0,9.89201066 2.85308738,12.745098 6.37254902,12.745098 L6.37254902,12.745098 Z M6.37254902,10.9803922 C3.82770753,10.9803922 1.76470588,8.91739051 1.76470588,6.37254902 C1.76470588,3.82770753 3.82770753,1.76470588 6.37254902,1.76470588 C8.91739051,1.76470588 10.9803922,3.82770753 10.9803922,6.37254902 C10.9803922,8.91739051 8.91739051,10.9803922 6.37254902,10.9803922 L6.37254902,10.9803922 Z" id="Shape"></path>
                        <rect id="`" transform="translate(14.000000, 14.000000) rotate(-225.000000) translate(-14.000000, -14.000000) " x="13" y="8" width="2" height="12"></rect>
                    </g>
                </g>
            </g>
        </g>
    </g>
</svg>