<?xml version="1.0" standalone="no"?>
<!DOCTYPE svg PUBLIC "-//W3C//DTD SVG 1.1//EN" "http://www.w3.org/Graphics/SVG/1.1/DTD/svg11.dtd" >
<svg>
<metadata>
Created by FontForge 20090622 at Mon Sep 26 14:07:46 2016
 By deploy user
Copyright (c) 2013 by Aviation Partners. All rights reserved.
</metadata>
<defs>
<font id="RamblerMedium" horiz-adv-x="568" >
  <font-face 
    font-family="Rambler Medium"
    font-weight="500"
    font-stretch="normal"
    units-per-em="1000"
    panose-1="2 0 0 0 0 0 0 0 0 0"
    ascent="775"
    descent="-225"
    x-height="530"
    cap-height="712"
    bbox="-113 -267 1232 976"
    underline-thickness="50"
    underline-position="-50"
    unicode-range="U+0020-U+FB04"
  />
<missing-glyph horiz-adv-x="590" 
d="M45 0v724h500v-724h-500zM82 37h426v650h-426v-650zM293 342l-109 -109l-28 29l108 109l-108 110l28 28l109 -109l109 109l28 -28l-108 -110l108 -109l-28 -29z" />
    <glyph glyph-name="ff" unicode="ff" horiz-adv-x="648" 
d="M13 440v90h72v48q0 77 55 131q55 55 133 55q28 0 63 -7v-105q-33 11 -63 11q-34 0 -57.5 -25t-23.5 -60v-48h199v59q0 77 55 131q55 55 133 55q28 0 63 -7v-105q-33 11 -63 11q-34 0 -57.5 -25t-23.5 -60v-59h137v-90h-137v-440h-107v440h-199v-440h-107v440h-72z" />
    <glyph glyph-name="fi" unicode="fi" horiz-adv-x="570" 
d="M444 741v-108q-96 41 -171 41q-33 0 -57 -25t-24 -60v-59h306v-530h-107v440h-199v-440h-107v440h-72v90h72v59q0 76 55 131t133 55q79 0 171 -34z" />
    <glyph glyph-name="fl" unicode="fl" horiz-adv-x="570" 
d="M13 440v90h72v59q0 77 55 131q55 55 134 55q83 0 224 -44v-731h-107v657q-66 17 -117 17q-34 0 -58 -25t-24 -60v-59h137v-90h-137v-440h-107v440h-72z" />
    <glyph glyph-name="f_f_i" unicode="ffi" horiz-adv-x="876" 
d="M13 440v90h72v48q0 77 55 131q55 55 133 55q28 0 63 -7v-105q-33 11 -63 11q-34 0 -57.5 -25t-23.5 -60v-48h199v59q0 76 55 131t133 55q79 0 171 -34v-108q-96 41 -171 41q-33 0 -57 -25t-24 -60v-59h306v-530h-107v440h-199v-440h-107v440h-199v-440h-107v440h-72z" />
    <glyph glyph-name="f_f_l" unicode="ffl" horiz-adv-x="876" 
d="M13 440v90h72v48q0 77 55 131q55 55 133 55q28 0 63 -7v-105q-33 11 -63 11q-34 0 -57.5 -25t-23.5 -60v-48h199v59q0 77 55 131q55 55 134 55q83 0 224 -44v-731h-107v657q-66 17 -117 17q-34 0 -58 -25t-24 -60v-59h137v-90h-137v-440h-107v440h-199v-440h-107v440h-72
z" />
    <glyph glyph-name=".notdef" horiz-adv-x="590" 
d="M45 0v724h500v-724h-500zM82 37h426v650h-426v-650zM293 342l-109 -109l-28 29l108 109l-108 110l28 28l109 -109l109 109l28 -28l-108 -110l108 -109l-28 -29z" />
    <glyph glyph-name=".null" horiz-adv-x="0" 
 />
    <glyph glyph-name="nonmarkingreturn" horiz-adv-x="333" 
 />
    <glyph glyph-name="space" unicode=" " horiz-adv-x="220" 
 />
    <glyph glyph-name="exclam" unicode="!" horiz-adv-x="272" 
d="M189 182h-107v530h107v-530zM135 130q28 0 48 -20.5t20 -48.5t-20 -47t-48 -19q-27 0 -46.5 19t-19.5 47t19.5 48.5t46.5 20.5z" />
    <glyph glyph-name="quotedbl" unicode="&#x22;" horiz-adv-x="390" 
d="M70 422l-20 290h114l-20 -290h-74zM242 422l-20 290h115l-20 -290h-75z" />
    <glyph glyph-name="numbersign" unicode="#" horiz-adv-x="584" 
d="M177 501l29 175h100l-27 -175h84l29 175h102l-29 -175h75v-101h-90l-19 -117h81v-100h-98l-29 -183h-100l28 183h-85l-30 -183h-100l28 183h-82v100h100l17 117h-90v101h106zM350 404h-89l-19 -125h89z" />
    <glyph glyph-name="dollar" unicode="$" horiz-adv-x="554" 
d="M298 615v-186q36 -13 57 -24q17 -7 53 -29q32 -20 48 -40q44 -50 44 -125q0 -86 -56 -148q-55 -61 -146 -72v-57h-52v56q-103 4 -181 61v153q30 -36 78 -69q51 -33 103 -37v227l-56 21q-20 9 -51 27q-42 25 -62.5 60.5t-24.5 94.5q0 83 55 135q56 53 139 60v59h52v-59
q81 -4 149 -45v-135q-27 28 -69 48t-80 24zM246 449v166q-36 -7 -59.5 -30.5t-23.5 -54.5q0 -27 19.5 -45t63.5 -36zM298 305v-205q39 8 64.5 38.5t25.5 69.5q0 34 -21.5 56t-68.5 41z" />
    <glyph glyph-name="percent" unicode="%" horiz-adv-x="774" 
d="M181 724q154 0 154 -188q0 -187 -154 -187q-155 0 -155 187q0 188 155 188zM105 536q0 -114 76 -114t76 114t-76 114t-76 -114zM592 368q156 0 156 -187t-156 -187q-155 0 -155 187t155 187zM592 67q77 0 77 114q0 113 -77 113q-75 0 -75 -113q0 -114 75 -114zM236 -14
l-69 35l357 699l70 -35z" />
    <glyph glyph-name="ampersand" unicode="&#x26;" horiz-adv-x="711" 
d="M375 143l37 44l-137 146q-110 -54 -110 -136q0 -39 36 -71q36 -30 77 -30q30 0 56 16q24 14 41 31zM244 565q0 -41 56 -95q30 15 54 36q30 24 30 56q0 28 -20 46t-50 18t-50 -18t-20 -43zM738 0h-150l-100 104q-93 -115 -206 -115q-99 0 -163 64t-64 156q0 66 35 112.5
t111 95.5q-65 71 -65 139q0 75 52 121q53 47 127 47q73 0 125 -48q54 -46 54 -121q0 -91 -118 -164l103 -111l62 98h129l-114 -182z" />
    <glyph glyph-name="quotesingle" unicode="'" horiz-adv-x="218" 
d="M70 422l-20 290h114l-20 -290h-74z" />
    <glyph glyph-name="parenleft" unicode="(" horiz-adv-x="318" 
d="M186 724h103q-34 -51 -65 -112q-24 -48 -49 -141q-23 -94 -23 -190t23 -190q25 -93 49 -141q31 -61 65 -112h-103l-50 89q-17 33 -41 90q-48 118 -48 264q0 147 48 263q24 57 42 92t49 88z" />
    <glyph glyph-name="parenright" unicode=")" horiz-adv-x="318" 
d="M29 724h103l49 -88q14 -26 41 -92q49 -112 49 -263t-49 -264q-28 -68 -41 -90q-19 -39 -49 -89h-103q34 51 65 112q26 50 48 141q24 91 24 190t-24 190q-22 91 -48 141q-31 61 -65 112z" />
    <glyph glyph-name="asterisk" unicode="*" horiz-adv-x="462" 
d="M193 588l-9 124h95l-11 -124l115 49l29 -91l-120 -30l80 -92l-77 -56l-64 104l-64 -104l-77 56l80 92l-120 30l30 91z" />
    <glyph glyph-name="plus" unicode="+" 
d="M232 293v190h103v-190h190v-103h-190v-190h-103v190h-190v103h190z" />
    <glyph glyph-name="comma" unicode="," horiz-adv-x="290" 
d="M84 -200l-67 12q52 149 71 281l122 12q-54 -183 -126 -305z" />
    <glyph glyph-name="hyphen" unicode="-" horiz-adv-x="323" 
d="M35 252v98h252v-98h-252z" />
    <glyph glyph-name="period" unicode="." horiz-adv-x="290" 
d="M212 61q0 -28 -19.5 -47t-47.5 -19t-47.5 19t-19.5 47q0 29 19.5 49t47.5 20t47.5 -20t19.5 -49z" />
    <glyph glyph-name="slash" unicode="/" horiz-adv-x="445" 
d="M17 -142l318 877l95 -35l-319 -876z" />
    <glyph glyph-name="zero" unicode="0" 
d="M285 724q243 0 243 -333v-68q0 -334 -243 -334q-245 0 -245 334v68q0 333 245 333zM285 95q66 0 98.5 55t32.5 180v53q0 125 -32.5 180t-98.5 55q-67 0 -100 -55t-33 -180v-53q0 -125 33 -180t100 -55z" />
    <glyph glyph-name="one" unicode="1" 
d="M108 543l202 169h96v-712h-110v560l-188 -156v139z" />
    <glyph glyph-name="two" unicode="2" 
d="M220 106h279v-106h-436v94l250 277q73 79 73 125q0 50 -35 85q-35 36 -85 36q-49 0 -91.5 -21.5t-89.5 -69.5v135q81 63 179 63q96 0 164 -67q70 -66 70 -160q0 -89 -102 -198z" />
    <glyph glyph-name="three" unicode="3" 
d="M222 329h-57v98h57q59 0 95 26t36 66q0 44 -30.5 71t-76.5 27q-79 0 -161 -41v118q76 30 161 30q94 0 156 -59q63 -59 63 -149q0 -88 -74 -135q46 -26 71 -69t25 -93q0 -98 -69 -164t-173 -66q-87 0 -168 29v117q75 -39 168 -39q57 0 93.5 33t36.5 87q0 52 -42.5 82.5
t-110.5 30.5z" />
    <glyph glyph-name="four" unicode="4" 
d="M462 141v-141h-110v141h-331v103l338 468h103v-466h78v-105h-78zM149 246h203v153q0 45 3 132l-7 1q-45 -73 -68 -106z" />
    <glyph glyph-name="five" unicode="5" 
d="M238 -11q-96 0 -180 34v119q86 -47 180 -47q58 0 98 40q42 41 42 98q0 61 -36 99.5t-95 38.5q-75 0 -136 -43l-55 27l49 357h354v-106h-260l-19 -138q33 9 68 9q106 0 173 -70q69 -70 69 -173q0 -98 -75 -172q-73 -73 -177 -73z" />
    <glyph glyph-name="six" unicode="6" 
d="M117 430l203 282h131l-174 -244q15 5 35 5q93 0 156 -72q63 -70 63 -166q0 -100 -70 -173q-69 -73 -176 -73q-104 0 -177 71q-71 73 -71 173q0 84 80 197zM284 94q58 0 95 39q39 39 39 96q0 59 -39 99q-37 40 -93 40t-96 -40q-41 -39 -41 -97q0 -52 38 -95q37 -42 97 -42
z" />
    <glyph glyph-name="seven" unicode="7" 
d="M63 0l324 606h-324v106h476v-58l-351 -654h-125z" />
    <glyph glyph-name="eight" unicode="8" 
d="M52 212q0 50 28 100q28 51 76 74q-35 20 -57 60t-22 78q0 88 61 143q62 57 147 57q87 0 146 -58q60 -57 60 -143q0 -33 -22 -74q-21 -42 -57 -63q48 -22 76 -74q28 -50 28 -100q0 -95 -67 -159t-164 -64q-99 0 -166 63q-67 64 -67 160zM164 214q0 -52 37 -86t85 -34
q45 0 82 34t37 84q0 53 -37 86q-37 34 -84 34q-49 0 -84 -34q-36 -34 -36 -84zM188 525q0 -35 29 -64q28 -28 68 -28q38 0 66 28q29 29 29 64q0 39 -28 67.5t-67 28.5q-40 0 -69 -29q-28 -28 -28 -67z" />
    <glyph glyph-name="nine" unicode="9" 
d="M450 281l-203 -281h-131l175 243q-22 -5 -37 -5q-90 0 -154 72q-63 74 -63 168q0 100 69 173q70 73 177 73q105 0 176 -72q71 -71 71 -172q0 -89 -80 -199zM284 618q-57 0 -96 -39q-38 -40 -38 -96q0 -59 38 -100q39 -40 94 -40q54 0 94 40q41 41 41 98q0 52 -38 95
q-38 42 -95 42z" />
    <glyph glyph-name="colon" unicode=":" horiz-adv-x="290" 
d="M212 61q0 -28 -19.5 -47t-47.5 -19t-47.5 19t-19.5 47q0 29 19.5 49t47.5 20t47.5 -20t19.5 -49zM212 468q0 -28 -19.5 -47t-47.5 -19t-47.5 19t-19.5 47q0 29 19.5 49t47.5 20t47.5 -20t19.5 -49z" />
    <glyph glyph-name="semicolon" unicode=";" horiz-adv-x="290" 
d="M212 468q0 -28 -19.5 -47t-47.5 -19t-47.5 19t-19.5 47q0 29 19.5 49t47.5 20t47.5 -20t19.5 -49zM84 -200l-67 12q52 149 71 281l122 12q-54 -183 -126 -305z" />
    <glyph glyph-name="less" unicode="&#x3c;" 
d="M41 283l485 207v-111l-327 -138l327 -137v-111l-485 207v83z" />
    <glyph glyph-name="equal" unicode="=" 
d="M42 281v103h483v-103h-483zM42 97v105h483v-105h-483z" />
    <glyph glyph-name="greater" unicode="&#x3e;" 
d="M368 241l-327 138v111l485 -208v-82l-485 -207v110z" />
    <glyph glyph-name="question" unicode="?" horiz-adv-x="496" 
d="M243 724q85 0 140 -54q56 -53 56 -138q0 -79 -63 -137l-37.5 -33t-40 -36.5t-24 -31t-12.5 -36.5v-67h-106v81q0 33 18 64t44 55l52 46.5t44 47.5t18 49q0 40 -25 63.5t-66 23.5q-63 0 -113 -44v122q54 25 115 25zM277 61q0 -28 -19.5 -47t-47.5 -19t-47.5 19t-19.5 47
q0 29 19.5 49t47.5 20t47.5 -20t19.5 -49z" />
    <glyph glyph-name="at" unicode="@" horiz-adv-x="1012" 
d="M538 -138v-89q-151 0 -264 68q-111 67 -167.5 174t-56.5 238q0 207 136 339t340 132q120 0 216 -46q99 -47 159 -136q60 -88 60 -205q0 -148 -77 -249q-76 -99 -169 -99q-73 0 -90 80q-72 -80 -168 -80q-95 0 -149 67q-53 68 -53 166q0 112 67 194t177 82q83 0 155 -79
l9 67h93l-49 -341q-3 -27 -3 -32q0 -35 26 -35q50 0 93 72q44 73 44 167q0 158 -94 237q-93 81 -249 81q-163 0 -272 -109q-108 -110 -108 -273q0 -157 99 -270q49 -56 126 -88.5t169 -32.5zM628 251l11 77q-64 76 -140 76q-68 0 -107.5 -48.5t-39.5 -129.5q0 -65 32.5 -106
t86.5 -41q63 0 106 54q44 56 51 118z" />
    <glyph glyph-name="A" unicode="A" horiz-adv-x="724" 
d="M11 0l317 712h67l317 -712h-120l-69 158h-323l-68 -158h-121zM246 265h230l-79 182q-20 48 -32 87h-6q-2 -7 -15 -38l-19 -49z" />
    <glyph glyph-name="B" unicode="B" horiz-adv-x="587" 
d="M287 606h-100v-193h103q53 0 83 25t30 72q0 44 -32.5 70t-83.5 26zM297 308h-110v-201h115q58 0 91.5 26.5t33.5 75.5q0 47 -34.5 73t-95.5 26zM78 0v712h204q112 0 171 -59t59 -143q0 -44 -20 -81t-55 -59q45 -22 73 -67t28 -96q0 -97 -66 -152q-65 -55 -165 -55h-229z
" />
    <glyph glyph-name="C" unicode="C" horiz-adv-x="624" 
d="M574 157v-124q-90 -44 -168 -44q-149 0 -256 107q-105 106 -105 260t105 261q107 107 256 107q82 0 168 -44v-127q-80 64 -168 64q-109 0 -179 -76q-69 -77 -69 -185t69 -185q71 -75 179 -75q83 0 168 61z" />
    <glyph glyph-name="D" unicode="D" horiz-adv-x="694" 
d="M78 712h184q94 0 171 -30t123 -82q93 -104 93 -244q0 -139 -93 -244q-46 -52 -123 -82t-171 -30h-184v712zM188 107h55q140 0 217 64t77 185t-77 185.5t-217 64.5h-55v-499z" />
    <glyph glyph-name="E" unicode="E" horiz-adv-x="549" 
d="M485 0h-407v712h407v-106h-297v-178h288v-106h-288v-215h297v-107z" />
    <glyph glyph-name="F" unicode="F" horiz-adv-x="500" 
d="M454 712v-106h-266v-179h256v-106h-256v-321h-110v712h376z" />
    <glyph glyph-name="G" unicode="G" horiz-adv-x="706" 
d="M353 274v108h280v-350q-117 -38 -227 -38q-150 0 -256 104q-105 104 -105 258t105 261q107 107 256 107q95 0 192 -49v-122q-18 12 -49 29q-63 35 -143 35q-109 0 -179 -76t-70 -185t70 -182t179 -73q63 0 116 13v160h-169z" />
    <glyph glyph-name="H" unicode="H" horiz-adv-x="674" 
d="M188 428h299v284h110v-712h-110v321h-299v-321h-110v712h110v-284z" />
    <glyph glyph-name="I" unicode="I" horiz-adv-x="265" 
d="M78 712h110v-712h-110v712z" />
    <glyph glyph-name="J" unicode="J" horiz-adv-x="420" 
d="M232 223v489h110v-491q0 -109 -63 -171q-61 -61 -157 -61q-43 0 -79 18v121q35 -28 82 -28t77 32.5t30 90.5z" />
    <glyph glyph-name="K" unicode="K" horiz-adv-x="614" 
d="M455 0l-219 264q-24 28 -46 62h-5q2 -38 2 -65v-261h-109v712h109v-225q0 -28 -2 -66h5q25 39 46 62l204 229h143l-299 -336l312 -376h-141z" />
    <glyph glyph-name="L" unicode="L" horiz-adv-x="453" 
d="M78 712h110v-605h239v-107h-349v712z" />
    <glyph glyph-name="M" unicode="M" horiz-adv-x="825" 
d="M154 712l259 -260l260 260h75v-712h-109v406q0 87 4 124h-7q-38 -49 -68 -79l-155 -154l-154 154q-39 39 -69 79h-6q4 -75 4 -124v-406h-110v712h76z" />
    <glyph glyph-name="N" unicode="N" horiz-adv-x="712" 
d="M525 712h110v-712h-76l-306 418q-27 36 -63 95h-6q4 -64 4 -99v-414h-110v712h91l295 -404q35 -49 61 -92h5q-5 50 -5 103v393z" />
    <glyph glyph-name="O" unicode="O" horiz-adv-x="811" 
d="M405 724q151 0 256 -107t105 -261t-105 -261q-105 -106 -256 -106q-150 0 -255 107q-105 106 -105 260q0 153 105 260q105 108 255 108zM405 96q109 0 179 75q70 76 70 185t-70 185t-179 76q-108 0 -178 -76t-70 -185t70 -185q71 -75 178 -75z" />
    <glyph glyph-name="P" unicode="P" horiz-adv-x="571" 
d="M277 606h-90v-252h91q68 0 109 35t41 93q0 56 -42 90t-109 34zM78 0v712h201q123 0 192 -66q69 -64 69 -164q0 -117 -77 -176t-194 -59h-82v-247h-109z" />
    <glyph glyph-name="Q" unicode="Q" horiz-adv-x="811" 
d="M721 106h77v-106h-393q-150 0 -255 105q-105 107 -105 257q0 151 105 256q105 106 255 106q151 0 256 -106q105 -105 105 -256q0 -75 -33 -142t-94 -114l2 -5q4 0 35.5 2.5t44.5 2.5zM405 106q108 0 179 74q70 74 70 182t-70 181q-70 75 -179 75q-107 0 -178 -75
q-70 -73 -70 -181t70 -182q71 -74 178 -74z" />
    <glyph glyph-name="R" unicode="R" horiz-adv-x="597" 
d="M78 0v712h201q119 0 181 -61q64 -61 64 -154q0 -75 -43 -130.5t-118 -76.5l214 -290h-134l-201 280h-55v-280h-109zM277 606h-90v-221h91q61 0 97.5 31t36.5 81t-37 79.5t-98 29.5z" />
    <glyph glyph-name="S" unicode="S" horiz-adv-x="533" 
d="M168 532q0 -23 17 -42.5t44.5 -34.5t60.5 -30.5t66.5 -35t61 -42.5t44.5 -58t17 -78q0 -96 -66 -159q-65 -63 -166 -63q-107 0 -184 66v131q29 -34 81 -62q53 -29 107 -29q49 0 82.5 29t33.5 73q0 63 -110 113l-55.5 26t-52 31t-49.5 41t-31.5 50.5t-12.5 65.5
q0 90 61 145t153 55q99 0 175 -56v-128q-86 77 -180 77q-40 0 -68.5 -24t-28.5 -61z" />
    <glyph glyph-name="T" unicode="T" horiz-adv-x="487" 
d="M471 605h-172v-605h-110v605h-173v107h455v-107z" />
    <glyph glyph-name="U" unicode="U" horiz-adv-x="661" 
d="M585 712v-455q0 -121 -75 -195q-73 -73 -179 -73q-108 0 -181 73q-74 74 -74 195v455h109v-448q0 -77 41 -121.5t105 -44.5q63 0 103.5 44.5t40.5 121.5v448h110z" />
    <glyph glyph-name="V" unicode="V" horiz-adv-x="678" 
d="M302 0l-290 712h120l163 -408q9 -21 40 -123h6q29 90 41 122l164 409h120l-290 -712h-74z" />
    <glyph glyph-name="W" unicode="W" horiz-adv-x="892" 
d="M153 0l-122 712h113l66 -390q11 -60 15 -133h7q24 85 44 132l146 361h49l146 -361q8 -19 25 -74l18 -58h7q6 84 15 133l67 390h112l-122 -712h-109l-137 336q-30 72 -43 118h-7q-10 -37 -43 -117l-139 -337h-108z" />
    <glyph glyph-name="X" unicode="X" horiz-adv-x="631" 
d="M250 371l-219 341h134l107 -168q23 -37 41 -76h6q24 50 39 73l108 171h134l-219 -341l239 -371h-133l-128 201q-2 3 -41 74h-5q-22 -43 -41 -75l-128 -200h-132z" />
    <glyph glyph-name="Y" unicode="Y" horiz-adv-x="612" 
d="M251 294l-240 418h125l124 -214q19 -33 43 -85h6q13 36 42 84l125 215h124l-239 -418v-294h-110v294z" />
    <glyph glyph-name="Z" unicode="Z" horiz-adv-x="573" 
d="M51 606v106h499v-72l-322 -459q-28 -39 -54 -70v-8q53 4 86 4h292v-107h-531v72l322 458q28 39 56 72v7q-42 -3 -93 -3h-255z" />
    <glyph glyph-name="bracketleft" unicode="[" horiz-adv-x="316" 
d="M289 754v-102h-99v-736h99v-102h-207v940h207z" />
    <glyph glyph-name="backslash" unicode="\" horiz-adv-x="445" 
d="M17 700l95 35l318 -877l-94 -34z" />
    <glyph glyph-name="bracketright" unicode="]" horiz-adv-x="316" 
d="M126 -84v736h-99v102h207v-940h-207v102h99z" />
    <glyph glyph-name="asciicircum" unicode="^" horiz-adv-x="571" 
d="M236 724h97l202 -422h-111l-139 293l-138 -293h-111z" />
    <glyph glyph-name="underscore" unicode="_" horiz-adv-x="489" 
d="M7 -79h475v-83h-475v83z" />
    <glyph glyph-name="grave" unicode="`" horiz-adv-x="407" 
d="M126 743l198 -148l-38 -56l-207 134z" />
    <glyph glyph-name="a" unicode="a" horiz-adv-x="559" 
d="M380 205v24q-86 16 -121 16q-110 0 -110 -85q0 -40 23 -59.5t73 -19.5q59 0 97 35.5t38 88.5zM255 542q99 0 166 -53q66 -53 66 -141v-348h-94l-9 66q-59 -77 -159 -77q-183 0 -183 168q0 73 57 121t158 48q41 0 123 -20v43q0 41 -39 69q-40 29 -86 29q-76 0 -149 -38
v102q72 31 149 31z" />
    <glyph glyph-name="b" unicode="b" horiz-adv-x="649" 
d="M607 264q0 -113 -69 -194q-68 -81 -185 -81q-95 0 -177 90l-6 -79h-98v764h107v-301q73 79 174 79q119 0 186 -82q68 -82 68 -196zM497 264q0 79 -42 128t-113 49q-73 0 -118 -53q-45 -52 -45 -126v-78q11 -17 29 -35q17 -17 56 -39q38 -20 78 -20q71 0 113 48t42 126z
" />
    <glyph glyph-name="c" unicode="c" horiz-adv-x="481" 
d="M307 90q71 0 126 51v-120q-59 -32 -126 -32q-114 0 -191 80q-75 81 -75 195q0 120 77 199q76 79 189 79q65 0 125 -33v-123q-58 55 -125 55q-64 0 -111 -50q-45 -49 -45 -127q0 -72 45 -123t111 -51z" />
    <glyph glyph-name="d" unicode="d" horiz-adv-x="648" 
d="M151 265q0 -79 42 -127t113 -48q73 0 118 52t45 126v79q-70 94 -163 94q-71 0 -113 -48.5t-42 -127.5zM296 542q96 0 173 -83v305h107v-764h-97l-7 81q-71 -92 -177 -92q-117 0 -186 81q-68 82 -68 195q0 114 69 195q69 82 186 82z" />
    <glyph glyph-name="e" unicode="e" horiz-adv-x="564" 
d="M154 326h266q-4 58 -40.5 92t-89.5 34t-88.5 -33.5t-47.5 -92.5zM469 125v-108q-75 -28 -161 -28q-117 0 -192 78t-75 207q0 116 68 192q67 76 181 76q108 0 170.5 -72t62.5 -207v-18h-371q9 -75 50.5 -117.5t106.5 -42.5q89 0 160 40z" />
    <glyph glyph-name="f" unicode="f" horiz-adv-x="342" 
d="M13 442v88h72v59q0 77 55 131q55 55 133 55q28 0 63 -7v-105q-33 11 -63 11q-34 0 -57.5 -25t-23.5 -60v-59h137v-88h-137v-442h-107v442h-72z" />
    <glyph glyph-name="g" unicode="g" horiz-adv-x="633" 
d="M296 443q-68 0 -106.5 -45.5t-38.5 -121.5t39 -122t107 -46q70 0 114 50q43 49 43 122v71q-65 92 -158 92zM457 454l7 76h97v-499q0 -107 -75 -181q-74 -75 -184 -75q-103 0 -195 40v111q95 -51 195 -51q57 0 104 41q48 40 48 105v74q-59 -86 -168 -86q-113 0 -179 79
q-66 80 -66 188t65 187q66 79 179 79q93 0 172 -88z" />
    <glyph glyph-name="h" unicode="h" horiz-adv-x="602" 
d="M72 0v764h107v-304q64 82 153 82q199 0 199 -235v-307h-107v295q0 146 -119 146q-30 0 -62 -18.5t-49 -40.5l-15 -20v-362h-107z" />
    <glyph glyph-name="i" unicode="i" horiz-adv-x="251" 
d="M179 530v-530h-107v530h107zM125 580q-27 0 -47 19.5t-20 47.5q0 27 20 46.5t47 19.5q28 0 47.5 -19t19.5 -47t-19.5 -47.5t-47.5 -19.5z" />
    <glyph glyph-name="j" unicode="j" horiz-adv-x="250" 
d="M-65 -218v101q20 -7 51 -7q39 0 62.5 28.5t23.5 68.5v557h107v-553q0 -86 -49 -144q-48 -58 -140 -58q-28 0 -55 7zM125 580q-27 0 -47 19.5t-20 47.5q0 27 20 46.5t47 19.5q28 0 47.5 -19t19.5 -47t-19.5 -47.5t-47.5 -19.5z" />
    <glyph glyph-name="k" unicode="k" horiz-adv-x="528" 
d="M378 0l-162 197q-14 16 -35 46h-3q1 -14 1 -48v-195h-107v764h107v-402q0 -35 -1 -49h3q24 35 35 46l151 171h132l-221 -251l231 -279h-131z" />
    <glyph glyph-name="l" unicode="l" horiz-adv-x="251" 
d="M179 0h-107v764h107v-764z" />
    <glyph glyph-name="m" unicode="m" horiz-adv-x="888" 
d="M625 542q88 0 139.5 -59.5t51.5 -168.5v-314h-107v300q0 141 -101 141q-49 0 -80 -37t-31 -73v-331h-107v300q0 141 -100 141q-45 0 -77 -35q-31 -34 -34 -57v-349h-107v530h98l5 -72q35 45 65.5 64.5t75.5 19.5q47 0 80.5 -20t62.5 -68q63 88 166 88z" />
    <glyph glyph-name="n" unicode="n" horiz-adv-x="603" 
d="M72 0v530h98l6 -70q37 42 72 62t83 20q200 0 200 -235v-307h-107v295q0 146 -118 146q-31 0 -62.5 -18t-49.5 -41l-15 -20v-362h-107z" />
    <glyph glyph-name="o" unicode="o" horiz-adv-x="617" 
d="M42 262q0 121 77 201q76 79 189 79q114 0 191 -81q77 -82 77 -197q0 -113 -77 -195q-77 -80 -191 -80q-115 0 -191 79q-75 80 -75 194zM152 263q0 -74 44 -124q45 -49 113 -49q69 0 112 49q45 49 45 126q0 76 -47 126t-110 50q-65 0 -112 -50q-45 -49 -45 -128z" />
    <glyph glyph-name="p" unicode="p" horiz-adv-x="649" 
d="M607 265q0 -113 -69 -195q-68 -81 -184 -81q-84 0 -175 71v-276h-107v746h97l8 -80q74 92 177 92q117 0 184 -82q69 -81 69 -195zM497 265q0 79 -42 127.5t-113 48.5q-73 0 -118 -53q-45 -52 -45 -126v-78q9 -12 29 -36q18 -18 56 -38t78 -20q71 0 113 48t42 127z" />
    <glyph glyph-name="q" unicode="q" horiz-adv-x="649" 
d="M295 542q48 0 95 -25t82 -64l7 77h98v-746h-107v283q-74 -78 -175 -78q-117 0 -185 81q-68 83 -68 196t68 195q68 81 185 81zM152 266q0 -79 41.5 -127.5t112.5 -48.5q73 0 118 52q46 52 46 127v77q-10 16 -30 36q-21 22 -59 40.5t-75 18.5q-71 0 -112.5 -48t-41.5 -127z
" />
    <glyph glyph-name="r" unicode="r" horiz-adv-x="371" 
d="M168 530l9 -78q23 41 65 62.5t90 21.5q16 0 21 -1v-104q-4 0 -13.5 0.5t-11.5 0.5q-86 0 -117 -46q-32 -46 -32 -118v-268h-107v530h96z" />
    <glyph glyph-name="s" unicode="s" horiz-adv-x="437" 
d="M387 150q0 -71 -51 -116q-50 -45 -125 -45q-79 0 -149 30v107q70 -43 141 -43q31 0 52.5 15.5t21.5 39.5q0 39 -79 84q-35 21 -50.5 31.5t-42.5 32.5t-39 46.5t-12 53.5q0 67 50 111q50 45 124 45q63 0 135 -29v-109q-74 44 -129 44q-27 0 -48.5 -14.5t-21.5 -37.5
q0 -37 79 -82q31 -17 50.5 -30t44 -34t37 -46t12.5 -54z" />
    <glyph glyph-name="t" unicode="t" horiz-adv-x="352" 
d="M333 101v-100q-30 -8 -55 -8q-91 0 -140.5 54.5t-49.5 144.5v250h-70v88h70v106l107 44v-150h138v-88h-138v-250q0 -41 23.5 -69.5t63.5 -28.5q30 0 51 7z" />
    <glyph glyph-name="u" unicode="u" horiz-adv-x="602" 
d="M300 -11q-106 0 -167.5 62.5t-61.5 171.5v307h107v-294q0 -73 33 -109.5t89 -36.5q57 0 90 36t33 110v294h107v-307q0 -109 -61.5 -171.5t-168.5 -62.5z" />
    <glyph glyph-name="v" unicode="v" horiz-adv-x="571" 
d="M326 267l110 263h118l-236 -530h-66l-236 530h119l109 -262q16 -40 38 -107h6q8 31 38 106z" />
    <glyph glyph-name="w" unicode="w" horiz-adv-x="807" 
d="M605 278l66 252h110l-144 -530h-76l-116 236q-17 36 -40 98h-4q-32 -80 -41 -98l-116 -236h-75l-145 530h111l66 -252q13 -47 22 -119h6q17 61 45 118l106 227h45l106 -227q26 -56 46 -118h5q0 1 1 6.5t3 18l4 24.5q7 45 15 70z" />
    <glyph glyph-name="x" unicode="x" horiz-adv-x="570" 
d="M554 0h-129l-97 134q-23 31 -40 70h-4q0 -1 -2 -4.5l-6 -11l-8 -14.5q-15 -29 -24 -40l-97 -134h-129l206 276l-186 254h128l78 -111q22 -32 39 -68h5q16 36 40 68l78 111h128l-185 -254z" />
    <glyph glyph-name="y" unicode="y" horiz-adv-x="576" 
d="M334 286l110 244h117l-351 -746h-114l136 279l-216 467h118l111 -244q11 -24 41 -106h6q11 38 42 106z" />
    <glyph glyph-name="z" unicode="z" horiz-adv-x="508" 
d="M479 484l-235 -325q-41 -53 -54 -67v-6q38 2 89 2h200v-88h-451v44l244 333q27 37 50 63v5q-51 -3 -91 -3h-180v88h428v-46z" />
    <glyph glyph-name="braceleft" unicode="{" horiz-adv-x="316" 
d="M219 754h65v-98h-65q-20 0 -33.5 -16t-13.5 -42q0 -30 27 -97q28 -66 28 -95q0 -70 -53 -121q53 -50 53 -121q0 -29 -28 -95q-27 -67 -27 -97q0 -25 14 -41t33 -16h65v-99h-65q-65 0 -110 46q-44 47 -44 110q0 33 27 100q27 69 27 92q0 34 -24 53t-63 19v98q39 0 63 19.5
t24 52.5q0 22 -27 91t-27 101q0 64 44 110q43 46 110 46z" />
    <glyph glyph-name="bar" unicode="|" horiz-adv-x="261" 
d="M84 764h93v-980h-93v980z" />
    <glyph glyph-name="braceright" unicode="}" horiz-adv-x="316" 
d="M32 656v98h65q67 0 110 -46q44 -46 44 -110q0 -32 -27 -101t-27 -91q0 -33 24 -52.5t63 -19.5v-98q-39 0 -63 -19t-24 -53q0 -23 27 -92q27 -67 27 -100q0 -64 -45 -110q-43 -46 -109 -46h-65v99h65q19 0 33 16t14 41q0 31 -28 97q-27 68 -27 95q0 71 53 121
q-53 51 -53 121q0 28 27 95q28 66 28 97q0 26 -13.5 42t-33.5 16h-65z" />
    <glyph glyph-name="asciitilde" unicode="~" horiz-adv-x="582" 
d="M126 165h-93q0 85 35 132t101 47q36 2 88 -21t95 -46t57 -21q47 0 47 83h93q0 -85 -35 -132t-101 -47q-36 -2 -88 21t-95 46t-57 21q-47 0 -47 -83z" />
    <glyph glyph-name="uni00A0" unicode="&#xa0;" horiz-adv-x="0" 
 />
    <glyph glyph-name="exclamdown" unicode="&#xa1;" horiz-adv-x="272" 
d="M82 288h107v-504h-107v504zM136 364q-28 0 -47.5 20t-19.5 48t19.5 47t47.5 19q27 0 47 -19.5t20 -46.5q0 -28 -20 -48t-47 -20z" />
    <glyph glyph-name="cent" unicode="&#xa2;" horiz-adv-x="488" 
d="M436 138v-118q-46 -24 -101 -30v-75h-46v75q-108 9 -176 88q-68 80 -68 186q0 114 69 190q72 78 175 88v66h46v-66q56 -6 101 -33v-121q-43 40 -101 54v-354q59 14 101 50zM154 264q0 -63 38 -113t97 -62v352q-58 -12 -97 -61q-38 -49 -38 -116z" />
    <glyph glyph-name="sterling" unicode="&#xa3;" horiz-adv-x="560" 
d="M448 249h-236v-146h312v-103h-490v103h72v146h-72v69h72v174q0 92 65 162q66 70 161 70q62 0 116 -30v-128q-51 54 -116 54q-51 0 -85 -37q-35 -37 -35 -88v-177h236v-69z" />
    <glyph glyph-name="currency" unicode="&#xa4;" 
d="M476 170l63 -65l-70 -70l-66 64q-55 -36 -119 -36q-62 0 -119 36q-25 -25 -35 -34l-31 -30l-69 70l63 65q-33 52 -33 116t33 116l-63 65q3 2 35 35q21 23 34 36q21 -17 66 -65q56 35 119 35q66 0 119 -35l66 66l69 -72l-62 -65q33 -52 33 -116t-33 -116zM411 286
q0 53 -37 89q-36 36 -90 36q-52 0 -90 -36q-37 -36 -37 -88q0 -53 37 -90t90 -37t90 37t37 89z" />
    <glyph glyph-name="yen" unicode="&#xa5;" horiz-adv-x="614" 
d="M557 405h-132l-50 -87h183v-68h-196v-250h-110v250h-192v68h179l-51 87h-128v68h91l-139 239h125l170 -290l171 290h125l-140 -239h94v-68z" />
    <glyph glyph-name="brokenbar" unicode="&#xa6;" horiz-adv-x="261" 
d="M84 775h93v-356h-93v356zM84 276h93v-355h-93v355z" />
    <glyph glyph-name="section" unicode="&#xa7;" horiz-adv-x="530" 
d="M158 337q0 -26 33 -49t110 -56q70 42 70 90q0 26 -32.5 48.5t-109.5 55.5q-71 -39 -71 -89zM441 736v-118q-76 52 -166 52q-59 2 -83.5 -37t22.5 -70q24 -16 84.5 -44t78.5 -38q47 -25 76 -62.5t29 -83.5q0 -88 -95 -156q70 -52 70 -122q0 -71 -59 -121t-152 -50
q-79 0 -158 38v113q70 -47 165 -47q61 0 83.5 36t-23.5 69q-18 13 -44 26l-61 29.5t-56 27.5q-47 25 -76 62.5t-29 83.5q0 90 95 156q-69 52 -69 122q0 73 58 122q59 51 153 51q78 0 157 -39z" />
    <glyph glyph-name="dieresis" unicode="&#xa8;" horiz-adv-x="401" 
d="M155 682q18 -17 18 -41t-18 -41q-17 -17 -41 -17t-41 17t-17 41t17 41q17 18 41 18t41 -18zM244 682q17 18 41 18t41 -18q18 -17 18 -41t-18 -41q-17 -17 -41 -17t-41 17t-17 41t17 41z" />
    <glyph glyph-name="copyright" unicode="&#xa9;" horiz-adv-x="825" 
d="M214 356q0 92 63 155q63 64 153 64q50 0 98 -24v-92q-50 39 -98 39q-60 0 -99 -42q-39 -40 -39 -100t39 -100q39 -41 99 -41q49 0 98 37v-89q-54 -26 -98 -26q-89 0 -153 64q-63 64 -63 155zM413 724q153 0 259 -108q108 -108 108 -260t-108 -260q-107 -107 -259 -107
t-261 107q-107 109 -107 260t107 260q108 108 261 108zM413 59q123 0 210 87t87 210t-87 210t-210 87q-124 0 -211 -87q-86 -88 -86 -210t86 -210q87 -87 211 -87z" />
    <glyph glyph-name="ordfeminine" unicode="&#xaa;" horiz-adv-x="370" 
d="M320 605v-208h-71l-5 32q-34 -39 -85 -39q-109 0 -109 104q0 46 34.5 73.5t94.5 27.5q31 0 61 -8v21q0 19 -19 33t-42 14q-45 0 -91 -25v76q46 18 91 18q62 0 101.5 -33t39.5 -86zM182 541q-25 0 -39 -12t-14 -32q0 -39 45 -39q30 0 48 17.5t18 44.5v15q-45 6 -58 6z
M62 259v73h258v-73h-258z" />
    <glyph glyph-name="guillemotleft" unicode="&#xab;" horiz-adv-x="519" 
d="M167 458h116l-131 -193l131 -193h-116l-131 193zM367 458h116l-130 -193l130 -193h-116l-130 193z" />
    <glyph glyph-name="logicalnot" unicode="&#xac;" 
d="M525 99h-104v173h-379v103h483v-276z" />
    <glyph glyph-name="registered" unicode="&#xae;" horiz-adv-x="438" 
d="M88 646q54 54 131 54t131 -54t54 -131t-54 -131t-131 -54t-131 54t-54 131t54 131zM117 412q42 -42 102 -42t102 42q43 43 43 103t-43 102q-42 42 -102 42t-102 -42t-42 -102q0 -59 42 -103zM250 493l58 -86h-57l-47 80h-7v-80h-45v217h63q36 0 56.5 -18.5t20.5 -48.5
q0 -46 -42 -64zM215 581h-18v-50h18q32 0 32 26q0 24 -32 24z" />
    <glyph glyph-name="overscore" unicode="&#xaf;" horiz-adv-x="402" 
d="M61 606v72h276v-72h-276z" />
    <glyph glyph-name="degree" unicode="&#xb0;" horiz-adv-x="393" 
d="M197 724q65 0 112 -48q48 -46 48 -113t-48 -113q-47 -47 -112 -47q-67 0 -114 47q-46 46 -46 113t46 113q47 48 114 48zM110 564q0 -37 24.5 -62t62.5 -25q27 -1 48.5 14.5t31 38.5t5 49.5t-23.5 43.5q-28 26 -62 26t-61.5 -25t-24.5 -60z" />
    <glyph glyph-name="plusminus" unicode="&#xb1;" 
d="M525 -11h-483v104h483v-104zM232 391v155h103v-155h190v-103h-190v-151h-103v151h-190v103h190z" />
    <glyph glyph-name="twosuperior" unicode="&#xb2;" horiz-adv-x="299" 
d="M211 681l-78 -84h131v-67h-232v57l127 141q35 41 35 57q0 22 -15.5 38t-37.5 16q-24 0 -51 -18.5t-47 -47.5v98q46 35 97 35q50 0 87 -35q36 -34 36 -85q0 -47 -52 -105z" />
    <glyph glyph-name="threesuperior" unicode="&#xb3;" horiz-adv-x="280" 
d="M110 694h-33v63h33q26 0 42.5 11.5t16.5 29.5t-14 30t-33 12q-47 0 -88 -26v75q43 17 88 17q50 0 83.5 -32t33.5 -79q0 -41 -30 -67q41 -29 41 -81q0 -54 -37 -88q-38 -35 -92 -35q-44 0 -91 16v72q40 -22 91 -22q26 0 42 14.5t16 38.5q0 23 -19 37t-50 14z" />
    <glyph glyph-name="acute" unicode="&#xb4;" horiz-adv-x="406" 
d="M324 673l-207 -134l-38 56l198 148z" />
    <glyph glyph-name="mu" unicode="&#xb5;" horiz-adv-x="610" 
d="M183 -216h-108v746h108v-301q0 -72 32 -107t89 -35q32 0 63 19q29 18 47 39l15 19v366h106v-530h-97l-8 65q-70 -76 -146 -76q-55 0 -101 32v-237z" />
    <glyph glyph-name="paragraph" unicode="&#xb6;" horiz-adv-x="593" 
d="M271 712h295v-89h-59v-747h-89v747h-73v-747h-88v426q-84 0 -144 54t-60 147q0 91 59 150q61 59 159 59z" />
    <glyph glyph-name="middot" unicode="&#xb7;" horiz-adv-x="409" 
d="M201 309q29 0 48.5 -19.5t19.5 -48.5q0 -28 -19.5 -47t-48.5 -19q-28 0 -47.5 19t-19.5 47t19.5 48t47.5 20z" />
    <glyph glyph-name="cedilla" unicode="&#xb8;" horiz-adv-x="400" 
d="M176 -95h-22l20 95h36v-53q34 -1 57.5 -25.5t23.5 -57.5q0 -40 -27 -64.5t-74 -24.5q-39 0 -65 19v57q29 -17 54 -17q43 0 43 36q0 35 -46 35z" />
    <glyph glyph-name="onesuperior" unicode="&#xb9;" horiz-adv-x="260" 
d="M35 811l105 89h58v-370h-70v271q-1 -1 -7 -6l-17.5 -14.5l-24.5 -19.5l-44 -37v87z" />
    <glyph glyph-name="ordmasculine" unicode="&#xba;" horiz-adv-x="423" 
d="M211 724q70 0 116 -49t46 -119q0 -68 -47 -118q-46 -48 -115 -48t-115 48q-46 47 -46 117q0 74 46 121q47 48 115 48zM212 649q-33 0 -56.5 -26.5t-23.5 -67.5q-2 -28 12.5 -50.5t36.5 -32.5t46.5 -6t40.5 24q23 26 23 66q0 39 -23 66t-56 27zM62 259v73h299v-73h-299z
" />
    <glyph glyph-name="guillemotright" unicode="&#xbb;" horiz-adv-x="518" 
d="M236 72l131 193l-131 193h115l131 -193l-131 -193h-115zM36 72l130 193l-130 193h114l131 -193l-131 -193h-114z" />
    <glyph glyph-name="onequarter" unicode="&#xbc;" horiz-adv-x="756" 
d="M681 439v-280h46v-76h-46v-83h-79v83h-198v72l205 284h72zM491 156h115v90q0 25 2 73h-6q-25 -44 -38 -62zM32 615l124 104h66v-439h-78v328l-112 -94v101zM573 686l-358 -700l-63 34l357 699z" />
    <glyph glyph-name="onehalf" unicode="&#xbd;" horiz-adv-x="819" 
d="M730 187l-102 -111h161v-76h-274v64l154 171q40 44 40 69q0 28 -19.5 47t-46.5 19q-30 0 -61.5 -21t-53.5 -55v111q53 41 114 41q60 0 103 -42q43 -40 43 -99q0 -56 -58 -118zM32 615l124 104h66v-439h-78v328l-112 -94v101zM573 686l-358 -700l-63 34l357 699z" />
    <glyph glyph-name="threequarters" unicode="&#xbe;" horiz-adv-x="801" 
d="M131 477h-39v71h35q35 0 56 14t21 35q0 24 -17 38.5t-42 14.5q-56 0 -103 -31v87q52 20 103 20q58 0 98 -38q40 -37 40 -93q0 -51 -38 -80q51 -35 51 -97t-43 -104q-44 -41 -108 -41q-54 0 -108 19v83q50 -26 108 -26q31 0 51.5 18t20.5 48q0 27 -24.5 44.5t-61.5 17.5z
M718 439v-280h46v-76h-46v-83h-79v83h-198v72l205 284h72zM528 156h115v90q0 25 2 73h-6q-25 -44 -38 -62zM616 686l-358 -700l-63 34l357 699z" />
    <glyph glyph-name="questiondown" unicode="&#xbf;" horiz-adv-x="479" 
d="M310 383q-19 -20 -47 -20t-48 20q-19 21 -19 49t19 47q20 19 48 19t47 -19q20 -19 20 -47t-20 -49zM231 -225q-85 0 -141 54q-56 53 -56 138q0 78 63 136l38 34t39.5 36t25.5 32t12 36v67h106v-81q0 -33 -18 -64t-44 -55l-52 -46.5t-44 -47.5t-18 -49q0 -40 25 -63.5
t65 -23.5q64 0 113 44v-122q-53 -25 -114 -25z" />
    <glyph glyph-name="Agrave" unicode="&#xc0;" horiz-adv-x="724" 
d="M11 0l317 712h67l317 -712h-120l-69 158h-323l-68 -158h-121zM246 265h230l-79 182q-20 48 -32 87h-6q-2 -7 -15 -38l-19 -49zM289 976l198 -148l-38 -56l-207 134z" />
    <glyph glyph-name="Aacute" unicode="&#xc1;" horiz-adv-x="724" 
d="M11 0l317 712h67l317 -712h-120l-69 158h-323l-68 -158h-121zM246 265h230l-79 182q-20 48 -32 87h-6q-2 -7 -15 -38l-19 -49zM484 906l-207 -134l-38 56l198 148z" />
    <glyph glyph-name="Acircumflex" unicode="&#xc2;" horiz-adv-x="724" 
d="M11 0l317 712h67l317 -712h-120l-69 158h-323l-68 -158h-121zM246 265h230l-79 182q-20 48 -32 87h-6q-2 -7 -15 -38l-19 -49zM363 970l177 -136l-38 -52l-139 86l-140 -86l-38 52z" />
    <glyph glyph-name="Atilde" unicode="&#xc3;" horiz-adv-x="724" 
d="M11 0l317 712h67l317 -712h-120l-69 158h-323l-68 -158h-121zM246 265h230l-79 182q-20 48 -32 87h-6q-2 -7 -15 -38l-19 -49zM414 820q-22 0 -61 17t-57 17q-29 0 -46 -32l-57 38q40 67 110 67q20 0 62 -17q43 -17 56 -17q26 0 47 33l56 -38q-42 -68 -110 -68z" />
    <glyph glyph-name="Adieresis" unicode="&#xc4;" horiz-adv-x="724" 
d="M11 0l317 712h67l317 -712h-120l-69 158h-323l-68 -158h-121zM246 265h230l-79 182q-20 48 -32 87h-6q-2 -7 -15 -38l-19 -49zM318 915q18 -17 18 -41t-18 -41q-17 -17 -41 -17t-41 17t-17 41t17 41q17 18 41 18t41 -18zM407 915q17 18 41 18t41 -18q18 -17 18 -41
t-18 -41q-17 -17 -41 -17t-41 17t-17 41t17 41z" />
    <glyph glyph-name="Aring" unicode="&#xc5;" horiz-adv-x="724" 
d="M11 0l317 712h67l317 -712h-120l-69 158h-323l-68 -158h-121zM246 265h230l-79 182q-20 48 -32 87h-6q-2 -7 -15 -38l-19 -49zM291 804q-29 29 -29 70t29 70q30 30 71 30t70 -30q29 -29 29 -70t-29 -70t-70 -29t-71 29zM330 906q-13 -13 -13 -32t13 -32t32 -13t32 13
t13 32t-13 32t-32 13t-32 -13z" />
    <glyph glyph-name="AE" unicode="&#xc6;" horiz-adv-x="1019" 
d="M955 712v-106h-297v-178h288v-106h-288v-215h297v-107h-408v158h-283l-121 -158h-137l550 712h399zM473 433l-128 -168h202v279h-6q-33 -65 -68 -111z" />
    <glyph glyph-name="Ccedilla" unicode="&#xc7;" horiz-adv-x="624" 
d="M373 -95h-22l18 86q-137 13 -231 118q-93 103 -93 247q0 154 105 261q107 107 256 107q82 0 168 -44v-127q-80 64 -168 64q-109 0 -179 -76q-69 -77 -69 -185t69 -185q71 -75 179 -75q83 0 168 61v-124q-90 -44 -167 -44v-42q34 -1 57.5 -25.5t23.5 -57.5
q0 -40 -27 -64.5t-74 -24.5q-39 0 -65 19v57q29 -17 54 -17q43 0 43 36q0 35 -46 35z" />
    <glyph glyph-name="Egrave" unicode="&#xc8;" horiz-adv-x="549" 
d="M485 0h-407v712h407v-106h-297v-178h288v-106h-288v-215h297v-107zM209 976l198 -148l-38 -56l-207 134z" />
    <glyph glyph-name="Eacute" unicode="&#xc9;" horiz-adv-x="549" 
d="M485 0h-407v712h407v-106h-297v-178h288v-106h-288v-215h297v-107zM404 906l-207 -134l-38 56l198 148z" />
    <glyph glyph-name="Ecircumflex" unicode="&#xca;" horiz-adv-x="549" 
d="M485 0h-407v712h407v-106h-297v-178h288v-106h-288v-215h297v-107zM281 970l177 -136l-38 -52l-139 86l-140 -86l-38 52z" />
    <glyph glyph-name="Edieresis" unicode="&#xcb;" horiz-adv-x="549" 
d="M485 0h-407v712h407v-106h-297v-178h288v-106h-288v-215h297v-107zM236 915q18 -17 18 -41t-18 -41q-17 -17 -41 -17t-41 17t-17 41t17 41q17 18 41 18t41 -18zM325 915q17 18 41 18t41 -18q18 -17 18 -41t-18 -41q-17 -17 -41 -17t-41 17t-17 41t17 41z" />
    <glyph glyph-name="Igrave" unicode="&#xcc;" horiz-adv-x="265" 
d="M78 712h110v-712h-110v712zM59 976l198 -148l-38 -56l-207 134z" />
    <glyph glyph-name="Iacute" unicode="&#xcd;" horiz-adv-x="265" 
d="M78 712h110v-712h-110v712zM255 906l-207 -134l-38 56l198 148z" />
    <glyph glyph-name="Icircumflex" unicode="&#xce;" horiz-adv-x="265" 
d="M132 970l177 -136l-38 -52l-139 86l-140 -86l-38 52zM78 712h110v-712h-110v712z" />
    <glyph glyph-name="Idieresis" unicode="&#xcf;" horiz-adv-x="265" 
d="M87 915q18 -17 18 -41t-18 -41q-17 -17 -41 -17t-41 17t-17 41t17 41q17 18 41 18t41 -18zM176 915q17 18 41 18t41 -18q18 -17 18 -41t-18 -41q-17 -17 -41 -17t-41 17t-17 41t17 41zM78 712h110v-712h-110v712z" />
    <glyph glyph-name="Eth" unicode="&#xd0;" horiz-adv-x="694" 
d="M78 712h184q94 0 171 -30t123 -82q93 -104 93 -244q0 -139 -93 -244q-46 -52 -123 -82t-171 -30h-184v329h-69v52h69v331zM188 107h55q140 0 217 64t77 185t-77 185.5t-217 64.5h-55v-225h171v-52h-171v-222z" />
    <glyph glyph-name="Ntilde" unicode="&#xd1;" horiz-adv-x="712" 
d="M525 712h110v-712h-76l-306 418q-27 36 -63 95h-6q4 -64 4 -99v-414h-110v712h91l295 -404q35 -49 61 -92h5q-5 50 -5 103v393zM408 820q-22 0 -61 17t-57 17q-29 0 -46 -32l-57 38q40 67 110 67q20 0 62 -17q43 -17 56 -17q26 0 47 33l56 -38q-42 -68 -110 -68z" />
    <glyph glyph-name="Ograve" unicode="&#xd2;" horiz-adv-x="811" 
d="M405 724q151 0 256 -107t105 -261t-105 -261q-105 -106 -256 -106q-150 0 -255 107q-105 106 -105 260q0 153 105 260q105 108 255 108zM405 96q109 0 179 75q70 76 70 185t-70 185t-179 76q-108 0 -178 -76t-70 -185t70 -185q71 -75 178 -75zM335 976l198 -148l-38 -56
l-207 134z" />
    <glyph glyph-name="Oacute" unicode="&#xd3;" horiz-adv-x="811" 
d="M405 724q151 0 256 -107t105 -261t-105 -261q-105 -106 -256 -106q-150 0 -255 107q-105 106 -105 260q0 153 105 260q105 108 255 108zM405 96q109 0 179 75q70 76 70 185t-70 185t-179 76q-108 0 -178 -76t-70 -185t70 -185q71 -75 178 -75zM532 906l-207 -134l-38 56
l198 148z" />
    <glyph glyph-name="Ocircumflex" unicode="&#xd4;" horiz-adv-x="811" 
d="M405 724q151 0 256 -107t105 -261t-105 -261q-105 -106 -256 -106q-150 0 -255 107q-105 106 -105 260q0 153 105 260q105 108 255 108zM405 96q109 0 179 75q70 76 70 185t-70 185t-179 76q-108 0 -178 -76t-70 -185t70 -185q71 -75 178 -75zM409 970l177 -136l-38 -52
l-139 86l-140 -86l-38 52z" />
    <glyph glyph-name="Otilde" unicode="&#xd5;" horiz-adv-x="811" 
d="M405 724q151 0 256 -107t105 -261t-105 -261q-105 -106 -256 -106q-150 0 -255 107q-105 106 -105 260q0 153 105 260q105 108 255 108zM405 96q109 0 179 75q70 76 70 185t-70 185t-179 76q-108 0 -178 -76t-70 -185t70 -185q71 -75 178 -75zM462 820q-22 0 -61 17
t-57 17q-29 0 -46 -32l-57 38q40 67 110 67q20 0 62 -17q43 -17 56 -17q26 0 47 33l56 -38q-42 -68 -110 -68z" />
    <glyph glyph-name="Odieresis" unicode="&#xd6;" horiz-adv-x="811" 
d="M405 724q151 0 256 -107t105 -261t-105 -261q-105 -106 -256 -106q-150 0 -255 107q-105 106 -105 260q0 153 105 260q105 108 255 108zM405 96q109 0 179 75q70 76 70 185t-70 185t-179 76q-108 0 -178 -76t-70 -185t70 -185q71 -75 178 -75zM362 915q18 -17 18 -41
t-18 -41q-17 -17 -41 -17t-41 17t-17 41t17 41q17 18 41 18t41 -18zM451 915q17 18 41 18t41 -18q18 -17 18 -41t-18 -41q-17 -17 -41 -17t-41 17t-17 41t17 41z" />
    <glyph glyph-name="multiply" unicode="&#xd7;" 
d="M211 242l-165 164l73 74l165 -165l165 165l73 -74l-164 -164l165 -166l-73 -73l-166 165l-166 -165l-73 73z" />
    <glyph glyph-name="Oslash" unicode="&#xd8;" horiz-adv-x="816" 
d="M718 767l39 -34l-96 -115q107 -107 107 -262q0 -154 -105 -261q-105 -106 -256 -106q-120 0 -215 71l-95 -114l-40 34l96 114q-106 106 -106 262q0 153 105 260q105 108 255 108q117 0 215 -71zM159 356q0 -105 64 -178l329 392q-62 47 -145 47q-108 0 -178 -76t-70 -185
zM656 356q0 102 -65 178l-330 -392q62 -46 146 -46q109 0 179 75q70 76 70 185z" />
    <glyph glyph-name="Ugrave" unicode="&#xd9;" horiz-adv-x="661" 
d="M585 712v-455q0 -121 -75 -195q-73 -73 -179 -73q-108 0 -181 73q-74 74 -74 195v455h109v-448q0 -77 41 -121.5t105 -44.5q63 0 103.5 44.5t40.5 121.5v448h110zM252 976l198 -148l-38 -56l-207 134z" />
    <glyph glyph-name="Uacute" unicode="&#xda;" horiz-adv-x="661" 
d="M585 712v-455q0 -121 -75 -195q-73 -73 -179 -73q-108 0 -181 73q-74 74 -74 195v455h109v-448q0 -77 41 -121.5t105 -44.5q63 0 103.5 44.5t40.5 121.5v448h110zM454 906l-207 -134l-38 56l198 148z" />
    <glyph glyph-name="Ucircumflex" unicode="&#xdb;" horiz-adv-x="661" 
d="M585 712v-455q0 -121 -75 -195q-73 -73 -179 -73q-108 0 -181 73q-74 74 -74 195v455h109v-448q0 -77 41 -121.5t105 -44.5q63 0 103.5 44.5t40.5 121.5v448h110zM331 970l177 -136l-38 -52l-139 86l-140 -86l-38 52z" />
    <glyph glyph-name="Udieresis" unicode="&#xdc;" horiz-adv-x="661" 
d="M585 712v-455q0 -121 -75 -195q-73 -73 -179 -73q-108 0 -181 73q-74 74 -74 195v455h109v-448q0 -77 41 -121.5t105 -44.5q63 0 103.5 44.5t40.5 121.5v448h110zM283 915q18 -17 18 -41t-18 -41q-17 -17 -41 -17t-41 17t-17 41t17 41q17 18 41 18t41 -18zM372 915
q17 18 41 18t41 -18q18 -17 18 -41t-18 -41q-17 -17 -41 -17t-41 17t-17 41t17 41z" />
    <glyph glyph-name="Yacute" unicode="&#xdd;" horiz-adv-x="612" 
d="M251 294l-240 418h125l124 -214q19 -33 43 -85h6q13 36 42 84l125 215h124l-239 -418v-294h-110v294zM430 906l-207 -134l-38 56l198 148z" />
    <glyph glyph-name="Thorn" unicode="&#xde;" horiz-adv-x="570" 
d="M78 0v712h109v-116h93q122 0 191 -66t69 -166q0 -117 -76 -175q-77 -59 -195 -59h-82v-130h-109zM278 489h-91v-252h92q67 0 108 34.5t41 92.5q0 57 -41.5 91t-108.5 34z" />
    <glyph glyph-name="germandbls" unicode="&#xdf;" horiz-adv-x="554" 
d="M401 418q114 -66 114 -187t-70 -182q-69 -60 -179 -60q-4 0 -37 3v108q15 -4 39 -4q62 0 97.5 34.5t35.5 100.5q0 63 -42 97t-113 34h-17v100h17q64 0 90 27.5t26 80.5q0 41 -26 70t-69 29q-38 0 -66 -31q-29 -31 -29 -74v-564h-108v565q0 91 60 150q60 60 146 60
t145 -59q58 -58 58 -145q0 -91 -72 -153z" />
    <glyph glyph-name="agrave" unicode="&#xe0;" horiz-adv-x="559" 
d="M380 205v24q-86 16 -121 16q-110 0 -110 -85q0 -40 23 -59.5t73 -19.5q59 0 97 35.5t38 88.5zM255 542q99 0 166 -53q66 -53 66 -141v-348h-94l-9 66q-59 -77 -159 -77q-183 0 -183 168q0 73 57 121t158 48q41 0 123 -20v43q0 41 -39 69q-40 29 -86 29q-76 0 -149 -38
v102q72 31 149 31zM199 794l198 -148l-38 -56l-207 134z" />
    <glyph glyph-name="aacute" unicode="&#xe1;" horiz-adv-x="559" 
d="M380 205v24q-86 16 -121 16q-110 0 -110 -85q0 -40 23 -59.5t73 -19.5q59 0 97 35.5t38 88.5zM255 542q99 0 166 -53q66 -53 66 -141v-348h-94l-9 66q-59 -77 -159 -77q-183 0 -183 168q0 73 57 121t158 48q41 0 123 -20v43q0 41 -39 69q-40 29 -86 29q-76 0 -149 -38
v102q72 31 149 31zM390 724l-207 -134l-38 56l198 148z" />
    <glyph glyph-name="acircumflex" unicode="&#xe2;" horiz-adv-x="559" 
d="M380 205v24q-86 16 -121 16q-110 0 -110 -85q0 -40 23 -59.5t73 -19.5q59 0 97 35.5t38 88.5zM255 542q99 0 166 -53q66 -53 66 -141v-348h-94l-9 66q-59 -77 -159 -77q-183 0 -183 168q0 73 57 121t158 48q41 0 123 -20v43q0 41 -39 69q-40 29 -86 29q-76 0 -149 -38
v102q72 31 149 31zM272 788l177 -136l-38 -52l-139 86l-140 -86l-38 52z" />
    <glyph glyph-name="atilde" unicode="&#xe3;" horiz-adv-x="559" 
d="M380 205v24q-86 16 -121 16q-110 0 -110 -85q0 -40 23 -59.5t73 -19.5q59 0 97 35.5t38 88.5zM255 542q99 0 166 -53q66 -53 66 -141v-348h-94l-9 66q-59 -77 -159 -77q-183 0 -183 168q0 73 57 121t158 48q41 0 123 -20v43q0 41 -39 69q-40 29 -86 29q-76 0 -149 -38
v102q72 31 149 31zM323 638q-22 0 -61 17t-57 17q-29 0 -46 -32l-57 38q40 67 110 67q20 0 62 -17q43 -17 56 -17q26 0 47 33l56 -38q-42 -68 -110 -68z" />
    <glyph glyph-name="adieresis" unicode="&#xe4;" horiz-adv-x="559" 
d="M380 205v24q-86 16 -121 16q-110 0 -110 -85q0 -40 23 -59.5t73 -19.5q59 0 97 35.5t38 88.5zM255 542q99 0 166 -53q66 -53 66 -141v-348h-94l-9 66q-59 -77 -159 -77q-183 0 -183 168q0 73 57 121t158 48q41 0 123 -20v43q0 41 -39 69q-40 29 -86 29q-76 0 -149 -38
v102q72 31 149 31zM225 733q18 -17 18 -41t-18 -41q-17 -17 -41 -17t-41 17t-17 41t17 41q17 18 41 18t41 -18zM314 733q17 18 41 18t41 -18q18 -17 18 -41t-18 -41q-17 -17 -41 -17t-41 17t-17 41t17 41z" />
    <glyph glyph-name="aring" unicode="&#xe5;" horiz-adv-x="559" 
d="M380 205v24q-86 16 -121 16q-110 0 -110 -85q0 -40 23 -59.5t73 -19.5q59 0 97 35.5t38 88.5zM255 542q99 0 166 -53q66 -53 66 -141v-348h-94l-9 66q-59 -77 -159 -77q-183 0 -183 168q0 73 57 121t158 48q41 0 123 -20v43q0 41 -39 69q-40 29 -86 29q-76 0 -149 -38
v102q72 31 149 31zM199 622q-29 29 -29 70t29 70q30 30 71 30t70 -30q29 -29 29 -70t-29 -70t-70 -29t-71 29zM238 724q-13 -13 -13 -32t13 -32t32 -13t32 13t13 32t-13 32t-32 13t-32 -13z" />
    <glyph glyph-name="ae" unicode="&#xe6;" horiz-adv-x="907" 
d="M866 247h-370q8 -75 50 -119.5t107 -44.5q83 0 160 42v-108q-75 -28 -161 -28q-128 0 -205 96q-78 -96 -218 -96q-95 0 -139 42t-44 126q0 165 244 165h93v27q0 43 -39 71q-40 29 -86 29q-79 0 -148 -42v104q71 31 148 31q126 0 191 -83q75 83 185 83q107 0 169.5 -77.5
t62.5 -217.5zM634 454q-51 0 -88 -36t-49 -96h266q-4 60 -40.5 96t-88.5 36zM383 205v42h-79q-78 0 -114.5 -19t-36.5 -68q0 -81 95 -81q60 0 97 37q38 38 38 89z" />
    <glyph glyph-name="ccedilla" unicode="&#xe7;" horiz-adv-x="481" 
d="M275 -95h-22l18 87q-102 14 -166 90t-64 182q0 120 77 199q76 79 189 79q65 0 125 -33v-123q-58 55 -125 55q-64 0 -111 -50q-45 -49 -45 -127q0 -72 45 -123t111 -51q71 0 126 51v-120q-58 -31 -124 -32v-42q34 -1 57.5 -25.5t23.5 -57.5q0 -40 -27 -64.5t-74 -24.5
q-39 0 -65 19v57q29 -17 54 -17q43 0 43 36q0 35 -46 35z" />
    <glyph glyph-name="egrave" unicode="&#xe8;" horiz-adv-x="564" 
d="M154 326h266q-4 58 -40.5 92t-89.5 34t-88.5 -33.5t-47.5 -92.5zM469 125v-108q-75 -28 -161 -28q-117 0 -192 78t-75 207q0 116 68 192q67 76 181 76q108 0 170.5 -72t62.5 -207v-18h-371q9 -75 50.5 -117.5t106.5 -42.5q89 0 160 40zM221 794l198 -148l-38 -56
l-207 134z" />
    <glyph glyph-name="eacute" unicode="&#xe9;" horiz-adv-x="564" 
d="M154 326h266q-4 58 -40.5 92t-89.5 34t-88.5 -33.5t-47.5 -92.5zM469 125v-108q-75 -28 -161 -28q-117 0 -192 78t-75 207q0 116 68 192q67 76 181 76q108 0 170.5 -72t62.5 -207v-18h-371q9 -75 50.5 -117.5t106.5 -42.5q89 0 160 40zM416 724l-207 -134l-38 56l198 148
z" />
    <glyph glyph-name="ecircumflex" unicode="&#xea;" horiz-adv-x="564" 
d="M154 326h266q-4 58 -40.5 92t-89.5 34t-88.5 -33.5t-47.5 -92.5zM469 125v-108q-75 -28 -161 -28q-117 0 -192 78t-75 207q0 116 68 192q67 76 181 76q108 0 170.5 -72t62.5 -207v-18h-371q9 -75 50.5 -117.5t106.5 -42.5q89 0 160 40zM294 788l177 -136l-38 -52l-139 86
l-140 -86l-38 52z" />
    <glyph glyph-name="edieresis" unicode="&#xeb;" horiz-adv-x="564" 
d="M154 326h266q-4 58 -40.5 92t-89.5 34t-88.5 -33.5t-47.5 -92.5zM469 125v-108q-75 -28 -161 -28q-117 0 -192 78t-75 207q0 116 68 192q67 76 181 76q108 0 170.5 -72t62.5 -207v-18h-371q9 -75 50.5 -117.5t106.5 -42.5q89 0 160 40zM246 733q18 -17 18 -41t-18 -41
q-17 -17 -41 -17t-41 17t-17 41t17 41q17 18 41 18t41 -18zM335 733q17 18 41 18t41 -18q18 -17 18 -41t-18 -41q-17 -17 -41 -17t-41 17t-17 41t17 41z" />
    <glyph glyph-name="igrave" unicode="&#xec;" horiz-adv-x="251" 
d="M72 530h107v-530h-107v530zM46 794l198 -148l-38 -56l-207 134z" />
    <glyph glyph-name="iacute" unicode="&#xed;" horiz-adv-x="251" 
d="M72 530h107v-530h-107v530zM242 724l-207 -134l-38 56l198 148z" />
    <glyph glyph-name="icircumflex" unicode="&#xee;" horiz-adv-x="251" 
d="M122 788l177 -136l-38 -52l-139 86l-140 -86l-38 52zM72 530h107v-530h-107v530z" />
    <glyph glyph-name="idieresis" unicode="&#xef;" horiz-adv-x="251" 
d="M76 733q18 -17 18 -41t-18 -41q-17 -17 -41 -17t-41 17t-17 41t17 41q17 18 41 18t41 -18zM165 733q17 18 41 18t41 -18q18 -17 18 -41t-18 -41q-17 -17 -41 -17t-41 17t-17 41t17 41zM72 530h107v-530h-107v530z" />
    <glyph glyph-name="eth" unicode="&#xf0;" horiz-adv-x="613" 
d="M359 796l33 -40l-84 -71q126 -67 195 -163.5t69 -209.5q0 -144 -79 -233q-78 -90 -195 -90q-108 0 -182 74q-74 76 -74 181q0 107 74 181q74 75 182 75q56 0 103 -31q-55 88 -176 146l-102 -85l-33 40l81 68q-52 21 -110 32v105q103 -23 196 -65zM298 88q70 0 116 63
q48 65 48 160q-68 89 -164 89q-62 0 -105 -46q-42 -45 -42 -110q0 -64 42 -110q43 -46 105 -46z" />
    <glyph glyph-name="ntilde" unicode="&#xf1;" horiz-adv-x="603" 
d="M72 0v530h98l6 -70q37 42 72 62t83 20q200 0 200 -235v-307h-107v295q0 146 -118 146q-31 0 -62.5 -18t-49.5 -41l-15 -20v-362h-107zM360 638q-22 0 -61 17t-57 17q-29 0 -46 -32l-57 38q40 67 110 67q20 0 62 -17q43 -17 56 -17q26 0 47 33l56 -38q-42 -68 -110 -68z
" />
    <glyph glyph-name="ograve" unicode="&#xf2;" horiz-adv-x="617" 
d="M42 262q0 121 77 201q76 79 189 79q114 0 191 -81q77 -82 77 -197q0 -113 -77 -195q-77 -80 -191 -80q-115 0 -191 79q-75 80 -75 194zM152 263q0 -74 44 -124q45 -49 113 -49q69 0 112 49q45 49 45 126q0 76 -47 126t-110 50q-65 0 -112 -50q-45 -49 -45 -128zM236 794
l198 -148l-38 -56l-207 134z" />
    <glyph glyph-name="oacute" unicode="&#xf3;" horiz-adv-x="617" 
d="M42 262q0 121 77 201q76 79 189 79q114 0 191 -81q77 -82 77 -197q0 -113 -77 -195q-77 -80 -191 -80q-115 0 -191 79q-75 80 -75 194zM152 263q0 -74 44 -124q45 -49 113 -49q69 0 112 49q45 49 45 126q0 76 -47 126t-110 50q-65 0 -112 -50q-45 -49 -45 -128zM432 724
l-207 -134l-38 56l198 148z" />
    <glyph glyph-name="ocircumflex" unicode="&#xf4;" horiz-adv-x="617" 
d="M42 262q0 121 77 201q76 79 189 79q114 0 191 -81q77 -82 77 -197q0 -113 -77 -195q-77 -80 -191 -80q-115 0 -191 79q-75 80 -75 194zM152 263q0 -74 44 -124q45 -49 113 -49q69 0 112 49q45 49 45 126q0 76 -47 126t-110 50q-65 0 -112 -50q-45 -49 -45 -128zM312 788
l177 -136l-38 -52l-139 86l-140 -86l-38 52z" />
    <glyph glyph-name="otilde" unicode="&#xf5;" horiz-adv-x="617" 
d="M42 262q0 121 77 201q76 79 189 79q114 0 191 -81q77 -82 77 -197q0 -113 -77 -195q-77 -80 -191 -80q-115 0 -191 79q-75 80 -75 194zM152 263q0 -74 44 -124q45 -49 113 -49q69 0 112 49q45 49 45 126q0 76 -47 126t-110 50q-65 0 -112 -50q-45 -49 -45 -128zM367 638
q-22 0 -61 17t-57 17q-29 0 -46 -32l-57 38q40 67 110 67q20 0 62 -17q43 -17 56 -17q26 0 47 33l56 -38q-42 -68 -110 -68z" />
    <glyph glyph-name="odieresis" unicode="&#xf6;" horiz-adv-x="617" 
d="M42 262q0 121 77 201q76 79 189 79q114 0 191 -81q77 -82 77 -197q0 -113 -77 -195q-77 -80 -191 -80q-115 0 -191 79q-75 80 -75 194zM152 263q0 -74 44 -124q45 -49 113 -49q69 0 112 49q45 49 45 126q0 76 -47 126t-110 50q-65 0 -112 -50q-45 -49 -45 -128zM266 733
q18 -17 18 -41t-18 -41q-17 -17 -41 -17t-41 17t-17 41t17 41q17 18 41 18t41 -18zM355 733q17 18 41 18t41 -18q18 -17 18 -41t-18 -41q-17 -17 -41 -17t-41 17t-17 41t17 41z" />
    <glyph glyph-name="divide" unicode="&#xf7;" 
d="M525 196h-483v103h483v-103zM350 61q0 -28 -19.5 -47t-47.5 -19t-47.5 19t-19.5 47q0 29 19.5 49t47.5 20t47.5 -20t19.5 -49zM235 477q20 20 48 20t47 -20q20 -19 20 -47t-20 -48q-19 -19 -47 -19t-48 19q-19 20 -19 48t19 47z" />
    <glyph glyph-name="oslash" unicode="&#xf8;" horiz-adv-x="617" 
d="M540 577l36 -30l-74 -87q74 -83 74 -196t-77 -195q-77 -80 -191 -80q-87 0 -158 50l-73 -85l-35 30l73 86q-73 80 -73 192q0 121 77 201q76 79 189 79q86 0 160 -51zM466 265q0 58 -34 111l-217 -257q43 -31 94 -31q67 0 112 50t45 127zM151 263q0 -56 34 -109l215 257
q-47 32 -91 32q-66 0 -112 -51q-46 -49 -46 -129z" />
    <glyph glyph-name="ugrave" unicode="&#xf9;" horiz-adv-x="602" 
d="M300 -11q-106 0 -167.5 62.5t-61.5 171.5v307h107v-294q0 -73 33 -109.5t89 -36.5q57 0 90 36t33 110v294h107v-307q0 -109 -61.5 -171.5t-168.5 -62.5zM227 794l198 -148l-38 -56l-207 134z" />
    <glyph glyph-name="uacute" unicode="&#xfa;" horiz-adv-x="602" 
d="M300 -11q-106 0 -167.5 62.5t-61.5 171.5v307h107v-294q0 -73 33 -109.5t89 -36.5q57 0 90 36t33 110v294h107v-307q0 -109 -61.5 -171.5t-168.5 -62.5zM424 724l-207 -134l-38 56l198 148z" />
    <glyph glyph-name="ucircumflex" unicode="&#xfb;" horiz-adv-x="602" 
d="M300 -11q-106 0 -167.5 62.5t-61.5 171.5v307h107v-294q0 -73 33 -109.5t89 -36.5q57 0 90 36t33 110v294h107v-307q0 -109 -61.5 -171.5t-168.5 -62.5zM304 788l177 -136l-38 -52l-139 86l-140 -86l-38 52z" />
    <glyph glyph-name="udieresis" unicode="&#xfc;" horiz-adv-x="602" 
d="M300 -11q-106 0 -167.5 62.5t-61.5 171.5v307h107v-294q0 -73 33 -109.5t89 -36.5q57 0 90 36t33 110v294h107v-307q0 -109 -61.5 -171.5t-168.5 -62.5zM255 733q18 -17 18 -41t-18 -41q-17 -17 -41 -17t-41 17t-17 41t17 41q17 18 41 18t41 -18zM344 733q17 18 41 18
t41 -18q18 -17 18 -41t-18 -41q-17 -17 -41 -17t-41 17t-17 41t17 41z" />
    <glyph glyph-name="yacute" unicode="&#xfd;" horiz-adv-x="576" 
d="M334 286l110 244h117l-351 -746h-114l136 279l-216 467h118l111 -244q11 -24 41 -106h6q11 38 42 106zM412 724l-207 -134l-38 56l198 148z" />
    <glyph glyph-name="thorn" unicode="&#xfe;" horiz-adv-x="649" 
d="M607 264q0 -114 -70 -194q-69 -81 -186 -81q-79 0 -174 69v-274h-105v980h105v-311q75 89 174 89q118 0 187 -82t69 -196zM341 443q-72 0 -119 -53q-45 -52 -45 -128v-79q17 -21 30 -35q17 -17 56 -39q40 -20 78 -20q72 0 115 48t43 127t-43.5 129t-114.5 50z" />
    <glyph glyph-name="ydieresis" unicode="&#xff;" horiz-adv-x="576" 
d="M334 286l110 244h117l-351 -746h-114l136 279l-216 467h118l111 -244q11 -24 41 -106h6q11 38 42 106zM244 733q18 -17 18 -41t-18 -41q-17 -17 -41 -17t-41 17t-17 41t17 41q17 18 41 18t41 -18zM333 733q17 18 41 18t41 -18q18 -17 18 -41t-18 -41q-17 -17 -41 -17
t-41 17t-17 41t17 41z" />
    <glyph glyph-name="Amacron" unicode="&#x100;" horiz-adv-x="724" 
d="M11 0l317 712h67l317 -712h-120l-69 158h-323l-68 -158h-121zM246 265h230l-79 182q-20 48 -32 87h-6q-2 -7 -15 -38l-19 -49zM223 839v72h276v-72h-276z" />
    <glyph glyph-name="amacron" unicode="&#x101;" horiz-adv-x="559" 
d="M380 205v24q-86 16 -121 16q-110 0 -110 -85q0 -40 23 -59.5t73 -19.5q59 0 97 35.5t38 88.5zM255 542q99 0 166 -53q66 -53 66 -141v-348h-94l-9 66q-59 -77 -159 -77q-183 0 -183 168q0 73 57 121t158 48q41 0 123 -20v43q0 41 -39 69q-40 29 -86 29q-76 0 -149 -38
v102q72 31 149 31zM132 657v72h276v-72h-276z" />
    <glyph glyph-name="Abreve" unicode="&#x102;" horiz-adv-x="724" 
d="M11 0l317 712h67l317 -712h-120l-69 158h-323l-68 -158h-121zM246 265h230l-79 182q-20 48 -32 87h-6q-2 -7 -15 -38l-19 -49zM470 945l64 -28q-24 -60 -70 -89.5t-103 -29.5t-103.5 30t-69.5 89l65 28q12 -32 32 -50q29 -25 76 -25q39 0 65 16t44 59z" />
    <glyph glyph-name="abreve" unicode="&#x103;" horiz-adv-x="559" 
d="M380 205v24q-86 16 -121 16q-110 0 -110 -85q0 -40 23 -59.5t73 -19.5q59 0 97 35.5t38 88.5zM255 542q99 0 166 -53q66 -53 66 -141v-348h-94l-9 66q-59 -77 -159 -77q-183 0 -183 168q0 73 57 121t158 48q41 0 123 -20v43q0 41 -39 69q-40 29 -86 29q-76 0 -149 -38
v102q72 31 149 31zM377 763l64 -28q-24 -60 -70 -89.5t-103 -29.5t-103.5 30t-69.5 89l65 28q12 -32 32 -50q29 -25 76 -25q39 0 65 16t44 59z" />
    <glyph glyph-name="Aogonek" unicode="&#x104;" horiz-adv-x="724" 
d="M673 -129v-73q-28 -15 -62 -15q-43 0 -72 26t-29 64q0 68 82 127l-69 158h-323l-68 -158h-121l317 712h67l317 -712h-14q-42 -16 -78 -51q-35 -37 -35 -67q0 -14 9.5 -22.5t23.5 -8.5q27 0 55 20zM246 265h230l-79 182q-20 48 -32 87h-6q-2 -7 -15 -38l-19 -49z" />
    <glyph glyph-name="aogonek" unicode="&#x105;" horiz-adv-x="559" 
d="M474 -129v-73q-28 -15 -62 -15q-43 0 -72 26t-29 64q0 33 22.5 67.5t59.5 59.5l-9 66q-59 -77 -159 -77q-183 0 -183 168q0 73 57 121t158 48q41 0 123 -20v43q0 41 -39 69q-40 29 -86 29q-76 0 -149 -38v102q72 31 149 31q99 0 166 -53q66 -53 66 -141v-347
q-34 -16 -68 -52q-33 -38 -33 -67q0 -14 9.5 -22.5t23.5 -8.5q27 0 55 20zM380 205v24q-86 16 -121 16q-110 0 -110 -85q0 -40 23 -59.5t73 -19.5q59 0 97 35.5t38 88.5z" />
    <glyph glyph-name="Cacute" unicode="&#x106;" horiz-adv-x="624" 
d="M574 157v-124q-90 -44 -168 -44q-149 0 -256 107q-105 106 -105 260t105 261q107 107 256 107q82 0 168 -44v-127q-80 64 -168 64q-109 0 -179 -76q-69 -77 -69 -185t69 -185q71 -75 179 -75q83 0 168 61zM519 906l-207 -134l-38 56l198 148z" />
    <glyph glyph-name="cacute" unicode="&#x107;" horiz-adv-x="481" 
d="M307 90q71 0 126 51v-120q-59 -32 -126 -32q-114 0 -191 80q-75 81 -75 195q0 120 77 199q76 79 189 79q65 0 125 -33v-123q-58 55 -125 55q-64 0 -111 -50q-45 -49 -45 -127q0 -72 45 -123t111 -51zM427 724l-207 -134l-38 56l198 148z" />
    <glyph glyph-name="Ccircumflex" unicode="&#x108;" horiz-adv-x="624" 
d="M574 157v-124q-90 -44 -168 -44q-149 0 -256 107q-105 106 -105 260t105 261q107 107 256 107q82 0 168 -44v-127q-80 64 -168 64q-109 0 -179 -76q-69 -77 -69 -185t69 -185q71 -75 179 -75q83 0 168 61zM397 970l177 -136l-38 -52l-139 86l-140 -86l-38 52z" />
    <glyph glyph-name="ccircumflex" unicode="&#x109;" horiz-adv-x="481" 
d="M307 90q71 0 126 51v-120q-59 -32 -126 -32q-114 0 -191 80q-75 81 -75 195q0 120 77 199q76 79 189 79q65 0 125 -33v-123q-58 55 -125 55q-64 0 -111 -50q-45 -49 -45 -127q0 -72 45 -123t111 -51zM296 788l177 -136l-38 -52l-139 86l-140 -86l-38 52z" />
    <glyph glyph-name="Cdotaccent" unicode="&#x10a;" horiz-adv-x="624" 
d="M574 157v-124q-90 -44 -168 -44q-149 0 -256 107q-105 106 -105 260t105 261q107 107 256 107q82 0 168 -44v-127q-80 64 -168 64q-109 0 -179 -76q-69 -77 -69 -185t69 -185q71 -75 179 -75q83 0 168 61zM404 816q-25 0 -41.5 17t-16.5 41t17 41.5t41 17.5t41 -17.5
t17 -41.5t-17 -41t-41 -17z" />
    <glyph glyph-name="cdotaccent" unicode="&#x10b;" horiz-adv-x="481" 
d="M307 90q71 0 126 51v-120q-59 -32 -126 -32q-114 0 -191 80q-75 81 -75 195q0 120 77 199q76 79 189 79q65 0 125 -33v-123q-58 55 -125 55q-64 0 -111 -50q-45 -49 -45 -127q0 -72 45 -123t111 -51zM303 634q-25 0 -41.5 17t-16.5 41t17 41.5t41 17.5t41 -17.5t17 -41.5
t-17 -41t-41 -17z" />
    <glyph glyph-name="Ccaron" unicode="&#x10c;" horiz-adv-x="624" 
d="M574 157v-124q-90 -44 -168 -44q-149 0 -256 107q-105 106 -105 260t105 261q107 107 256 107q82 0 168 -44v-127q-80 64 -168 64q-109 0 -179 -76q-69 -77 -69 -185t69 -185q71 -75 179 -75q83 0 168 61zM404 884l139 86l38 -52l-177 -136l-178 136l38 52z" />
    <glyph glyph-name="ccaron" unicode="&#x10d;" horiz-adv-x="481" 
d="M307 90q71 0 126 51v-120q-59 -32 -126 -32q-114 0 -191 80q-75 81 -75 195q0 120 77 199q76 79 189 79q65 0 125 -33v-123q-58 55 -125 55q-64 0 -111 -50q-45 -49 -45 -127q0 -72 45 -123t111 -51zM296 702l139 86l38 -52l-177 -136l-178 136l38 52z" />
    <glyph glyph-name="Dcaron" unicode="&#x10e;" horiz-adv-x="694" 
d="M78 712h184q94 0 171 -30t123 -82q93 -104 93 -244q0 -139 -93 -244q-46 -52 -123 -82t-171 -30h-184v712zM188 107h55q140 0 217 64t77 185t-77 185.5t-217 64.5h-55v-499zM282 884l139 86l38 -52l-177 -136l-178 136l38 52z" />
    <glyph glyph-name="dcaron" unicode="&#x10f;" horiz-adv-x="648" 
d="M151 265q0 -79 42 -127t113 -48q73 0 118 52t45 126v79q-70 94 -163 94q-71 0 -113 -48.5t-42 -127.5zM296 542q96 0 173 -83v305h107v-764h-97l-7 81q-71 -92 -177 -92q-117 0 -186 81q-68 82 -68 195q0 114 69 195q69 82 186 82zM702 568l-56 10q39 113 53 206l96 8
q-38 -128 -93 -224z" />
    <glyph glyph-name="Dcroat" unicode="&#x110;" horiz-adv-x="694" 
d="M78 712h184q94 0 171 -30t123 -82q93 -104 93 -244q0 -139 -93 -244q-46 -52 -123 -82t-171 -30h-184v329h-69v52h69v331zM188 107h55q140 0 217 64t77 185t-77 185.5t-217 64.5h-55v-225h171v-52h-171v-222z" />
    <glyph glyph-name="dslash" unicode="&#x111;" horiz-adv-x="648" 
d="M296 542q96 0 174 -86v152h-169v52h169v104h106v-104h45v-52h-45v-608h-96l-7 81q-71 -92 -178 -92q-117 0 -186 81q-68 82 -68 195q0 114 69 195q69 82 186 82zM151 265q0 -78 43 -127.5t112 -49.5q73 0 118 53q46 52 46 127v79q-71 95 -164 95q-71 0 -113 -49t-42 -128
z" />
    <glyph glyph-name="Emacron" unicode="&#x112;" horiz-adv-x="549" 
d="M485 0h-407v712h407v-106h-297v-178h288v-106h-288v-215h297v-107zM137 839v72h276v-72h-276z" />
    <glyph glyph-name="emacron" unicode="&#x113;" horiz-adv-x="564" 
d="M154 326h266q-4 58 -40.5 92t-89.5 34t-88.5 -33.5t-47.5 -92.5zM469 125v-108q-75 -28 -161 -28q-117 0 -192 78t-75 207q0 116 68 192q67 76 181 76q108 0 170.5 -72t62.5 -207v-18h-371q9 -75 50.5 -117.5t106.5 -42.5q89 0 160 40zM155 657v72h276v-72h-276z" />
    <glyph glyph-name="Ebreve" unicode="&#x114;" horiz-adv-x="549" 
d="M485 0h-407v712h407v-106h-297v-178h288v-106h-288v-215h297v-107zM387 945l64 -28q-24 -60 -70 -89.5t-103 -29.5t-103.5 30t-69.5 89l65 28q12 -32 32 -50q29 -25 76 -25q39 0 65 16t44 59z" />
    <glyph glyph-name="ebreve" unicode="&#x115;" horiz-adv-x="564" 
d="M154 326h266q-4 58 -40.5 92t-89.5 34t-88.5 -33.5t-47.5 -92.5zM469 125v-108q-75 -28 -161 -28q-117 0 -192 78t-75 207q0 116 68 192q67 76 181 76q108 0 170.5 -72t62.5 -207v-18h-371q9 -75 50.5 -117.5t106.5 -42.5q89 0 160 40zM400 763l64 -28q-24 -60 -70 -89.5
t-103 -29.5t-103.5 30t-69.5 89l65 28q12 -32 32 -50q29 -25 76 -25q39 0 65 16t44 59z" />
    <glyph glyph-name="Edotaccent" unicode="&#x116;" horiz-adv-x="549" 
d="M485 0h-407v712h407v-106h-297v-178h288v-106h-288v-215h297v-107zM279 816q-25 0 -41.5 17t-16.5 41t17 41.5t41 17.5t41 -17.5t17 -41.5t-17 -41t-41 -17z" />
    <glyph glyph-name="edotaccent" unicode="&#x117;" horiz-adv-x="564" 
d="M154 326h266q-4 58 -40.5 92t-89.5 34t-88.5 -33.5t-47.5 -92.5zM469 125v-108q-75 -28 -161 -28q-117 0 -192 78t-75 207q0 116 68 192q67 76 181 76q108 0 170.5 -72t62.5 -207v-18h-371q9 -75 50.5 -117.5t106.5 -42.5q89 0 160 40zM293 634q-25 0 -41.5 17t-16.5 41
t17 41.5t41 17.5t41 -17.5t17 -41.5t-17 -41t-41 -17z" />
    <glyph glyph-name="Eogonek" unicode="&#x118;" horiz-adv-x="549" 
d="M376 0h-298v712h407v-106h-297v-178h288v-106h-288v-215h297q0 -107 -2 -107q-42 -16 -78 -51q-35 -37 -35 -67q0 -14 9.5 -22.5t23.5 -8.5q27 0 55 20v-73q-28 -15 -62 -15q-43 0 -72 26t-29 64q0 70 81 127z" />
    <glyph glyph-name="eogonek" unicode="&#x119;" horiz-adv-x="564" 
d="M361 -129v-73q-29 -15 -62 -15q-43 0 -72 26t-29 64q0 64 70 119q-102 14 -164 89q-63 77 -63 193t68 192q67 76 181 76q108 0 170.5 -72t62.5 -207v-18h-371q9 -75 50.5 -117.5t106.5 -42.5q89 0 160 40v-108q-43 -17 -99 -24q-38 -20 -68 -51q-29 -32 -29 -60
q0 -14 9.5 -22.5t23.5 -8.5q27 0 55 20zM154 326h266q-4 58 -40.5 92t-89.5 34t-88.5 -33.5t-47.5 -92.5z" />
    <glyph glyph-name="Ecaron" unicode="&#x11a;" horiz-adv-x="549" 
d="M485 0h-407v712h407v-106h-297v-178h288v-106h-288v-215h297v-107zM275 884l139 86l38 -52l-177 -136l-178 136l38 52z" />
    <glyph glyph-name="ecaron" unicode="&#x11b;" horiz-adv-x="564" 
d="M154 326h266q-4 58 -40.5 92t-89.5 34t-88.5 -33.5t-47.5 -92.5zM469 125v-108q-75 -28 -161 -28q-117 0 -192 78t-75 207q0 116 68 192q67 76 181 76q108 0 170.5 -72t62.5 -207v-18h-371q9 -75 50.5 -117.5t106.5 -42.5q89 0 160 40zM293 702l139 86l38 -52l-177 -136
l-178 136l38 52z" />
    <glyph glyph-name="Gcircumflex" unicode="&#x11c;" horiz-adv-x="706" 
d="M353 274v108h280v-350q-117 -38 -227 -38q-150 0 -256 104q-105 104 -105 258t105 261q107 107 256 107q95 0 192 -49v-122q-18 12 -49 29q-63 35 -143 35q-109 0 -179 -76t-70 -185t70 -182t179 -73q63 0 116 13v160h-169zM402 970l177 -136l-38 -52l-139 86l-140 -86
l-38 52z" />
    <glyph glyph-name="gcircumflex" unicode="&#x11d;" horiz-adv-x="633" 
d="M296 443q-68 0 -106.5 -45.5t-38.5 -121.5t39 -122t107 -46q70 0 114 50q43 49 43 122v71q-65 92 -158 92zM457 454l7 76h97v-499q0 -107 -75 -181q-74 -75 -184 -75q-103 0 -195 40v111q95 -51 195 -51q57 0 104 41q48 40 48 105v74q-59 -86 -168 -86q-113 0 -179 79
q-66 80 -66 188t65 187q66 79 179 79q93 0 172 -88zM301 788l177 -136l-38 -52l-139 86l-140 -86l-38 52z" />
    <glyph glyph-name="Gbreve" unicode="&#x11e;" horiz-adv-x="706" 
d="M353 274v108h280v-350q-117 -38 -227 -38q-150 0 -256 104q-105 104 -105 258t105 261q107 107 256 107q95 0 192 -49v-122q-18 12 -49 29q-63 35 -143 35q-109 0 -179 -76t-70 -185t70 -182t179 -73q63 0 116 13v160h-169zM516 945l64 -28q-24 -60 -70 -89.5t-103 -29.5
t-103.5 30t-69.5 89l65 28q12 -32 32 -50q29 -25 76 -25q39 0 65 16t44 59z" />
    <glyph glyph-name="gbreve" unicode="&#x11f;" horiz-adv-x="633" 
d="M296 443q-68 0 -106.5 -45.5t-38.5 -121.5t39 -122t107 -46q70 0 114 50q43 49 43 122v71q-65 92 -158 92zM457 454l7 76h97v-499q0 -107 -75 -181q-74 -75 -184 -75q-103 0 -195 40v111q95 -51 195 -51q57 0 104 41q48 40 48 105v74q-59 -86 -168 -86q-113 0 -179 79
q-66 80 -66 188t65 187q66 79 179 79q93 0 172 -88zM409 763l64 -28q-24 -60 -70 -89.5t-103 -29.5t-103.5 30t-69.5 89l65 28q12 -32 32 -50q29 -25 76 -25q39 0 65 16t44 59z" />
    <glyph glyph-name="Gdotaccent" unicode="&#x120;" horiz-adv-x="706" 
d="M353 274v108h280v-350q-117 -38 -227 -38q-150 0 -256 104q-105 104 -105 258t105 261q107 107 256 107q95 0 192 -49v-122q-18 12 -49 29q-63 35 -143 35q-109 0 -179 -76t-70 -185t70 -182t179 -73q63 0 116 13v160h-169zM411 816q-25 0 -41.5 17t-16.5 41t17 41.5
t41 17.5t41 -17.5t17 -41.5t-17 -41t-41 -17z" />
    <glyph glyph-name="gdotaccent" unicode="&#x121;" horiz-adv-x="633" 
d="M296 443q-68 0 -106.5 -45.5t-38.5 -121.5t39 -122t107 -46q70 0 114 50q43 49 43 122v71q-65 92 -158 92zM457 454l7 76h97v-499q0 -107 -75 -181q-74 -75 -184 -75q-103 0 -195 40v111q95 -51 195 -51q57 0 104 41q48 40 48 105v74q-59 -86 -168 -86q-113 0 -179 79
q-66 80 -66 188t65 187q66 79 179 79q93 0 172 -88zM301 634q-25 0 -41.5 17t-16.5 41t17 41.5t41 17.5t41 -17.5t17 -41.5t-17 -41t-41 -17z" />
    <glyph glyph-name="Gcommaaccent" unicode="&#x122;" horiz-adv-x="706" 
d="M353 274v108h280v-350q-117 -38 -227 -38q-150 0 -256 104q-105 104 -105 258t105 261q107 107 256 107q95 0 192 -49v-122q-18 12 -49 29q-63 35 -143 35q-109 0 -179 -76t-70 -185t70 -182t179 -73q63 0 116 13v160h-169zM366 -266l-56 10q39 113 53 206l96 8
q-38 -128 -93 -224z" />
    <glyph glyph-name="gcommaaccent" unicode="&#x123;" horiz-adv-x="633" 
d="M296 443q-68 0 -106.5 -45.5t-38.5 -121.5t39 -122t107 -46q70 0 114 50q43 49 43 122v71q-65 92 -158 92zM457 454l7 76h97v-499q0 -107 -75 -181q-74 -75 -184 -75q-103 0 -195 40v111q95 -51 195 -51q57 0 104 41q48 40 48 105v74q-59 -86 -168 -86q-113 0 -179 79
q-66 80 -66 188t65 187q66 79 179 79q93 0 172 -88zM317 809l56 -10q-39 -113 -53 -206l-96 -8q38 128 93 224z" />
    <glyph glyph-name="Hcircumflex" unicode="&#x124;" horiz-adv-x="674" 
d="M188 428h299v284h110v-712h-110v321h-299v-321h-110v712h110v-284zM337 970l177 -136l-38 -52l-139 86l-140 -86l-38 52z" />
    <glyph glyph-name="hcircumflex" unicode="&#x125;" horiz-adv-x="602" 
d="M72 0v764h107v-304q64 82 153 82q199 0 199 -235v-307h-107v295q0 146 -119 146q-30 0 -62 -18.5t-49 -40.5l-15 -20v-362h-107zM120 970l177 -136l-38 -52l-139 86l-140 -86l-38 52z" />
    <glyph glyph-name="Hbar" unicode="&#x126;" horiz-adv-x="674" 
d="M597 596h68v-52h-68v-544h-111v321h-298v-321h-110v544h-69v52h69v116h110v-116h298v116h111v-116zM188 428h298v116h-298v-116z" />
    <glyph glyph-name="hbar" unicode="&#x127;" horiz-adv-x="602" 
d="M72 660v104h107v-104h146v-52h-146v-149q29 36 70 59.5t82 23.5q200 0 200 -235v-307h-107v297q0 146 -119 146q-30 0 -61.5 -19t-49.5 -42l-15 -20v-362h-107v608h-44v52h44z" />
    <glyph glyph-name="Itilde" unicode="&#x128;" horiz-adv-x="265" 
d="M185 820q-22 0 -61 17t-57 17q-29 0 -46 -32l-57 38q40 67 110 67q20 0 62 -17q43 -17 56 -17q26 0 47 33l56 -38q-42 -68 -110 -68zM78 712h110v-712h-110v712z" />
    <glyph glyph-name="itilde" unicode="&#x129;" horiz-adv-x="251" 
d="M176 638q-22 0 -61 17t-57 17q-29 0 -46 -32l-57 38q40 67 110 67q20 0 62 -17q43 -17 56 -17q26 0 47 33l56 -38q-42 -68 -110 -68zM72 530h107v-530h-107v530z" />
    <glyph glyph-name="Imacron" unicode="&#x12a;" horiz-adv-x="265" 
d="M78 712h110v-712h-110v712zM-6 839v72h276v-72h-276z" />
    <glyph glyph-name="imacron" unicode="&#x12b;" horiz-adv-x="251" 
d="M72 530h107v-530h-107v530zM-16 657v72h276v-72h-276z" />
    <glyph glyph-name="Ibreve" unicode="&#x12c;" horiz-adv-x="265" 
d="M242 945l64 -28q-24 -60 -70 -89.5t-103 -29.5t-103.5 30t-69.5 89l65 28q12 -32 32 -50q29 -25 76 -25q39 0 65 16t44 59zM78 712h110v-712h-110v712z" />
    <glyph glyph-name="ibreve" unicode="&#x12d;" horiz-adv-x="251" 
d="M229 763l64 -28q-24 -60 -70 -89.5t-103 -29.5t-103.5 30t-69.5 89l65 28q12 -32 32 -50q29 -25 76 -25q39 0 65 16t44 59zM72 530h107v-530h-107v530z" />
    <glyph glyph-name="Iogonek" unicode="&#x12e;" horiz-adv-x="265" 
d="M159 -129v-73q-29 -15 -62 -15q-43 0 -72 26t-29 64q0 33 22.5 67.5t59.5 59.5v712h110v-712h-4q-42 -16 -78 -51q-35 -37 -35 -67q0 -14 9.5 -22.5t23.5 -8.5q27 0 55 20z" />
    <glyph glyph-name="iogonek" unicode="&#x12f;" horiz-adv-x="251" 
d="M153 -129v-73q-29 -15 -62 -15q-43 0 -72 26t-29 64q0 33 22.5 67.5t59.5 59.5v530h107v-530q-43 -17 -78 -52q-36 -36 -36 -66q0 -14 9.5 -22.5t23.5 -8.5q27 0 55 20zM125 580q-27 0 -47 19.5t-20 47.5q0 27 20 46.5t47 19.5q28 0 47.5 -19t19.5 -47t-19.5 -47.5
t-47.5 -19.5z" />
    <glyph glyph-name="Idot" unicode="&#x130;" horiz-adv-x="265" 
d="M135 816q-25 0 -41.5 17t-16.5 41t17 41.5t41 17.5t41 -17.5t17 -41.5t-17 -41t-41 -17zM78 712h110v-712h-110v712z" />
    <glyph glyph-name="dotlessi" unicode="&#x131;" horiz-adv-x="251" 
d="M72 530h107v-530h-107v530z" />
    <glyph glyph-name="IJ" unicode="&#x132;" horiz-adv-x="691" 
d="M503 223v489h110v-491q0 -109 -63 -171q-61 -61 -157 -61q-43 0 -79 18v121q35 -28 82 -28t77 32.5t30 90.5zM78 712h110v-712h-110v712z" />
    <glyph glyph-name="ij" unicode="&#x133;" horiz-adv-x="507" 
d="M192 -218v101q20 -7 51 -7q39 0 62.5 28.5t23.5 68.5v557h107v-553q0 -86 -49 -144q-48 -58 -140 -58q-28 0 -55 7zM382 580q-27 0 -47 19.5t-20 47.5q0 27 20 46.5t47 19.5q28 0 47.5 -19t19.5 -47t-19.5 -47.5t-47.5 -19.5zM179 530v-530h-107v530h107zM125 580
q-27 0 -47 19.5t-20 47.5q0 27 20 46.5t47 19.5q28 0 47.5 -19t19.5 -47t-19.5 -47.5t-47.5 -19.5z" />
    <glyph glyph-name="Jcircumflex" unicode="&#x134;" horiz-adv-x="420" 
d="M232 223v489h110v-491q0 -109 -63 -171q-61 -61 -157 -61q-43 0 -79 18v121q35 -28 82 -28t77 32.5t30 90.5zM286 970l177 -136l-38 -52l-139 86l-140 -86l-38 52z" />
    <glyph glyph-name="jcircumflex" unicode="&#x135;" horiz-adv-x="250" 
d="M-68 -218v96q21 -7 54 -7q40 0 63 29t23 71v559h107v-548q0 -89 -47 -148t-143 -59q-30 0 -57 7zM126 788l177 -136l-38 -52l-139 86l-140 -86l-38 52z" />
    <glyph glyph-name="Kcommaaccent" unicode="&#x136;" horiz-adv-x="621" 
d="M461 712h146l-303 -336l302 -376h-143l-233 294l-43 -48v-246h-109v712h109v-249q0 -28 -2 -66h5q21 33 46 62zM277 -266l-56 10q39 113 53 206l96 8q-38 -128 -93 -224z" />
    <glyph glyph-name="kcommaaccent" unicode="&#x137;" horiz-adv-x="541" 
d="M239 372l141 158h132l-219 -247l229 -283h-135l-163 210l-45 -48v-162h-107v764h107v-364q0 -51 -3 -102h6q30 47 57 74zM210 -266l-56 10q39 113 53 206l96 8q-38 -128 -93 -224z" />
    <glyph glyph-name="kgreenlandic" unicode="&#x138;" horiz-adv-x="541" 
d="M239 372l141 158h132l-219 -247l229 -283h-135l-163 210l-45 -48v-162h-107v530h107v-130q0 -51 -3 -102h6q30 47 57 74z" />
    <glyph glyph-name="Lacute" unicode="&#x139;" horiz-adv-x="453" 
d="M78 712h110v-605h239v-107h-349v712zM257 906l-207 -134l-38 56l198 148z" />
    <glyph glyph-name="lacute" unicode="&#x13a;" horiz-adv-x="251" 
d="M248 906l-207 -134l-38 56l198 148zM179 0h-107v764h107v-764z" />
    <glyph glyph-name="Lcommaaccent" unicode="&#x13b;" horiz-adv-x="453" 
d="M78 712h110v-605h239v-107h-349v712zM208 -266l-56 10q39 113 53 206l96 8q-38 -128 -93 -224z" />
    <glyph glyph-name="lcommaaccent" unicode="&#x13c;" horiz-adv-x="251" 
d="M91 -266l-56 10q39 113 53 206l96 8q-38 -128 -93 -224zM179 0h-107v764h107v-764z" />
    <glyph glyph-name="Lcaron" unicode="&#x13d;" horiz-adv-x="453" 
d="M78 712h110v-605h239v-107h-349v712zM325 551l-56 10q39 113 53 206l96 8q-38 -128 -93 -224z" />
    <glyph glyph-name="lcaron" unicode="&#x13e;" horiz-adv-x="251" 
d="M305 568l-56 10q39 113 53 206l96 8q-38 -128 -93 -224zM179 0h-107v764h107v-764z" />
    <glyph glyph-name="Ldot" unicode="&#x13f;" horiz-adv-x="453" 
d="M78 712h110v-605h239v-107h-349v712zM394 263q0 -28 -19.5 -47t-48.5 -19q-43 -3 -61.5 40.5t13.5 73.5q29 32 73.5 14t42.5 -62z" />
    <glyph glyph-name="ldot" unicode="&#x140;" horiz-adv-x="385" 
d="M179 0h-107v764h107v-764zM378 263q0 -28 -19.5 -47t-48.5 -19q-43 -3 -61.5 40.5t13.5 73.5q29 32 73.5 14t42.5 -62z" />
    <glyph glyph-name="Lslash" unicode="&#x141;" horiz-adv-x="453" 
d="M293 456l-105 -88v-261h239v-107h-349v276l-69 -57l-33 39l102 86v368h110v-276l71 59z" />
    <glyph glyph-name="lslash" unicode="&#x142;" horiz-adv-x="251" 
d="M246 481l33 -39l-100 -84v-358h-107v268l-60 -51q-14 20 -33 39l93 80v428h107v-338z" />
    <glyph glyph-name="Nacute" unicode="&#x143;" horiz-adv-x="712" 
d="M525 712h110v-712h-76l-306 418q-27 36 -63 95h-6q4 -64 4 -99v-414h-110v712h91l295 -404q35 -49 61 -92h5q-5 50 -5 103v393zM475 906l-207 -134l-38 56l198 148z" />
    <glyph glyph-name="nacute" unicode="&#x144;" horiz-adv-x="603" 
d="M72 0v530h98l6 -70q37 42 72 62t83 20q200 0 200 -235v-307h-107v295q0 146 -118 146q-31 0 -62.5 -18t-49.5 -41l-15 -20v-362h-107zM423 724l-207 -134l-38 56l198 148z" />
    <glyph glyph-name="Ncommaaccent" unicode="&#x145;" horiz-adv-x="712" 
d="M525 712h110v-712h-76l-306 418q-27 36 -63 95h-6q4 -64 4 -99v-414h-110v712h91l295 -404q35 -49 61 -92h5q-5 50 -5 103v393zM334 -266l-56 10q39 113 53 206l96 8q-38 -128 -93 -224z" />
    <glyph glyph-name="ncommaaccent" unicode="&#x146;" horiz-adv-x="603" 
d="M72 0v530h98l6 -70q37 42 72 62t83 20q200 0 200 -235v-307h-107v295q0 146 -118 146q-31 0 -62.5 -18t-49.5 -41l-15 -20v-362h-107zM244 -266l-56 10q39 113 53 206l96 8q-38 -128 -93 -224z" />
    <glyph glyph-name="Ncaron" unicode="&#x147;" horiz-adv-x="712" 
d="M525 712h110v-712h-76l-306 418q-27 36 -63 95h-6q4 -64 4 -99v-414h-110v712h91l295 -404q35 -49 61 -92h5q-5 50 -5 103v393zM353 884l139 86l38 -52l-177 -136l-178 136l38 52z" />
    <glyph glyph-name="ncaron" unicode="&#x148;" horiz-adv-x="603" 
d="M72 0v530h98l6 -70q37 42 72 62t83 20q200 0 200 -235v-307h-107v295q0 146 -118 146q-31 0 -62.5 -18t-49.5 -41l-15 -20v-362h-107zM299 702l139 86l38 -52l-177 -136l-178 136l38 52z" />
    <glyph glyph-name="napostrophe" unicode="&#x149;" horiz-adv-x="807" 
d="M276 0v530h98l6 -70q37 42 72 62t83 20q200 0 200 -235v-307h-107v295q0 146 -118 146q-31 0 -62.5 -18t-49.5 -41l-15 -20v-362h-107zM97 470l-67 12q52 149 71 281l122 12q-54 -183 -126 -305z" />
    <glyph glyph-name="Eng" unicode="&#x14a;" horiz-adv-x="712" 
d="M403 -217v99q24 -9 53 -9q32 0 51.5 24.5t19.5 58.5v85l-275 377q-27 36 -63 95h-6q4 -64 4 -99v-414h-109v712h91l294 -404l61 -91h5q-5 100 -5 102v393h111v-748q0 -81 -45 -135t-131 -54q-19 0 -56 8z" />
    <glyph glyph-name="eng" unicode="&#x14b;" horiz-adv-x="603" 
d="M343 -225q-20 0 -58 8v101q29 -8 54 -8q42 0 64 27t22 69v326q0 74 -32.5 110.5t-88.5 36.5q-30 0 -61.5 -19t-48.5 -42l-15 -20v-364h-107v530h98l5 -65q75 77 148 77q104 0 156 -60t52 -174v-324q0 -97 -47 -153t-141 -56z" />
    <glyph glyph-name="Omacron" unicode="&#x14c;" horiz-adv-x="811" 
d="M405 724q151 0 256 -107t105 -261t-105 -261q-105 -106 -256 -106q-150 0 -255 107q-105 106 -105 260q0 153 105 260q105 108 255 108zM405 96q109 0 179 75q70 76 70 185t-70 185t-179 76q-108 0 -178 -76t-70 -185t70 -185q71 -75 178 -75zM268 839v72h276v-72h-276z
" />
    <glyph glyph-name="omacron" unicode="&#x14d;" horiz-adv-x="617" 
d="M42 262q0 121 77 201q76 79 189 79q114 0 191 -81q77 -82 77 -197q0 -113 -77 -195q-77 -80 -191 -80q-115 0 -191 79q-75 80 -75 194zM152 263q0 -74 44 -124q45 -49 113 -49q69 0 112 49q45 49 45 126q0 76 -47 126t-110 50q-65 0 -112 -50q-45 -49 -45 -128zM171 657
v72h276v-72h-276z" />
    <glyph glyph-name="Obreve" unicode="&#x14e;" horiz-adv-x="811" 
d="M405 724q151 0 256 -107t105 -261t-105 -261q-105 -106 -256 -106q-150 0 -255 107q-105 106 -105 260q0 153 105 260q105 108 255 108zM405 96q109 0 179 75q70 76 70 185t-70 185t-179 76q-108 0 -178 -76t-70 -185t70 -185q71 -75 178 -75zM518 945l64 -28
q-24 -60 -70 -89.5t-103 -29.5t-103.5 30t-69.5 89l65 28q12 -32 32 -50q29 -25 76 -25q39 0 65 16t44 59z" />
    <glyph glyph-name="obreve" unicode="&#x14f;" horiz-adv-x="617" 
d="M42 262q0 121 77 201q76 79 189 79q114 0 191 -81q77 -82 77 -197q0 -113 -77 -195q-77 -80 -191 -80q-115 0 -191 79q-75 80 -75 194zM152 263q0 -74 44 -124q45 -49 113 -49q69 0 112 49q45 49 45 126q0 76 -47 126t-110 50q-65 0 -112 -50q-45 -49 -45 -128zM419 763
l64 -28q-24 -60 -70 -89.5t-103 -29.5t-103.5 30t-69.5 89l65 28q12 -32 32 -50q29 -25 76 -25q39 0 65 16t44 59z" />
    <glyph glyph-name="Ohungarumlaut" unicode="&#x150;" horiz-adv-x="811" 
d="M405 724q151 0 256 -107t105 -261t-105 -261q-105 -106 -256 -106q-150 0 -255 107q-105 106 -105 260q0 153 105 260q105 108 255 108zM405 96q109 0 179 75q70 76 70 185t-70 185t-179 76q-108 0 -178 -76t-70 -185t70 -185q71 -75 178 -75zM264 827l128 139l56 -58
l-139 -126zM420 827l127 139l57 -58l-139 -126z" />
    <glyph glyph-name="ohungarumlaut" unicode="&#x151;" horiz-adv-x="617" 
d="M42 262q0 121 77 201q76 79 189 79q114 0 191 -81q77 -82 77 -197q0 -113 -77 -195q-77 -80 -191 -80q-115 0 -191 79q-75 80 -75 194zM152 263q0 -74 44 -124q45 -49 113 -49q69 0 112 49q45 49 45 126q0 76 -47 126t-110 50q-65 0 -112 -50q-45 -49 -45 -128zM168 645
l128 139l56 -58l-139 -126zM324 645l127 139l57 -58l-139 -126z" />
    <glyph glyph-name="OE" unicode="&#x152;" horiz-adv-x="964" 
d="M900 712v-106h-297v-178h288v-107h-288v-215h297v-106h-406q-46 -11 -89 -11q-150 0 -255 107q-105 106 -105 260q0 153 105 260q105 108 255 108q48 0 93 -12h402zM405 96q47 0 88 15v491q-41 15 -88 15q-108 0 -178 -76t-70 -185t70 -185q71 -75 178 -75z" />
    <glyph glyph-name="oe" unicode="&#x153;" horiz-adv-x="983" 
d="M942 273v-26h-370q8 -74 50 -118.5t107 -44.5q86 0 160 41v-108q-75 -28 -161 -28q-65 0 -121 30t-92 84q-73 -114 -207 -114q-115 0 -191 79q-75 80 -75 194q0 121 77 201q76 79 189 79q130 0 203 -109q69 109 199 109q106 0 169 -70t63 -199zM309 89q67 0 112 49
q45 50 45 127t-47 127q-47 51 -110 51q-66 0 -112 -51q-45 -50 -45 -129q0 -74 44 -124q45 -50 113 -50zM574 322h267q-5 61 -42 97t-89 36q-51 0 -87.5 -36t-48.5 -97z" />
    <glyph glyph-name="Racute" unicode="&#x154;" horiz-adv-x="597" 
d="M78 0v712h201q119 0 181 -61q64 -61 64 -154q0 -75 -43 -130.5t-118 -76.5l214 -290h-134l-201 280h-55v-280h-109zM277 606h-90v-221h91q61 0 97.5 31t36.5 81t-37 79.5t-98 29.5zM398 906l-207 -134l-38 56l198 148z" />
    <glyph glyph-name="racute" unicode="&#x155;" horiz-adv-x="371" 
d="M168 530l9 -78q23 41 65 62.5t90 21.5q16 0 21 -1v-104q-4 0 -13.5 0.5t-11.5 0.5q-86 0 -117 -46q-32 -46 -32 -118v-268h-107v530h96zM321 724l-207 -134l-38 56l198 148z" />
    <glyph glyph-name="Rcommaaccent" unicode="&#x156;" horiz-adv-x="597" 
d="M78 0v712h201q119 0 181 -61q64 -61 64 -154q0 -75 -43 -130.5t-118 -76.5l214 -290h-134l-201 280h-55v-280h-109zM277 606h-90v-221h91q61 0 97.5 31t36.5 81t-37 79.5t-98 29.5zM276 -266l-56 10q39 113 53 206l96 8q-38 -128 -93 -224z" />
    <glyph glyph-name="rcommaaccent" unicode="&#x157;" horiz-adv-x="371" 
d="M168 530l9 -78q23 41 65 62.5t90 21.5q16 0 21 -1v-104q-4 0 -13.5 0.5t-11.5 0.5q-86 0 -117 -46q-32 -46 -32 -118v-268h-107v530h96zM157 -267l-56 10q39 113 53 206l96 8q-38 -128 -93 -224z" />
    <glyph glyph-name="Rcaron" unicode="&#x158;" horiz-adv-x="597" 
d="M78 0v712h201q119 0 181 -61q64 -61 64 -154q0 -75 -43 -130.5t-118 -76.5l214 -290h-134l-201 280h-55v-280h-109zM277 606h-90v-221h91q61 0 97.5 31t36.5 81t-37 79.5t-98 29.5zM247 884l139 86l38 -52l-177 -136l-178 136l38 52z" />
    <glyph glyph-name="rcaron" unicode="&#x159;" horiz-adv-x="371" 
d="M168 530l9 -78q23 41 65 62.5t90 21.5q16 0 21 -1v-104q-4 0 -13.5 0.5t-11.5 0.5q-86 0 -117 -46q-32 -46 -32 -118v-268h-107v530h96zM205 702l139 86l38 -52l-177 -136l-178 136l38 52z" />
    <glyph glyph-name="Sacute" unicode="&#x15a;" horiz-adv-x="533" 
d="M168 532q0 -23 17 -42.5t44.5 -34.5t60.5 -30.5t66.5 -35t61 -42.5t44.5 -58t17 -78q0 -96 -66 -159q-65 -63 -166 -63q-107 0 -184 66v131q29 -34 81 -62q53 -29 107 -29q49 0 82.5 29t33.5 73q0 63 -110 113l-55.5 26t-52 31t-49.5 41t-31.5 50.5t-12.5 65.5
q0 90 61 145t153 55q99 0 175 -56v-128q-86 77 -180 77q-40 0 -68.5 -24t-28.5 -61zM402 906l-207 -134l-38 56l198 148z" />
    <glyph glyph-name="sacute" unicode="&#x15b;" horiz-adv-x="437" 
d="M387 150q0 -71 -51 -116q-50 -45 -125 -45q-79 0 -149 30v107q70 -43 141 -43q31 0 52.5 15.5t21.5 39.5q0 39 -79 84q-35 21 -50.5 31.5t-42.5 32.5t-39 46.5t-12 53.5q0 67 50 111q50 45 124 45q63 0 135 -29v-109q-74 44 -129 44q-27 0 -48.5 -14.5t-21.5 -37.5
q0 -37 79 -82q31 -17 50.5 -30t44 -34t37 -46t12.5 -54zM349 724l-207 -134l-38 56l198 148z" />
    <glyph glyph-name="Scircumflex" unicode="&#x15c;" horiz-adv-x="533" 
d="M168 532q0 -23 17 -42.5t44.5 -34.5t60.5 -30.5t66.5 -35t61 -42.5t44.5 -58t17 -78q0 -96 -66 -159q-65 -63 -166 -63q-107 0 -184 66v131q29 -34 81 -62q53 -29 107 -29q49 0 82.5 29t33.5 73q0 63 -110 113l-55.5 26t-52 31t-49.5 41t-31.5 50.5t-12.5 65.5
q0 90 61 145t153 55q99 0 175 -56v-128q-86 77 -180 77q-40 0 -68.5 -24t-28.5 -61zM276 970l177 -136l-38 -52l-139 86l-140 -86l-38 52z" />
    <glyph glyph-name="scircumflex" unicode="&#x15d;" horiz-adv-x="437" 
d="M387 150q0 -71 -51 -116q-50 -45 -125 -45q-79 0 -149 30v107q70 -43 141 -43q31 0 52.5 15.5t21.5 39.5q0 39 -79 84q-35 21 -50.5 31.5t-42.5 32.5t-39 46.5t-12 53.5q0 67 50 111q50 45 124 45q63 0 135 -29v-109q-74 44 -129 44q-27 0 -48.5 -14.5t-21.5 -37.5
q0 -37 79 -82q31 -17 50.5 -30t44 -34t37 -46t12.5 -54zM230 788l177 -136l-38 -52l-139 86l-140 -86l-38 52z" />
    <glyph glyph-name="Scedilla" unicode="&#x15e;" horiz-adv-x="533" 
d="M217 -95h-22l18 86q-86 9 -150 64v131q29 -34 81 -62q53 -29 107 -29q49 0 82.5 29t33.5 73q0 63 -110 113l-55.5 26t-52 31t-49.5 41t-31.5 50.5t-12.5 65.5q0 90 61 145t153 55q99 0 175 -56v-128q-86 77 -180 77q-40 0 -68.5 -24t-28.5 -61q0 -23 17 -42.5t44.5 -34.5
t60.5 -30.5t66.5 -35t61 -42.5t44.5 -58t17 -78q0 -95 -64 -158t-164 -64v-42q34 -1 57.5 -25.5t23.5 -57.5q0 -40 -27 -64.5t-74 -24.5q-39 0 -65 19v57q29 -17 54 -17q43 0 43 36q0 35 -46 35z" />
    <glyph glyph-name="scedilla" unicode="&#x15f;" horiz-adv-x="437" 
d="M184 -95h-22l18 85q-64 6 -118 29v107q70 -43 141 -43q31 0 52.5 15.5t21.5 39.5q0 39 -79 84q-35 21 -50.5 31.5t-42.5 32.5t-39 46.5t-12 53.5q0 67 50 111q50 45 124 45q63 0 135 -29v-109q-74 44 -129 44q-27 0 -48.5 -14.5t-21.5 -37.5q0 -37 79 -82
q31 -17 50.5 -30t44 -34t37 -46t12.5 -54q0 -69 -48 -114q-49 -46 -121 -47v-42q34 -1 57.5 -25.5t23.5 -57.5q0 -40 -27 -64.5t-74 -24.5q-39 0 -65 19v57q29 -17 54 -17q43 0 43 36q0 35 -46 35z" />
    <glyph glyph-name="Scaron" unicode="&#x160;" horiz-adv-x="533" 
d="M168 532q0 -23 17 -42.5t44.5 -34.5t60.5 -30.5t66.5 -35t61 -42.5t44.5 -58t17 -78q0 -96 -66 -159q-65 -63 -166 -63q-107 0 -184 66v131q29 -34 81 -62q53 -29 107 -29q49 0 82.5 29t33.5 73q0 63 -110 113l-55.5 26t-52 31t-49.5 41t-31.5 50.5t-12.5 65.5
q0 90 61 145t153 55q99 0 175 -56v-128q-86 77 -180 77q-40 0 -68.5 -24t-28.5 -61zM274 877l139 86l38 -52l-177 -136l-178 136l38 52z" />
    <glyph glyph-name="scaron" unicode="&#x161;" horiz-adv-x="437" 
d="M387 150q0 -71 -51 -116q-50 -45 -125 -45q-79 0 -149 30v107q70 -43 141 -43q31 0 52.5 15.5t21.5 39.5q0 39 -79 84q-35 21 -50.5 31.5t-42.5 32.5t-39 46.5t-12 53.5q0 67 50 111q50 45 124 45q63 0 135 -29v-109q-74 44 -129 44q-27 0 -48.5 -14.5t-21.5 -37.5
q0 -37 79 -82q31 -17 50.5 -30t44 -34t37 -46t12.5 -54zM230 702l139 86l38 -52l-177 -136l-178 136l38 52z" />
    <glyph glyph-name="Tcommaaccent" unicode="&#x162;" horiz-adv-x="487" 
d="M471 605h-172v-605h-110v605h-173v107h455v-107zM218 -266l-56 10q39 113 53 206l96 8q-38 -128 -93 -224z" />
    <glyph glyph-name="tcommaaccent" unicode="&#x163;" horiz-adv-x="352" 
d="M333 101v-100q-30 -8 -55 -8q-91 0 -140.5 54.5t-49.5 144.5v250h-70v88h70v106l107 44v-150h138v-88h-138v-250q0 -41 23.5 -69.5t63.5 -28.5q30 0 51 7zM152 -266l-56 10q39 113 53 206l96 8q-38 -128 -93 -224z" />
    <glyph glyph-name="Tcaron" unicode="&#x164;" horiz-adv-x="487" 
d="M471 605h-172v-605h-110v605h-173v107h455v-107zM243 884l139 86l38 -52l-177 -136l-178 136l38 52z" />
    <glyph glyph-name="tcaron" unicode="&#x165;" horiz-adv-x="352" 
d="M333 101v-100q-30 -8 -55 -8q-91 0 -140.5 54.5t-49.5 144.5v250h-70v88h70v106l107 44v-150h138v-88h-138v-250q0 -41 23.5 -69.5t63.5 -28.5q30 0 51 7zM321 568l-56 10q39 113 53 206l96 8q-38 -128 -93 -224z" />
    <glyph glyph-name="Tbar" unicode="&#x166;" horiz-adv-x="487" 
d="M299 382h172v-52h-172v-330h-110v330h-173v52h173v223h-173v107h455v-107h-172v-223z" />
    <glyph glyph-name="tbar" unicode="&#x167;" horiz-adv-x="351" 
d="M332 287v-46h-136v-49q0 -42 23 -71t63 -29q32 0 54 6v-97q-25 -7 -57 -7q-93 0 -141.5 54.5t-48.5 146.5v46h-71v46h71v156h-71v87h71v108l107 42v-150h136v-87h-136v-156h136z" />
    <glyph glyph-name="Utilde" unicode="&#x168;" horiz-adv-x="661" 
d="M585 712v-455q0 -121 -75 -195q-73 -73 -179 -73q-108 0 -181 73q-74 74 -74 195v455h109v-448q0 -77 41 -121.5t105 -44.5q63 0 103.5 44.5t40.5 121.5v448h110zM382 820q-22 0 -61 17t-57 17q-29 0 -46 -32l-57 38q40 67 110 67q20 0 62 -17q43 -17 56 -17q26 0 47 33
l56 -38q-42 -68 -110 -68z" />
    <glyph glyph-name="utilde" unicode="&#x169;" horiz-adv-x="602" 
d="M300 -11q-106 0 -167.5 62.5t-61.5 171.5v307h107v-294q0 -73 33 -109.5t89 -36.5q57 0 90 36t33 110v294h107v-307q0 -109 -61.5 -171.5t-168.5 -62.5zM358 638q-22 0 -61 17t-57 17q-29 0 -46 -32l-57 38q40 67 110 67q20 0 62 -17q43 -17 56 -17q26 0 47 33l56 -38
q-42 -68 -110 -68z" />
    <glyph glyph-name="Umacron" unicode="&#x16a;" horiz-adv-x="661" 
d="M585 712v-455q0 -121 -75 -195q-73 -73 -179 -73q-108 0 -181 73q-74 74 -74 195v455h109v-448q0 -77 41 -121.5t105 -44.5q63 0 103.5 44.5t40.5 121.5v448h110zM194 839v72h276v-72h-276z" />
    <glyph glyph-name="umacron" unicode="&#x16b;" horiz-adv-x="602" 
d="M300 -11q-106 0 -167.5 62.5t-61.5 171.5v307h107v-294q0 -73 33 -109.5t89 -36.5q57 0 90 36t33 110v294h107v-307q0 -109 -61.5 -171.5t-168.5 -62.5zM164 657v72h276v-72h-276z" />
    <glyph glyph-name="Ubreve" unicode="&#x16c;" horiz-adv-x="661" 
d="M585 712v-455q0 -121 -75 -195q-73 -73 -179 -73q-108 0 -181 73q-74 74 -74 195v455h109v-448q0 -77 41 -121.5t105 -44.5q63 0 103.5 44.5t40.5 121.5v448h110zM439 945l64 -28q-24 -60 -70 -89.5t-103 -29.5t-103.5 30t-69.5 89l65 28q12 -32 32 -50q29 -25 76 -25
q39 0 65 16t44 59z" />
    <glyph glyph-name="ubreve" unicode="&#x16d;" horiz-adv-x="602" 
d="M300 -11q-106 0 -167.5 62.5t-61.5 171.5v307h107v-294q0 -73 33 -109.5t89 -36.5q57 0 90 36t33 110v294h107v-307q0 -109 -61.5 -171.5t-168.5 -62.5zM410 763l64 -28q-24 -60 -70 -89.5t-103 -29.5t-103.5 30t-69.5 89l65 28q12 -32 32 -50q29 -25 76 -25q39 0 65 16
t44 59z" />
    <glyph glyph-name="Uring" unicode="&#x16e;" horiz-adv-x="661" 
d="M260 804q-29 29 -29 70t29 70q30 30 71 30t70 -30q29 -29 29 -70t-29 -70t-70 -29t-71 29zM299 906q-13 -13 -13 -32t13 -32t32 -13t32 13t13 32t-13 32t-32 13t-32 -13zM585 712v-455q0 -121 -75 -195q-73 -73 -179 -73q-108 0 -181 73q-74 74 -74 195v455h109v-448
q0 -77 41 -121.5t105 -44.5q63 0 103.5 44.5t40.5 121.5v448h110z" />
    <glyph glyph-name="uring" unicode="&#x16f;" horiz-adv-x="602" 
d="M230 622q-29 29 -29 70t29 70q30 30 71 30t70 -30q29 -29 29 -70t-29 -70t-70 -29t-71 29zM269 724q-13 -13 -13 -32t13 -32t32 -13t32 13t13 32t-13 32t-32 13t-32 -13zM300 -11q-106 0 -167.5 62.5t-61.5 171.5v307h107v-294q0 -73 33 -109.5t89 -36.5q57 0 90 36
t33 110v294h107v-307q0 -109 -61.5 -171.5t-168.5 -62.5z" />
    <glyph glyph-name="Uhungarumlaut" unicode="&#x170;" horiz-adv-x="661" 
d="M585 712v-455q0 -121 -75 -195q-73 -73 -179 -73q-108 0 -181 73q-74 74 -74 195v455h109v-448q0 -77 41 -121.5t105 -44.5q63 0 103.5 44.5t40.5 121.5v448h110zM179 827l128 139l56 -58l-139 -126zM335 827l127 139l57 -58l-139 -126z" />
    <glyph glyph-name="uhungarumlaut" unicode="&#x171;" horiz-adv-x="602" 
d="M300 -11q-106 0 -167.5 62.5t-61.5 171.5v307h107v-294q0 -73 33 -109.5t89 -36.5q57 0 90 36t33 110v294h107v-307q0 -109 -61.5 -171.5t-168.5 -62.5zM137 645l128 139l56 -58l-139 -126zM293 645l127 139l57 -58l-139 -126z" />
    <glyph glyph-name="Uogonek" unicode="&#x172;" horiz-adv-x="661" 
d="M381 -129v-73q-29 -15 -62 -15q-43 0 -72 26t-29 64q0 64 71 120q-93 13 -153 84t-60 180v455h109v-448q0 -77 41 -121.5t105 -44.5q63 0 103.5 44.5t40.5 121.5v448h110v-455q0 -97 -49.5 -165t-130.5 -92q-44 -17 -77 -52q-35 -37 -35 -66q0 -14 9.5 -22.5t23.5 -8.5
q27 0 55 20z" />
    <glyph glyph-name="uogonek" unicode="&#x173;" horiz-adv-x="602" 
d="M358 -129v-73q-28 -15 -62 -15q-43 0 -72 26t-29 64q0 64 69 118q-91 11 -142 72t-51 160v307h107v-294q0 -73 33 -109.5t89 -36.5q57 0 90 36t33 110v294h107v-307q0 -85 -38 -143t-106 -79q-42 -14 -80 -51q-36 -38 -36 -68q0 -14 9.5 -22.5t23.5 -8.5q27 0 55 20z" />
    <glyph glyph-name="Wcircumflex" unicode="&#x174;" horiz-adv-x="892" 
d="M153 0l-122 712h113l66 -390q11 -60 15 -133h7q24 85 44 132l146 361h49l146 -361q8 -19 25 -74l18 -58h7q6 84 15 133l67 390h112l-122 -712h-109l-137 336q-30 72 -43 118h-7q-10 -37 -43 -117l-139 -337h-108zM447 970l177 -136l-38 -52l-139 86l-140 -86l-38 52z" />
    <glyph glyph-name="wcircumflex" unicode="&#x175;" horiz-adv-x="807" 
d="M605 278l66 252h110l-144 -530h-76l-116 236q-17 36 -40 98h-4q-32 -80 -41 -98l-116 -236h-75l-145 530h111l66 -252q13 -47 22 -119h6q17 61 45 118l106 227h45l106 -227q26 -56 46 -118h5q0 1 1 6.5t3 18l4 24.5q7 45 15 70zM403 788l177 -136l-38 -52l-139 86
l-140 -86l-38 52z" />
    <glyph glyph-name="Ycircumflex" unicode="&#x176;" horiz-adv-x="612" 
d="M251 294l-240 418h125l124 -214q19 -33 43 -85h6q13 36 42 84l125 215h124l-239 -418v-294h-110v294zM307 970l177 -136l-38 -52l-139 86l-140 -86l-38 52z" />
    <glyph glyph-name="ycircumflex" unicode="&#x177;" horiz-adv-x="576" 
d="M334 286l110 244h117l-351 -746h-114l136 279l-216 467h118l111 -244q11 -24 41 -106h6q11 38 42 106zM290 788l177 -136l-38 -52l-139 86l-140 -86l-38 52z" />
    <glyph glyph-name="Ydieresis" unicode="&#x178;" horiz-adv-x="612" 
d="M251 294l-240 418h125l124 -214q19 -33 43 -85h6q13 36 42 84l125 215h124l-239 -418v-294h-110v294zM264 915q18 -17 18 -41t-18 -41q-17 -17 -41 -17t-41 17t-17 41t17 41q17 18 41 18t41 -18zM353 915q17 18 41 18t41 -18q18 -17 18 -41t-18 -41q-17 -17 -41 -17
t-41 17t-17 41t17 41z" />
    <glyph glyph-name="Zacute" unicode="&#x179;" horiz-adv-x="573" 
d="M51 606v106h499v-72l-322 -459q-28 -39 -54 -70v-8q53 4 86 4h292v-107h-531v72l322 458q28 39 56 72v7q-42 -3 -93 -3h-255zM414 906l-207 -134l-38 56l198 148z" />
    <glyph glyph-name="zacute" unicode="&#x17a;" horiz-adv-x="508" 
d="M479 484l-235 -325q-41 -53 -54 -67v-6q38 2 89 2h200v-88h-451v44l244 333q27 37 50 63v5q-51 -3 -91 -3h-180v88h428v-46zM375 724l-207 -134l-38 56l198 148z" />
    <glyph glyph-name="Zdotaccent" unicode="&#x17b;" horiz-adv-x="573" 
d="M51 606v106h499v-72l-322 -459q-28 -39 -54 -70v-8q53 4 86 4h292v-107h-531v72l322 458q28 39 56 72v7q-42 -3 -93 -3h-255zM289 816q-25 0 -41.5 17t-16.5 41t17 41.5t41 17.5t41 -17.5t17 -41.5t-17 -41t-41 -17z" />
    <glyph glyph-name="zdotaccent" unicode="&#x17c;" horiz-adv-x="508" 
d="M479 484l-235 -325q-41 -53 -54 -67v-6q38 2 89 2h200v-88h-451v44l244 333q27 37 50 63v5q-51 -3 -91 -3h-180v88h428v-46zM256 634q-25 0 -41.5 17t-16.5 41t17 41.5t41 17.5t41 -17.5t17 -41.5t-17 -41t-41 -17z" />
    <glyph glyph-name="Zcaron" unicode="&#x17d;" horiz-adv-x="573" 
d="M51 606v106h499v-72l-322 -459q-28 -39 -54 -70v-8q53 4 86 4h292v-107h-531v72l322 458q28 39 56 72v7q-42 -3 -93 -3h-255zM291 884l139 86l38 -52l-177 -136l-178 136l38 52z" />
    <glyph glyph-name="zcaron" unicode="&#x17e;" horiz-adv-x="508" 
d="M479 484l-235 -325q-41 -53 -54 -67v-6q38 2 89 2h200v-88h-451v44l244 333q27 37 50 63v5q-51 -3 -91 -3h-180v88h428v-46zM254 702l139 86l38 -52l-177 -136l-178 136l38 52z" />
    <glyph glyph-name="longs" unicode="&#x17f;" horiz-adv-x="260" 
d="M323 767v-96q-25 7 -53 7q-40 0 -63 -29t-23 -71v-578h-105v484h-63v46h63v39q0 89 46 147q47 59 142 59q26 0 56 -8z" />
    <glyph glyph-name="florin" unicode="&#x192;" horiz-adv-x="524" 
d="M363 505h106q0 -4 -7 -47l-4 -24.5t-3 -17.5t-1 -6h-106l-57 -297l-12 -59q-11 -62 -33 -104q-28 -53 -66 -75q-49 -28 -119 -28q-25 0 -55 3l18 103q21 -3 44 -3q46 0 72 28q12 12 19 33q12 29 22 88l58 311h-78q3 28 15 95h81l12 72q23 129 83 166q50 32 107 32
q11 1 57 -5l-18 -105q-21 9 -39 9q-44 0 -63 -39q-15 -32 -20 -69q-4 -12 -13 -61z" />
    <glyph glyph-name="AEacute" unicode="&#x1fc;" horiz-adv-x="1019" 
d="M955 712v-106h-297v-178h288v-106h-288v-215h297v-107h-408v158h-283l-121 -158h-137l550 712h399zM473 433l-128 -168h202v279h-6q-33 -65 -68 -111zM872 900l-207 -134l-38 56l198 148z" />
    <glyph glyph-name="aeacute" unicode="&#x1fd;" horiz-adv-x="907" 
d="M866 247h-370q8 -75 50 -119.5t107 -44.5q83 0 160 42v-108q-75 -28 -161 -28q-128 0 -205 96q-78 -96 -218 -96q-95 0 -139 42t-44 126q0 165 244 165h93v27q0 43 -39 71q-40 29 -86 29q-79 0 -148 -42v104q71 31 148 31q126 0 191 -83q75 83 185 83q107 0 169.5 -77.5
t62.5 -217.5zM634 454q-51 0 -88 -36t-49 -96h266q-4 60 -40.5 96t-88.5 36zM383 205v42h-79q-78 0 -114.5 -19t-36.5 -68q0 -81 95 -81q60 0 97 37q38 38 38 89zM760 724l-207 -134l-38 56l198 148z" />
    <glyph glyph-name="Oslashacute" unicode="&#x1fe;" horiz-adv-x="816" 
d="M718 767l39 -34l-96 -115q107 -107 107 -262q0 -154 -105 -261q-105 -106 -256 -106q-120 0 -215 71l-95 -114l-40 34l96 114q-106 106 -106 262q0 153 105 260q105 108 255 108q117 0 215 -71zM159 356q0 -105 64 -178l329 392q-62 47 -145 47q-108 0 -178 -76t-70 -185
zM656 356q0 102 -65 178l-330 -392q62 -46 146 -46q109 0 179 75q70 76 70 185zM534 900l-207 -134l-38 56l198 148z" />
    <glyph glyph-name="oslashacute" unicode="&#x1ff;" horiz-adv-x="617" 
d="M540 577l36 -30l-74 -87q74 -83 74 -196t-77 -195q-77 -80 -191 -80q-87 0 -158 50l-73 -85l-35 30l73 86q-73 80 -73 192q0 121 77 201q76 79 189 79q86 0 160 -51zM466 265q0 58 -34 111l-217 -257q43 -31 94 -31q67 0 112 50t45 127zM151 263q0 -56 34 -109l215 257
q-47 32 -91 32q-66 0 -112 -51q-46 -49 -46 -129zM434 724l-207 -134l-38 56l198 148z" />
    <glyph glyph-name="uni0200" unicode="&#x200;" horiz-adv-x="724" 
d="M11 0l317 712h67l317 -712h-120l-69 158h-323l-68 -158h-121zM246 265h230l-79 182q-20 48 -32 87h-6q-2 -7 -15 -38l-19 -49zM445 782l-139 126l57 58l127 -139zM289 782l-139 126l57 58l127 -139z" />
    <glyph glyph-name="uni0201" unicode="&#x201;" horiz-adv-x="559" 
d="M380 205v24q-86 16 -121 16q-110 0 -110 -85q0 -40 23 -59.5t73 -19.5q59 0 97 35.5t38 88.5zM255 542q99 0 166 -53q66 -53 66 -141v-348h-94l-9 66q-59 -77 -159 -77q-183 0 -183 168q0 73 57 121t158 48q41 0 123 -20v43q0 41 -39 69q-40 29 -86 29q-76 0 -149 -38
v102q72 31 149 31zM369 600l-139 126l57 58l127 -139zM213 600l-139 126l57 58l127 -139z" />
    <glyph glyph-name="uni0202" unicode="&#x202;" horiz-adv-x="724" 
d="M11 0l317 712h67l317 -712h-120l-69 158h-323l-68 -158h-121zM246 265h230l-79 182q-20 48 -32 87h-6q-2 -7 -15 -38l-19 -49zM363 970l177 -136l-38 -52l-139 86l-140 -86l-38 52z" />
    <glyph glyph-name="uni0203" unicode="&#x203;" horiz-adv-x="559" 
d="M380 205v24q-86 16 -121 16q-110 0 -110 -85q0 -40 23 -59.5t73 -19.5q59 0 97 35.5t38 88.5zM255 542q99 0 166 -53q66 -53 66 -141v-348h-94l-9 66q-59 -77 -159 -77q-183 0 -183 168q0 73 57 121t158 48q41 0 123 -20v43q0 41 -39 69q-40 29 -86 29q-76 0 -149 -38
v102q72 31 149 31zM272 788l177 -136l-38 -52l-139 86l-140 -86l-38 52z" />
    <glyph glyph-name="uni0204" unicode="&#x204;" horiz-adv-x="569" 
d="M503 0h-407v712h407v-106h-297v-178h288v-106h-288v-215h297v-107zM384 782l-139 126l57 58l127 -139zM228 782l-139 126l57 58l127 -139z" />
    <glyph glyph-name="uni0205" unicode="&#x205;" horiz-adv-x="564" 
d="M154 326h266q-4 58 -40.5 92t-89.5 34t-88.5 -33.5t-47.5 -92.5zM469 125v-108q-75 -28 -161 -28q-117 0 -192 78t-75 207q0 116 68 192q67 76 181 76q108 0 170.5 -72t62.5 -207v-18h-371q9 -75 50.5 -117.5t106.5 -42.5q89 0 160 40zM394 600l-139 126l57 58l127 -139z
M238 600l-139 126l57 58l127 -139z" />
    <glyph glyph-name="uni0206" unicode="&#x206;" horiz-adv-x="549" 
d="M485 0h-407v712h407v-106h-297v-178h288v-106h-288v-215h297v-107zM274 970l177 -136l-38 -52l-139 86l-140 -86l-38 52z" />
    <glyph glyph-name="uni0207" unicode="&#x207;" horiz-adv-x="564" 
d="M154 326h266q-4 58 -40.5 92t-89.5 34t-88.5 -33.5t-47.5 -92.5zM469 125v-108q-75 -28 -161 -28q-117 0 -192 78t-75 207q0 116 68 192q67 76 181 76q108 0 170.5 -72t62.5 -207v-18h-371q9 -75 50.5 -117.5t106.5 -42.5q89 0 160 40zM294 788l177 -136l-38 -52l-139 86
l-140 -86l-38 52z" />
    <glyph glyph-name="uni0208" unicode="&#x208;" horiz-adv-x="265" 
d="M213 782l-139 126l57 58l127 -139zM57 782l-139 126l57 58l127 -139zM78 712h110v-712h-110v712z" />
    <glyph glyph-name="uni0209" unicode="&#x209;" horiz-adv-x="251" 
d="M237 600l-139 126l57 58l127 -139zM81 600l-139 126l57 58l127 -139zM72 530h107v-530h-107v530z" />
    <glyph glyph-name="uni020A" unicode="&#x20a;" horiz-adv-x="265" 
d="M134 970l177 -136l-38 -52l-139 86l-140 -86l-38 52zM78 712h110v-712h-110v712z" />
    <glyph glyph-name="uni020B" unicode="&#x20b;" horiz-adv-x="251" 
d="M121 788l177 -136l-38 -52l-139 86l-140 -86l-38 52zM72 530h107v-530h-107v530z" />
    <glyph glyph-name="uni020C" unicode="&#x20c;" horiz-adv-x="811" 
d="M405 724q151 0 256 -107t105 -261t-105 -261q-105 -106 -256 -106q-150 0 -255 107q-105 106 -105 260q0 153 105 260q105 108 255 108zM405 96q109 0 179 75q70 76 70 185t-70 185t-179 76q-108 0 -178 -76t-70 -185t70 -185q71 -75 178 -75zM485 782l-139 126l57 58
l127 -139zM329 782l-139 126l57 58l127 -139z" />
    <glyph glyph-name="uni020D" unicode="&#x20d;" horiz-adv-x="617" 
d="M42 262q0 121 77 201q76 79 189 79q114 0 191 -81q77 -82 77 -197q0 -113 -77 -195q-77 -80 -191 -80q-115 0 -191 79q-75 80 -75 194zM152 263q0 -74 44 -124q45 -49 113 -49q69 0 112 49q45 49 45 126q0 76 -47 126t-110 50q-65 0 -112 -50q-45 -49 -45 -128zM402 600
l-139 126l57 58l127 -139zM246 600l-139 126l57 58l127 -139z" />
    <glyph glyph-name="uni020E" unicode="&#x20e;" horiz-adv-x="811" 
d="M405 724q151 0 256 -107t105 -261t-105 -261q-105 -106 -256 -106q-150 0 -255 107q-105 106 -105 260q0 153 105 260q105 108 255 108zM405 96q109 0 179 75q70 76 70 185t-70 185t-179 76q-108 0 -178 -76t-70 -185t70 -185q71 -75 178 -75zM403 970l177 -136l-38 -52
l-139 86l-140 -86l-38 52z" />
    <glyph glyph-name="uni020F" unicode="&#x20f;" horiz-adv-x="617" 
d="M42 262q0 121 77 201q76 79 189 79q114 0 191 -81q77 -82 77 -197q0 -113 -77 -195q-77 -80 -191 -80q-115 0 -191 79q-75 80 -75 194zM152 263q0 -74 44 -124q45 -49 113 -49q69 0 112 49q45 49 45 126q0 76 -47 126t-110 50q-65 0 -112 -50q-45 -49 -45 -128zM312 788
l177 -136l-38 -52l-139 86l-140 -86l-38 52z" />
    <glyph glyph-name="uni0210" unicode="&#x210;" horiz-adv-x="597" 
d="M78 0v712h201q119 0 181 -61q64 -61 64 -154q0 -75 -43 -130.5t-118 -76.5l214 -290h-134l-201 280h-55v-280h-109zM277 606h-90v-221h91q61 0 97.5 31t36.5 81t-37 79.5t-98 29.5zM352 782l-139 126l57 58l127 -139zM196 782l-139 126l57 58l127 -139z" />
    <glyph glyph-name="uni0211" unicode="&#x211;" horiz-adv-x="371" 
d="M168 530l9 -78q23 41 65 62.5t90 21.5q16 0 21 -1v-104q-4 0 -13.5 0.5t-11.5 0.5q-86 0 -117 -46q-32 -46 -32 -118v-268h-107v530h96zM311 600l-139 126l57 58l127 -139zM155 600l-139 126l57 58l127 -139z" />
    <glyph glyph-name="uni0212" unicode="&#x212;" horiz-adv-x="597" 
d="M78 0v712h201q119 0 181 -61q64 -61 64 -154q0 -75 -43 -130.5t-118 -76.5l214 -290h-134l-201 280h-55v-280h-109zM277 606h-90v-221h91q61 0 97.5 31t36.5 81t-37 79.5t-98 29.5zM256 970l177 -136l-38 -52l-139 86l-140 -86l-38 52z" />
    <glyph glyph-name="uni0213" unicode="&#x213;" horiz-adv-x="371" 
d="M168 530l9 -78q23 41 65 62.5t90 21.5q16 0 21 -1v-104q-4 0 -13.5 0.5t-11.5 0.5q-86 0 -117 -46q-32 -46 -32 -118v-268h-107v530h96zM204 788l177 -136l-38 -52l-139 86l-140 -86l-38 52z" />
    <glyph glyph-name="uni0214" unicode="&#x214;" horiz-adv-x="661" 
d="M585 712v-455q0 -121 -75 -195q-73 -73 -179 -73q-108 0 -181 73q-74 74 -74 195v455h109v-448q0 -77 41 -121.5t105 -44.5q63 0 103.5 44.5t40.5 121.5v448h110zM413 782l-139 126l57 58l127 -139zM257 782l-139 126l57 58l127 -139z" />
    <glyph glyph-name="uni0215" unicode="&#x215;" horiz-adv-x="602" 
d="M300 -11q-106 0 -167.5 62.5t-61.5 171.5v307h107v-294q0 -73 33 -109.5t89 -36.5q57 0 90 36t33 110v294h107v-307q0 -109 -61.5 -171.5t-168.5 -62.5zM398 600l-139 126l57 58l127 -139zM242 600l-139 126l57 58l127 -139z" />
    <glyph glyph-name="uni0216" unicode="&#x216;" horiz-adv-x="661" 
d="M585 712v-455q0 -121 -75 -195q-73 -73 -179 -73q-108 0 -181 73q-74 74 -74 195v455h109v-448q0 -77 41 -121.5t105 -44.5q63 0 103.5 44.5t40.5 121.5v448h110zM330 970l177 -136l-38 -52l-139 86l-140 -86l-38 52z" />
    <glyph glyph-name="uni0217" unicode="&#x217;" horiz-adv-x="602" 
d="M300 -11q-106 0 -167.5 62.5t-61.5 171.5v307h107v-294q0 -73 33 -109.5t89 -36.5q57 0 90 36t33 110v294h107v-307q0 -109 -61.5 -171.5t-168.5 -62.5zM302 788l177 -136l-38 -52l-139 86l-140 -86l-38 52z" />
    <glyph glyph-name="Scommaaccent" unicode="&#x218;" horiz-adv-x="533" 
d="M168 532q0 -23 17 -42.5t44.5 -34.5t60.5 -30.5t66.5 -35t61 -42.5t44.5 -58t17 -78q0 -96 -66 -159q-65 -63 -166 -63q-107 0 -184 66v131q29 -34 81 -62q53 -29 107 -29q49 0 82.5 29t33.5 73q0 63 -110 113l-55.5 26t-52 31t-49.5 41t-31.5 50.5t-12.5 65.5
q0 90 61 145t153 55q99 0 175 -56v-128q-86 77 -180 77q-40 0 -68.5 -24t-28.5 -61zM234 -266l-56 10q39 113 53 206l96 8q-38 -128 -93 -224z" />
    <glyph glyph-name="scommaaccent" unicode="&#x219;" horiz-adv-x="437" 
d="M387 150q0 -71 -51 -116q-50 -45 -125 -45q-79 0 -149 30v107q70 -43 141 -43q31 0 52.5 15.5t21.5 39.5q0 39 -79 84q-35 21 -50.5 31.5t-42.5 32.5t-39 46.5t-12 53.5q0 67 50 111q50 45 124 45q63 0 135 -29v-109q-74 44 -129 44q-27 0 -48.5 -14.5t-21.5 -37.5
q0 -37 79 -82q31 -17 50.5 -30t44 -34t37 -46t12.5 -54zM162 -266l-56 10q39 113 53 206l96 8q-38 -128 -93 -224z" />
    <glyph glyph-name="uni021A" unicode="&#x21a;" horiz-adv-x="487" 
d="M471 605h-172v-605h-110v605h-173v107h455v-107zM217 -266l-56 10q39 113 53 206l96 8q-38 -128 -93 -224z" />
    <glyph glyph-name="uni021B" unicode="&#x21b;" horiz-adv-x="352" 
d="M333 101v-100q-30 -8 -55 -8q-91 0 -140.5 54.5t-49.5 144.5v250h-70v88h70v106l107 44v-150h138v-88h-138v-250q0 -41 23.5 -69.5t63.5 -28.5q30 0 51 7zM160 -266l-56 10q39 113 53 206l96 8q-38 -128 -93 -224z" />
    <glyph glyph-name="circumflex" unicode="&#x2c6;" horiz-adv-x="406" 
d="M202 737l177 -136l-38 -52l-139 86l-140 -86l-38 52z" />
    <glyph glyph-name="caron" unicode="&#x2c7;" horiz-adv-x="406" 
d="M202 651l139 86l38 -52l-177 -136l-178 136l38 52z" />
    <glyph glyph-name="breve" unicode="&#x2d8;" horiz-adv-x="403" 
d="M308 712l64 -28q-24 -60 -70 -89.5t-103 -29.5t-103.5 30t-69.5 89l65 28q12 -32 32 -50q29 -25 76 -25q39 0 65 16t44 59z" />
    <glyph glyph-name="dotaccent" unicode="&#x2d9;" horiz-adv-x="404" 
d="M200 583q-25 0 -41.5 17t-16.5 41t17 41.5t41 17.5t41 -17.5t17 -41.5t-17 -41t-41 -17z" />
    <glyph glyph-name="ring" unicode="&#x2da;" horiz-adv-x="401" 
d="M127 571q-29 29 -29 70t29 70q30 30 71 30t70 -30q29 -29 29 -70t-29 -70t-70 -29t-71 29zM166 673q-13 -13 -13 -32t13 -32t32 -13t32 13t13 32t-13 32t-32 13t-32 -13z" />
    <glyph glyph-name="ogonek" unicode="&#x2db;" horiz-adv-x="404" 
d="M283 -129v-73q-28 -15 -62 -15q-43 0 -72 26t-29 64q0 33 22.5 67t60.5 61h108q-42 -14 -80 -51q-36 -38 -36 -68q0 -14 9.5 -22.5t23.5 -8.5q27 0 55 20z" />
    <glyph glyph-name="tilde" unicode="&#x2dc;" horiz-adv-x="403" 
d="M253 587q-22 0 -61 17t-57 17q-29 0 -46 -32l-57 38q40 67 110 67q20 0 62 -17q43 -17 56 -17q26 0 47 33l56 -38q-42 -68 -110 -68z" />
    <glyph glyph-name="hungarumlaut" unicode="&#x2dd;" horiz-adv-x="405" 
d="M31 594l128 139l56 -58l-139 -126zM187 594l127 139l57 -58l-139 -126z" />
    <glyph glyph-name="doublegrave" unicode="&#x30f;" horiz-adv-x="405" 
d="M326 549l-139 126l57 58l127 -139zM170 549l-139 126l57 58l127 -139z" />
    <glyph glyph-name="uni037E" unicode="&#x37e;" horiz-adv-x="297" 
d="M204 470q0 -28 -19.5 -47t-47.5 -19t-47.5 19t-19.5 47q0 29 19.5 49t47.5 20t47.5 -20t19.5 -49zM78 -220l-67 12q52 149 71 281l122 12q-54 -183 -126 -305z" />
    <glyph glyph-name="tonos" unicode="&#x384;" horiz-adv-x="301" 
d="M82 570l78 184l76 -35l-94 -179z" />
    <glyph glyph-name="dieresistonos" unicode="&#x385;" horiz-adv-x="346" 
d="M40 583q-25 0 -41.5 17t-16.5 41t17 41.5t41 17.5q23 0 40.5 -17.5t17.5 -41.5t-17.5 -41t-40.5 -17zM265 682q17 18 41 18t41 -18q17 -17 17 -41t-17 -41t-41 -17t-41 17t-17 41t17 41zM108 580l68 160l67 -31l-81 -155z" />
    <glyph glyph-name="Alphatonos" unicode="&#x386;" horiz-adv-x="724" 
d="M11 0l317 712h67l317 -712h-120l-69 158h-323l-68 -158h-121zM246 265h230l-79 182q-20 48 -32 87h-6q-2 -7 -15 -38l-19 -49zM25 570l78 184l76 -35l-94 -179z" />
    <glyph glyph-name="anoteleia" unicode="&#x387;" horiz-adv-x="425" 
d="M201 309q29 0 48.5 -19.5t19.5 -48.5q0 -28 -19.5 -47t-48.5 -19q-28 0 -47.5 19t-19.5 47t19.5 48t47.5 20z" />
    <glyph glyph-name="Epsilontonos" unicode="&#x388;" horiz-adv-x="618" 
d="M554 0h-407v712h407v-106h-297v-178h288v-106h-288v-215h297v-107zM-77 570l78 184l76 -35l-94 -179z" />
    <glyph glyph-name="Etatonos" unicode="&#x389;" horiz-adv-x="743" 
d="M257 428h299v284h110v-712h-110v321h-299v-321h-110v712h110v-284zM-77 570l78 184l76 -35l-94 -179z" />
    <glyph glyph-name="Iotatonos" unicode="&#x38a;" horiz-adv-x="334" 
d="M147 712h110v-712h-110v712zM-77 570l78 184l76 -35l-94 -179z" />
    <glyph glyph-name="Omicrontonos" unicode="&#x38c;" horiz-adv-x="880" 
d="M474 724q151 0 256 -107t105 -261t-105 -261q-105 -106 -256 -106q-150 0 -255 107q-105 106 -105 260q0 153 105 260q105 108 255 108zM474 96q108 0 179 75q70 76 70 185t-70 185t-179 76q-108 0 -178 -76t-70 -185t70 -185q70 -75 178 -75zM-61 570l78 184l76 -35
l-94 -179z" />
    <glyph glyph-name="Upsilontonos" unicode="&#x38e;" horiz-adv-x="704" 
d="M343 294l-240 418h125l124 -214q19 -33 43 -85h6q13 36 42 84l125 215h124l-239 -418v-294h-110v294zM-77 570l78 184l76 -35l-94 -179z" />
    <glyph glyph-name="Omegatonos" unicode="&#x38f;" horiz-adv-x="855" 
d="M666 109v-6q28 4 66 4h71v-107h-278v122q75 30 125 98q50 70 50 150q0 106 -65 177q-64 70 -172 70q-109 0 -173 -70t-64 -177q0 -80 50 -150q50 -68 125 -98v-122h-279v107h71q36 0 67 -4v6q-37 24 -63 55q-83 98 -83 206q0 153 98 254q99 100 251 100t249 -100
q99 -101 99 -254q0 -112 -82 -206q-26 -31 -63 -55zM-60 570l78 184l76 -35l-94 -179z" />
    <glyph glyph-name="iotadieresistonos" unicode="&#x390;" horiz-adv-x="286" 
d="M5 634q-25 0 -41.5 17t-16.5 41t17 41.5t41 17.5q23 0 40.5 -17.5t17.5 -41.5t-17.5 -41t-40.5 -17zM230 733q17 18 41 18t41 -18q17 -17 17 -41t-17 -41t-41 -17t-41 17t-17 41t17 41zM73 631l68 160l67 -31l-81 -155zM264 94v-98q-82 2 -138 59q-56 59 -56 139v336h106
v-336q0 -39 25.5 -68t62.5 -32z" />
    <glyph glyph-name="Alpha" unicode="&#x391;" horiz-adv-x="724" 
d="M11 0l317 712h67l317 -712h-120l-69 158h-323l-68 -158h-121zM246 265h230l-79 182q-20 48 -32 87h-6q-2 -7 -15 -38l-19 -49z" />
    <glyph glyph-name="Beta" unicode="&#x392;" horiz-adv-x="587" 
d="M287 606h-100v-193h103q53 0 83 25t30 72q0 44 -32.5 70t-83.5 26zM297 308h-110v-201h115q58 0 91.5 26.5t33.5 75.5q0 47 -34.5 73t-95.5 26zM78 0v712h204q112 0 171 -59t59 -143q0 -44 -20 -81t-55 -59q45 -22 73 -67t28 -96q0 -97 -66 -152q-65 -55 -165 -55h-229z
" />
    <glyph glyph-name="Gamma" unicode="&#x393;" horiz-adv-x="443" 
d="M427 605h-239v-605h-110v712h349v-107z" />
    <glyph glyph-name="increment" unicode="&#x394;" horiz-adv-x="685" 
d="M345 531h-6q-25 -79 -41 -123l-119 -300h327l-120 301q-12 32 -41 122zM639 0h-593v75l260 637h74l259 -637v-75z" />
    <glyph glyph-name="Epsilon" unicode="&#x395;" horiz-adv-x="549" 
d="M485 0h-407v712h407v-106h-297v-178h288v-106h-288v-215h297v-107z" />
    <glyph glyph-name="Zeta" unicode="&#x396;" horiz-adv-x="573" 
d="M51 606v106h499v-72l-322 -459q-28 -39 -54 -70v-8q53 4 86 4h292v-107h-531v72l322 458q28 39 56 72v7q-42 -3 -93 -3h-255z" />
    <glyph glyph-name="Eta" unicode="&#x397;" horiz-adv-x="674" 
d="M188 428h299v284h110v-712h-110v321h-299v-321h-110v712h110v-284z" />
    <glyph glyph-name="Theta" unicode="&#x398;" horiz-adv-x="807" 
d="M282 307v98h248v-98h-248zM405 724q151 0 256 -107t105 -261t-105 -261q-105 -106 -256 -106q-150 0 -255 107q-105 106 -105 260q0 153 105 260q105 108 255 108zM405 96q109 0 179 75q70 76 70 185t-70 185t-179 76q-108 0 -178 -76t-70 -185t70 -185q71 -75 178 -75z
" />
    <glyph glyph-name="Iota" unicode="&#x399;" horiz-adv-x="265" 
d="M78 712h110v-712h-110v712z" />
    <glyph glyph-name="Kappa" unicode="&#x39a;" horiz-adv-x="621" 
d="M461 712h146l-303 -336l302 -376h-143l-233 294l-43 -48v-246h-109v712h109v-249q0 -28 -2 -66h5q21 33 46 62z" />
    <glyph glyph-name="Lambda" unicode="&#x39b;" horiz-adv-x="693" 
d="M383 712l290 -712h-120l-163 408q-9 21 -40 123h-6q-29 -90 -41 -122l-164 -409h-120l290 712h74z" />
    <glyph glyph-name="Mu" unicode="&#x39c;" horiz-adv-x="825" 
d="M154 712l259 -260l260 260h75v-712h-109v406q0 87 4 124h-7q-38 -49 -68 -79l-155 -154l-154 154q-39 39 -69 79h-6q4 -75 4 -124v-406h-110v712h76z" />
    <glyph glyph-name="Nu" unicode="&#x39d;" horiz-adv-x="712" 
d="M525 712h110v-712h-76l-306 418q-27 36 -63 95h-6q4 -64 4 -99v-414h-110v712h91l295 -404q35 -49 61 -92h5q-5 50 -5 103v393z" />
    <glyph glyph-name="Xi" unicode="&#x39e;" horiz-adv-x="535" 
d="M471 606h-407v106h407v-106zM471 0h-407v107h407v-107zM463 322h-390v106h390v-106z" />
    <glyph glyph-name="Omicron" unicode="&#x39f;" horiz-adv-x="811" 
d="M405 724q151 0 256 -107t105 -261t-105 -261q-105 -106 -256 -106q-150 0 -255 107q-105 106 -105 260q0 153 105 260q105 108 255 108zM405 96q109 0 179 75q70 76 70 185t-70 185t-179 76q-108 0 -178 -76t-70 -185t70 -185q71 -75 178 -75z" />
    <glyph glyph-name="Pi" unicode="&#x3a0;" horiz-adv-x="675" 
d="M78 0v712h520v-712h-111v605h-298v-605h-111z" />
    <glyph glyph-name="Rho" unicode="&#x3a1;" horiz-adv-x="571" 
d="M277 606h-90v-252h91q68 0 109 35t41 93q0 56 -42 90t-109 34zM78 0v712h201q123 0 192 -66q69 -64 69 -164q0 -117 -77 -176t-194 -59h-82v-247h-109z" />
    <glyph glyph-name="Sigma" unicode="&#x3a3;" horiz-adv-x="590" 
d="M78 712h448v-106h-297l181 -250l-181 -250h297v-106h-448v84l196 272l-196 272v84z" />
    <glyph glyph-name="Tau" unicode="&#x3a4;" horiz-adv-x="487" 
d="M471 605h-172v-605h-110v605h-173v107h455v-107z" />
    <glyph glyph-name="Upsilon" unicode="&#x3a5;" horiz-adv-x="612" 
d="M251 294l-240 418h125l124 -214q19 -33 43 -85h6q13 36 42 84l125 215h124l-239 -418v-294h-110v294z" />
    <glyph glyph-name="Phi" unicode="&#x3a6;" horiz-adv-x="812" 
d="M461 556v-399q59 2 122 46q32 23 52 63.5t20 89.5q0 52 -20.5 92t-51.5 62.5t-62.5 33.5t-59.5 12zM351 157v399q-28 -1 -59 -12t-62.5 -33.5t-51.5 -62.5t-20 -92q0 -49 19.5 -89.5t51.5 -63.5q63 -44 122 -46zM461 -29h-110v79q-60 2 -140 41q-42 22 -80 55
q-38 35 -62 90.5t-24 119.5q0 66 23.5 121.5t61.5 89.5q51 47 115 71.5t106 24.5v78h110v-78q66 -2 140 -41q46 -24 80 -55q38 -35 62 -91t24 -120t-23.5 -119.5t-61.5 -90.5q-51 -47 -115 -71.5t-106 -24.5v-79z" />
    <glyph glyph-name="Chi" unicode="&#x3a7;" horiz-adv-x="631" 
d="M250 371l-219 341h134l107 -168q23 -37 41 -76h6q24 50 39 73l108 171h134l-219 -341l239 -371h-133l-128 201q-2 3 -41 74h-5q-22 -43 -41 -75l-128 -200h-132z" />
    <glyph glyph-name="Psi" unicode="&#x3a8;" horiz-adv-x="773" 
d="M601 519v193h110v-239q0 -123 -76 -195q-75 -70 -194 -72v-206h-109v206q-119 0 -195 71q-75 72 -75 196v239h110v-193q0 -203 160 -208v401h109v-401q160 1 160 208z" />
    <glyph glyph-name="Omega" unicode="&#x3a9;" horiz-adv-x="785" 
d="M596 109v-6q28 4 66 4h71v-107h-278v122q75 30 125 98q50 70 50 150q0 106 -65 177q-64 70 -172 70q-109 0 -173 -70t-64 -177q0 -80 50 -150q50 -68 125 -98v-122h-279v107h71q36 0 67 -4v6q-37 24 -63 55q-83 98 -83 206q0 153 98 254q99 100 251 100t249 -100
q99 -101 99 -254q0 -112 -82 -206q-26 -31 -63 -55z" />
    <glyph glyph-name="Iotadieresis" unicode="&#x3aa;" horiz-adv-x="265" 
d="M89 915q18 -17 18 -41t-18 -41q-17 -17 -41 -17t-41 17t-17 41t17 41q17 18 41 18t41 -18zM178 915q17 18 41 18t41 -18q18 -17 18 -41t-18 -41q-17 -17 -41 -17t-41 17t-17 41t17 41zM78 712h110v-712h-110v712z" />
    <glyph glyph-name="Upsilondieresis" unicode="&#x3ab;" horiz-adv-x="612" 
d="M251 294l-240 418h125l124 -214q19 -33 43 -85h6q13 36 42 84l125 215h124l-239 -418v-294h-110v294zM260 915q18 -17 18 -41t-18 -41q-17 -17 -41 -17t-41 17t-17 41t17 41q17 18 41 18t41 -18zM349 915q17 18 41 18t41 -18q18 -17 18 -41t-18 -41q-17 -17 -41 -17
t-41 17t-17 41t17 41z" />
    <glyph glyph-name="alphatonos" unicode="&#x3ac;" horiz-adv-x="646" 
d="M471 448l7 82h97v-530h-97l-7 82q-71 -93 -178 -93q-117 0 -185 81q-68 82 -68 195t68 195q67 82 185 82q106 0 178 -94zM304 88q73 0 118 52q46 52 46 125t-46 125q-45 53 -118 53q-71 0 -112.5 -49t-41.5 -129t41.5 -128.5t112.5 -48.5zM222 621l78 184l76 -35
l-94 -179z" />
    <glyph glyph-name="epsilontonos" unicode="&#x3ad;" horiz-adv-x="488" 
d="M273 317h87v-77h-84q-57 0 -91.5 -20.5t-34.5 -56.5q0 -38 31 -59.5t82 -21.5q107 0 175 25v-94q-86 -24 -175 -24q-95 0 -158 48t-63 126q0 34 21.5 67.5t56.5 52.5q-58 40 -58 99q0 70 57 115q58 45 143 45q87 0 169 -25v-94q-65 25 -169 25q-39 0 -65.5 -19t-26.5 -48
q0 -28 27.5 -46t75.5 -18zM215 621l78 184l76 -35l-94 -179z" />
    <glyph glyph-name="etatonos" unicode="&#x3ae;" horiz-adv-x="598" 
d="M70 0v530h98l6 -70q37 42 72 62t83 20q200 0 200 -235v-523h-107v513q0 146 -118 146q-31 0 -62.5 -18t-49.5 -41l-15 -20v-364h-107zM220 621l78 184l76 -35l-94 -179z" />
    <glyph glyph-name="iotatonos" unicode="&#x3af;" horiz-adv-x="286" 
d="M264 94v-98q-82 2 -138 59q-56 59 -56 139v336h106v-336q0 -39 25.5 -68t62.5 -32zM50 621l78 184l76 -35l-94 -179z" />
    <glyph glyph-name="upsilondieresistonos" unicode="&#x3b0;" horiz-adv-x="600" 
d="M349 530h124q72 -107 72 -232q0 -136 -72 -223q-71 -86 -173 -86q-105 0 -168 63q-62 64 -62 170v308h106v-299q0 -69 33.5 -105.5t90.5 -36.5q59 0 97 59q39 60 39 150q0 61 -26 125q-25 64 -61 107zM144 634q-25 0 -41.5 17t-16.5 41t17 41.5t41 17.5q23 0 40.5 -17.5
t17.5 -41.5t-17.5 -41t-40.5 -17zM369 733q17 18 41 18t41 -18q17 -17 17 -41t-17 -41t-41 -17t-41 17t-17 41t17 41zM212 631l68 160l67 -31l-81 -155z" />
    <glyph glyph-name="alpha" unicode="&#x3b1;" horiz-adv-x="646" 
d="M471 448l7 82h97v-530h-97l-7 82q-71 -93 -178 -93q-117 0 -185 81q-68 82 -68 195t68 195q67 82 185 82q106 0 178 -94zM304 88q73 0 118 52q46 52 46 125t-46 125q-45 53 -118 53q-71 0 -112.5 -49t-41.5 -129t41.5 -128.5t112.5 -48.5z" />
    <glyph glyph-name="beta" unicode="&#x3b2;" horiz-adv-x="587" 
d="M309 90q128 0 128 132q0 64 -47 103t-120 39h-17v99h16q116 0 116 107q0 43 -29 73.5t-77 30.5q-40 0 -71 -37t-31 -87v-409q24 -22 61 -36.5t71 -14.5zM419 422q60 -29 94 -84.5t34 -120.5q0 -115 -61 -171.5t-174 -56.5q-34 0 -72 12.5t-63 30.5v-249h-107v767
q0 96 60 160q60 65 152 65q96 0 154 -58q59 -59 59 -146q0 -44 -21 -84t-55 -65z" />
    <glyph glyph-name="gamma" unicode="&#x3b3;" horiz-adv-x="563" 
d="M336 -216h-107v260l-217 486h119l104 -245q13 -30 44 -124h6q26 85 43 124l104 245h119l-215 -483v-263z" />
    <glyph glyph-name="delta" unicode="&#x3b4;" horiz-adv-x="614" 
d="M307 443q-65 0 -112 -51q-46 -50 -46 -130q0 -74 45 -124t113 -50q67 0 112 49q45 50 45 127q0 75 -46 161q-44 18 -111 18zM319 678v-7q106 -74 179 -186q75 -111 75 -221q0 -115 -76 -195q-77 -80 -192 -80q-114 0 -190 79q-75 80 -75 194q0 121 76 200q77 80 189 80
q29 0 41 -4q-68 88 -155 151v75h346v-90h-128q-43 0 -90 4z" />
    <glyph glyph-name="epsilon" unicode="&#x3b5;" horiz-adv-x="488" 
d="M273 317h87v-77h-84q-57 0 -91.5 -20.5t-34.5 -56.5q0 -38 31 -59.5t82 -21.5q107 0 175 25v-94q-86 -24 -175 -24q-95 0 -158 48t-63 126q0 34 21.5 67.5t56.5 52.5q-58 40 -58 99q0 70 57 115q58 45 143 45q87 0 169 -25v-94q-65 25 -169 25q-39 0 -65.5 -19t-26.5 -48
q0 -28 27.5 -46t75.5 -18z" />
    <glyph glyph-name="zeta" unicode="&#x3b6;" horiz-adv-x="464" 
d="M153 257q0 -92 82 -131q71 -32 171 -32h35q-54 -183 -126 -305l-67 12q33 93 55 200q-53 8 -97 25t-82 46.5t-59 76.5t-21 108q0 107 75 224q78 119 179 191v6q-47 -4 -98 -4h-120v90h345v-75q-98 -72 -186 -202q-86 -128 -86 -230z" />
    <glyph glyph-name="eta" unicode="&#x3b7;" horiz-adv-x="598" 
d="M70 0v530h98l6 -70q37 42 72 62t83 20q200 0 200 -235v-523h-107v513q0 146 -118 146q-31 0 -62.5 -18t-49.5 -41l-15 -20v-364h-107z" />
    <glyph glyph-name="theta" unicode="&#x3b8;" horiz-adv-x="681" 
d="M340 674q-70 0 -119 -67t-57 -180h354q-8 113 -57 180t-121 67zM340 90q73 0 122 67t56 180h-354q8 -114 56 -180q49 -67 120 -67zM340 775q122 0 203 -107q81 -106 81 -287t-81 -287q-79 -105 -203 -105q-121 0 -202 105q-81 106 -81 287t81 287q81 107 202 107z" />
    <glyph glyph-name="iota" unicode="&#x3b9;" horiz-adv-x="286" 
d="M264 94v-98q-82 2 -138 59q-56 59 -56 139v336h106v-336q0 -39 25.5 -68t62.5 -32z" />
    <glyph glyph-name="kappa" unicode="&#x3ba;" horiz-adv-x="531" 
d="M237 372l141 158h132l-219 -247l229 -283h-135l-163 210l-45 -48v-162h-107v530h107v-130q0 -51 -3 -102h6q30 47 57 74z" />
    <glyph glyph-name="lambda" unicode="&#x3bb;" horiz-adv-x="569" 
d="M557 0h-117l-110 245q-29 66 -42 106h-6l-17 -46l-24 -60l-111 -245h-118l216 467l-145 297h115z" />
    <glyph glyph-name="uni03BC" unicode="&#x3bc;" horiz-adv-x="597" 
d="M176 -216h-108v746h108v-301q0 -72 32 -107t89 -35q32 0 63 19q32 20 47 39l15 19v366h106v-530h-97l-8 65q-70 -76 -146 -76q-55 0 -101 32v-237z" />
    <glyph glyph-name="nu" unicode="&#x3bd;" horiz-adv-x="562" 
d="M322 267l110 263h118l-236 -530h-66l-236 530h119l109 -262q16 -40 38 -107h6q8 31 38 106z" />
    <glyph glyph-name="xi" unicode="&#x3be;" horiz-adv-x="485" 
d="M338 -211l-67 12q31 94 56 201q-57 9 -105 27.5t-89.5 49.5t-65 80.5t-23.5 112.5q0 52 26 97t73 69q-77 50 -77 134q0 86 63 144q65 59 158 59q61 0 143 -30v-111q-51 25 -77 32q-27 8 -66 8q-48 0 -80 -28t-32 -72q0 -39 37 -65t94 -26h76v-94h-70q-67 0 -113 -34
q-46 -33 -46 -84q0 -48 25 -85t68 -56q81 -36 184 -36h34q-54 -183 -126 -305z" />
    <glyph glyph-name="omicron" unicode="&#x3bf;" horiz-adv-x="615" 
d="M40 262q0 121 77 201q76 79 189 79q115 0 191 -81q77 -82 77 -197q0 -113 -77 -195q-77 -80 -191 -80q-115 0 -191 79q-75 80 -75 194zM150 263q0 -74 44 -124q45 -49 113 -49q69 0 112 49q45 49 45 126q0 76 -47 126t-110 50q-65 0 -112 -50q-45 -49 -45 -128z" />
    <glyph glyph-name="pi" unicode="&#x3c0;" horiz-adv-x="597" 
d="M575 94v-98q-80 1 -138 59q-57 59 -57 139v248h-182v-442h-106v442h-70v88h533v-88h-68v-248q0 -39 25.5 -68t62.5 -32z" />
    <glyph glyph-name="rho" unicode="&#x3c1;" horiz-adv-x="638" 
d="M331 89q67 0 110 49q45 50 45 126q0 75 -47 127q-46 52 -111 52q-67 0 -113 -52q-46 -50 -46 -128v-79q8 -12 27 -35q15 -17 55 -39q39 -21 80 -21zM327 542q115 0 192 -81q76 -80 76 -197t-72 -196t-187 -79q-37 0 -70 13q-35 14 -52 25l-45 34v-277h-107v478
q0 121 76 200q77 80 189 80z" />
    <glyph glyph-name="uni03C2" unicode="&#x3c2;" horiz-adv-x="483" 
d="M428 93h34q-53 -180 -126 -304l-68 12q32 88 56 199q-116 18 -197 77q-87 68 -87 197q0 120 77 194t190 74q63 0 128 -35v-114q-59 51 -125 51q-69 0 -115 -46q-46 -45 -46 -124q0 -105 90 -145q81 -36 189 -36z" />
    <glyph glyph-name="sigma" unicode="&#x3c3;" horiz-adv-x="617" 
d="M40 256q0 120 77 197t189 77h310v-88h-37q-22 0 -70 3v-12q65 -71 65 -175q0 -115 -76 -192q-77 -77 -192 -77q-114 0 -191 77q-75 76 -75 190zM150 256q0 -73 44 -120q45 -47 113 -47q67 0 112 47q45 46 45 123q0 75 -47 124q-47 48 -110 48q-66 0 -112 -49
q-45 -48 -45 -126z" />
    <glyph glyph-name="tau" unicode="&#x3c4;" horiz-adv-x="416" 
d="M150 442h-128v88h372v-88h-137v-249q0 -38 25.5 -67t62.5 -32v-98q-90 3 -143 65q-52 61 -52 153v228z" />
    <glyph glyph-name="upsilon" unicode="&#x3c5;" horiz-adv-x="600" 
d="M349 530h124q72 -107 72 -232q0 -136 -72 -223q-71 -86 -173 -86q-105 0 -168 63q-62 64 -62 170v308h106v-299q0 -69 33.5 -105.5t90.5 -36.5q59 0 97 59q39 60 39 150q0 61 -26 125q-25 64 -61 107z" />
    <glyph glyph-name="phi" unicode="&#x3c6;" horiz-adv-x="755" 
d="M422 374v-285q75 2 121 51q48 49 48 124q0 89 -36 134q-34 46 -77 46q-25 0 -40.5 -19.5t-15.5 -50.5zM471 542q91 0 160 -71t69 -207q0 -114 -80 -194q-79 -79 -198 -79v-207h-105v207q-118 0 -197 79q-80 80 -80 194q0 106 62 182q63 74 159 91v-100q-51 -19 -81.5 -65
t-30.5 -108q0 -73 48 -124q48 -50 120 -51v285q0 76 43 122t111 46z" />
    <glyph glyph-name="chi" unicode="&#x3c7;" horiz-adv-x="557" 
d="M547 0h-129l-97 134q-23 31 -40 70h-4q0 -1 -2 -4.5l-6 -11l-8 -14.5q-15 -29 -24 -40l-97 -134h-129l206 276l-186 254h128l78 -111q22 -32 39 -68h5q16 36 40 68l78 111h128l-185 -254z" />
    <glyph glyph-name="psi" unicode="&#x3c8;" horiz-adv-x="780" 
d="M615 300q0 63 -24 125t-62 105h123q73 -104 73 -230q0 -134 -88 -222q-87 -88 -195 -88v-206h-105v206q-112 0 -189 64q-78 64 -78 169v307h107v-299q0 -68 50 -106q49 -37 110 -37v624h105v-624q62 0 118 62q55 61 55 150z" />
    <glyph glyph-name="omega" unicode="&#x3c9;" horiz-adv-x="900" 
d="M735 298q0 62 -24 125t-61 107h122q73 -104 73 -232q0 -137 -73 -223q-72 -86 -174 -86q-98 0 -148 71q-53 -71 -149 -71q-102 0 -174 86q-72 87 -72 223q0 128 70 232h123q-37 -43 -60.5 -106t-23.5 -126q0 -91 39 -151q39 -59 98 -59q51 0 73.5 33.5t22.5 108.5v179
h105v-179q0 -75 22.5 -108.5t73.5 -33.5q59 0 98 59q39 60 39 151z" />
    <glyph glyph-name="iotadieresis" unicode="&#x3ca;" horiz-adv-x="286" 
d="M78 733q18 -17 18 -41t-18 -41q-17 -17 -41 -17t-41 17t-17 41t17 41q17 18 41 18t41 -18zM167 733q17 18 41 18t41 -18q18 -17 18 -41t-18 -41q-17 -17 -41 -17t-41 17t-17 41t17 41zM264 94v-98q-82 2 -138 59q-56 59 -56 139v336h106v-336q0 -39 25.5 -68t62.5 -32z
" />
    <glyph glyph-name="upsilondieresis" unicode="&#x3cb;" horiz-adv-x="600" 
d="M349 530h124q72 -107 72 -232q0 -136 -72 -223q-71 -86 -173 -86q-105 0 -168 63q-62 64 -62 170v308h106v-299q0 -69 33.5 -105.5t90.5 -36.5q59 0 97 59q39 60 39 150q0 61 -26 125q-25 64 -61 107zM234 733q18 -17 18 -41t-18 -41q-17 -17 -41 -17t-41 17t-17 41
t17 41q17 18 41 18t41 -18zM323 733q17 18 41 18t41 -18q18 -17 18 -41t-18 -41q-17 -17 -41 -17t-41 17t-17 41t17 41z" />
    <glyph glyph-name="omicrontonos" unicode="&#x3cc;" horiz-adv-x="615" 
d="M40 262q0 121 77 201q76 79 189 79q115 0 191 -81q77 -82 77 -197q0 -113 -77 -195q-77 -80 -191 -80q-115 0 -191 79q-75 80 -75 194zM150 263q0 -74 44 -124q45 -49 113 -49q69 0 112 49q45 49 45 126q0 76 -47 126t-110 50q-65 0 -112 -50q-45 -49 -45 -128zM232 621
l78 184l76 -35l-94 -179z" />
    <glyph glyph-name="upsilontonos" unicode="&#x3cd;" horiz-adv-x="600" 
d="M349 530h124q72 -107 72 -232q0 -136 -72 -223q-71 -86 -173 -86q-105 0 -168 63q-62 64 -62 170v308h106v-299q0 -69 33.5 -105.5t90.5 -36.5q59 0 97 59q39 60 39 150q0 61 -26 125q-25 64 -61 107zM211 621l78 184l76 -35l-94 -179z" />
    <glyph glyph-name="omegatonos" unicode="&#x3ce;" horiz-adv-x="900" 
d="M735 298q0 62 -24 125t-61 107h122q73 -104 73 -232q0 -137 -73 -223q-72 -86 -174 -86q-98 0 -148 71q-53 -71 -149 -71q-102 0 -174 86q-72 87 -72 223q0 128 70 232h123q-37 -43 -60.5 -106t-23.5 -126q0 -91 39 -151q39 -59 98 -59q51 0 73.5 33.5t22.5 108.5v179
h105v-179q0 -75 22.5 -108.5t73.5 -33.5q59 0 98 59q39 60 39 151zM372 621l78 184l76 -35l-94 -179z" />
    <glyph glyph-name="uni0400" unicode="&#x400;" horiz-adv-x="549" 
d="M485 0h-407v712h407v-106h-297v-178h288v-106h-288v-215h297v-107zM202 976l198 -148l-38 -56l-207 134z" />
    <glyph glyph-name="afii10023" unicode="&#x401;" horiz-adv-x="549" 
d="M485 0h-407v712h407v-106h-297v-178h288v-106h-288v-215h297v-107zM235 915q18 -17 18 -41t-18 -41q-17 -17 -41 -17t-41 17t-17 41t17 41q17 18 41 18t41 -18zM324 915q17 18 41 18t41 -18q18 -17 18 -41t-18 -41q-17 -17 -41 -17t-41 17t-17 41t17 41z" />
    <glyph glyph-name="afii10051" unicode="&#x402;" horiz-adv-x="738" 
d="M673 249q0 -100 -68 -176q-67 -73 -176 -78v102q60 3 95 44t35 107q0 115 -99 115q-76 0 -160 -22v-341h-111v605h-173v107h456v-107h-172v-161q92 22 180 22q95 0 144 -57t49 -160z" />
    <glyph glyph-name="afii10052" unicode="&#x403;" horiz-adv-x="443" 
d="M427 605h-239v-605h-110v712h349v-107zM385 906l-207 -134l-38 56l198 148z" />
    <glyph glyph-name="afii10053" unicode="&#x404;" horiz-adv-x="624" 
d="M406 617q-94 0 -161 -59q-66 -58 -82 -148h314v-107h-314q17 -91 82 -149q68 -59 161 -59q77 0 167 31v-115q-84 -22 -167 -22q-150 0 -256 106q-105 107 -105 261t105 261q107 107 256 107q86 0 167 -22v-117q-90 32 -167 32z" />
    <glyph glyph-name="afii10054" unicode="&#x405;" horiz-adv-x="533" 
d="M168 532q0 -23 17 -42.5t44.5 -34.5t60.5 -30.5t66.5 -35t61 -42.5t44.5 -58t17 -78q0 -96 -66 -159q-65 -63 -166 -63q-107 0 -184 66v131q29 -34 81 -62q53 -29 107 -29q49 0 82.5 29t33.5 73q0 63 -110 113l-55.5 26t-52 31t-49.5 41t-31.5 50.5t-12.5 65.5
q0 90 61 145t153 55q99 0 175 -56v-128q-86 77 -180 77q-40 0 -68.5 -24t-28.5 -61z" />
    <glyph glyph-name="afii10055" unicode="&#x406;" horiz-adv-x="265" 
d="M78 712h110v-712h-110v712z" />
    <glyph glyph-name="afii10056" unicode="&#x407;" horiz-adv-x="265" 
d="M88 915q18 -17 18 -41t-18 -41q-17 -17 -41 -17t-41 17t-17 41t17 41q17 18 41 18t41 -18zM177 915q17 18 41 18t41 -18q18 -17 18 -41t-18 -41q-17 -17 -41 -17t-41 17t-17 41t17 41zM78 712h110v-712h-110v712z" />
    <glyph glyph-name="afii10057" unicode="&#x408;" horiz-adv-x="420" 
d="M232 223v489h110v-491q0 -109 -63 -171q-61 -61 -157 -61q-43 0 -79 18v121q35 -28 82 -28t77 32.5t30 90.5z" />
    <glyph glyph-name="afii10058" unicode="&#x409;" horiz-adv-x="988" 
d="M589 428h127q100 0 167 -58q67 -57 67 -156t-67 -157q-67 -57 -167 -57h-238v605h-248v-377q0 -108 -61 -169q-61 -63 -153 -64v111q47 2 75 34t28 90v482h470v-284zM589 103h122q56 0 90.5 30t34.5 81t-34.5 80.5t-90.5 29.5h-122v-221z" />
    <glyph glyph-name="afii10059" unicode="&#x40a;" horiz-adv-x="996" 
d="M597 428h127q100 0 167 -58q67 -57 67 -156t-67 -157q-67 -57 -167 -57h-238v321h-298v-321h-110v712h110v-284h298v284h111v-284zM597 103h122q56 0 90.5 30t34.5 81t-34.5 80.5t-90.5 29.5h-122v-221z" />
    <glyph glyph-name="afii10060" unicode="&#x40b;" horiz-adv-x="737" 
d="M481 466q94 0 142.5 -56.5t48.5 -160.5v-249h-111v240q0 61 -27 92t-74 31q-76 0 -160 -22v-341h-111v605h-173v107h456v-107h-172v-161q92 22 181 22z" />
    <glyph glyph-name="afii10061" unicode="&#x40c;" horiz-adv-x="627" 
d="M599 712l-260 -322q48 -13 97 -45q19 -11 36 -32q2 -2 11 -12t10.5 -12t8 -10t9 -12.5l7 -12.5t8.5 -17q23 -50 34 -90q7 -20 14 -47q4 -15 12 -51q12 -46 13 -49h-113l-11 43l-11 44q-3 15 -12 42q-11 35 -34 76q-16 30 -58 59q-49 39 -154 39h-18v-303h-110v712h110
v-302l27 -1l245 303h139zM429 906l-207 -134l-38 56l198 148z" />
    <glyph glyph-name="uni040D" unicode="&#x40d;" horiz-adv-x="712" 
d="M154 0h-76v712h110v-393q0 -53 -5 -103h5q26 43 61 92l295 404h91v-712h-110v414q0 35 4 99h-6q-36 -59 -63 -95zM282 976l198 -148l-38 -56l-207 134z" />
    <glyph glyph-name="afii10062" unicode="&#x40e;" horiz-adv-x="615" 
d="M603 712l-402 -712h-125l168 300l-233 412h128l124 -215q21 -37 41 -81h7q13 32 41 81l124 215h127zM424 945l64 -28q-24 -60 -70 -89.5t-103 -29.5t-103.5 30t-69.5 89l65 28q12 -32 32 -50q29 -25 76 -25q39 0 65 16t44 59z" />
    <glyph glyph-name="afii10145" unicode="&#x40f;" horiz-adv-x="675" 
d="M386 -176h-96v176h-212v712h111v-605h298v605h111v-712h-212v-176z" />
    <glyph glyph-name="afii10017" unicode="&#x410;" horiz-adv-x="724" 
d="M11 0l317 712h67l317 -712h-120l-69 158h-323l-68 -158h-121zM246 265h230l-79 182q-20 48 -32 87h-6q-2 -7 -15 -38l-19 -49z" />
    <glyph glyph-name="afii10018" unicode="&#x411;" horiz-adv-x="588" 
d="M492 712v-107h-303v-177h127q100 0 167 -58q67 -57 67 -156t-67 -157q-67 -57 -167 -57h-238v712h414zM189 103h122q56 0 90.5 30t34.5 81t-34.5 80.5t-90.5 29.5h-122v-221z" />
    <glyph glyph-name="afii10019" unicode="&#x412;" horiz-adv-x="587" 
d="M287 606h-100v-193h103q53 0 83 25t30 72q0 44 -32.5 70t-83.5 26zM297 308h-110v-201h115q58 0 91.5 26.5t33.5 75.5q0 47 -34.5 73t-95.5 26zM78 0v712h204q112 0 171 -59t59 -143q0 -44 -20 -81t-55 -59q45 -22 73 -67t28 -96q0 -97 -66 -152q-65 -55 -165 -55h-229z
" />
    <glyph glyph-name="afii10020" unicode="&#x413;" horiz-adv-x="443" 
d="M427 605h-239v-605h-110v712h349v-107z" />
    <glyph glyph-name="afii10021" unicode="&#x414;" horiz-adv-x="754" 
d="M25 -147v254h82q32 40 65 150.5t43 302.5l7 152h414v-605h93v-254h-110v147h-484v-147h-110zM231 107h295v498h-203l-5 -101q-12 -230 -87 -397z" />
    <glyph glyph-name="afii10022" unicode="&#x415;" horiz-adv-x="549" 
d="M485 0h-407v712h407v-106h-297v-178h288v-106h-288v-215h297v-107z" />
    <glyph glyph-name="afii10024" unicode="&#x416;" horiz-adv-x="933" 
d="M412 0v261q0 27 2 65h-10q-16 -24 -46 -62l-209 -264h-131l292 376l-279 336h133l190 -229q24 -28 46 -62h14q-2 38 -2 66v225h109v-225q0 -28 -2 -66h14q16 24 46 62l190 229h133l-279 -336l292 -376h-131l-209 264q-30 38 -46 62h-10q2 -38 2 -65v-261h-109z" />
    <glyph glyph-name="afii10025" unicode="&#x417;" horiz-adv-x="515" 
d="M201 329h-57v98h57q59 0 95 26t36 66q0 44 -30.5 71t-76.5 27q-79 0 -161 -41v118q76 30 161 30q94 0 156 -59q63 -59 63 -149q0 -88 -74 -135q46 -26 71 -69t25 -93q0 -98 -69 -164t-173 -66q-87 0 -168 29v117q75 -39 168 -39q57 0 93.5 33t36.5 87q0 52 -42.5 82.5
t-110.5 30.5z" />
    <glyph glyph-name="afii10026" unicode="&#x418;" horiz-adv-x="712" 
d="M154 0h-76v712h110v-393q0 -53 -5 -103h5q26 43 61 92l295 404h91v-712h-110v414q0 35 4 99h-6q-36 -59 -63 -95z" />
    <glyph glyph-name="afii10027" unicode="&#x419;" horiz-adv-x="712" 
d="M154 0h-76v712h110v-393q0 -53 -5 -103h5q26 43 61 92l295 404h91v-712h-110v414q0 35 4 99h-6q-36 -59 -63 -95zM464 945l64 -28q-24 -60 -70 -89.5t-103 -29.5t-103.5 30t-69.5 89l65 28q12 -32 32 -50q29 -25 76 -25q39 0 65 16t44 59z" />
    <glyph glyph-name="afii10028" unicode="&#x41a;" horiz-adv-x="614" 
d="M455 0l-219 264q-24 28 -46 62h-5q2 -38 2 -65v-261h-109v712h109v-225q0 -28 -2 -66h5q25 39 46 62l204 229h143l-299 -336l312 -376h-141z" />
    <glyph glyph-name="afii10029" unicode="&#x41b;" horiz-adv-x="666" 
d="M119 230v482h470v-712h-111v605h-248v-377q0 -108 -61 -169q-61 -63 -153 -64v111q47 2 75 34t28 90z" />
    <glyph glyph-name="afii10030" unicode="&#x41c;" horiz-adv-x="825" 
d="M154 712l259 -260l260 260h75v-712h-109v406q0 87 4 124h-7q-38 -49 -68 -79l-155 -154l-154 154q-39 39 -69 79h-6q4 -75 4 -124v-406h-110v712h76z" />
    <glyph glyph-name="afii10031" unicode="&#x41d;" horiz-adv-x="674" 
d="M188 428h299v284h110v-712h-110v321h-299v-321h-110v712h110v-284z" />
    <glyph glyph-name="afii10032" unicode="&#x41e;" horiz-adv-x="811" 
d="M405 724q151 0 256 -107t105 -261t-105 -261q-105 -106 -256 -106q-150 0 -255 107q-105 106 -105 260q0 153 105 260q105 108 255 108zM405 96q109 0 179 75q70 76 70 185t-70 185t-179 76q-108 0 -178 -76t-70 -185t70 -185q71 -75 178 -75z" />
    <glyph glyph-name="afii10033" unicode="&#x41f;" horiz-adv-x="675" 
d="M78 0v712h520v-712h-111v605h-298v-605h-111z" />
    <glyph glyph-name="afii10034" unicode="&#x420;" horiz-adv-x="571" 
d="M277 606h-90v-252h91q68 0 109 35t41 93q0 56 -42 90t-109 34zM78 0v712h201q123 0 192 -66q69 -64 69 -164q0 -117 -77 -176t-194 -59h-82v-247h-109z" />
    <glyph glyph-name="afii10035" unicode="&#x421;" horiz-adv-x="624" 
d="M574 157v-124q-90 -44 -168 -44q-149 0 -256 107q-105 106 -105 260t105 261q107 107 256 107q82 0 168 -44v-127q-80 64 -168 64q-109 0 -179 -76q-69 -77 -69 -185t69 -185q71 -75 179 -75q83 0 168 61z" />
    <glyph glyph-name="afii10036" unicode="&#x422;" horiz-adv-x="487" 
d="M471 605h-172v-605h-110v605h-173v107h455v-107z" />
    <glyph glyph-name="afii10037" unicode="&#x423;" horiz-adv-x="614" 
d="M147 712l162 -291q10 -22 18 -48h6q8 26 18 48l148 291h127l-349 -712h-125l120 244l-261 468h136z" />
    <glyph glyph-name="afii10038" unicode="&#x424;" horiz-adv-x="812" 
d="M461 556v-399q59 2 122 46q32 23 52 63.5t20 89.5q0 52 -20.5 92t-51.5 62.5t-62.5 33.5t-59.5 12zM351 157v399q-28 -1 -59 -12t-62.5 -33.5t-51.5 -62.5t-20 -92q0 -49 19.5 -89.5t51.5 -63.5q63 -44 122 -46zM461 -29h-110v79q-60 2 -140 41q-42 22 -80 55
q-38 35 -62 90.5t-24 119.5q0 66 23.5 121.5t61.5 89.5q51 47 115 71.5t106 24.5v78h110v-78q66 -2 140 -41q46 -24 80 -55q38 -35 62 -91t24 -120t-23.5 -119.5t-61.5 -90.5q-51 -47 -115 -71.5t-106 -24.5v-79z" />
    <glyph glyph-name="afii10039" unicode="&#x425;" horiz-adv-x="631" 
d="M250 371l-219 341h134l107 -168q23 -37 41 -76h6q24 50 39 73l108 171h134l-219 -341l239 -371h-133l-128 201q-2 3 -41 74h-5q-22 -43 -41 -75l-128 -200h-132z" />
    <glyph glyph-name="afii10040" unicode="&#x426;" horiz-adv-x="716" 
d="M581 0h-503v712h111v-605h298v605h111v-605h93v-254h-110v147z" />
    <glyph glyph-name="afii10041" unicode="&#x427;" horiz-adv-x="640" 
d="M563 0h-111v267q-93 -21 -182 -21q-95 0 -143.5 56t-48.5 160v250h110v-241q0 -61 27 -92t76 -31q77 0 161 22v342h111v-712z" />
    <glyph glyph-name="afii10042" unicode="&#x428;" horiz-adv-x="978" 
d="M901 0h-823v712h110v-605h247v605h110v-605h245v605h111v-712z" />
    <glyph glyph-name="afii10043" unicode="&#x429;" horiz-adv-x="1019" 
d="M884 0h-806v712h110v-605h247v605h110v-605h245v605h111v-605h93v-254h-110v147z" />
    <glyph glyph-name="afii10044" unicode="&#x42a;" horiz-adv-x="695" 
d="M296 428h127q100 0 167 -58q67 -57 67 -156t-67 -157q-68 -57 -167 -57h-238v605h-169v107h280v-284zM296 103h122q56 0 90.5 30t34.5 81t-34.5 80.5t-90.5 29.5h-122v-221z" />
    <glyph glyph-name="afii10045" unicode="&#x42b;" horiz-adv-x="837" 
d="M189 428h127q100 0 167 -58q67 -57 67 -156t-67 -157q-67 -57 -167 -57h-238v712h111v-284zM189 103h122q56 0 90.5 30t34.5 81t-34.5 80.5t-90.5 29.5h-122v-221zM650 712h110v-712h-110v712z" />
    <glyph glyph-name="afii10046" unicode="&#x42c;" horiz-adv-x="588" 
d="M189 428h127q100 0 167 -58q67 -57 67 -156t-67 -157q-67 -57 -167 -57h-238v712h111v-284zM189 103h122q56 0 90.5 30t34.5 81t-34.5 80.5t-90.5 29.5h-122v-221z" />
    <glyph glyph-name="afii10047" unicode="&#x42d;" horiz-adv-x="646" 
d="M240 617q-77 0 -167 -32v117q81 22 167 22q150 0 255 -107q106 -106 106 -261t-106 -261q-105 -106 -255 -106q-83 0 -167 22v115q90 -31 167 -31q93 0 160 59q66 57 83 149h-314v107h314q-16 90 -82 148q-67 59 -161 59z" />
    <glyph glyph-name="afii10048" unicode="&#x42e;" horiz-adv-x="1076" 
d="M670 724q151 0 256 -107t105 -261t-105 -261q-105 -106 -256 -106q-137 0 -239 90q-102 93 -118 227h-125v-306h-110v712h110v-308h125q16 135 118 228q103 92 239 92zM670 96q108 0 179 75q70 76 70 185t-70 185t-179 76q-108 0 -178 -76t-70 -185t70 -185
q70 -75 178 -75z" />
    <glyph glyph-name="afii10049" unicode="&#x42f;" horiz-adv-x="597" 
d="M318 712h201v-712h-109v280h-55l-201 -280h-134l214 290q-75 21 -118 76.5t-43 130.5q0 93 63 154q64 61 182 61zM319 385h91v221h-90q-61 0 -98 -29.5t-37 -79.5t36.5 -81t97.5 -31z" />
    <glyph glyph-name="afii10065" unicode="&#x430;" horiz-adv-x="557" 
d="M379 205v24q-86 16 -121 16q-110 0 -110 -85q0 -40 23 -59.5t73 -19.5q59 0 97 35.5t38 88.5zM254 542q99 0 166 -53q66 -53 66 -141v-348h-94l-9 66q-59 -77 -159 -77q-183 0 -183 168q0 73 57 121t158 48q41 0 123 -20v43q0 41 -39 69q-40 29 -86 29q-76 0 -149 -38
v102q72 31 149 31z" />
    <glyph glyph-name="afii10066" unicode="&#x431;" horiz-adv-x="641" 
d="M328 89q67 0 112 49q45 50 45 127t-47 127q-47 51 -110 51q-66 0 -112 -51q-46 -49 -46 -129q0 -75 45 -124q45 -50 113 -50zM183 493h8q22 24 60.5 37t75.5 13q115 0 191 -81q77 -82 77 -197q0 -114 -77 -196q-77 -80 -191 -80q-112 0 -188.5 86t-76.5 206q0 89 8 155.5
t30 125.5t59 96t96 58t139 21q83 0 115 38l67 -82q-51 -58 -147 -58q-42 0 -70 -2.5t-58.5 -10.5t-50.5 -23t-38 -41.5t-29 -64.5z" />
    <glyph glyph-name="afii10067" unicode="&#x432;" horiz-adv-x="508" 
d="M254 435h-77v-126h79q75 0 75 64q0 29 -21.5 45.5t-55.5 16.5zM262 227h-85v-132h88q83 0 83 67q0 65 -86 65zM70 0v530h181q90 0 136.5 -42.5t46.5 -111.5q0 -62 -49 -101q32 -21 51 -53t19 -64q0 -74 -52 -116q-53 -42 -131 -42h-202z" />
    <glyph glyph-name="afii10068" unicode="&#x433;" horiz-adv-x="376" 
d="M362 434h-185v-434h-107v530h292v-96z" />
    <glyph glyph-name="afii10069" unicode="&#x434;" horiz-adv-x="601" 
d="M16 -113v209h64q27 35 50 116t29 182l8 136h333v-434h85v-209h-100v113h-369v-113h-100zM258 349q-18 -197 -60 -253h195v338h-129z" />
    <glyph glyph-name="afii10070" unicode="&#x435;" horiz-adv-x="562" 
d="M153 326h266q-4 58 -40.5 92t-89.5 34t-88.5 -33.5t-47.5 -92.5zM468 125v-108q-75 -28 -161 -28q-117 0 -192 78t-75 207q0 116 68 192q67 76 181 76q108 0 170.5 -72t62.5 -207v-18h-371q9 -75 50.5 -117.5t106.5 -42.5q89 0 160 40z" />
    <glyph glyph-name="afii10072" unicode="&#x436;" horiz-adv-x="785" 
d="M339 0v195q0 34 1 48h-8q-21 -30 -35 -46l-152 -197h-126l221 279l-211 251h127l141 -171q11 -11 35 -46h8q-1 14 -1 49v168h107v-168q0 -35 -1 -49h8q24 35 35 46l141 171h127l-211 -251l221 -279h-126l-152 197q-14 16 -35 46h-8q1 -14 1 -48v-195h-107z" />
    <glyph glyph-name="afii10073" unicode="&#x437;" horiz-adv-x="488" 
d="M204 240h-84v77h87q48 0 75.5 18t27.5 46q0 29 -26.5 48t-65.5 19q-104 0 -169 -25v94q82 25 169 25q85 0 142 -45q58 -45 58 -115q0 -59 -58 -99q35 -19 56.5 -52.5t21.5 -67.5q0 -78 -63 -126t-158 -48q-89 0 -175 24v94q68 -25 175 -25q51 0 82 21.5t31 59.5
q0 36 -34.5 56.5t-91.5 20.5z" />
    <glyph glyph-name="afii10074" unicode="&#x438;" horiz-adv-x="596" 
d="M145 0h-75v530h107v-235q0 -19 -1 -42v-58h6q23 37 65 90l192 245h87v-530h-107v255q0 66 2 92h-7l-65 -88z" />
    <glyph glyph-name="afii10075" unicode="&#x439;" horiz-adv-x="596" 
d="M145 0h-75v530h107v-235q0 -19 -1 -42v-58h6q23 37 65 90l192 245h87v-530h-107v255q0 66 2 92h-7l-65 -88zM410 763l64 -28q-24 -60 -70 -89.5t-103 -29.5t-103.5 30t-69.5 89l65 28q12 -32 32 -50q29 -25 76 -25q39 0 65 16t44 59z" />
    <glyph glyph-name="afii10076" unicode="&#x43a;" horiz-adv-x="528" 
d="M378 0l-162 197q-14 16 -35 46h-3q1 -14 1 -48v-195h-107v530h107v-168q0 -35 -1 -49h3q24 35 35 46l151 171h132l-221 -251l231 -279h-131z" />
    <glyph glyph-name="afii10077" unicode="&#x43b;" horiz-adv-x="545" 
d="M91 174v356h384v-530h-107v434h-170v-262q0 -79 -53 -126t-133 -50v98q36 2 57.5 23.5t21.5 56.5z" />
    <glyph glyph-name="afii10078" unicode="&#x43c;" horiz-adv-x="683" 
d="M342 209l-165 153v-362h-107v530h73l199 -183l198 183h73v-530h-107v362l-94 -87z" />
    <glyph glyph-name="afii10079" unicode="&#x43d;" horiz-adv-x="564" 
d="M177 326h210v204h107v-530h-107v229h-210v-229h-107v530h107v-204z" />
    <glyph glyph-name="afii10080" unicode="&#x43e;" horiz-adv-x="614" 
d="M40 262q0 121 77 201q76 79 189 79q115 0 191 -81q77 -82 77 -197q0 -113 -77 -195q-77 -80 -191 -80q-115 0 -191 79q-75 80 -75 194zM150 263q0 -74 44 -124q45 -49 113 -49q69 0 112 49q45 49 45 126q0 76 -47 126t-110 50q-65 0 -112 -50q-45 -49 -45 -128z" />
    <glyph glyph-name="afii10081" unicode="&#x43f;" horiz-adv-x="559" 
d="M70 0v530h419v-530h-107v434h-205v-434h-107z" />
    <glyph glyph-name="afii10082" unicode="&#x440;" horiz-adv-x="645" 
d="M605 265q0 -113 -69 -195q-68 -81 -184 -81q-84 0 -175 71v-276h-107v746h97l8 -80q74 92 177 92q117 0 184 -82q69 -81 69 -195zM495 265q0 79 -42 127.5t-113 48.5q-73 0 -118 -53q-45 -52 -45 -126v-78q9 -12 29 -36q19 -18 56 -38q38 -20 78 -20q71 0 113 48t42 127z
" />
    <glyph glyph-name="afii10083" unicode="&#x441;" horiz-adv-x="479" 
d="M306 90q70 0 126 51v-120q-59 -32 -126 -32q-114 0 -191 80q-75 81 -75 195q0 120 77 199q76 79 189 79q65 0 125 -33v-123q-58 55 -125 55q-64 0 -111 -50q-45 -49 -45 -127q0 -72 45 -123t111 -51z" />
    <glyph glyph-name="afii10084" unicode="&#x442;" horiz-adv-x="398" 
d="M386 434h-133v-434h-107v434h-134v96h374v-96z" />
    <glyph glyph-name="afii10085" unicode="&#x443;" horiz-adv-x="562" 
d="M137 530l126 -306q2 -4 16 -47h6q14 43 16 47l127 306h122l-317 -746h-119l106 264l-208 482h125z" />
    <glyph glyph-name="afii10086" unicode="&#x444;" horiz-adv-x="751" 
d="M322 764h106v-225q59 -2 130 -38q65 -29 108.5 -89t44.5 -147q0 -58 -22 -108t-57 -81q-35 -30 -74 -49q-70 -34 -130 -36v-207h-106v207q-60 2 -130 36q-65 29 -108 89t-44 149q0 60 23 109t56 78t73.5 49.5t73 28.5t56.5 9v225zM323 90v351q-68 -1 -122 -52
q-53 -50 -53 -124t53 -124q54 -49 122 -51zM427 441v-352q68 2 122 51q54 50 54 125t-54 124q-54 51 -122 52z" />
    <glyph glyph-name="afii10087" unicode="&#x445;" horiz-adv-x="557" 
d="M547 0h-129l-97 134q-23 31 -40 70h-4q0 -1 -2 -4.5l-6 -11l-8 -14.5q-15 -29 -24 -40l-97 -134h-129l206 276l-186 254h128l78 -111q22 -32 39 -68h5q16 36 40 68l78 111h128l-185 -254z" />
    <glyph glyph-name="afii10088" unicode="&#x446;" horiz-adv-x="590" 
d="M474 0h-404v530h107v-434h205v434h107v-434h85v-209h-100v113z" />
    <glyph glyph-name="afii10089" unicode="&#x447;" horiz-adv-x="526" 
d="M456 0h-107v188q-61 -12 -130 -12q-77 0 -118.5 43t-41.5 121v190h107v-153q0 -57 16.5 -83t52.5 -26q55 0 114 13v249h107v-530z" />
    <glyph glyph-name="afii10090" unicode="&#x448;" horiz-adv-x="795" 
d="M725 0h-655v530h107v-435h167v435h107v-435h167v435h107v-530z" />
    <glyph glyph-name="afii10091" unicode="&#x449;" horiz-adv-x="825" 
d="M709 0h-639v530h107v-434h167v434h107v-434h166v434h107v-434h85v-209h-100v113z" />
    <glyph glyph-name="afii10092" unicode="&#x44a;" horiz-adv-x="573" 
d="M258 325h97q80 0 130 -44t50 -119q0 -74 -50 -118t-130 -44h-204v434h-139v96h246v-205zM258 93h85q39 0 62 18.5t23 50.5q0 33 -23 51t-62 18h-85v-138z" />
    <glyph glyph-name="afii10093" unicode="&#x44b;" horiz-adv-x="699" 
d="M181 325h97q81 0 131 -44t50 -119q0 -74 -50 -118t-131 -44h-204v530h107v-205zM181 93h85q39 0 62.5 18.5t23.5 50.5q0 33 -23 51t-63 18h-85v-138zM522 530h107v-530h-107v530z" />
    <glyph glyph-name="afii10094" unicode="&#x44c;" horiz-adv-x="493" 
d="M177 325h97q81 0 131 -44t50 -119q0 -74 -50 -118t-131 -44h-204v530h107v-205zM177 93h85q39 0 62.5 18.5t23.5 50.5q0 33 -23 51t-63 18h-85v-138z" />
    <glyph glyph-name="afii10095" unicode="&#x44d;" horiz-adv-x="504" 
d="M198 448q-85 0 -160 -37v103q80 28 161 28q117 0 192 -76q75 -75 75 -201q0 -125 -75 -201q-75 -75 -192 -75q-86 0 -161 28v103q71 -37 160 -37q60 0 104 40t54 105h-246v75h246q-10 65 -54 105t-104 40z" />
    <glyph glyph-name="afii10096" unicode="&#x44e;" horiz-adv-x="878" 
d="M70 530h107v-221h130q17 103 90 168q74 65 172 65q115 0 192 -81q76 -80 76 -197q0 -115 -76 -195q-77 -80 -192 -80q-100 0 -172 63q-73 65 -89 161h-131v-213h-107v530zM413 262q0 -73 44 -123q45 -50 113 -50q67 0 112 49t45 127q0 77 -47 127q-47 51 -110 51
q-64 0 -111 -51q-46 -50 -46 -130z" />
    <glyph glyph-name="afii10097" unicode="&#x44f;" horiz-adv-x="506" 
d="M256 530h180v-530h-107v194h-24l-152 -194h-134l157 208q-61 25 -87 62t-26 99q0 74 49.5 117.5t143.5 43.5zM252 289h77v145h-76q-38 0 -61 -20t-23 -53q0 -32 23 -52t60 -20z" />
    <glyph glyph-name="uni0450" unicode="&#x450;" horiz-adv-x="562" 
d="M153 326h266q-4 58 -40.5 92t-89.5 34t-88.5 -33.5t-47.5 -92.5zM468 125v-108q-75 -28 -161 -28q-117 0 -192 78t-75 207q0 116 68 192q67 76 181 76q108 0 170.5 -72t62.5 -207v-18h-371q9 -75 50.5 -117.5t106.5 -42.5q89 0 160 40zM216 794l198 -148l-38 -56
l-207 134z" />
    <glyph glyph-name="afii10071" unicode="&#x451;" horiz-adv-x="562" 
d="M153 326h266q-4 58 -40.5 92t-89.5 34t-88.5 -33.5t-47.5 -92.5zM468 125v-108q-75 -28 -161 -28q-117 0 -192 78t-75 207q0 116 68 192q67 76 181 76q108 0 170.5 -72t62.5 -207v-18h-371q9 -75 50.5 -117.5t106.5 -42.5q89 0 160 40zM248 733q18 -17 18 -41t-18 -41
q-17 -17 -41 -17t-41 17t-17 41t17 41q17 18 41 18t41 -18zM337 733q17 18 41 18t41 -18q18 -17 18 -41t-18 -41q-17 -17 -41 -17t-41 17t-17 41t17 41z" />
    <glyph glyph-name="afii10099" unicode="&#x452;" horiz-adv-x="602" 
d="M338 -225v101q39 0 62.5 28.5t23.5 68.5v324q0 146 -119 146q-30 0 -61.5 -19t-49.5 -42l-15 -20v-362h-107v608h-44v52h44v104h107v-104h146v-52h-146v-149q29 36 70 59.5t82 23.5q200 0 200 -235v-330q0 -88 -49 -144q-49 -58 -144 -58z" />
    <glyph glyph-name="afii10100" unicode="&#x453;" horiz-adv-x="376" 
d="M362 434h-185v-434h-107v530h292v-96zM339 724l-207 -134l-38 56l198 148z" />
    <glyph glyph-name="afii10101" unicode="&#x454;" horiz-adv-x="504" 
d="M306 448q-60 0 -104 -40t-54 -105h246v-75h-246q10 -65 54 -105t104 -40q89 0 160 37v-103q-75 -28 -161 -28q-117 0 -192 75q-75 76 -75 201q0 126 75 201q75 76 192 76q81 0 161 -28v-103q-75 37 -160 37z" />
    <glyph glyph-name="afii10102" unicode="&#x455;" horiz-adv-x="433" 
d="M386 150q0 -71 -51 -116q-49 -45 -125 -45q-78 0 -149 30v107q70 -43 141 -43q31 0 52.5 15.5t21.5 39.5q0 39 -79 84q-31 18 -50 30.5t-44 34t-37.5 46.5t-12.5 53q0 67 50 111q49 45 124 45q63 0 135 -29v-109q-74 44 -129 44q-27 0 -48.5 -14.5t-21.5 -37.5
q0 -37 78 -82q31 -17 51 -30t44.5 -34t37 -46t12.5 -54z" />
    <glyph glyph-name="afii10103" unicode="&#x456;" horiz-adv-x="244" 
d="M176 530v-530h-107v530h107zM122 580q-27 0 -47 19.5t-20 47.5q0 27 20 46.5t47 19.5q28 0 47.5 -19t19.5 -47t-19.5 -47.5t-47.5 -19.5z" />
    <glyph glyph-name="afii10104" unicode="&#x457;" horiz-adv-x="244" 
d="M79 733q18 -17 18 -41t-18 -41q-17 -17 -41 -17t-41 17t-17 41t17 41q17 18 41 18t41 -18zM168 733q17 18 41 18t41 -18q18 -17 18 -41t-18 -41q-17 -17 -41 -17t-41 17t-17 41t17 41zM69 530h107v-530h-107v530z" />
    <glyph glyph-name="afii10105" unicode="&#x458;" horiz-adv-x="257" 
d="M-55 -218v101q20 -7 51 -7q39 0 62.5 28.5t23.5 68.5v557h107v-553q0 -86 -49 -144q-48 -58 -140 -58q-28 0 -55 7zM135 580q-27 0 -47 19.5t-20 47.5q0 27 20 46.5t47 19.5q28 0 47.5 -19t19.5 -47t-19.5 -47.5t-47.5 -19.5z" />
    <glyph glyph-name="afii10106" unicode="&#x459;" horiz-adv-x="790" 
d="M475 325h97q80 0 130 -44t50 -119q0 -74 -50 -118t-130 -44h-204v434h-170v-262q0 -79 -53 -126t-133 -50v98q36 2 57.5 23.5t21.5 56.5v356h384v-205zM475 93h85q39 0 62.5 18.5t23.5 50.5q0 33 -23 51t-63 18h-85v-138z" />
    <glyph glyph-name="afii10107" unicode="&#x45a;" horiz-adv-x="810" 
d="M493 325h98q81 0 131 -44t50 -119q0 -74 -50 -118t-131 -44h-205v231h-209v-231h-107v530h107v-205h209v205h107v-205zM493 93h86q39 0 62 18.5t23 50.5q0 33 -23 51t-62 18h-86v-138z" />
    <glyph glyph-name="afii10108" unicode="&#x45b;" horiz-adv-x="602" 
d="M72 660v104h107v-104h146v-52h-146v-149q29 36 70 59.5t82 23.5q200 0 200 -235v-307h-107v297q0 146 -119 146q-30 0 -61.5 -19t-49.5 -42l-15 -20v-362h-107v608h-44v52h44z" />
    <glyph glyph-name="afii10109" unicode="&#x45c;" horiz-adv-x="503" 
d="M177 315h24l147 215h127l-166 -234q51 -22 79 -50t45 -73q13 -31 18 -53q13 -59 13 -61l14 -59h-110q-11 70 -32 121q-36 94 -139 94h-20v-215h-107v530h107v-215zM374 724l-207 -134l-38 56l198 148z" />
    <glyph glyph-name="uni045D" unicode="&#x45d;" horiz-adv-x="596" 
d="M145 0h-75v530h107v-235q0 -19 -1 -42v-58h6q23 37 65 90l192 245h87v-530h-107v255q0 66 2 92h-7l-65 -88zM220 794l198 -148l-38 -56l-207 134z" />
    <glyph glyph-name="afii10110" unicode="&#x45e;" horiz-adv-x="569" 
d="M330 286l110 244h117l-351 -746h-114l136 279l-216 467h118l111 -244q11 -24 41 -106h6q11 38 42 106zM394 763l64 -28q-24 -60 -70 -89.5t-103 -29.5t-103.5 30t-69.5 89l65 28q12 -32 32 -50q29 -25 76 -25q39 0 65 16t44 59z" />
    <glyph glyph-name="afii10193" unicode="&#x45f;" horiz-adv-x="559" 
d="M326 -173h-95v173h-161v530h107v-434h205v434h107v-530h-163v-173z" />
    <glyph glyph-name="afii10050" unicode="&#x490;" horiz-adv-x="443" 
d="M427 605h-239v-605h-110v712h253v176h96v-283z" />
    <glyph glyph-name="afii10098" unicode="&#x491;" horiz-adv-x="375" 
d="M363 434h-186v-434h-107v530h198v173h95v-269z" />
    <glyph glyph-name="afii10846" unicode="&#x4d9;" horiz-adv-x="567" 
d="M415 205h-266q4 -58 40.5 -92t89.5 -34t88.5 33.5t47.5 92.5zM100 406v108q75 28 161 28q117 0 192 -78t75 -207q0 -116 -68 -193q-68 -75 -181 -75q-108 0 -170.5 72t-62.5 207v18h371q-9 75 -50.5 117.5t-106.5 42.5q-89 0 -160 -40z" />
    <glyph glyph-name="Wgrave" unicode="&#x1e80;" horiz-adv-x="892" 
d="M153 0l-122 712h113l66 -390q11 -60 15 -133h7q24 85 44 132l146 361h49l146 -361q8 -19 25 -74l18 -58h7q6 84 15 133l67 390h112l-122 -712h-109l-137 336q-30 72 -43 118h-7q-10 -37 -43 -117l-139 -337h-108zM370 976l198 -148l-38 -56l-207 134z" />
    <glyph glyph-name="wgrave" unicode="&#x1e81;" horiz-adv-x="807" 
d="M605 278l66 252h110l-144 -530h-76l-116 236q-17 36 -40 98h-4q-32 -80 -41 -98l-116 -236h-75l-145 530h111l66 -252q13 -47 22 -119h6q17 61 45 118l106 227h45l106 -227q26 -56 46 -118h5q0 1 1 6.5t3 18l4 24.5q7 45 15 70zM327 794l198 -148l-38 -56l-207 134z" />
    <glyph glyph-name="Wacute" unicode="&#x1e82;" horiz-adv-x="892" 
d="M153 0l-122 712h113l66 -390q11 -60 15 -133h7q24 85 44 132l146 361h49l146 -361q8 -19 25 -74l18 -58h7q6 84 15 133l67 390h112l-122 -712h-109l-137 336q-30 72 -43 118h-7q-10 -37 -43 -117l-139 -337h-108zM568 906l-207 -134l-38 56l198 148z" />
    <glyph glyph-name="wacute" unicode="&#x1e83;" horiz-adv-x="807" 
d="M605 278l66 252h110l-144 -530h-76l-116 236q-17 36 -40 98h-4q-32 -80 -41 -98l-116 -236h-75l-145 530h111l66 -252q13 -47 22 -119h6q17 61 45 118l106 227h45l106 -227q26 -56 46 -118h5q0 1 1 6.5t3 18l4 24.5q7 45 15 70zM525 724l-207 -134l-38 56l198 148z" />
    <glyph glyph-name="Wdieresis" unicode="&#x1e84;" horiz-adv-x="892" 
d="M153 0l-122 712h113l66 -390q11 -60 15 -133h7q24 85 44 132l146 361h49l146 -361q8 -19 25 -74l18 -58h7q6 84 15 133l67 390h112l-122 -712h-109l-137 336q-30 72 -43 118h-7q-10 -37 -43 -117l-139 -337h-108zM401 915q18 -17 18 -41t-18 -41q-17 -17 -41 -17t-41 17
t-17 41t17 41q17 18 41 18t41 -18zM490 915q17 18 41 18t41 -18q18 -17 18 -41t-18 -41q-17 -17 -41 -17t-41 17t-17 41t17 41z" />
    <glyph glyph-name="wdieresis" unicode="&#x1e85;" horiz-adv-x="807" 
d="M605 278l66 252h110l-144 -530h-76l-116 236q-17 36 -40 98h-4q-32 -80 -41 -98l-116 -236h-75l-145 530h111l66 -252q13 -47 22 -119h6q17 61 45 118l106 227h45l106 -227q26 -56 46 -118h5q0 1 1 6.5t3 18l4 24.5q7 45 15 70zM357 733q18 -17 18 -41t-18 -41
q-17 -17 -41 -17t-41 17t-17 41t17 41q17 18 41 18t41 -18zM446 733q17 18 41 18t41 -18q18 -17 18 -41t-18 -41q-17 -17 -41 -17t-41 17t-17 41t17 41z" />
    <glyph glyph-name="Ygrave" unicode="&#x1ef2;" horiz-adv-x="612" 
d="M251 294l-240 418h125l124 -214q19 -33 43 -85h6q13 36 42 84l125 215h124l-239 -418v-294h-110v294zM230 976l198 -148l-38 -56l-207 134z" />
    <glyph glyph-name="ygrave" unicode="&#x1ef3;" horiz-adv-x="576" 
d="M334 286l110 244h117l-351 -746h-114l136 279l-216 467h118l111 -244q11 -24 41 -106h6q11 38 42 106zM213 794l198 -148l-38 -56l-207 134z" />
    <glyph glyph-name="endash" unicode="&#x2013;" horiz-adv-x="516" 
d="M36 252v98h444v-98h-444z" />
    <glyph glyph-name="emdash" unicode="&#x2014;" horiz-adv-x="955" 
d="M36 252v98h883v-98h-883z" />
    <glyph glyph-name="quoteleft" unicode="&#x2018;" horiz-adv-x="253" 
d="M156 775l67 -12q-52 -149 -71 -281l-122 -12q54 183 126 305z" />
    <glyph glyph-name="quoteright" unicode="&#x2019;" horiz-adv-x="253" 
d="M97 470l-67 12q52 149 71 281l122 12q-54 -183 -126 -305z" />
    <glyph glyph-name="quotesinglbase" unicode="&#x201a;" horiz-adv-x="253" 
d="M97 -200l-67 12q52 149 71 281l122 12q-54 -183 -126 -305z" />
    <glyph glyph-name="quotedblleft" unicode="&#x201c;" horiz-adv-x="448" 
d="M156 775l67 -12q-52 -149 -71 -281l-122 -12q54 183 126 305zM351 775l67 -12q-52 -149 -71 -281l-122 -12q54 183 126 305z" />
    <glyph glyph-name="quotedblright" unicode="&#x201d;" horiz-adv-x="448" 
d="M97 470l-67 12q52 149 71 281l122 12q-54 -183 -126 -305zM292 470l-67 12q52 149 71 281l122 12q-54 -183 -126 -305z" />
    <glyph glyph-name="quotedblbase" unicode="&#x201e;" horiz-adv-x="448" 
d="M97 -200l-67 12q52 149 71 281l122 12q-54 -183 -126 -305zM292 -200l-67 12q52 149 71 281l122 12q-54 -183 -126 -305z" />
    <glyph glyph-name="dagger" unicode="&#x2020;" horiz-adv-x="533" 
d="M214 552v212h105v-212h159v-104h-159v-553h-105v553h-159v104h159z" />
    <glyph glyph-name="daggerdbl" unicode="&#x2021;" horiz-adv-x="533" 
d="M214 553v211h105v-211h159v-103h-159v-178h159v-103h-159v-274h-105v274h-159v103h159v178h-159v103h159z" />
    <glyph glyph-name="bullet" unicode="&#x2022;" horiz-adv-x="484" 
d="M242 518q70 0 118 -49q49 -49 49 -120t-49 -120t-118 -49q-70 0 -119 49t-49 120q0 69 48 119q50 50 120 50z" />
    <glyph glyph-name="ellipsis" unicode="&#x2026;" horiz-adv-x="856" 
d="M72 61q0 29 19.5 49t47.5 20t48 -20.5t20 -48.5t-20 -47t-48 -19t-47.5 19t-19.5 47zM494 61q0 -28 -19.5 -47t-47.5 -19t-48 19t-20 47t20 48.5t48 20.5t47.5 -20t19.5 -49zM713 130q28 0 47.5 -20t19.5 -49q3 -43 -41.5 -60.5t-73.5 13.5q-20 20 -20 46.5t20.5 48.5
t47.5 21z" />
    <glyph glyph-name="perthousand" unicode="&#x2030;" horiz-adv-x="1123" 
d="M181 724q154 0 154 -189q0 -187 -154 -187q-156 0 -156 187q0 189 156 189zM181 422q75 0 75 113q0 115 -75 115q-76 0 -76 -115q0 -113 76 -113zM437 181q0 187 155 187t155 -187t-155 -187t-155 187zM668 181q0 113 -76 113t-76 -113q0 -114 76 -114t76 114zM787 181
q0 187 155 187t155 -187t-155 -187t-155 187zM942 67q76 0 76 114q0 113 -76 113q-75 0 -75 -113q0 -114 75 -114zM236 -14l-70 34l358 699l69 -34z" />
    <glyph glyph-name="guilsinglleft" unicode="&#x2039;" horiz-adv-x="319" 
d="M167 458h115l-130 -193l130 -193h-115l-131 193z" />
    <glyph glyph-name="guilsinglright" unicode="&#x203a;" horiz-adv-x="318" 
d="M36 72l131 193l-131 193h115l131 -193l-131 -193h-115z" />
    <glyph glyph-name="fraction" unicode="&#x2044;" horiz-adv-x="195" 
d="M308 686l-358 -700l-63 34l357 699z" />
    <glyph glyph-name="zerosuperior" unicode="&#x2070;" horiz-adv-x="326" 
d="M295 733v-35q0 -174 -132 -174t-132 174v35q0 173 132 173t132 -173zM225 702v27q0 110 -62 110t-62 -110v-27q0 -111 62 -111t62 111z" />
    <glyph glyph-name="foursuperior" unicode="&#x2074;" horiz-adv-x="316" 
d="M251 900v-233h39v-66h-39v-71h-69v71h-166v62l172 237h63zM95 665h88v121z" />
    <glyph glyph-name="fivesuperior" unicode="&#x2075;" horiz-adv-x="292" 
d="M265 652q0 -52 -39 -90q-40 -38 -93 -38q-46 0 -95 20v71q43 -27 95 -27q27 0 44.5 18t17.5 45q0 30 -15 48.5t-41 18.5q-39 0 -70 -22l-32 17l26 187h186v-67h-130l-8 -64q15 4 28 4q55 0 90.5 -34t35.5 -87z" />
    <glyph glyph-name="sixsuperior" unicode="&#x2076;" horiz-adv-x="312" 
d="M66 756l104 144h83l-87 -121q49 0 84 -38q36 -37 36 -86q0 -54 -37 -92q-38 -38 -93 -38q-56 0 -93 37q-38 38 -38 92q0 43 41 102zM156 588q26 0 44.5 18.5t18.5 45.5q0 28 -18.5 47.5t-44.5 19.5q-25 0 -44.5 -19.5t-19.5 -46.5t18 -46t46 -19z" />
    <glyph glyph-name="sevensuperior" unicode="&#x2077;" horiz-adv-x="283" 
d="M21 530l162 303h-157v67h251v-37l-178 -333h-78z" />
    <glyph glyph-name="eightsuperior" unicode="&#x2078;" horiz-adv-x="309" 
d="M31 643q0 23 12.5 48t32.5 39q-32 26 -32 69q0 45 32.5 76t77.5 31q46 0 78.5 -31t32.5 -76q0 -40 -34 -68q21 -14 33.5 -38.5t12.5 -49.5q0 -51 -35.5 -85t-87.5 -34q-53 0 -88 34t-35 85zM98 644q0 -23 17.5 -39.5t39.5 -16.5t38.5 16t16.5 39q0 24 -17 40t-39 16
t-39 -16t-17 -39zM111 799q0 -15 12.5 -27.5t30.5 -12.5q17 0 30 12t13 28q0 18 -12.5 31t-30.5 13t-30.5 -13t-12.5 -31z" />
    <glyph glyph-name="ninesuperior" unicode="&#x2079;" horiz-adv-x="313" 
d="M245 674l-103 -143h-84l87 120q-54 8 -87 41.5t-33 82.5q0 54 37 92q37 39 94 39q55 0 93 -38t38 -92q0 -45 -42 -102zM93 778q0 -28 18.5 -47t44.5 -19q25 0 44 19t19 46q0 25 -18.5 45t-44.5 20q-27 0 -45 -18.5t-18 -45.5z" />
    <glyph glyph-name="parenleftsuperior" unicode="&#x207d;" horiz-adv-x="203" 
d="M128 938h67q-139 -222 0 -444h-67l-33 61q-8 15 -23 66q-13 45 -13 95q0 49 13 94q15 52 23 68z" />
    <glyph glyph-name="parenrightsuperior" unicode="&#x207e;" horiz-adv-x="203" 
d="M8 938h67q15 -26 32 -60q10 -20 24 -68q13 -45 13 -94q0 -50 -13 -95q-15 -51 -23 -66l-33 -61h-67q139 222 0 444z" />
    <glyph glyph-name="zeroinferior" unicode="&#x2080;" horiz-adv-x="326" 
d="M295 8v-35q0 -174 -132 -174t-132 174v35q0 173 132 173t132 -173zM225 -23v27q0 110 -62 110t-62 -110v-27q0 -111 62 -111t62 111z" />
    <glyph glyph-name="oneinferior" unicode="&#x2081;" horiz-adv-x="260" 
d="M35 86l105 89h58v-370h-70v271q-1 -1 -7 -6l-17.5 -14.5l-24.5 -19.5l-44 -37v87z" />
    <glyph glyph-name="twoinferior" unicode="&#x2082;" horiz-adv-x="299" 
d="M211 -44l-78 -84h131v-67h-232v57l127 141q35 41 35 57q0 22 -15.5 38t-37.5 16q-24 0 -51 -18.5t-47 -47.5v98q46 35 97 35q50 0 87 -35q36 -34 36 -85q0 -47 -52 -105z" />
    <glyph glyph-name="threeinferior" unicode="&#x2083;" horiz-adv-x="280" 
d="M110 -31h-33v63h33q26 0 42.5 11.5t16.5 29.5t-14 30t-33 12q-47 0 -88 -26v75q43 17 88 17q50 0 83.5 -32t33.5 -79q0 -42 -30 -67q41 -29 41 -81q0 -54 -37 -88q-38 -35 -92 -35q-44 0 -91 16v72q40 -22 91 -22q26 0 42 14.5t16 38.5q0 23 -19 37t-50 14z" />
    <glyph glyph-name="fourinferior" unicode="&#x2084;" horiz-adv-x="316" 
d="M251 175v-233h39v-66h-39v-71h-69v71h-166v62l172 237h63zM95 -60h88v121z" />
    <glyph glyph-name="fiveinferior" unicode="&#x2085;" horiz-adv-x="292" 
d="M265 -73q0 -53 -39 -90q-40 -38 -93 -38q-46 0 -95 20v71q44 -27 95 -27q27 0 44.5 18t17.5 45q0 30 -15 48.5t-41 18.5q-39 0 -70 -22l-32 17l26 187h186v-67h-130l-8 -64q15 4 28 4q55 0 90.5 -34t35.5 -87z" />
    <glyph glyph-name="sixinferior" unicode="&#x2086;" horiz-adv-x="312" 
d="M66 31l104 144h83l-87 -121q49 0 84 -38q36 -38 36 -86q0 -54 -37 -91q-37 -39 -93 -39q-55 0 -93 38t-38 91q0 43 41 102zM156 -137q26 0 44.5 18.5t18.5 45.5q0 28 -18.5 47.5t-44.5 19.5q-25 0 -44.5 -19.5t-19.5 -46.5t18 -46t46 -19z" />
    <glyph glyph-name="seveninferior" unicode="&#x2087;" horiz-adv-x="283" 
d="M21 -195l162 303h-157v67h251v-37l-178 -333h-78z" />
    <glyph glyph-name="eightinferior" unicode="&#x2088;" horiz-adv-x="309" 
d="M31 -82q0 23 12.5 48t32.5 39q-32 26 -32 69q0 45 32.5 76t77.5 31q46 0 78.5 -31t32.5 -76q0 -40 -34 -68q21 -14 33.5 -38.5t12.5 -49.5q0 -51 -35.5 -85t-87.5 -34q-53 0 -88 34t-35 85zM98 -81q0 -23 17.5 -39.5t39.5 -16.5t38.5 16t16.5 39q0 24 -17 40t-39 16
t-39 -16t-17 -39zM111 74q0 -15 12.5 -27.5t30.5 -12.5q17 0 30 12t13 28q0 18 -12.5 31t-30.5 13t-30.5 -13t-12.5 -31z" />
    <glyph glyph-name="nineinferior" unicode="&#x2089;" horiz-adv-x="313" 
d="M245 -51l-103 -143h-84l87 120q-54 8 -87 41.5t-33 82.5q0 54 37 92q38 39 94 39q55 0 93 -38t38 -92q0 -45 -42 -102zM93 53q0 -28 18.5 -47t44.5 -19q25 0 44 19t19 46q0 25 -18.5 45t-44.5 20q-27 0 -45 -18.5t-18 -45.5z" />
    <glyph glyph-name="parenleftinferior" unicode="&#x208d;" horiz-adv-x="203" 
d="M128 213h67q-139 -222 0 -444h-67l-33 62q-8 15 -23 66q-13 45 -13 94t13 94q15 52 23 68z" />
    <glyph glyph-name="parenrightinferior" unicode="&#x208e;" horiz-adv-x="203" 
d="M8 213h67q15 -26 32 -60q10 -20 24 -68q13 -45 13 -94t-13 -94q-15 -51 -23 -66l-33 -62h-67q139 222 0 444z" />
    <glyph glyph-name="Euro" unicode="&#x20ac;" horiz-adv-x="663" 
d="M456 617q-76 0 -135 -39t-89 -107h291v-68h-312q-4 -17 -4 -47q0 -19 3 -40h313v-68h-294q28 -70 88.5 -111t138.5 -41q84 0 167 61v-124q-86 -44 -167 -44q-122 0 -218 72q-95 74 -128 187h-85v68h71q-1 9 -1 40q0 7 2 47h-72v68h87q36 112 130 182q95 71 214 71
q84 0 167 -44v-127q-80 64 -167 64z" />
    <glyph glyph-name="trademark" unicode="&#x2122;" horiz-adv-x="867" 
d="M730 712h101v-414h-77v288l-123 -288h-53l-121 290v-290h-75v414h100l124 -285zM34 712h297v-71h-111v-343h-75v343h-111v71z" />
    <glyph glyph-name="uni2126" unicode="&#x2126;" horiz-adv-x="786" 
d="M596 109v-6q28 4 66 4h71v-107h-278v122q75 30 125 98q50 70 50 150q0 106 -65 177q-64 70 -172 70q-109 0 -173 -70t-64 -177q0 -80 50 -150q50 -68 125 -98v-122h-279v107h71q36 0 67 -4v6q-37 24 -63 55q-83 98 -83 206q0 153 98 254q99 100 251 100t249 -100
q99 -101 99 -254q0 -112 -82 -206q-26 -31 -63 -55z" />
    <glyph glyph-name="estimated" unicode="&#x212e;" horiz-adv-x="760" 
d="M591 130h58q-51 -67 -123 -104t-151 -37q-133 0 -234 98q-100 99 -100 237q0 142 100 238q100 97 234 97q136 0 235 -99q99 -97 99 -236v-18h-542v-195q89 -86 208 -86q131 0 216 105zM167 537v-194h417v194q-89 86 -209 86q-124 0 -208 -86z" />
    <glyph glyph-name="arrowleft" unicode="&#x2190;" horiz-adv-x="826" 
d="M413 712h156l-301 -301h501v-110h-501l301 -301h-156l-356 356z" />
    <glyph glyph-name="arrowup" unicode="&#x2191;" horiz-adv-x="826" 
d="M769 356v-156l-301 301v-501h-110v501l-301 -301v156l356 356z" />
    <glyph glyph-name="arrowright" unicode="&#x2192;" horiz-adv-x="826" 
d="M413 0h-156l301 301h-501v110h501l-301 301h156l356 -356z" />
    <glyph glyph-name="arrowdown" unicode="&#x2193;" horiz-adv-x="826" 
d="M57 356v156l301 -301v501h110v-501l301 301v-156l-356 -356z" />
    <glyph glyph-name="partialdiff" unicode="&#x2202;" horiz-adv-x="614" 
d="M443 645q53 -47 83.5 -129t30.5 -178t-31 -171q-30 -77 -99 -128q-70 -50 -168 -50q-93 0 -155 62q-61 61 -61 157q0 81 43 148q44 68 109.5 106t135.5 38q59 0 92 -30q-53 149 -207 149q-17 0 -93 -10q-6 22 -23 99q51 16 113 16q142 0 230 -79zM259 93q71 0 126 58
q57 59 57 131q0 51 -31 83t-80 32q-68 0 -122 -59q-54 -58 -54 -130q0 -52 28 -83.5t76 -31.5z" />
    <glyph glyph-name="uni2206" unicode="&#x2206;" horiz-adv-x="697" 
d="M351 531h-6q-25 -79 -41 -123l-119 -300h327l-120 301q-12 32 -41 122zM645 0h-593v75l260 637h74l259 -637v-75z" />
    <glyph glyph-name="product" unicode="&#x220f;" horiz-adv-x="658" 
d="M91 605h-65v107h606v-107h-65v-821h-112v821h-252v-821h-112v821z" />
    <glyph glyph-name="summation" unicode="&#x2211;" horiz-adv-x="615" 
d="M26 611v101h555v-107h-421l218 -337l-221 -376h432v-108h-563v100l224 382z" />
    <glyph glyph-name="minus" unicode="&#x2212;" 
d="M525 190h-483v103h483v-103z" />
    <glyph glyph-name="radical" unicode="&#x221a;" horiz-adv-x="527" 
d="M229 164l167 600h110l-218 -764h-117l-68 234h-82v109h154z" />
    <glyph glyph-name="infinity" unicode="&#x221e;" horiz-adv-x="715" 
d="M517 120q-46 0 -83 22.5t-75 76.5q-41 -54 -77.5 -76t-82.5 -22q-73 0 -118 50t-45 129q0 80 45 129q47 51 118 51q46 0 82 -22t75 -76q38 54 75 76t86 22q72 0 117 -51q45 -49 45 -129t-45 -130q-44 -50 -117 -50zM509 379q-26 0 -44.5 -16t-51.5 -64q30 -46 50 -62.5
t46 -16.5q30 0 49 22.5t19 57.5t-19 57t-49 22zM206 220q24 0 43.5 16t52.5 64q-30 47 -49.5 63t-46.5 16q-31 0 -50 -22t-19 -57t19 -57.5t50 -22.5z" />
    <glyph glyph-name="integral" unicode="&#x222b;" horiz-adv-x="384" 
d="M367 715v-101q-29 9 -58 9q-31 0 -48 -22.5t-17 -55.5v-585q0 -87 -42.5 -138.5t-129.5 -51.5q-20 0 -56 9v101q30 -10 58 -10q31 0 48 23t17 56v585q0 84 40 136q41 54 131 54q20 0 57 -9z" />
    <glyph glyph-name="therefore" unicode="&#x2234;" 
d="M179 61q0 -28 -19.5 -47t-47.5 -19t-47.5 19t-19.5 47q0 29 19.5 49t47.5 20t47.5 -20t19.5 -49zM522 61q0 -28 -19.5 -47t-47.5 -19t-47.5 19t-19.5 47q0 29 19.5 49t47.5 20t47.5 -20t19.5 -49zM350 399q0 -28 -19.5 -47t-47.5 -19t-47.5 19t-19.5 47q0 29 19.5 49
t47.5 20t47.5 -20t19.5 -49z" />
    <glyph glyph-name="approxequal" unicode="&#x2248;" 
d="M453 421l82 -57q-75 -115 -149 -115q-38 0 -109 38q-71 39 -90 39q-37 0 -80 -66l-74 54q74 113 149 113q40 0 118 -38t83 -38q13 0 26 11q16 14 44 59zM113 50l-80 57q74 113 149 113q39 0 113 -38t84 -38q38 0 80 66l76 -54q-75 -113 -149 -113q-40 0 -114 38t-89 38
q-17 0 -31 -14.5t-39 -54.5z" />
    <glyph glyph-name="notequal" unicode="&#x2260;" 
d="M42 281v103h261l64 124l81 -41l-42 -83h119v-103h-173l-42 -79h215v-105h-269l-63 -122l-40 21l-40 19l42 82h-113v105h167l40 79h-207z" />
    <glyph glyph-name="lessequal" unicode="&#x2264;" 
d="M41 421l485 208v-111l-328 -139l328 -136v-111l-485 207v82zM44 -11v104h483v-104h-483z" />
    <glyph glyph-name="greaterequal" unicode="&#x2265;" 
d="M368 379l-327 139v111l486 -208v-82l-486 -207v111zM41 -11v104h482v-104h-482z" />
    <glyph glyph-name="triagup" unicode="&#x25b2;" horiz-adv-x="826" 
d="M413 672l356 -617h-712z" />
    <glyph glyph-name="triagrt" unicode="&#x25ba;" horiz-adv-x="826" 
d="M721 356l-617 -356v712z" />
    <glyph glyph-name="triagdn" unicode="&#x25bc;" horiz-adv-x="826" 
d="M413 34l-356 617h712z" />
    <glyph glyph-name="triaglf" unicode="&#x25c4;" horiz-adv-x="826" 
d="M104 353l617 356v-712z" />
    <glyph glyph-name="lozenge" unicode="&#x25ca;" horiz-adv-x="576" 
d="M339 724l220 -426l-219 -426h-107l-217 426l218 426h105zM436 297l-149 287l-149 -287q21 -44 75 -145l74 -140z" />
    <glyph glyph-name="slash.small" unicode="&#xe00c;" horiz-adv-x="331" 
d="M92 -82l-92 32l236 652l93 -33z" />
    <glyph glyph-name="backslash.small" unicode="&#xe00d;" horiz-adv-x="331" 
d="M0 568l92 34l237 -652l-92 -32z" />
    <glyph glyph-name="bar.small" unicode="&#xe00e;" horiz-adv-x="211" 
d="M56 579h94v-616h-94v616z" />
    <glyph glyph-name="zero.small" unicode="&#xe019;" horiz-adv-x="490" 
d="M437 292v-49q0 -251 -193 -251t-193 251v49q0 251 193 251t193 -251zM329 248v39q0 156 -85 156t-85 -156v-39q0 -157 85 -157t85 157z" />
    <glyph glyph-name="one.small" unicode="&#xe01a;" horiz-adv-x="358" 
d="M35 406l153 128h88v-534h-106v385l-135 -112v133z" />
    <glyph glyph-name="two.small" unicode="&#xe01b;" horiz-adv-x="421" 
d="M296 219l-110 -120h187v-99h-340v82l186 206q47 53 47 80q0 31 -21.5 53t-51.5 22q-36 0 -76 -21.5t-68 -54.5v124q67 52 142 52q74 0 128 -51t54 -123q0 -64 -77 -150z" />
    <glyph glyph-name="three.small" unicode="&#xe01c;" horiz-adv-x="407" 
d="M145 241h-35v83h35q96 0 96 59q0 27 -19 43.5t-49 16.5q-73 0 -126 -38v112q64 26 130 26q72 0 122 -44q49 -43 49 -112q0 -71 -52 -102q32 -17 50 -50.5t18 -69.5q0 -74 -53 -124q-52 -49 -134 -49q-71 0 -136 25v107q55 -33 131 -33q36 0 60 20.5t24 53.5q0 34 -30 55
t-81 21z" />
    <glyph glyph-name="four.small" unicode="&#xe01d;" horiz-adv-x="462" 
d="M372 534v-334h56v-99h-56v-101h-106v101h-237v90l248 343h95zM136 200l134 -5v89q0 28 3 103h-8l-23 -39q-21 -35 -32 -50z" />
    <glyph glyph-name="five.small" unicode="&#xe01e;" horiz-adv-x="443" 
d="M391 176q0 -76 -58 -130q-57 -54 -136 -54q-77 0 -139 27v104q56 -33 135 -33q37 0 63.5 24.5t26.5 60.5q0 39 -22.5 63.5t-60.5 24.5q-47 0 -94 -32l-51 26l40 277h271v-94h-187l-12 -89q26 6 38 6q81 0 133 -52q53 -53 53 -129z" />
    <glyph glyph-name="six.small" unicode="&#xe01f;" horiz-adv-x="459" 
d="M97 327l149 207h125l-124 -175q71 -7 122 -58q50 -50 50 -121q0 -76 -54 -132t-137 -56q-80 0 -136 54q-55 55 -55 132q0 66 60 149zM228 90q37 0 62 25t25 60q0 37 -25.5 63t-61.5 26t-61.5 -25.5t-25.5 -61.5q0 -35 24.5 -61t62.5 -26z" />
    <glyph glyph-name="seven.small" unicode="&#xe020;" horiz-adv-x="420" 
d="M28 0l231 435h-225v99h369v-55l-257 -479h-118z" />
    <glyph glyph-name="eight.small" unicode="&#xe021;" horiz-adv-x="460" 
d="M49 163q0 35 18.5 70.5t48.5 56.5q-23 17 -36 44.5t-13 53.5q0 67 47 111q49 44 115 44q69 0 115 -45q47 -44 47 -111q0 -23 -13 -51t-36 -46q31 -20 49 -55t18 -72q0 -73 -52 -122t-128 -49q-77 0 -129 49q-51 50 -51 122zM148 165q0 -33 24.5 -56t57.5 -23q31 0 55 23
t24 55q0 33 -24 55.5t-56 22.5q-33 0 -57 -22.5t-24 -54.5zM165 389q0 -24 19 -42t45 -18q25 0 44.5 18.5t19.5 41.5q0 25 -19 43.5t-44 18.5q-27 0 -46 -19t-19 -43z" />
    <glyph glyph-name="nine.small" unicode="&#xe022;" horiz-adv-x="457" 
d="M358 207l-149 -207h-125l124 173q-73 7 -122 58q-49 50 -49 123q0 76 54 132q56 57 137 57q79 0 135 -56q55 -55 55 -132q0 -65 -60 -148zM228 443q-36 0 -61.5 -25t-25.5 -61q0 -37 25.5 -63t61.5 -26q34 0 60 26t26 62q0 35 -24.5 61t-61.5 26z" />
    <glyph glyph-name="dollar.small" unicode="&#xe023;" horiz-adv-x="436" 
d="M382 162q0 -66 -40.5 -112t-105.5 -56v-50h-41v47q-76 3 -139 54v132q69 -82 139 -86v139q-53 24 -95 54q-48 39 -48 103q0 63 39.5 104.5t103.5 49.5v50h41v-49q67 -5 122 -48v-125q-59 62 -122 71v-116q50 -24 79 -44q61 -39 67 -118zM151 393q0 -25 44 -49v96
q-44 -12 -44 -47zM236 210v-115q48 17 48 58q0 30 -48 57z" />
    <glyph glyph-name="percent.small" unicode="&#xe024;" horiz-adv-x="635" 
d="M150 543q124 0 124 -147t-124 -147q-126 0 -126 147t126 147zM150 326q40 0 40 70t-40 70q-41 0 -41 -70t41 -70zM608 141q0 -145 -125 -145t-125 145q0 146 125 146t125 -146zM524 141q0 69 -41 69t-41 -69q0 -70 41 -70t41 70zM215 -14l-73 36l267 522l73 -37z" />
    <glyph glyph-name="at.small" unicode="&#xe025;" horiz-adv-x="777" 
d="M408 -82v-79q-167 0 -264 103t-97 251q0 154 101 252q103 98 252 98q133 0 228 -80t95 -209q0 -112 -58 -185q-59 -74 -128 -74q-53 0 -69 49q-52 -49 -118 -49q-72 0 -113 51q-41 52 -41 124q0 84 51 146t133 62q57 0 107 -49l7 40h81l-36 -254q-3 -18 -3 -21
q0 -20 14 -20q33 0 61 49q29 50 29 116q0 108 -65 166t-176 58q-115 0 -192 -78q-77 -77 -77 -192q0 -112 74 -194q74 -81 204 -81zM467 193l7 52q-39 50 -94 50q-45 0 -72 -33.5t-27 -88.5q0 -43 21.5 -70.5t57.5 -27.5q43 0 71 37q30 38 36 81z" />
    <glyph glyph-name="cent.small" unicode="&#xe026;" horiz-adv-x="371" 
d="M327 357v-108q-35 33 -72 39v-197q40 9 72 38v-107q-39 -22 -72 -26v-52h-40v50q-78 4 -128 61q-50 56 -50 134q0 81 51 136q51 56 127 60v43h40v-45q39 -6 72 -26zM143 189q0 -39 20 -66.5t52 -31.5v198q-32 -5 -52 -32.5t-20 -67.5z" />
    <glyph glyph-name="sterling.small" unicode="&#xe027;" horiz-adv-x="449" 
d="M190 185v-87h224v-98h-380v98h52v87h-52v52h52v128q0 71 51 124q51 54 125 54q47 0 97 -26v-118q-46 46 -97 46q-30 0 -51 -23t-21 -55v-130h169v-52h-169z" />
    <glyph glyph-name="copyright.small" unicode="&#xe028;" horiz-adv-x="638" 
d="M330 434q40 0 78 -20v-86q-45 36 -78 36q-39 0 -65.5 -28t-26.5 -68t26.5 -67.5t65.5 -27.5q34 0 78 35v-85q-42 -21 -78 -21q-68 0 -116 48t-48 118t48 118t116 48zM318 543q114 0 193 -81q80 -82 80 -194q0 -113 -80 -193t-193 -80q-114 0 -194 80t-80 193
q0 114 80 194q80 81 194 81zM318 60q86 0 147 61t61 147t-61 147t-147 61q-87 0 -148 -61q-60 -61 -60 -147t60 -147q61 -61 148 -61z" />
    <glyph glyph-name="yen.small" unicode="&#xe029;" horiz-adv-x="489" 
d="M357 534h120l-106 -184h78v-52h-107l-35 -61h142v-52h-152v-185h-106v185h-152v52h142l-35 61h-107v52h77l-105 184h120l83 -142q16 -30 26 -58h6q17 42 27 58z" />
    <glyph glyph-name="Euro.small" unicode="&#xe02a;" horiz-adv-x="513" 
d="M340 443q-48 0 -87 -25.5t-58 -67.5h205v-52h-222q-3 -15 -3 -31q0 -15 3 -29h222v-52h-206q21 -44 59 -69.5t87 -25.5q66 0 134 53v-116q-70 -36 -134 -36q-92 0 -163 54q-72 55 -97 140h-55v52h44q-1 6 -1 29q0 5 2 31h-45v52h55q26 86 97 139q72 54 163 54
q66 0 134 -37v-119q-67 56 -134 56z" />
    <glyph glyph-name="germandbls.small" unicode="&#xe02b;" horiz-adv-x="856" 
d="M219 443q-22 0 -38.5 -14.5t-16.5 -35.5q0 -29 79 -67q30 -14 50 -25.5t44.5 -31.5t37 -46.5t12.5 -59.5q0 -73 -51 -123q-51 -48 -129 -48q-83 0 -146 54v127q26 -33 68 -57q43 -25 81 -25q28 0 48.5 17.5t20.5 44.5q0 39 -79 75q-29 13 -50 24.5t-45 31t-37 46
t-12 58.5q0 68 47 112q47 43 120 43q76 0 139 -48v-120q-65 68 -143 68zM634 443q-22 0 -38.5 -14.5t-16.5 -35.5q0 -29 78 -67q30 -14 50.5 -25.5t45 -31.5t37 -46.5t12.5 -59.5q0 -73 -51 -123q-51 -48 -129 -48q-83 0 -146 54v127q26 -33 68 -57q43 -25 81 -25
q28 0 48.5 17.5t20.5 44.5q0 39 -79 75q-31 14 -50.5 25t-44 30.5t-37 46t-12.5 58.5q0 68 47 112q47 43 120 43q76 0 139 -48v-120q-65 68 -143 68z" />
    <glyph glyph-name="dotlessi.small" unicode="&#xe02c;" horiz-adv-x="262" 
d="M76 534h106v-534h-106v534z" />
    <glyph glyph-name="ampersand.01" unicode="&#xe37a;" horiz-adv-x="826" 
d="M468 0h-110v301h-301v110h301v301h110v-301h301v-110h-301v-301z" />
    <glyph glyph-name="f_j" unicode="&#xe380;" horiz-adv-x="569" 
d="M444 741v-108q-96 41 -171 41q-33 0 -57 -25t-24 -60v-59h306v-553q0 -86 -49 -144q-48 -58 -140 -58q-28 0 -55 7v101q20 -7 51 -7q39 0 62.5 28.5t23.5 68.5v467h-199v-440h-107v440h-72v90h72v59q0 76 55 131t133 55q79 0 171 -34z" />
    <glyph glyph-name="f_b" unicode="&#xe381;" horiz-adv-x="968" 
d="M926 264q0 -113 -69 -194q-67 -81 -185 -81q-94 0 -177 90l-6 -79h-98v657q-66 17 -117 17q-34 0 -58 -25t-24 -60v-59h137v-90h-137v-440h-107v440h-72v90h72v59q0 77 55 131q55 55 134 55q83 0 224 -44v-268q73 79 174 79q119 0 186 -82q68 -82 68 -196zM816 264
q0 79 -42 128t-113 49q-73 0 -118 -53q-45 -52 -45 -126v-78q10 -16 29 -35q17 -17 56 -39q38 -20 78 -20q71 0 113 48t42 126z" />
    <glyph glyph-name="f_f_b" unicode="&#xe382;" horiz-adv-x="1274" 
d="M1232 264q0 -113 -69 -194q-67 -81 -185 -81q-94 0 -177 90l-6 -79h-98v657q-66 17 -117 17q-34 0 -58 -25t-24 -60v-59h137v-90h-137v-440h-107v440h-199v-440h-107v440h-72v90h72v48q0 77 55 131q55 55 133 55q28 0 63 -7v-105q-33 11 -63 11q-34 0 -57.5 -25
t-23.5 -60v-48h199v59q0 77 55 131q55 55 134 55q83 0 224 -44v-268q73 79 174 79q119 0 186 -82q68 -82 68 -196zM1122 264q0 79 -42 128t-113 49q-73 0 -118 -53q-45 -52 -45 -126v-78q11 -16 29 -35q17 -17 56 -39q38 -20 78 -20q71 0 113 48t42 126z" />
    <glyph glyph-name="f_f_h" unicode="&#xe383;" horiz-adv-x="1227" 
d="M13 440v90h72v48q0 77 55 131q55 55 133 55q28 0 63 -7v-105q-33 11 -63 11q-34 0 -57.5 -25t-23.5 -60v-48h199v59q0 77 55 131q55 55 134 55q83 0 224 -44v-271q64 82 153 82q199 0 199 -235v-307h-107v295q0 146 -119 146q-30 0 -61.5 -18.5t-48.5 -40.5l-16 -20v-362
h-107v657q-66 17 -117 17q-34 0 -58 -25t-24 -60v-59h137v-90h-137v-440h-107v440h-199v-440h-107v440h-72z" />
    <glyph glyph-name="f_f_j" unicode="&#xe384;" horiz-adv-x="875" 
d="M560 -218v101q20 -7 51 -7q39 0 62.5 28.5t23.5 68.5v467h-199v-440h-107v440h-199v-440h-107v440h-72v90h72v48q0 77 55 131q55 55 133 55q28 0 63 -7v-105q-33 11 -63 11q-34 0 -57.5 -25t-23.5 -60v-48h199v59q0 76 55 131t133 55q79 0 171 -34v-108q-96 41 -171 41
q-33 0 -57 -25t-24 -60v-59h306v-553q0 -86 -49 -144q-48 -58 -140 -58q-28 0 -55 7z" />
    <glyph glyph-name="f_f_k" unicode="&#xe385;" horiz-adv-x="1166" 
d="M864 372l141 158h132l-219 -247l229 -283h-135l-163 210l-45 -48v-162h-107v657q-66 17 -117 17q-34 0 -58 -25t-24 -60v-59h137v-90h-137v-440h-107v440h-199v-440h-107v440h-72v90h72v48q0 77 55 131q55 55 133 55q28 0 63 -7v-105q-33 11 -63 11q-34 0 -57.5 -25
t-23.5 -60v-48h199v59q0 77 55 131q55 55 134 55q83 0 224 -44v-331q0 -51 -3 -102h6q30 47 57 74z" />
    <glyph glyph-name="f_h" unicode="&#xe386;" horiz-adv-x="921" 
d="M13 440v90h72v59q0 77 55 131q55 55 134 55q83 0 224 -44v-271q64 82 153 82q199 0 199 -235v-307h-107v295q0 146 -119 146q-30 0 -61.5 -18.5t-48.5 -40.5l-16 -20v-362h-107v657q-66 17 -117 17q-34 0 -58 -25t-24 -60v-59h137v-90h-137v-440h-107v440h-72z" />
    <glyph glyph-name="f_k" unicode="&#xe388;" horiz-adv-x="860" 
d="M558 372l141 158h132l-219 -247l229 -283h-135l-163 210l-45 -48v-162h-107v657q-66 17 -117 17q-34 0 -58 -25t-24 -60v-59h137v-90h-137v-440h-107v440h-72v90h72v59q0 77 55 131q55 55 134 55q83 0 224 -44v-331q0 -51 -3 -102h6q30 47 57 74z" />
    <glyph glyph-name="f_t" unicode="&#xe389;" horiz-adv-x="655" 
d="M636 101v-100q-30 -8 -55 -8q-91 0 -140.5 54.5t-49.5 144.5v250h-199v-442h-107v442h-72v88h72v59q0 77 55 131q55 55 133 55q28 0 63 -7v-105q-33 11 -63 11q-34 0 -57.5 -25t-23.5 -60v-59h199v106l107 44v-150h138v-88h-138v-250q0 -41 23.5 -69.5t63.5 -28.5
q30 0 51 7z" />
    <glyph glyph-name="t_f" unicode="&#xe38a;" horiz-adv-x="684" 
d="M333 101v-100q-30 -8 -55 -8q-91 0 -140.5 54.5t-49.5 144.5v250h-70v88h70v106l107 44v-150h232v59q0 77 55 131q55 55 133 55q28 0 63 -7v-105q-33 11 -63 11q-34 0 -57.5 -25t-23.5 -60v-59h137v-88h-137v-442h-107v442h-232v-250q0 -41 23.5 -69.5t63.5 -28.5
q30 0 51 7z" />
    <glyph glyph-name="t_t" unicode="&#xe38b;" horiz-adv-x="694" 
d="M675 101v-100q-30 -8 -55 -8q-91 0 -140.5 54.5t-49.5 144.5v250h-235v-250q0 -41 23.5 -69.5t63.5 -28.5q30 0 51 7v-100q-30 -8 -55 -8q-91 0 -140.5 54.5t-49.5 144.5v250h-70v88h70v94l107 44v-138h235v106l107 44v-150h138v-88h-138v-250q0 -41 23.5 -69.5
t63.5 -28.5q30 0 51 7z" />
    <glyph glyph-name="parenleft.uc" unicode="&#xe440;" horiz-adv-x="318" 
d="M186 800h103q-34 -51 -65 -112q-24 -48 -49 -141q-23 -94 -23 -190t23 -190q25 -93 49 -141q31 -61 65 -112h-103l-50 88q-19 38 -41 91q-48 118 -48 264q0 147 48 263q24 57 42 92t49 88z" />
    <glyph glyph-name="parenright.uc" unicode="&#xe441;" horiz-adv-x="318" 
d="M29 800h103l49 -88q14 -26 41 -92q49 -112 49 -263t-49 -264q-28 -67 -41 -91q-24 -46 -49 -88h-103q34 51 65 112q26 50 48 141q24 91 24 190t-24 190q-22 91 -48 141q-31 61 -65 112z" />
    <glyph glyph-name="hyphen.uc" unicode="&#xe442;" horiz-adv-x="323" 
d="M35 305v98h252v-98h-252z" />
    <glyph glyph-name="bracketleft.uc" unicode="&#xe443;" horiz-adv-x="316" 
d="M289 830v-102h-99v-736h99v-102h-207v940h207z" />
    <glyph glyph-name="bracketright.uc" unicode="&#xe444;" horiz-adv-x="316" 
d="M126 -8v736h-99v102h207v-940h-207v102h99z" />
    <glyph glyph-name="braceleft.uc" unicode="&#xe460;" horiz-adv-x="316" 
d="M219 830h65v-98h-65q-20 0 -33.5 -16t-13.5 -42q0 -30 27 -97q28 -66 28 -95q0 -70 -53 -121q53 -50 53 -121q0 -29 -28 -95q-27 -67 -27 -97q0 -25 14 -41t33 -16h65v-99h-65q-65 0 -110 46q-44 47 -44 110q0 32 27 100q27 69 27 92q0 34 -24 53t-63 19v98q39 0 63 19.5
t24 52.5q0 22 -27 91t-27 101q0 64 44 110q43 46 110 46z" />
    <glyph glyph-name="bar.uc" unicode="&#xe461;" horiz-adv-x="261" 
d="M84 840h93v-980h-93v980z" />
    <glyph glyph-name="braceright.uc" unicode="&#xe462;" horiz-adv-x="316" 
d="M32 732v98h65q67 0 110 -46q44 -46 44 -110q0 -32 -27 -101t-27 -91q0 -33 24 -52.5t63 -19.5v-98q-39 0 -63 -19t-24 -53q0 -23 27 -92q27 -67 27 -100q0 -64 -45 -110q-43 -46 -109 -46h-65v99h65q19 0 33 16t14 41q0 31 -28 97q-27 67 -27 95q0 71 53 121
q-53 51 -53 121q0 28 27 95q28 66 28 97q0 26 -13.5 42t-33.5 16h-65z" />
    <glyph glyph-name="slash.uc" unicode="&#xe463;" horiz-adv-x="445" 
d="M17 -66l318 877l95 -35l-319 -876z" />
    <glyph glyph-name="questiondown.uc" unicode="&#xe464;" horiz-adv-x="479" 
d="M216 -6q-85 0 -141 53q-55 54 -55 139q0 34 13 65t33 52.5t42.5 43t42.5 37.5t33 36t13 40v67h106v-81q0 -33 -18 -64t-44 -55l-52 -46.5t-44 -47.5t-18 -49q0 -40 25 -63.5t66 -23.5q63 0 113 44v-122q-54 -25 -115 -25zM182 657q0 28 19.5 47t47.5 19t47.5 -19
t19.5 -47q0 -29 -19.5 -49t-47.5 -20t-47.5 20t-19.5 49z" />
    <glyph glyph-name="exclamdown.uc" unicode="&#xe465;" horiz-adv-x="272" 
d="M189 -6h-107v530h107v-530zM135 576q-27 0 -46.5 20.5t-19.5 48.5t19.5 47t46.5 19q28 0 48 -19t20 -47t-20 -48.5t-48 -20.5z" />
    <glyph glyph-name="backslash.uc" unicode="&#xe466;" horiz-adv-x="445" 
d="M17 776l95 35l318 -877l-94 -34z" />
    <glyph glyph-name="endash.uc" unicode="&#xe470;" horiz-adv-x="516" 
d="M36 305v98h444v-98h-444z" />
    <glyph glyph-name="emdash.uc" unicode="&#xe471;" horiz-adv-x="955" 
d="M36 305v98h883v-98h-883z" />
    <glyph glyph-name="guilsinglleft.uc" unicode="&#xe472;" horiz-adv-x="319" 
d="M167 549h115l-130 -193l130 -193h-115l-131 193z" />
    <glyph glyph-name="guilsinglright.uc" unicode="&#xe473;" horiz-adv-x="318" 
d="M36 163l131 193l-131 193h115l131 -193l-131 -193h-115z" />
    <glyph glyph-name="guillemotleft.uc" unicode="&#xe474;" horiz-adv-x="519" 
d="M167 548h116l-131 -193l131 -193h-116l-131 193zM367 548h116l-130 -193l130 -193h-116l-130 193z" />
    <glyph glyph-name="guillemotright.uc" unicode="&#xe475;" horiz-adv-x="518" 
d="M236 163l131 193l-131 193h115l131 -193l-131 -193h-115zM36 163l130 193l-130 193h114l131 -193l-131 -193h-114z" />
    <glyph glyph-name="uni0200.small" unicode="&#xe540;" horiz-adv-x="565" 
d="M248 534h67l238 -534h-116l-48 113h-214l-48 -113h-116zM262 339l-48 -128h135l-48 128q-14 37 -17 59h-4q-8 -32 -18 -59zM382 604l-139 126l57 58l127 -139zM226 604l-139 126l57 58l127 -139z" />
    <glyph glyph-name="uni0202.small" unicode="&#xe541;" horiz-adv-x="565" 
d="M248 534h67l238 -534h-116l-48 113h-214l-48 -113h-116zM262 339l-48 -128h135l-48 128q-14 37 -17 59h-4q-8 -32 -18 -59zM283 792l177 -136l-38 -52l-139 86l-140 -86l-38 52z" />
    <glyph glyph-name="uni0204.small" unicode="&#xe542;" horiz-adv-x="460" 
d="M396 0h-320v534h320v-99h-214v-105h207v-99h-207v-132h214v-99zM346 604l-139 126l57 58l127 -139zM190 604l-139 126l57 58l127 -139z" />
    <glyph glyph-name="uni0206.small" unicode="&#xe543;" horiz-adv-x="460" 
d="M396 0h-320v534h320v-99h-214v-105h207v-99h-207v-132h214v-99zM231 792l177 -136l-38 -52l-139 86l-140 -86l-38 52z" />
    <glyph glyph-name="uni0208.small" unicode="&#xe544;" horiz-adv-x="262" 
d="M221 604l-139 126l57 58l127 -139zM65 604l-139 126l57 58l127 -139zM76 534h106v-534h-106v534z" />
    <glyph glyph-name="uni020A.small" unicode="&#xe545;" horiz-adv-x="262" 
d="M131 792l177 -136l-38 -52l-139 86l-140 -86l-38 52zM76 534h106v-534h-106v534z" />
    <glyph glyph-name="uni020C.small" unicode="&#xe546;" horiz-adv-x="635" 
d="M123 462q79 81 193 81q112 0 192 -81q80 -80 80 -195t-80 -195t-192 -80q-113 0 -193 80q-79 79 -79 195t79 195zM316 92q72 0 118 51q46 50 46 124t-46 124q-46 52 -118 52q-73 0 -119 -52q-46 -50 -46 -124t46 -124q46 -51 119 -51zM414 604l-139 126l57 58l127 -139z
M258 604l-139 126l57 58l127 -139z" />
    <glyph glyph-name="uni020E.small" unicode="&#xe550;" horiz-adv-x="635" 
d="M123 462q79 81 193 81q112 0 192 -81q80 -80 80 -195t-80 -195t-192 -80q-113 0 -193 80q-79 79 -79 195t79 195zM316 92q72 0 118 51q46 50 46 124t-46 124q-46 52 -118 52q-73 0 -119 -52q-46 -50 -46 -124t46 -124q46 -51 119 -51zM316 792l177 -136l-38 -52l-139 86
l-140 -86l-38 52z" />
    <glyph glyph-name="uni0210.small" unicode="&#xe551;" horiz-adv-x="490" 
d="M316 215l155 -215h-133l-131 196h-25v-196h-106v534h158q89 0 139 -46t50 -120q0 -52 -28.5 -93t-78.5 -60zM233 435h-51v-136h51q38 0 60.5 18.5t22.5 50.5q0 31 -22.5 49t-60.5 18zM324 604l-139 126l57 58l127 -139zM168 604l-139 126l57 58l127 -139z" />
    <glyph glyph-name="uni0212.small" unicode="&#xe552;" horiz-adv-x="490" 
d="M316 215l155 -215h-133l-131 196h-25v-196h-106v534h158q89 0 139 -46t50 -120q0 -52 -28.5 -93t-78.5 -60zM233 435h-51v-136h51q38 0 60.5 18.5t22.5 50.5q0 31 -22.5 49t-60.5 18zM231 792l177 -136l-38 -52l-139 86l-140 -86l-38 52z" />
    <glyph glyph-name="uni0214.small" unicode="&#xe553;" horiz-adv-x="545" 
d="M467 534v-338q0 -94 -58 -149q-56 -55 -139 -55t-139 55q-57 55 -57 149v338h106v-333q0 -51 25 -79.5t65 -28.5q39 0 64.5 29t25.5 79v333h107zM379 604l-139 126l57 58l127 -139zM223 604l-139 126l57 58l127 -139z" />
    <glyph glyph-name="uni0216.small" unicode="&#xe554;" horiz-adv-x="545" 
d="M467 534v-338q0 -94 -58 -149q-56 -55 -139 -55t-139 55q-57 55 -57 149v338h106v-333q0 -51 25 -79.5t65 -28.5q39 0 64.5 29t25.5 79v333h107zM269 792l177 -136l-38 -52l-139 86l-140 -86l-38 52z" />
    <glyph glyph-name="uni021A.small" unicode="&#xe555;" horiz-adv-x="386" 
d="M368 434h-123v-434h-106v434h-124v100h353v-100zM170 -266l-56 10q39 113 53 206l96 8q-38 -128 -93 -224z" />
    <glyph glyph-name="quotedbl.small" unicode="&#xe640;" horiz-adv-x="390" 
d="M70 333l-20 290h114l-20 -290h-74zM242 333l-20 290h115l-20 -290h-75z" />
    <glyph glyph-name="quotesingle.small" unicode="&#xe641;" horiz-adv-x="218" 
d="M70 333l-20 290h114l-20 -290h-74z" />
    <glyph glyph-name="quoteleft.small" unicode="&#xe642;" horiz-adv-x="253" 
d="M156 686l67 -12q-52 -149 -71 -281l-122 -12q54 183 126 305z" />
    <glyph glyph-name="quoteright.small" unicode="&#xe643;" horiz-adv-x="253" 
d="M97 381l-67 12q52 149 71 281l122 12q-54 -183 -126 -305z" />
    <glyph glyph-name="quotedblleft.small" unicode="&#xe644;" horiz-adv-x="448" 
d="M156 686l67 -12q-52 -149 -71 -281l-122 -12q54 183 126 305zM351 686l67 -12q-52 -149 -71 -281l-122 -12q54 183 126 305z" />
    <glyph glyph-name="quotedblright.small" unicode="&#xe645;" horiz-adv-x="448" 
d="M97 381l-67 12q52 149 71 281l122 12q-54 -183 -126 -305zM292 381l-67 12q52 149 71 281l122 12q-54 -183 -126 -305z" />
    <glyph glyph-name="M.alt1" unicode="&#xe646;" horiz-adv-x="825" 
d="M154 712l259 -260l260 260h75v-712h-109v406q0 87 4 124h-7q-38 -49 -68 -79l-155 -154l-154 154q-39 39 -69 79h-6q4 -75 4 -124v-406h-110v712h76z" />
    <glyph glyph-name="m.smallalt1" unicode="&#xe647;" horiz-adv-x="682" 
d="M161 534l178 -178l178 178h86v-534h-106v266q0 71 4 104h-7q-45 -55 -59 -69l-96 -96l-95 96q-24 24 -60 69h-6q4 -68 4 -104v-266h-106v534h85z" />
    <glyph glyph-name="ampersand.alt1" unicode="&#xe648;" horiz-adv-x="693" 
d="M440 335h-120q-67 0 -110 -33t-43 -86q0 -54 38.5 -87t98.5 -33q59 0 97.5 34t38.5 86v119zM440 424v71l107 44v-115h125v-89h-125v-158q0 -35 20 -59.5t53 -24.5q25 0 52 8v-99q-32 -8 -55 -8q-44 0 -80.5 20t-57.5 52q-28 -35 -75 -56t-100 -21q-113 0 -181 65t-68 165
q0 50 25 93t71 69q-74 48 -74 135q0 90 62 149q64 59 157 59q79 0 143 -37v-120q-68 50 -143 50q-45 0 -76 -28t-31 -70q0 -41 36.5 -68t94.5 -27h120z" />
    <glyph glyph-name="ampersand.smallalt1" unicode="&#xe649;" horiz-adv-x="586" 
d="M333 168v64h-68q-49 0 -76 -20.5t-27 -54.5q0 -32 23.5 -50.5t60.5 -18.5q35 0 61 23.5t26 56.5zM565 322v-90h-125v-58q0 -35 20 -59.5t54 -24.5q25 0 51 8v-99q-30 -8 -55 -8q-76 0 -129 63q-54 -65 -135 -65q-85 0 -138 46q-53 47 -53 121q0 38 18 73.5t49 52.5
q-52 31 -52 102q0 69 49 112q50 44 122 44q48 0 92 -23v-107q-40 31 -88 31q-30 0 -49 -16.5t-19 -43.5q0 -59 88 -59h68v46l107 43v-89h125z" />
    <glyph glyph-name="alpha.small" unicode="&#xe800;" horiz-adv-x="565" 
d="M248 534h67l238 -534h-116l-48 113h-214l-48 -113h-116zM262 339l-48 -128h135l-48 128q-14 37 -17 59h-4q-8 -32 -18 -59z" />
    <glyph glyph-name="beta.small" unicode="&#xe801;" horiz-adv-x="482" 
d="M240 435h-58v-115h60q67 0 67 58q0 26 -19.5 41.5t-49.5 15.5zM247 221h-65v-122h69q34 0 54.5 16.5t20.5 46.5q0 59 -79 59zM415 378q0 -63 -46 -100q29 -19 47 -52t18 -66q0 -75 -52 -118q-52 -42 -128 -42h-178v534h160q88 0 133 -46q46 -45 46 -110z" />
    <glyph glyph-name="chi.small" unicode="&#xe802;" horiz-adv-x="505" 
d="M189 278l-163 256h126l68 -108l28 -56h6q18 39 29 55l68 109h126l-163 -256l178 -278h-125l-84 133q-18 30 -29 54h-5q-15 -30 -30 -55l-83 -132h-125z" />
    <glyph glyph-name="delta.small" unicode="&#xe803;" horiz-adv-x="510" 
d="M257 371h-6l-20 -65l-5 -16l-71 -190h199q-81 212 -97 271zM482 0h-454v62l192 469h71l191 -468v-63z" />
    <glyph glyph-name="epsilon.small" unicode="&#xe804;" horiz-adv-x="460" 
d="M396 0h-320v534h320v-99h-214v-105h207v-99h-207v-132h214v-99z" />
    <glyph glyph-name="eta.small" unicode="&#xe805;" horiz-adv-x="555" 
d="M182 331h187v203h107v-534h-107v230h-187v-230h-106v534h106v-203z" />
    <glyph glyph-name="gamma.small" unicode="&#xe806;" horiz-adv-x="371" 
d="M353 433h-171v-433h-106v534h277v-101z" />
    <glyph glyph-name="iota.small" unicode="&#xe807;" horiz-adv-x="262" 
d="M76 534h106v-534h-106v534z" />
    <glyph glyph-name="kappa.small" unicode="&#xe808;" horiz-adv-x="510" 
d="M76 0v534h106v-148q0 -19 -3 -55h4q12 21 26 36l149 167h139l-229 -253l226 -281h-135l-158 205l-19 -22v-183h-106z" />
    <glyph glyph-name="lambda.small" unicode="&#xe809;" horiz-adv-x="531" 
d="M229 264l-103 -264h-115l218 534h71l218 -534h-115l-104 264q-6 15 -32 104h-5q-20 -70 -33 -104z" />
    <glyph glyph-name="mu.small" unicode="&#xe80a;" horiz-adv-x="682" 
d="M161 534l178 -178l178 178h86v-534h-106v266q0 71 4 104h-7q-45 -55 -59 -69l-96 -96l-95 96q-24 24 -60 69h-6q4 -68 4 -104v-266h-106v534h85z" />
    <glyph glyph-name="nu.small" unicode="&#xe80b;" horiz-adv-x="583" 
d="M76 0v534h87l207 -285q4 -6 14 -23.5t12 -19.5h4q-4 49 -4 63v265h107v-534h-77l-214 293l-30 51h-4q4 -23 4 -63v-281h-106z" />
    <glyph glyph-name="omega.small" unicode="&#xe80c;" horiz-adv-x="619" 
d="M473 100v-5q33 5 42 5h53v-100h-219v108q51 22 83.5 69t32.5 100q0 72 -43 118q-44 47 -114 47t-114 -47q-43 -46 -43 -118q0 -53 33 -100t84 -69v-108h-219v100h53q4 0 41 -5v6q-48 25 -73 75q-26 54 -26 105q0 114 74 188q76 74 190 74q115 0 189 -74q75 -73 75 -188
q0 -55 -26 -105.5t-73 -75.5z" />
    <glyph glyph-name="omicron.small" unicode="&#xe80d;" horiz-adv-x="635" 
d="M123 462q79 81 193 81q112 0 192 -81q80 -80 80 -195t-80 -195t-192 -80q-113 0 -193 80q-79 79 -79 195t79 195zM316 92q72 0 118 51q46 50 46 124t-46 124q-46 52 -118 52q-73 0 -119 -52q-46 -50 -46 -124t46 -124q46 -51 119 -51z" />
    <glyph glyph-name="phi.small" unicode="&#xe80e;" horiz-adv-x="635" 
d="M264 555h105v-58q21 -2 46.5 -9t57 -24.5t56.5 -41.5t42 -65t17 -90q0 -59 -24.5 -107t-63.5 -74q-74 -48 -131 -50v-58h-105v58q-21 1 -46.5 8.5t-57 25t-56.5 42t-42.5 65.5t-17.5 90q0 62 25 109t63 71.5t71.5 36.5t60.5 13v58zM264 136v262q-41 -3 -77 -36t-36 -95
t35 -95q36 -32 78 -36zM369 398v-262q43 5 77 36q36 33 36 95q0 63 -36 94q-34 32 -77 37z" />
    <glyph glyph-name="pi.small" unicode="&#xe80f;" horiz-adv-x="556" 
d="M76 0v534h400v-534h-107v433h-187v-433h-106z" />
    <glyph glyph-name="psi.small" unicode="&#xe810;" horiz-adv-x="625" 
d="M456 358v176h105v-183q0 -94 -53.5 -148t-144.5 -56v-147h-103v147q-90 1 -143 55t-53 149v183h105v-176q0 -54 24 -82.5t67 -28.5v287h103v-287q43 2 68 31t25 80z" />
    <glyph glyph-name="rho.small" unicode="&#xe811;" horiz-adv-x="467" 
d="M232 435h-51v-159h51q43 0 69 22t26 58t-26.5 57.5t-68.5 21.5zM75 0v534h158q95 0 148 -51q54 -49 54 -127q0 -89 -60 -134q-59 -45 -149 -45h-45v-177h-106z" />
    <glyph glyph-name="sigma.small" unicode="&#xe812;" horiz-adv-x="470" 
d="M56 534h358v-101h-208l124 -166l-124 -167h208v-100h-358v78l142 189l-142 188v79z" />
    <glyph glyph-name="tau.small" unicode="&#xe813;" horiz-adv-x="386" 
d="M368 434h-123v-434h-106v434h-124v100h353v-100z" />
    <glyph glyph-name="theta.small" unicode="&#xe814;" horiz-adv-x="635" 
d="M233 227v81h165v-81h-165zM123 462q79 81 193 81q112 0 192 -81q80 -80 80 -195t-80 -195t-192 -80q-113 0 -193 80q-79 79 -79 195t79 195zM316 92q72 0 118 51q46 50 46 124t-46 124q-46 52 -118 52q-73 0 -119 -52q-46 -50 -46 -124t46 -124q46 -51 119 -51z" />
    <glyph glyph-name="upsilon.small" unicode="&#xe815;" horiz-adv-x="489" 
d="M273 392l84 142h120l-180 -315v-219h-106v219l-180 315h120l83 -142q16 -30 26 -58h6q17 42 27 58z" />
    <glyph glyph-name="xi.small" unicode="&#xe816;" horiz-adv-x="447" 
d="M383 434h-319v100h319v-100zM377 225h-306v98h306v-98zM383 0h-319v100h319v-100z" />
    <glyph glyph-name="zeta.small" unicode="&#xe817;" horiz-adv-x="449" 
d="M41 435v99h386v-67l-226 -322l-35 -44v-5q39 3 64 3h198v-99h-408v66l229 326q19 28 31 40v6q-45 -3 -71 -3h-168z" />
    <glyph glyph-name="alphatonos.small" unicode="&#xe818;" horiz-adv-x="565" 
d="M248 534h67l238 -534h-116l-48 113h-214l-48 -113h-116zM262 339l-48 -128h135l-48 128q-14 37 -17 59h-4q-8 -32 -18 -59zM205 625l78 184l76 -35l-94 -179z" />
    <glyph glyph-name="epsilontonos.small" unicode="&#xe819;" horiz-adv-x="460" 
d="M396 0h-320v534h320v-99h-214v-105h207v-99h-207v-132h214v-99zM160 625l78 184l76 -35l-94 -179z" />
    <glyph glyph-name="etatonos.small" unicode="&#xe81a;" horiz-adv-x="555" 
d="M182 331h187v203h107v-534h-107v230h-187v-230h-106v534h106v-203zM198 625l78 184l76 -35l-94 -179z" />
    <glyph glyph-name="iotatonos.small" unicode="&#xe81b;" horiz-adv-x="262" 
d="M76 534h106v-534h-106v534zM57 625l78 184l76 -35l-94 -179z" />
    <glyph glyph-name="omicrontonos.small" unicode="&#xe81c;" horiz-adv-x="635" 
d="M123 462q79 81 193 81q112 0 192 -81q80 -80 80 -195t-80 -195t-192 -80q-113 0 -193 80q-79 79 -79 195t79 195zM316 92q72 0 118 51q46 50 46 124t-46 124q-46 52 -118 52q-73 0 -119 -52q-46 -50 -46 -124t46 -124q46 -51 119 -51zM238 625l78 184l76 -35l-94 -179z
" />
    <glyph glyph-name="upsilontonos.small" unicode="&#xe81d;" horiz-adv-x="489" 
d="M273 392l84 142h120l-180 -315v-219h-106v219l-180 315h120l83 -142q16 -30 26 -58h6q17 42 27 58zM167 625l78 184l76 -35l-94 -179z" />
    <glyph glyph-name="omegatonos.small" unicode="&#xe81e;" horiz-adv-x="619" 
d="M473 100v-5q33 5 42 5h53v-100h-219v108q51 22 83.5 69t32.5 100q0 72 -43 118q-44 47 -114 47t-114 -47q-43 -46 -43 -118q0 -53 33 -100t84 -69v-108h-219v100h53q4 0 41 -5v6q-48 25 -73 75q-26 54 -26 105q0 114 74 188q76 74 190 74q115 0 189 -74q75 -73 75 -188
q0 -55 -26 -105.5t-73 -75.5zM234 625l78 184l76 -35l-94 -179z" />
    <glyph glyph-name="iotadieresis.small" unicode="&#xe81f;" horiz-adv-x="262" 
d="M76 534h106v-534h-106v534zM85 737q18 -17 18 -41t-18 -41q-17 -17 -41 -17t-41 17t-17 41t17 41q17 18 41 18t41 -18zM174 737q17 18 41 18t41 -18q18 -17 18 -41t-18 -41q-17 -17 -41 -17t-41 17t-17 41t17 41z" />
    <glyph glyph-name="upsilondieresis.small" unicode="&#xe820;" horiz-adv-x="489" 
d="M273 392l84 142h120l-180 -315v-219h-106v219l-180 315h120l83 -142q16 -30 26 -58h6q17 42 27 58zM198 737q18 -17 18 -41t-18 -41q-17 -17 -41 -17t-41 17t-17 41t17 41q17 18 41 18t41 -18zM287 737q17 18 41 18t41 -18q18 -17 18 -41t-18 -41q-17 -17 -41 -17t-41 17
t-17 41t17 41z" />
    <glyph glyph-name="afii10065.small" unicode="&#xe900;" horiz-adv-x="565" 
d="M248 534h67l238 -534h-116l-48 113h-214l-48 -113h-116zM262 339l-48 -128h135l-48 128q-14 37 -17 59h-4q-8 -32 -18 -59z" />
    <glyph glyph-name="afii10066.small" unicode="&#xe901;" horiz-adv-x="443" 
d="M382 534v-100h-223v-104h79q76 0 128 -45q52 -43 52 -120q0 -76 -52 -121q-52 -44 -128 -44h-186v534h330zM159 96h75q35 0 56 18.5t21 50.5t-21.5 50.5t-55.5 18.5h-75v-138z" />
    <glyph glyph-name="afii10067.small" unicode="&#xe902;" horiz-adv-x="482" 
d="M240 435h-58v-115h60q67 0 67 58q0 26 -19.5 41.5t-49.5 15.5zM247 221h-65v-122h69q34 0 54.5 16.5t20.5 46.5q0 59 -79 59zM415 378q0 -63 -46 -100q29 -19 47 -52t18 -66q0 -75 -52 -118q-52 -42 -128 -42h-178v534h160q88 0 133 -46q46 -45 46 -110z" />
    <glyph glyph-name="afii10068.small" unicode="&#xe903;" horiz-adv-x="371" 
d="M353 433h-171v-433h-106v534h277v-101z" />
    <glyph glyph-name="afii10069.small" unicode="&#xe904;" horiz-adv-x="555" 
d="M112 -131h-91v232h30q25 0 46 69t21 135v229h361v-433h52v-232h-90v131h-329v-131zM179 100h194v333h-149v-130q0 -123 -45 -203z" />
    <glyph glyph-name="afii10070.small" unicode="&#xe905;" horiz-adv-x="460" 
d="M396 0h-320v534h320v-99h-214v-105h207v-99h-207v-132h214v-99z" />
    <glyph glyph-name="afii10072.small" unicode="&#xe906;" horiz-adv-x="758" 
d="M734 534l-186 -235q87 -31 121 -101q17 -32 29 -67q9 -26 22 -79l12 -52h-107l-11 43l-14 51q-4 13 -19 44q-20 39 -53.5 56.5t-97.5 21.5v-216h-105v216q-97 0 -138 -56q-31 -46 -46 -117l-9 -43h-110l16 60l16 62q11 33 20 54q20 46 50 74t84 49l-186 235h128l110 -143
l52 -74h13v217h105v-217h14l21 33q18 27 31 41l109 143h129z" />
    <glyph glyph-name="afii10073.small" unicode="&#xe907;" horiz-adv-x="407" 
d="M145 241h-35v83h35q96 0 96 59q0 27 -19 43.5t-49 16.5q-73 0 -126 -38v112q64 26 130 26q72 0 122 -44q49 -43 49 -112q0 -71 -52 -102q32 -17 50 -50.5t18 -69.5q0 -74 -53 -124q-52 -49 -134 -49q-71 0 -136 25v107q55 -33 131 -33q36 0 60 20.5t24 53.5q0 34 -30 55
t-81 21z" />
    <glyph glyph-name="afii10074.small" unicode="&#xe908;" horiz-adv-x="583" 
d="M209 249l207 285h87v-534h-106v281q0 40 4 63h-4l-30 -51l-214 -293h-77v534h107v-265q0 -14 -4 -63h4q2 2 12 19.5t14 23.5z" />
    <glyph glyph-name="afii10075.small" unicode="&#xe909;" horiz-adv-x="583" 
d="M209 249l207 285h87v-534h-106v281q0 40 4 63h-4l-30 -51l-214 -293h-77v534h107v-265q0 -14 -4 -63h4q2 2 12 19.5t14 23.5zM395 767l64 -28q-24 -60 -70 -89.5t-103 -29.5t-103.5 30t-69.5 89l65 28q12 -32 32 -50q29 -25 76 -25q39 0 65 16t44 59z" />
    <glyph glyph-name="afii10076.small" unicode="&#xe90a;" horiz-adv-x="509" 
d="M485 534l-188 -235q87 -31 123 -101q17 -32 29 -67q9 -26 22 -79l12 -52h-108l-6 25l-7 26l-6 25q-4 15 -19 48q-3 7 -6.5 13t-6 9l-8 9.5t-8.5 9.5q-21 28 -71 41q-21 10 -55 10v-216h-106v534h106v-216h14l159 216h130z" />
    <glyph glyph-name="afii10077.small" unicode="&#xe90b;" horiz-adv-x="548" 
d="M103 177v357h365v-534h-106v433h-153v-258q0 -83 -49.5 -131t-129.5 -48v103q33 0 53 20.5t20 57.5z" />
    <glyph glyph-name="afii10078.small" unicode="&#xe90c;" horiz-adv-x="682" 
d="M161 534l178 -178l178 178h86v-534h-106v266q0 71 4 104h-7q-45 -55 -59 -69l-96 -96l-95 96q-24 24 -60 69h-6q4 -68 4 -104v-266h-106v534h85z" />
    <glyph glyph-name="afii10079.small" unicode="&#xe90d;" horiz-adv-x="555" 
d="M182 331h187v203h107v-534h-107v230h-187v-230h-106v534h106v-203z" />
    <glyph glyph-name="afii10080.small" unicode="&#xe90e;" horiz-adv-x="635" 
d="M123 462q79 81 193 81q112 0 192 -81q80 -80 80 -195t-80 -195t-192 -80q-113 0 -193 80q-79 79 -79 195t79 195zM316 92q72 0 118 51q46 50 46 124t-46 124q-46 52 -118 52q-73 0 -119 -52q-46 -50 -46 -124t46 -124q46 -51 119 -51z" />
    <glyph glyph-name="afii10081.small" unicode="&#xe90f;" horiz-adv-x="556" 
d="M76 0v534h400v-534h-107v433h-187v-433h-106z" />
    <glyph glyph-name="afii10082.small" unicode="&#xe910;" horiz-adv-x="467" 
d="M232 435h-51v-159h51q43 0 69 22t26 58t-26.5 57.5t-68.5 21.5zM75 0v534h158q95 0 148 -51q54 -49 54 -127q0 -89 -60 -134q-59 -45 -149 -45h-45v-177h-106z" />
    <glyph glyph-name="afii10083.small" unicode="&#xe911;" horiz-adv-x="502" 
d="M450 146v-118q-70 -36 -134 -36q-113 0 -193 80q-79 79 -79 195t79 195q79 81 193 81q66 0 134 -37v-121q-67 58 -134 58q-73 0 -119 -52q-46 -50 -46 -124q0 -73 46 -125q46 -51 119 -51q64 0 134 55z" />
    <glyph glyph-name="afii10084.small" unicode="&#xe912;" horiz-adv-x="386" 
d="M368 434h-123v-434h-106v434h-124v100h353v-100z" />
    <glyph glyph-name="afii10085.small" unicode="&#xe913;" horiz-adv-x="481" 
d="M476 534l-302 -534h-115l129 224q-1 1 -91 159l-86 151h119l83 -142q7 -14 27 -63h6q12 39 28 63l84 142h118z" />
    <glyph glyph-name="afii10086.small" unicode="&#xe914;" horiz-adv-x="635" 
d="M264 555h105v-58q21 -2 46.5 -9t57 -24.5t56.5 -41.5t42 -65t17 -90q0 -59 -24.5 -107t-63.5 -74q-74 -48 -131 -50v-58h-105v58q-21 1 -46.5 8.5t-57 25t-56.5 42t-42.5 65.5t-17.5 90q0 62 25 109t63 71.5t71.5 36.5t60.5 13v58zM264 136v262q-41 -3 -77 -36t-36 -95
t35 -95q36 -32 78 -36zM369 398v-262q43 5 77 36q36 33 36 95q0 63 -36 94q-34 32 -77 37z" />
    <glyph glyph-name="afii10087.small" unicode="&#xe915;" horiz-adv-x="505" 
d="M189 278l-163 256h126l68 -108l28 -56h6q18 39 29 55l68 109h126l-163 -256l178 -278h-125l-84 133q-18 30 -29 54h-5q-15 -30 -30 -55l-83 -132h-125z" />
    <glyph glyph-name="afii10088.small" unicode="&#xe916;" horiz-adv-x="522" 
d="M498 -131h-91v131h-354v534h106v-433h187v433h107v-433h45v-232z" />
    <glyph glyph-name="afii10089.small" unicode="&#xe917;" horiz-adv-x="496" 
d="M416 0h-104v190q-74 -13 -120 -13q-74 0 -112 44t-38 124v189h106v-152q0 -108 60 -108q51 0 104 13v247h104v-534z" />
    <glyph glyph-name="afii10090.small" unicode="&#xe918;" horiz-adv-x="782" 
d="M702 0h-626v534h107v-435h154v435h105v-435h154v435h106v-534z" />
    <glyph glyph-name="afii10091.small" unicode="&#xe919;" horiz-adv-x="771" 
d="M657 0h-581v534h107v-435h154v435h105v-435h154v435h106v-435h45v-230h-90v131z" />
    <glyph glyph-name="afii10092.small" unicode="&#xe91a;" horiz-adv-x="528" 
d="M238 330h80q76 0 128 -45q52 -43 52 -120q0 -76 -52 -121q-52 -44 -128 -44h-186v433h-117v101h223v-204zM238 96h77q34 0 55 18.5t21 50.5t-21 50.5t-55 18.5h-77v-138z" />
    <glyph glyph-name="afii10093.small" unicode="&#xe91b;" horiz-adv-x="718" 
d="M183 330h79q76 0 128 -45q52 -43 52 -120q0 -76 -52 -121q-52 -44 -128 -44h-186v534h107v-204zM183 96h75q35 0 56 18.5t21 50.5t-21.5 50.5t-55.5 18.5h-75v-138zM532 534h106v-534h-106v534z" />
    <glyph glyph-name="afii10094.small" unicode="&#xe91c;" horiz-adv-x="472" 
d="M183 330h79q76 0 128 -45q52 -43 52 -120q0 -76 -52 -121q-52 -44 -128 -44h-186v534h107v-204zM183 96h75q35 0 56 18.5t21 50.5t-21.5 50.5t-55.5 18.5h-75v-138z" />
    <glyph glyph-name="afii10095.small" unicode="&#xe91d;" horiz-adv-x="497" 
d="M178 443q-65 0 -134 -29v111q75 18 134 18q112 0 192 -81q80 -80 80 -195t-80 -195t-192 -80q-62 0 -134 18v108q75 -27 134 -27q58 0 101.5 36.5t56.5 93.5h-226v93h225q-12 57 -55 93t-102 36z" />
    <glyph glyph-name="afii10096.small" unicode="&#xe91e;" horiz-adv-x="853" 
d="M534 543q112 0 192 -81q80 -80 80 -195t-80 -195t-192 -80q-101 0 -178 65q-75 66 -91 166h-83v-223h-106v534h106v-219h85q16 97 91 163q76 65 176 65zM415 142q47 -51 119 -51t118 51q46 52 46 125q0 74 -46 124q-46 52 -118 52q-73 0 -119 -52q-46 -50 -46 -124
q0 -73 46 -125z" />
    <glyph glyph-name="afii10097.small" unicode="&#xe91f;" horiz-adv-x="456" 
d="M239 534h162v-534h-106v200h-24l-138 -200h-128l154 214q-51 19 -80 60t-29 94q0 74 50 120t139 46zM238 296h57v142h-56q-38 0 -60.5 -19t-22.5 -51q0 -33 22 -52.5t60 -19.5z" />
    <glyph glyph-name="uni0450.small" unicode="&#xe920;" horiz-adv-x="460" 
d="M396 0h-320v534h320v-99h-214v-105h207v-99h-207v-132h214v-99zM168 798l198 -148l-38 -56l-207 134z" />
    <glyph glyph-name="afii10071.small" unicode="&#xe921;" horiz-adv-x="460" 
d="M396 0h-320v534h320v-99h-214v-105h207v-99h-207v-132h214v-99zM192 737q18 -17 18 -41t-18 -41q-17 -17 -41 -17t-41 17t-17 41t17 41q17 18 41 18t41 -18zM281 737q17 18 41 18t41 -18q18 -17 18 -41t-18 -41q-17 -17 -41 -17t-41 17t-17 41t17 41z" />
    <glyph glyph-name="afii10099.small" unicode="&#xe922;" horiz-adv-x="552" 
d="M513 189q0 -79 -54 -136q-54 -56 -142 -57v96q41 1 65 27t24 69q0 72 -59 72q-50 0 -102 -13v-247h-106v433h-124v101h353v-101h-123v-91q57 12 118 12q74 0 112 -43t38 -122z" />
    <glyph glyph-name="afii10100.small" unicode="&#xe923;" horiz-adv-x="371" 
d="M353 433h-171v-433h-106v534h277v-101zM332 728l-207 -134l-38 56l198 148z" />
    <glyph glyph-name="afii10101.small" unicode="&#xe924;" horiz-adv-x="497" 
d="M316 443q-59 0 -102 -36t-55 -93h225v-93h-226q14 -57 56 -93q78 -67 236 -10v-108q-72 -18 -134 -18q-113 0 -193 80q-79 79 -79 195t79 195q79 81 193 81q59 0 134 -18v-111q-69 29 -134 29z" />
    <glyph glyph-name="afii10102.small" unicode="&#xe925;" horiz-adv-x="440" 
d="M219 443q-22 0 -38.5 -14.5t-16.5 -35.5q0 -29 79 -67q30 -14 50 -25.5t44.5 -31.5t37 -46.5t12.5 -59.5q0 -73 -51 -123q-51 -48 -129 -48q-83 0 -146 54v127q26 -33 68 -57q43 -25 81 -25q28 0 48.5 17.5t20.5 44.5q0 39 -79 75q-29 13 -50 24.5t-45 31t-37 46
t-12 58.5q0 68 47 112q47 43 120 43q76 0 139 -48v-120q-65 68 -143 68z" />
    <glyph glyph-name="afii10103.small" unicode="&#xe926;" horiz-adv-x="262" 
d="M76 534h106v-534h-106v534z" />
    <glyph glyph-name="afii10104.small" unicode="&#xe927;" horiz-adv-x="262" 
d="M76 534h106v-534h-106v534zM85 737q18 -17 18 -41t-18 -41q-17 -17 -41 -17t-41 17t-17 41t17 41q17 18 41 18t41 -18zM174 737q17 18 41 18t41 -18q18 -17 18 -41t-18 -41q-17 -17 -41 -17t-41 17t-17 41t17 41z" />
    <glyph glyph-name="afii10105.small" unicode="&#xe928;" horiz-adv-x="366" 
d="M179 171v363h106v-364q0 -82 -47.5 -130t-123.5 -48q-33 0 -71 16v116q43 -29 73 -29q28 0 45.5 20t17.5 56z" />
    <glyph glyph-name="afii10106.small" unicode="&#xe929;" horiz-adv-x="758" 
d="M468 330h80q76 0 128 -45q52 -43 52 -120q0 -76 -52 -121q-52 -44 -128 -44h-187v433h-152v-258q0 -84 -52 -132q-52 -47 -127 -47v103q33 0 53 20.5t20 57.5v357h365v-204zM468 96h76q35 0 56 18.5t21 50.5t-21.5 50.5t-55.5 18.5h-76v-138z" />
    <glyph glyph-name="afii10107.small" unicode="&#xe92a;" horiz-adv-x="765" 
d="M475 330h80q75 0 128 -45q52 -43 52 -120q0 -76 -52 -121q-52 -44 -128 -44h-186v230h-186v-230h-107v534h107v-204h186v204h106v-204zM475 96h77q34 0 55 18.5t21 50.5t-21 50.5t-55 18.5h-77v-138z" />
    <glyph glyph-name="afii10108.small" unicode="&#xe92b;" horiz-adv-x="559" 
d="M364 354q73 0 110.5 -43t37.5 -122v-189h-105v182q0 78 -61 78q-49 0 -101 -13v-247h-106v433h-124v101h353v-101h-123v-91q57 12 119 12z" />
    <glyph glyph-name="afii10109.small" unicode="&#xe92c;" horiz-adv-x="509" 
d="M485 534l-188 -235q87 -31 123 -101q17 -32 29 -67q9 -26 22 -79l12 -52h-108l-6 25l-7 26l-6 25q-4 15 -19 48q-3 7 -6.5 13t-6 9l-8 9.5t-8.5 9.5q-21 28 -71 41q-21 10 -55 10v-216h-106v534h106v-216h14l159 216h130zM379 728l-207 -134l-38 56l198 148z" />
    <glyph glyph-name="uni045D.small" unicode="&#xe92d;" horiz-adv-x="583" 
d="M209 249l207 285h87v-534h-106v281q0 40 4 63h-4l-30 -51l-214 -293h-77v534h107v-265q0 -14 -4 -63h4q2 2 12 19.5t14 23.5zM209 798l198 -148l-38 -56l-207 134z" />
    <glyph glyph-name="afii10110.small" unicode="&#xe92e;" horiz-adv-x="481" 
d="M476 534l-302 -534h-115l129 224q-1 1 -91 159l-86 151h119l83 -142q7 -14 27 -63h6q12 39 28 63l84 142h118zM349 767l64 -28q-24 -60 -70 -89.5t-103 -29.5t-103.5 30t-69.5 89l65 28q12 -32 32 -50q29 -25 76 -25q39 0 65 16t44 59z" />
    <glyph glyph-name="afii10193.small" unicode="&#xe92f;" horiz-adv-x="556" 
d="M320 -131h-89v131h-155v534h106v-433h187v433h107v-534h-156v-131z" />
    <glyph glyph-name="afii10098.small" unicode="&#xe930;" horiz-adv-x="374" 
d="M354 433h-171v-433h-107v534h187v130h91v-231z" />
    <glyph glyph-name="braceleft.small" unicode="&#xf60c;" horiz-adv-x="260" 
d="M176 620h56v-93h-56q-11 0 -19.5 -10t-8.5 -25q0 -19 24 -58t24 -68q0 -55 -47 -93q47 -33 47 -92q0 -29 -24 -68t-24 -58q0 -15 8.5 -25t19.5 -10h56v-94h-56q-53 0 -92 36q-39 35 -39 89q0 27 24 67t24 63q0 21 -17 33.5t-42 12.5v93q25 0 42 12.5t17 33.5q0 22 -24 62
t-24 67q0 55 39 90q40 35 92 35z" />
    <glyph glyph-name="braceright.small" unicode="&#xf60d;" horiz-adv-x="260" 
d="M24 527v93h56q52 0 92 -35q39 -35 39 -90q0 -27 -24 -67t-24 -62q0 -21 17 -33.5t42 -12.5v-93q-25 0 -42 -12.5t-17 -33.5q0 -23 24 -63t24 -67q0 -54 -39 -89q-39 -36 -92 -36h-56v94h56q11 0 19.5 10t8.5 25q0 19 -24 58t-24 68q0 59 47 92q-47 38 -47 93q0 29 24 68
t24 58q0 15 -8.5 25t-19.5 10h-56z" />
    <glyph glyph-name="bracketleft.small" unicode="&#xf60e;" horiz-adv-x="284" 
d="M257 620v-96h-71v-505h71v-96h-175v697h175z" />
    <glyph glyph-name="bracketright.small" unicode="&#xf60f;" horiz-adv-x="286" 
d="M96 19v505h-71v96h176v-697h-176v96h71z" />
    <glyph glyph-name="parenleft.small" unicode="&#xf618;" horiz-adv-x="300" 
d="M155 599h99q-27 -43 -48 -83q-18 -36 -37 -105q-17 -70 -17 -143t17 -143q19 -72 37 -106q18 -35 48 -82h-99q-57 103 -75 158q-27 83 -27 173q0 114 36 198q19 46 30 66z" />
    <glyph glyph-name="parenright.small" unicode="&#xf619;" horiz-adv-x="301" 
d="M44 599h99l36 -67q11 -20 30 -66q36 -84 36 -198q0 -66 -17 -132q-16 -64 -33 -99q-24 -50 -44 -86l-8 -14h-99q30 47 48 82q19 37 36 106q18 67 18 143t-18 143q-16 67 -36 105q-21 40 -48 83z" />
    <glyph glyph-name="uniF639" unicode="&#xf639;" horiz-adv-x="598" 
d="M300 724q243 0 243 -333v-68q0 -334 -243 -334q-245 0 -245 334v68q0 333 245 333zM300 95q66 0 98.5 55t32.5 180v53q0 125 -32.5 180t-98.5 55q-67 0 -100 -55t-33 -180v-53q0 -125 33 -180t100 -55z" />
    </font>
</defs>
</svg>
