<?xml version="1.0" encoding="UTF-8"?>
<svg width="24px" height="24px" viewBox="0 0 24 24" version="1.1" xmlns="http://www.w3.org/2000/svg" xmlns:xlink="http://www.w3.org/1999/xlink">
    <!-- Generator: Sketch 41.2 (35397) - http://www.bohemiancoding.com/sketch -->
    <title>icon_close</title>
    <desc>Created with Sketch.</desc>
    <defs></defs>
    <g id="Page-1" stroke="none" stroke-width="1" fill="none" fill-rule="evenodd">
        <g id="1280" transform="translate(-856.000000, -744.000000)" fill="#A2ADB7">
            <g id="Group-10" transform="translate(0.000000, 394.000000)">
                <g id="Group-9" transform="translate(384.000000, 330.000000)">
                    <g id="icon_close" transform="translate(472.000000, 20.000000)">
                        <path d="M12,11.5857864 L7.75797567,7.34376211 C7.36465403,6.95044047 6.73367004,6.95262146 6.34314575,7.34314575 C5.9498988,7.73639271 5.95289741,8.36711097 6.34376211,8.75797567 L10.5857864,13 L6.34376211,17.2420243 C5.95044047,17.635346 5.95262146,18.26633 6.34314575,18.6568542 C6.73639271,19.0501012 7.36711097,19.0471026 7.75797567,18.6562379 L12,14.4142136 L16.2420243,18.6562379 C16.635346,19.0495595 17.26633,19.0473785 17.6568542,18.6568542 C18.0501012,18.2636073 18.0471026,17.632889 17.6562379,17.2420243 L13.4142136,13 L17.6562379,8.75797567 C18.0495595,8.36465403 18.0473785,7.73367004 17.6568542,7.34314575 C17.2636073,6.9498988 16.632889,6.95289741 16.2420243,7.34376211 L12,11.5857864 L12,11.5857864 Z" id="Combined-Shape"></path>
                    </g>
                </g>
            </g>
        </g>
    </g>
</svg>