<?xml version="1.0" encoding="UTF-8"?>
<svg width="30px" height="31px" viewBox="0 0 30 31" version="1.1" xmlns="http://www.w3.org/2000/svg" xmlns:xlink="http://www.w3.org/1999/xlink">
    <!-- Generator: Sketch 41.2 (35397) - http://www.bohemiancoding.com/sketch -->
    <title>mask</title>
    <desc>Created with Sketch.</desc>
    <defs></defs>
    <g id="Page-1" stroke="none" stroke-width="1" fill="none" fill-rule="evenodd">
        <g id="Artboard" transform="translate(-91.000000, -336.000000)" fill="#4360DF">
            <path d="M100.72973,349.390702 C99.6730076,349.384861 98.6179135,349.473957 97.5772973,349.656903 C98.4335082,341.88465 105.032951,335.999549 112.891892,336 C117.703243,336 121,338.311913 121,343.098685 C121,347.885458 117.043243,350.197371 111.27027,350.197371 C107.008649,350.197371 104.991351,349.390702 100.72973,349.390702 Z M100.72973,352.179198 C94.9567568,352.179198 91,354.491111 91,359.277884 C91,364.064656 94.2967568,366.376569 99.1081081,366.376569 C106.967049,366.377021 113.566492,360.491919 114.422703,352.719666 C113.382086,352.902613 112.326992,352.991708 111.27027,352.985867 C107.008649,352.985867 104.991351,352.179198 100.72973,352.179198 Z" id="mask"></path>
        </g>
    </g>
</svg>