<?xml version="1.0" encoding="UTF-8" standalone="no"?>
<svg width="110px" height="20px" viewBox="0 0 110 20" version="1.1" xmlns="http://www.w3.org/2000/svg" xmlns:xlink="http://www.w3.org/1999/xlink" xmlns:sketch="http://www.bohemiancoding.com/sketch/ns">
    <!-- Generator: Sketch 3.4.4 (17249) - http://www.bohemiancoding.com/sketch -->
    <title>Shape Copy</title>
    <desc>Created with Sketch.</desc>
    <defs></defs>
    <g id="Page-1" stroke="none" stroke-width="1" fill="none" fill-rule="evenodd" sketch:type="MSPage">
        <g id="Desktop-HD-Copy-5" sketch:type="MSArtboardGroup" transform="translate(-71.000000, -30.000000)" fill="#6C4499">
            <g id="header" sketch:type="MSLayerGroup">
                <path d="M86.0870406,42.3942478 C86.0870406,46.4754857 82.9905811,49.5425111 79.3037591,49.5425111 C77.8118745,49.5425111 76.5731225,49.1489362 75.5597511,48.5022286 C75.5597511,48.5022286 73.2891262,49.2061223 71,49.2061223 L71,30.7047347 C73.2899672,30.7047347 75.5597511,30 75.5597511,30 L75.5597511,36.3426121 C76.5731225,35.6950635 77.8118745,35.3014885 79.3037591,35.3014885 C82.9905811,35.3014885 86.0870406,38.3416029 86.0870406,42.3942478 L86.0870406,42.3942478 Z M81.6113868,42.3942478 C81.6113868,40.5356993 80.2607855,39.0169035 78.403078,39.0169035 C77.3897065,39.0169035 76.4049281,39.3263813 75.560592,40.3120007 L75.560592,44.5336809 C76.4040871,45.5193003 77.3897065,45.800185 78.403078,45.800185 C80.2616264,45.800185 81.6113868,44.3083004 81.6113868,42.3942478 L81.6113868,42.3942478 Z M141.024388,42.3942478 C141.024388,46.4754857 137.927929,49.5425111 134.241107,49.5425111 C132.749222,49.5425111 131.51047,49.1489362 130.497099,48.5022286 C130.497099,48.5022286 128.226474,49.2061223 125.937348,49.2061223 L125.937348,30.7047347 C128.227315,30.7047347 130.497099,30 130.497099,30 L130.497099,36.3426121 C131.51047,35.6950635 132.749222,35.3014885 134.241107,35.3014885 C137.927929,35.3014885 141.024388,38.3416029 141.024388,42.3942478 L141.024388,42.3942478 Z M136.548734,42.3942478 C136.548734,40.5356993 135.198133,39.0169035 133.340426,39.0169035 C132.322849,39.0169035 131.338912,39.3263813 130.48953,40.3120007 L130.48953,44.5336809 C131.330502,45.5193003 132.314439,45.800185 133.332016,45.800185 C135.190564,45.800185 136.53612,44.3083004 136.53612,42.3942478 L136.548734,42.3942478 Z M156.202254,42.3664957 C156.202254,46.5326718 153.107476,49.6282903 148.801699,49.6282903 C144.495921,49.6282903 141.39778,46.5318308 141.39778,42.3664957 C141.39778,38.2575057 144.494239,35.2451434 148.800858,35.2451434 C153.106635,35.2451434 156.203095,38.2558237 156.203095,42.3597679 L156.202254,42.3664957 Z M151.896476,42.3942478 C151.896476,40.6197965 150.657724,39.1859389 148.826928,39.1859389 C146.970902,39.1859389 145.73215,40.6214784 145.73215,42.3942478 C145.73215,44.2242032 146.970902,45.6874947 148.826928,45.6874947 C150.657724,45.6874947 151.896476,44.2242032 151.896476,42.3942478 L151.896476,42.3942478 Z M161.332184,35.5546211 L161.332184,37.0179127 C162.543184,35.9767892 164.006475,35.3292406 166.033218,35.3292406 L166.033218,39.6602472 C163.810529,39.7443445 162.402742,40.333025 161.332184,41.4010596 L161.332184,49.1968716 L156.774115,49.1968716 L156.774115,36.255151 C159.063241,36.255151 161.332184,35.5520982 161.332184,35.5520982 L161.332184,35.5546211 Z M107.025566,36.3703641 C104.735598,36.3703641 102.465814,35.6673114 102.465814,35.6673114 L102.465814,49.2069632 L107.025566,49.2069632 L107.025566,40.4852409 C107.700866,39.6123118 108.377008,39.274241 109.080061,39.274241 C110.576991,39.274241 111.535699,40.2035153 111.535699,42.146161 L111.535699,49.2103271 L116.093768,49.2103271 L116.093768,41.4145152 C116.093768,41.0756034 116.068539,40.7383736 116.04331,40.4003027 C116.724498,39.5845598 117.422504,39.2734001 118.128921,39.2734001 C119.651081,39.2734001 120.57615,40.1984694 120.57615,42.1411151 L120.57615,49.2052813 L125.159448,49.2052813 L125.159448,41.4094693 C125.159448,37.5241779 122.737448,35.1274073 119.474476,35.1274073 C117.447734,35.1274073 116.068539,35.6908586 114.630477,36.9523169 C113.62131,35.770751 112.158019,35.1232024 110.440754,35.1232024 C108.918594,35.1232024 107.96325,35.5731225 107.034816,36.3611134 L107.025566,36.3703641 Z M101.547473,49.2061223 C99.2575057,49.2061223 96.9877218,48.4458834 96.9877218,48.4458834 C95.9743503,49.093432 94.7355984,49.487007 93.2453957,49.487007 C89.5568918,49.487007 86.4612732,46.4191405 86.4612732,42.3656547 C86.4612732,38.2844168 89.5577327,35.2443024 93.2445547,35.2443024 C94.7414852,35.2443024 95.9777142,35.6395593 96.9952906,36.285426 C99.2659154,36.285426 101.55336,35.5537802 101.55336,35.5537802 L101.55336,49.2061223 L101.547473,49.2061223 Z M96.9877218,44.4773358 L96.9877218,40.2556555 C96.1433858,39.2717181 95.1577664,38.9605584 94.1452359,38.9605584 C92.2866874,38.9605584 90.9360861,40.4801951 90.9360861,42.3664957 C90.9360861,44.2527962 92.2875284,45.7438399 94.1452359,45.7438399 C95.1577664,45.7438399 96.1425448,45.4629552 96.9877218,44.4773358 L96.9877218,44.4773358 Z M180.990749,49.2061223 C178.700782,49.2061223 176.430998,48.4458834 176.430998,48.4458834 C175.417627,49.093432 174.178875,49.487007 172.688672,49.487007 C169.000168,49.487007 165.90455,46.4191405 165.90455,42.3656547 C165.90455,38.2844168 169.007737,35.2443024 172.691195,35.2443024 C174.188125,35.2443024 175.424355,35.6395593 176.433521,36.285426 C178.704146,36.285426 181,35.5537802 181,35.5537802 L181,49.2061223 L180.990749,49.2061223 Z M176.430998,44.4773358 L176.430998,40.2556555 C175.586662,39.2717181 174.601043,38.9605584 173.588512,38.9605584 C171.729964,38.9605584 170.379363,40.4801951 170.379363,42.3664957 C170.379363,44.2527962 171.730805,45.7438399 173.588512,45.7438399 C174.601043,45.7438399 175.586662,45.4629552 176.430998,44.4773358 L176.430998,44.4773358 Z" id="Shape-Copy" sketch:type="MSShapeGroup"></path>
            </g>
        </g>
    </g>
</svg>