<?xml version="1.0" encoding="UTF-8" standalone="no"?>
<svg width="17px" height="18px" viewBox="0 0 17 18" version="1.1" xmlns="http://www.w3.org/2000/svg" xmlns:xlink="http://www.w3.org/1999/xlink" xmlns:sketch="http://www.bohemiancoding.com/sketch/ns">
    <!-- Generator: Sketch 3.5.1 (25234) - http://www.bohemiancoding.com/sketch -->
    <title>Path</title>
    <desc>Created with Sketch.</desc>
    <defs></defs>
    <g id="Page-1" stroke="none" stroke-width="1" fill="none" fill-rule="evenodd" sketch:type="MSPage">
        <path d="M4.1653568,12.0902202 C3.28820019,10.9202927 2.76843259,9.46796607 2.76819854,7.89697733 C2.7676225,4.03040805 5.90949695,0.896402466 9.76819854,0.896977332 C13.6347678,0.897553369 16.7697097,4.04036175 16.7702846,7.89906335 C16.7708606,11.7656326 13.6289862,14.8996382 9.77028456,14.8990633 C8.19906496,14.8988293 6.74865795,14.3797229 5.58029132,13.5045556 L1.99127812,17.0935688 L0.576643114,15.6789338 L4.1653568,12.0902202 L4.1653568,12.0902202 Z M9.76998656,12.8987653 C7.01121413,12.8983543 4.76890728,10.6543074 4.76849654,7.89727533 C4.76808554,5.13850291 7.01146445,2.89686459 9.76849654,2.89727533 C12.527269,2.89768633 14.7695758,5.14173325 14.7699866,7.89876535 C14.7703976,10.6575378 12.5270187,12.8991761 9.76998656,12.8987653 L9.76998656,12.8987653 Z" id="Path" fill="#6674A6" sketch:type="MSShapeGroup"></path>
    </g>
</svg>