<svg width="20px" height="20px"><g><rect opacity="0" x="0" y="0" width="20" height="20"></rect><path d="M10,16 L10,16 C13.3137085,16 16,13.3137085 16,10 C16,6.6862915 13.3137085,4 10,4 C6.6862915,4 4,6.6862915 4,10 C4,13.3137085 6.6862915,16 10,16 L10,16 Z M10,18 L10,18 C5.581722,18 2,14.418278 2,10 C2,5.581722 5.581722,2 10,2 C14.418278,2 18,5.581722 18,10 C18,14.418278 14.418278,18 10,18 L10,18 Z"></path><path d="M3.86838715,5.93930621 L15.1232051,15.3510708 L16.4062067,13.8168261 L5.1513888,4.40506152 L3.86838715,5.93930621 L3.86838715,5.93930621 Z"></path></g></svg>
