<?xml version="1.0" encoding="UTF-8" standalone="no"?>
<svg width="17px" height="17px" viewBox="0 0 17 17" version="1.1" xmlns="http://www.w3.org/2000/svg" xmlns:xlink="http://www.w3.org/1999/xlink" xmlns:sketch="http://www.bohemiancoding.com/sketch/ns">
    <!-- Generator: Sketch 3.5.1 (25234) - http://www.bohemiancoding.com/sketch -->
    <title>Path Copy</title>
    <desc>Created with Sketch.</desc>
    <defs></defs>
    <g id="Page-1" stroke="none" stroke-width="1" fill="none" fill-rule="evenodd" sketch:type="MSPage">
        <path d="M4.07388711,11.1932428 C3.1967305,10.0233154 2.6769629,8.57098874 2.67672886,7 C2.67615282,3.13343071 5.81802726,-0.000574865371 9.67672886,0 C13.5432981,0.000576037491 16.67824,3.14338442 16.6788149,7.00208602 C16.6793909,10.8686553 13.5375165,14.0026609 9.67881487,14.002086 C8.10759528,14.0018519 6.65718826,13.4827456 5.48882164,12.6075783 L1.89980843,16.1965915 L0.485173428,14.7819565 L4.07388711,11.1932428 L4.07388711,11.1932428 Z M9.67851687,12.001788 C6.91974444,12.001377 4.6774376,9.7573301 4.67702686,7.000298 C4.67661586,4.24152557 6.91999476,1.99988726 9.67702686,2.000298 C12.4357993,2.000709 14.6781061,4.24475592 14.6785169,7.00178801 C14.6789279,9.76056044 12.435549,12.0021988 9.67851687,12.001788 L9.67851687,12.001788 Z" id="Path-Copy" fill="#FFFFFF" sketch:type="MSShapeGroup"></path>
    </g>
</svg>