<svg width="20px" height="20px"><g><rect opacity="0" x="0" y="0" width="20" height="20"></rect><path d="M13.7071068,5.70710678 L12.2928932,4.29289322 L6.58578644,10 L12.2928932,15.7071068 L13.7071068,14.2928932 L10.4148002,11 L12.7583723,11 C14.6688315,11 16.008569,11.7313614 16.9421073,12.9720839 C17.2740931,13.413311 17.5299517,13.8901876 17.7168604,14.3662589 C17.82638,14.6452142 18.1151832,15.9278658 18.1151832,15.9278658 L20.0714205,15.5117699 L19.8633725,14.5336513 C19.7095657,13.8105421 19.3098639,12.7924697 18.5402528,11.7696153 C17.2439626,10.0467758 15.326436,9 12.7583723,9 L10.4147999,9 L13.7071068,5.70710678 Z"></path><path d="M3.22393808,9.99999981 L7.70710678,5.70710678 L6.29289322,4.29289322 L0.585786438,10 L6.29289322,15.7071068 L7.70710678,14.2928932 L3.22393808,9.99999981 Z"></path></g></svg>
