<?xml version="1.0" encoding="UTF-8" standalone="no"?>
<svg width="16px" height="16px" viewBox="0 0 16 16" version="1.1" xmlns="http://www.w3.org/2000/svg" xmlns:xlink="http://www.w3.org/1999/xlink" xmlns:sketch="http://www.bohemiancoding.com/sketch/ns">
    <!-- Generator: Sketch 3.5.1 (25234) - http://www.bohemiancoding.com/sketch -->
    <title>icon_spam</title>
    <desc>Created with Sketch.</desc>
    <defs></defs>
    <g id="Page-1" stroke="none" stroke-width="1" fill="none" fill-rule="evenodd" sketch:type="MSPage">
        <g id="icon_spam" sketch:type="MSLayerGroup" transform="translate(-2.000000, -2.000000)">
            <rect id="Rectangle-11" opacity="0" sketch:type="MSShapeGroup" x="0" y="0" width="20" height="20"></rect>
            <path d="M10,16 L10,16 C13.3137085,16 16,13.3137085 16,10 C16,6.6862915 13.3137085,4 10,4 C6.6862915,4 4,6.6862915 4,10 C4,13.3137085 6.6862915,16 10,16 L10,16 Z M10,18 L10,18 C5.581722,18 2,14.418278 2,10 C2,5.581722 5.581722,2 10,2 C14.418278,2 18,5.581722 18,10 C18,14.418278 14.418278,18 10,18 L10,18 Z" id="Shape" fill="#000000" sketch:type="MSShapeGroup"></path>
            <path d="M3.86838715,5.93930621 L15.1232051,15.3510708 L16.4062067,13.8168261 L5.1513888,4.40506152 L3.86838715,5.93930621 L3.86838715,5.93930621 Z" id="Shape" fill="#000000" sketch:type="MSShapeGroup"></path>
        </g>
    </g>
</svg>