<?xml version="1.0" encoding="UTF-8" standalone="no"?>
<svg width="160px" height="25px" viewBox="0 0 160 25" version="1.1" xmlns="http://www.w3.org/2000/svg" xmlns:xlink="http://www.w3.org/1999/xlink" xmlns:sketch="http://www.bohemiancoding.com/sketch/ns">
    <!-- Generator: Sketch 3.5.1 (25234) - http://www.bohemiancoding.com/sketch -->
    <title>Pochta Copy</title>
    <desc>Created with Sketch.</desc>
    <defs></defs>
    <g id="Rambler-Projects" stroke="none" stroke-width="1" fill="none" fill-rule="evenodd" sketch:type="MSPage">
        <g id="r-logo" sketch:type="MSArtboardGroup" transform="translate(-110.000000, -457.000000)" fill="#315EFB">
            <g id="Pochta-Copy" sketch:type="MSLayerGroup" transform="translate(110.000000, 457.000000)">
                <g id="Group" sketch:type="MSShapeGroup">
                    <path d="M71.875,10.859375 C71.953125,10 72.8125,8.359375 74.84375,8.359375 C77.109375,8.359375 77.5,10.15625 77.578125,10.859375 L71.875,10.859375 L71.875,10.859375 Z M74.921875,5.859375 C71.09375,5.859375 68.515625,8.671875 68.515625,12.265625 C68.515625,15.9375 71.09375,18.671875 75,18.671875 C78.90625,18.671875 80.546875,15.9375 80.546875,15.9375 L78.046875,14.296875 C78.046875,14.296875 77.1875,16.015625 75,16.015625 C72.734375,16.015625 71.796875,14.0625 71.796875,13.359375 L80.78125,13.359375 C80.78125,13.359375 80.859375,12.8125 80.859375,12.65625 L80.859375,12.265625 C80.859375,8.59375 78.671875,5.859375 74.921875,5.859375 L74.921875,5.859375 Z" id="Shape"></path>
                    <path d="M92.890625,12.1875 C92.890625,14.21875 91.71875,15.9375 89.453125,15.9375 C87.1875,15.9375 85.9375,14.0625 85.9375,12.1875 C85.9375,10.3125 87.1875,8.4375 89.453125,8.4375 C91.640625,8.515625 92.890625,10.15625 92.890625,12.1875 M89.84375,5.859375 C87.65625,5.859375 86.40625,7.03125 86.015625,7.5 L86.015625,6.171875 L82.734375,6.171875 L82.734375,24.21875 L86.09375,24.21875 L86.09375,17.1875 C86.484375,17.578125 87.8125,18.671875 89.84375,18.671875 C92.96875,18.671875 95.859375,16.328125 95.859375,12.265625 C95.9375,7.96875 92.734375,5.859375 89.84375,5.859375" id="Shape"></path>
                    <path d="M20.390625,13.28125 C20.390625,14.921875 19.453125,16.09375 17.65625,16.09375 C15.9375,16.09375 15.78125,15.078125 15.78125,14.6875 C15.78125,13.75 16.5625,13.203125 18.515625,12.96875 C19.0625,12.890625 19.609375,12.890625 20.15625,12.890625 L20.390625,12.890625 L20.390625,13.28125 L20.390625,13.28125 Z M23.515625,15.625 L23.515625,11.953125 L23.515625,11.25 C23.359375,7.421875 21.71875,5.859375 18.28125,5.859375 C15.9375,5.859375 14.375,6.796875 13.828125,7.1875 L14.765625,9.6875 C14.765625,9.6875 16.171875,8.4375 17.96875,8.4375 C20.546875,8.4375 20.234375,10.546875 20.234375,10.546875 C19.375,10.546875 12.421875,10.15625 12.421875,14.6875 C12.421875,17.1875 14.53125,18.59375 16.796875,18.59375 C18.828125,18.59375 20,17.578125 20.3125,17.1875 C20.3125,17.265625 20.390625,18.359375 20.390625,18.359375 L23.515625,18.359375 C23.671875,18.359375 23.515625,17.265625 23.515625,15.625 L23.515625,15.625 Z" id="Shape"></path>
                    <path d="M33.515625,11.328125 L29.296875,6.25 L29.21875,6.09375 L26.328125,6.09375 L26.328125,18.359375 L29.6875,18.359375 L29.6875,11.25 L32.96875,15.390625 L33.046875,15.46875 L33.90625,15.46875 L37.265625,11.171875 L37.265625,18.359375 L40.625,18.359375 L40.625,6.09375 L37.734375,6.09375 L33.515625,11.328125 Z" id="Shape"></path>
                    <path d="M106.09375,0.703125 L97.5,24.140625 L101.015625,24.140625 L109.609375,0.703125 L106.09375,0.703125 Z" id="Shape"></path>
                    <path d="M8.59375,6.484375 C8.59375,8.515625 6.640625,9.21875 5.3125,9.21875 L3.59375,9.21875 L3.59375,3.671875 L5.3125,3.671875 C6.640625,3.671875 8.59375,4.453125 8.59375,6.484375 M5.625,0.703125 L0.15625,0.703125 L0.15625,18.359375 L3.671875,18.359375 L3.671875,12.109375 L5.546875,12.109375 C9.140625,12.109375 12.109375,10.234375 12.109375,6.40625 C12.109375,2.65625 9.140625,0.703125 5.625,0.703125" id="Shape"></path>
                    <path d="M52.265625,12.5 C52.265625,13.90625 51.484375,15.9375 49.21875,15.9375 C46.953125,15.9375 46.015625,14.140625 46.015625,12.421875 C46.015625,10.703125 46.953125,9.140625 49.21875,9.140625 C51.484375,9.140625 52.265625,11.09375 52.265625,12.5 M49.53125,6.09375 C47.890625,6.09375 46.71875,6.875 46.40625,7.109375 C46.484375,6.71875 46.875,3.4375 51.25,3.4375 L53.984375,3.4375 L55,0.703125 L51.328125,0.703125 C46.484375,0.703125 42.734375,2.96875 42.734375,10.859375 C42.734375,15.15625 44.609375,18.671875 49.140625,18.671875 C53.4375,18.671875 55.625,15.546875 55.625,12.421875 C55.625,7.96875 52.265625,6.09375 49.53125,6.09375" id="Shape"></path>
                    <path d="M64.6875,18.359375 L68.28125,18.359375 L63.828125,6.09375 L60.3125,6.09375 L55.78125,18.359375 L59.453125,18.359375 L62.03125,10.546875 L62.109375,10.546875 L64.6875,18.359375 Z" id="Shape"></path>
                </g>
                <g id="Group" transform="translate(113.281250, 7.031250)" sketch:type="MSShapeGroup">
                    <path d="M0,0.703125 L7.03125,0.703125 L7.03125,10.15625 L5.234375,10.15625 L5.234375,2.5 L1.875,2.5 L1.875,10.15625 L0,10.15625 L0,0.703125 L0,0.703125 Z" id="Shape"></path>
                    <path d="M17.65625,1.953125 C18.59375,2.890625 19.0625,4.0625 19.0625,5.390625 C19.0625,6.796875 18.59375,7.890625 17.65625,8.828125 C16.71875,9.765625 15.625,10.234375 14.21875,10.234375 C12.890625,10.234375 11.796875,9.765625 10.859375,8.828125 C9.921875,7.890625 9.453125,6.71875 9.453125,5.390625 C9.453125,4.0625 9.921875,2.890625 10.859375,1.953125 C11.796875,1.015625 12.890625,0.546875 14.21875,0.546875 C15.625,0.546875 16.796875,1.015625 17.65625,1.953125 L17.65625,1.953125 Z M12.1875,3.28125 C11.640625,3.90625 11.328125,4.609375 11.328125,5.46875 C11.328125,6.328125 11.640625,7.03125 12.1875,7.65625 C12.734375,8.28125 13.4375,8.515625 14.296875,8.515625 C15.15625,8.515625 15.859375,8.203125 16.40625,7.65625 C16.953125,7.03125 17.265625,6.328125 17.265625,5.46875 C17.265625,4.609375 16.953125,3.90625 16.40625,3.28125 C15.859375,2.65625 15.15625,2.34375 14.296875,2.34375 C13.4375,2.34375 12.734375,2.65625 12.1875,3.28125 L12.1875,3.28125 Z" id="Shape"></path>
                    <path d="M27.96875,10.15625 L26.171875,10.15625 L26.171875,6.640625 C25.390625,6.796875 24.609375,6.875 23.984375,6.875 C22.265625,6.875 21.484375,5.9375 21.484375,3.984375 L21.484375,0.703125 L23.28125,0.703125 L23.28125,3.828125 C23.28125,4.765625 23.671875,5.234375 24.375,5.234375 C24.921875,5.234375 25.546875,5.15625 26.171875,5 L26.171875,0.703125 L27.96875,0.703125 L27.96875,10.15625 L27.96875,10.15625 Z" id="Shape"></path>
                    <path d="M34.140625,2.5 L34.140625,10.15625 L32.34375,10.15625 L32.34375,2.5 L30.15625,2.5 L30.15625,0.703125 L36.328125,0.703125 L36.328125,2.5 L34.140625,2.5 L34.140625,2.5 Z" id="Shape"></path>
                    <path d="M40.9375,0.703125 L42.109375,0.703125 L46.328125,10.15625 L44.296875,10.15625 L43.4375,8.125 L39.609375,8.125 L38.75,10.15625 L36.71875,10.15625 L40.9375,0.703125 L40.9375,0.703125 Z M42.65625,6.40625 L41.953125,4.765625 C41.796875,4.53125 41.71875,4.140625 41.5625,3.75 L41.484375,3.75 L41.328125,4.21875 C41.25,4.453125 41.171875,4.6875 41.09375,4.765625 L40.390625,6.40625 L42.65625,6.40625 L42.65625,6.40625 Z" id="Shape"></path>
                </g>
            </g>
        </g>
    </g>
</svg>