<?xml version="1.0" encoding="UTF-8" standalone="no"?>
<svg width="19px" height="18px" viewBox="0 0 19 18" version="1.1" xmlns="http://www.w3.org/2000/svg" xmlns:xlink="http://www.w3.org/1999/xlink" xmlns:sketch="http://www.bohemiancoding.com/sketch/ns">
    <!-- Generator: Sketch 3.5.1 (25234) - http://www.bohemiancoding.com/sketch -->
    <title>Shape</title>
    <desc>Created with Sketch.</desc>
    <defs></defs>
    <g id="Page-1" stroke="none" stroke-width="1" fill="none" fill-rule="evenodd" sketch:type="MSPage">
        <path d="M11.521214,13.0526316 C7.91682933,13.0526316 4.99489822,10.1307005 4.99489822,6.52631579 C4.99489822,2.92193111 7.91682933,0 11.521214,0 C15.1255987,0 18.0475298,2.92193111 18.0475298,6.52631579 C18.0475298,10.1307005 15.1255987,13.0526316 11.521214,13.0526316 L11.521214,13.0526316 L11.521214,13.0526316 L11.521214,13.0526316 Z M16.0475298,6.52631579 C16.0475298,4.02650061 14.0210292,2 11.521214,2 C9.02139883,2 6.99489822,4.02650061 6.99489822,6.52631579 C6.99489822,9.02613097 9.02139883,11.0526316 11.521214,11.0526316 C14.0210292,11.0526316 16.0475298,9.02613097 16.0475298,6.52631579 Z M7.75551332,11.8730437 L1.87536219,17.7531948 L0.344664241,16.2224968 L6.22481537,10.3423457 L7.75551332,11.8730437 Z" id="Shape" fill="#CED4E4" sketch:type="MSShapeGroup"></path>
    </g>
</svg>