<svg width="24" height="24" viewBox="0 0 24 24" xmlns="http://www.w3.org/2000/svg"><title>cart_icon</title><path d="M8.217 8.504l1.863 5.374 7.728-.99.912-4.384H8.217zM4.37 5.161l.132.387h.09a1.216 1.216 0 0 1-.222-.387zm16.47 1.633c.137.183.19.423.143.652l-1.396 6.708a.747.747 0 0 1-.623.602l-9.672 1.239a.73.73 0 0 1-.767-.5l-3.45-9.947h-1.35c-.4 0-.725-.346-.725-.774C3 4.347 3.325 4 3.725 4H5.58c.304 0 .575.202.68.506l.682 1.998h13.17c.383 0 .59.106.729.29zM17.013 17A2.015 2.015 0 0 0 15 19.015c0 1.094.902 1.985 2.013 1.985A1.988 1.988 0 0 0 19 19.015c0-1.13-.873-2.015-1.987-2.015zm-9.028 0C6.89 17 6 17.904 6 19.015 6 20.109 6.89 21 7.985 21 9.115 21 10 20.127 10 19.015 10 17.885 9.115 17 7.985 17z" fill="#333" fill-rule="evenodd"/></svg>