<svg width="110" height="20" viewBox="0 0 110 20" xmlns="http://www.w3.org/2000/svg"><title>Shape Copy</title><path d="M15.087 12.394c0 4.08-3.096 7.15-6.783 7.15-1.492 0-2.73-.395-3.744-1.042 0 0-2.27.704-4.56.704V.706C2.29.705 4.56 0 4.56 0v6.343C5.573 5.695 6.812 5.3 8.304 5.3c3.687 0 6.783 3.042 6.783 7.094zm-4.476 0c0-1.858-1.35-3.377-3.207-3.377-1.013 0-1.998.31-2.842 1.295v4.222c.844.985 1.83 1.266 2.843 1.266 1.86 0 3.208-1.492 3.208-3.406zm59.414 0c0 4.08-3.096 7.15-6.783 7.15-1.49 0-2.73-.395-3.743-1.042 0 0-2.27.704-4.56.704V.706c2.29 0 4.56-.706 4.56-.706v6.343C60.51 5.695 61.75 5.3 63.24 5.3c3.688 0 6.784 3.042 6.784 7.094zm-4.475 0c0-1.858-1.352-3.377-3.21-3.377-1.017 0-2 .31-2.85 1.295v4.222c.84.985 1.824 1.266 2.842 1.266 1.86 0 3.204-1.492 3.204-3.406h.013zm19.652-.028c0 4.167-3.095 7.262-7.4 7.262-4.306 0-7.404-3.096-7.404-7.262 0-4.108 3.096-7.12 7.403-7.12 4.307 0 7.403 3.01 7.403 7.114v.006zm-4.306.028c0-1.774-1.238-3.208-3.07-3.208-1.855 0-3.094 1.435-3.094 3.208 0 1.83 1.24 3.293 3.095 3.293 1.83 0 3.07-1.463 3.07-3.293zm9.436-6.84V7.02c1.21-1.04 2.674-1.69 4.7-1.69V9.66c-2.22.084-3.63.673-4.7 1.74v7.797h-4.558V6.255c2.29 0 4.558-.703 4.558-.703v.003zm-54.306.816c-2.29 0-4.56-.703-4.56-.703v13.54h4.56v-8.722c.675-.873 1.35-1.21 2.054-1.21 1.497 0 2.456.93 2.456 2.87v7.065h4.558v-7.795c0-.34-.025-.677-.05-1.015.68-.815 1.38-1.127 2.085-1.127 1.52 0 2.446.925 2.446 2.868v7.065h4.583V11.41c0-3.886-2.423-6.283-5.686-6.283-2.026 0-3.405.564-4.844 1.825-1.01-1.18-2.472-1.83-4.19-1.83-1.52 0-2.477.45-3.405 1.24l-.01.008zm-5.48 12.836c-2.288 0-4.558-.76-4.558-.76-1.014.647-2.252 1.04-3.743 1.04-3.688 0-6.784-3.067-6.784-7.12 0-4.082 3.098-7.122 6.785-7.122 1.496 0 2.733.396 3.75 1.04 2.27 0 4.558-.73 4.558-.73v13.652h-.006zm-4.558-4.73v-4.22c-.845-.984-1.83-1.295-2.843-1.295-1.858 0-3.21 1.52-3.21 3.406 0 1.887 1.353 3.378 3.21 3.378 1.013 0 1.998-.28 2.843-1.267zm84.003 4.73c-2.29 0-4.56-.76-4.56-.76-1.012.647-2.25 1.04-3.74 1.04-3.69 0-6.785-3.067-6.785-7.12 0-4.082 3.103-7.122 6.786-7.122 1.498 0 2.734.396 3.744 1.04 2.27 0 4.566-.73 4.566-.73v13.652h-.01zm-4.56-4.73v-4.22c-.843-.984-1.83-1.295-2.84-1.295-1.86 0-3.21 1.52-3.21 3.406 0 1.887 1.35 3.378 3.21 3.378 1.01 0 1.997-.28 2.84-1.267z" fill="#6C4499" fill-rule="evenodd"/></svg>