<?xml version="1.0" encoding="UTF-8" standalone="no"?>
<svg width="110px" height="20px" viewBox="0 0 110 20" version="1.1" xmlns="http://www.w3.org/2000/svg" xmlns:xlink="http://www.w3.org/1999/xlink" xmlns:sketch="http://www.bohemiancoding.com/sketch/ns">
    <!-- Generator: Sketch 3.4.4 (17249) - http://www.bohemiancoding.com/sketch -->
    <title>Shape Copy</title>
    <desc>Created with Sketch.</desc>
    <defs></defs>
    <g id="Page-1" stroke="none" stroke-width="1" fill="none" fill-rule="evenodd" sketch:type="MSPage">
        <g id="Desktop-HD-Copy-9" sketch:type="MSArtboardGroup" transform="translate(-71.000000, -2240.000000)" fill="#FFFFFF">
            <g id="footer" sketch:type="MSLayerGroup" transform="translate(-2.000000, 2180.000000)">
                <g id="Group" transform="translate(70.000000, 60.000000)" sketch:type="MSShapeGroup">
                    <g id="Shape-Copy-+-Bambora-ONE-+-Bambora-Enterprise-+-Bambora-On-Mobile-+-Corporate-informatio-+-Partners-+-Bambora-Growth-Capit" transform="translate(3.000000, 0.000000)">
                        <path d="M15.0870406,12.3942478 C15.0870406,16.4754857 11.9905811,19.5425111 8.30375915,19.5425111 C6.81187453,19.5425111 5.57312253,19.1489362 4.55975107,18.5022286 C4.55975107,18.5022286 2.28912623,19.2061223 0,19.2061223 L0,0.704734673 C2.2899672,0.704734673 4.55975107,0 4.55975107,0 L4.55975107,6.34261206 C5.57312253,5.69506349 6.81187453,5.30148852 8.30375915,5.30148852 C11.9905811,5.30148852 15.0870406,8.34160289 15.0870406,12.3942478 L15.0870406,12.3942478 Z M10.6113868,12.3942478 C10.6113868,10.5356993 9.26078547,9.01690354 7.40307796,9.01690354 C6.3897065,9.01690354 5.4049281,9.3263813 4.56059204,10.3120007 L4.56059204,14.5336809 C5.40408712,15.5193003 6.3897065,15.800185 7.40307796,15.800185 C9.26162644,15.800185 10.6113868,14.3083004 10.6113868,12.3942478 L10.6113868,12.3942478 Z M70.0243882,12.3942478 C70.0243882,16.4754857 66.9279287,19.5425111 63.2411067,19.5425111 C61.7492221,19.5425111 60.5104701,19.1489362 59.4970986,18.5022286 C59.4970986,18.5022286 57.2264738,19.2061223 54.9373476,19.2061223 L54.9373476,0.704734673 C57.2273148,0.704734673 59.4970986,0 59.4970986,0 L59.4970986,6.34261206 C60.5104701,5.69506349 61.7492221,5.30148852 63.2411067,5.30148852 C66.9279287,5.30148852 70.0243882,8.34160289 70.0243882,12.3942478 L70.0243882,12.3942478 Z M65.5487343,12.3942478 C65.5487343,10.5356993 64.198133,9.01690354 62.3404255,9.01690354 C61.3228492,9.01690354 60.3389118,9.3263813 59.4895299,10.3120007 L59.4895299,14.5336809 C60.3305021,15.5193003 61.3144395,15.800185 62.3320158,15.800185 C64.1905643,15.800185 65.5361198,14.3083004 65.5361198,12.3942478 L65.5487343,12.3942478 Z M85.2022538,12.3664957 C85.2022538,16.5326718 82.1074762,19.6282903 77.8016988,19.6282903 C73.4959213,19.6282903 70.3977798,16.5318308 70.3977798,12.3664957 C70.3977798,8.25750568 73.4942393,5.24514339 77.8008578,5.24514339 C82.1066353,5.24514339 85.2030948,8.25582373 85.2030948,12.3597679 L85.2022538,12.3664957 Z M80.8964763,12.3942478 C80.8964763,10.6197965 79.6577243,9.18593895 77.8269279,9.18593895 C75.9709024,9.18593895 74.7321504,10.6214784 74.7321504,12.3942478 C74.7321504,14.2242032 75.9709024,15.6874947 77.8269279,15.6874947 C79.6577243,15.6874947 80.8964763,14.2242032 80.8964763,12.3942478 L80.8964763,12.3942478 Z M90.332184,5.55462114 L90.332184,7.01791271 C91.5431839,5.97678917 93.0064755,5.3292406 95.0332184,5.3292406 L95.0332184,9.66024725 C92.810529,9.74434446 91.4027416,10.333025 90.332184,11.4010596 L90.332184,19.1968716 L85.7741149,19.1968716 L85.7741149,6.25515095 C88.0632411,6.25515095 90.332184,5.55209823 90.332184,5.55209823 L90.332184,5.55462114 Z M36.0255656,6.37036414 C33.7355984,6.37036414 31.4658145,5.66731141 31.4658145,5.66731141 L31.4658145,19.2069632 L36.0255656,19.2069632 L36.0255656,10.4852409 C36.7008662,9.61231183 37.3770078,9.27424102 38.0800605,9.27424102 C39.576991,9.27424102 40.5356993,10.2035153 40.5356993,12.146161 L40.5356993,19.2103271 L45.0937684,19.2103271 L45.0937684,11.4145152 C45.0937684,11.0756034 45.0685392,10.7383736 45.0433101,10.4003027 C45.7244975,9.58455975 46.4225044,9.27340005 47.128921,9.27340005 C48.6510806,9.27340005 49.57615,10.1984694 49.57615,12.1411151 L49.57615,19.2052813 L54.1594483,19.2052813 L54.1594483,11.4094693 C54.1594483,7.52417795 51.7374485,5.12740728 48.4744765,5.12740728 C46.4477336,5.12740728 45.0685392,5.69085863 43.6304768,6.95231688 C42.6213102,5.77075099 41.1580187,5.12320242 39.4407535,5.12320242 C37.9185939,5.12320242 36.9632495,5.57312253 36.0348162,6.36111345 L36.0255656,6.37036414 Z M30.5474729,19.2061223 C28.2575057,19.2061223 25.9877218,18.4458834 25.9877218,18.4458834 C24.9743503,19.093432 23.7355984,19.487007 22.2453957,19.487007 C18.5568918,19.487007 15.4612732,16.4191405 15.4612732,12.3656547 C15.4612732,8.28441679 18.5577327,5.24430241 22.2445547,5.24430241 C23.7414852,5.24430241 24.9777142,5.63955933 25.9952906,6.28542595 C28.2659154,6.28542595 30.5533597,5.55378017 30.5533597,5.55378017 L30.5533597,19.2061223 L30.5474729,19.2061223 Z M25.9877218,14.4773358 L25.9877218,10.2556555 C25.1433858,9.27171811 24.1577664,8.96055841 23.1452359,8.96055841 C21.2866874,8.96055841 19.9360861,10.4801951 19.9360861,12.3664957 C19.9360861,14.2527962 21.2875284,15.7438399 23.1452359,15.7438399 C24.1577664,15.7438399 25.1425448,15.4629552 25.9877218,14.4773358 L25.9877218,14.4773358 Z M109.990749,19.2061223 C107.700782,19.2061223 105.430998,18.4458834 105.430998,18.4458834 C104.417627,19.093432 103.178875,19.487007 101.688672,19.487007 C98.0001682,19.487007 94.9045497,16.4191405 94.9045497,12.3656547 C94.9045497,8.28441679 98.0077369,5.24430241 101.691195,5.24430241 C103.188125,5.24430241 104.424355,5.63955933 105.433521,6.28542595 C107.704146,6.28542595 110,5.55378017 110,5.55378017 L110,19.2061223 L109.990749,19.2061223 Z M105.430998,14.4773358 L105.430998,10.2556555 C104.586662,9.27171811 103.601043,8.96055841 102.588512,8.96055841 C100.729964,8.96055841 99.3793625,10.4801951 99.3793625,12.3664957 C99.3793625,14.2527962 100.730805,15.7438399 102.588512,15.7438399 C103.601043,15.7438399 104.586662,15.4629552 105.430998,14.4773358 L105.430998,14.4773358 Z" id="Shape-Copy"></path>
                    </g>
                </g>
            </g>
        </g>
    </g>
</svg>