<?xml version="1.0" encoding="UTF-8" standalone="no"?>
<svg width="24px" height="24px" viewBox="0 0 24 24" version="1.1" xmlns="http://www.w3.org/2000/svg" xmlns:xlink="http://www.w3.org/1999/xlink" xmlns:sketch="http://www.bohemiancoding.com/sketch/ns">
    <!-- Generator: Sketch 3.4.4 (17249) - http://www.bohemiancoding.com/sketch -->
    <title>Rectangle 75 Copy 5</title>
    <desc>Created with Sketch.</desc>
    <defs>
        <path id="path-1" d="M12,24 C18.627417,24 24,18.627417 24,12 C24,5.372583 18.627417,0 12,0 C5.372583,0 0,5.372583 0,12 C0,18.627417 5.372583,24 12,24 Z"></path>
    </defs>
    <g id="Page-1" stroke="none" stroke-width="1" fill="none" fill-rule="evenodd" sketch:type="MSPage">
        <g id="Desktop-HD-Copy-10" sketch:type="MSArtboardGroup" transform="translate(-906.000000, -131.000000)">
            <g id="sidebar-+-Group" sketch:type="MSLayerGroup" transform="translate(71.000000, 110.000000)">
                <g id="card-copy-3" transform="translate(700.000000, 0.000000)">
                    <g id="Group" transform="translate(30.000000, 21.000000)">
                        <g id="Rectangle-75-Copy-5" transform="translate(105.000000, 0.000000)">
                            <mask id="mask-2" sketch:name="Mask" fill="white">
                                <use xlink:href="#path-1"></use>
                            </mask>
                            <use id="Mask" fill="#F5F5F5" sketch:type="MSShapeGroup" xlink:href="#path-1"></use>
                            <path d="M14.5,9 L10,9 L10,10 L13.3329708,10 L8.22178963,15.1111812 L8.92889641,15.818288 L14,10.7471844 L14,14 L15,14 L15,9 L14.5,9 Z" id="Rectangle-366" opacity="0.3" fill="#343038" sketch:type="MSShapeGroup" mask="url(#mask-2)"></path>
                        </g>
                    </g>
                </g>
            </g>
        </g>
    </g>
</svg>